<svg width="211" height="475" viewBox="0 0 211 475" fill="none" xmlns="http://www.w3.org/2000/svg">
<path d="M201.463 287.948C196.196 287.948 191.926 292.218 191.926 297.485C191.926 302.752 196.196 307.022 201.463 307.022C206.73 307.022 211 302.752 211 297.485C211 292.218 206.73 287.948 201.463 287.948Z" fill="#FCFBF8"/>
<path d="M201.463 263.943C196.196 263.943 191.926 268.213 191.926 273.48C191.926 278.747 196.196 283.017 201.463 283.017C206.73 283.017 211 278.747 211 273.48C211 268.213 206.73 263.943 201.463 263.943Z" fill="#FCFBF8"/>
<path d="M201.463 239.965C196.196 239.965 191.926 244.235 191.926 249.502C191.926 254.77 196.196 259.04 201.463 259.04C206.73 259.04 211 254.77 211 249.502C211 244.235 206.73 239.965 201.463 239.965Z" fill="#FCFBF8"/>
<path d="M201.463 215.96C196.196 215.96 191.926 220.23 191.926 225.498C191.926 230.765 196.196 235.035 201.463 235.035C206.73 235.035 211 230.765 211 225.498C211 220.23 206.73 215.96 201.463 215.96Z" fill="#FCFBF8"/>
<path d="M201.463 191.983C196.196 191.983 191.926 196.253 191.926 201.52C191.926 206.787 196.196 211.057 201.463 211.057C206.73 211.057 211 206.787 211 201.52C211 196.253 206.73 191.983 201.463 191.983Z" fill="#FCFBF8"/>
<path d="M201.463 167.978C196.196 167.978 191.926 172.248 191.926 177.515C191.926 182.782 196.196 187.052 201.463 187.052C206.73 187.052 211 182.782 211 177.515C211 172.248 206.73 167.978 201.463 167.978Z" fill="#FCFBF8"/>
<path d="M177.486 311.926C172.219 311.926 167.949 316.195 167.949 321.463C167.949 326.73 172.219 331 177.486 331C182.753 331 187.023 326.73 187.023 321.463C187.023 316.195 182.753 311.926 177.486 311.926Z" fill="#FCFBF8"/>
<path d="M177.486 144C172.219 144 167.949 148.27 167.949 153.537C167.949 158.805 172.219 163.074 177.486 163.074C182.753 163.074 187.023 158.805 187.023 153.537C187.023 148.27 182.753 144 177.486 144Z" fill="#FCFBF8"/>
<path d="M33.5412 311.926C28.2741 311.926 24.0042 316.195 24.0042 321.463C24.0042 326.73 28.2741 331 33.5412 331C38.8084 331 43.0783 326.73 43.0783 321.463C43.0783 316.195 38.8084 311.926 33.5412 311.926Z" fill="#FCFBF8"/>
<path d="M33.5412 144C28.2741 144 24.0042 148.27 24.0042 153.537C24.0042 158.805 28.2741 163.074 33.5412 163.074C38.8084 163.074 43.0783 158.805 43.0783 153.537C43.0783 148.27 38.8084 144 33.5412 144Z" fill="#FCFBF8"/>
<path d="M9.53703 287.948C4.26988 287.948 4.6048e-07 292.218 0 297.485C-4.6048e-07 302.752 4.26988 307.022 9.53703 307.022C14.8042 307.022 19.0741 302.752 19.0741 297.485C19.0741 292.218 14.8042 287.948 9.53703 287.948Z" fill="#FCFBF8"/>
<path d="M9.53704 263.943C4.26988 263.943 2.55904e-06 268.213 2.09856e-06 273.48C1.63808e-06 278.747 4.26988 283.017 9.53703 283.017C14.8042 283.017 19.0741 278.747 19.0741 273.48C19.0741 268.213 14.8042 263.943 9.53704 263.943Z" fill="#FCFBF8"/>
<path d="M9.53704 239.965C4.26988 239.965 4.65525e-06 244.235 4.19477e-06 249.502C3.73429e-06 254.77 4.26988 259.04 9.53704 259.04C14.8042 259.04 19.0741 254.77 19.0741 249.502C19.0741 244.235 14.8042 239.965 9.53704 239.965Z" fill="#FCFBF8"/>
<path d="M9.53704 215.96C4.26988 215.96 6.75381e-06 220.23 6.29333e-06 225.498C5.83285e-06 230.765 4.26988 235.035 9.53704 235.035C14.8042 235.035 19.0741 230.765 19.0741 225.498C19.0741 220.23 14.8042 215.96 9.53704 215.96Z" fill="#FCFBF8"/>
<path d="M9.53704 191.983C4.26989 191.983 8.85002e-06 196.253 8.38954e-06 201.52C7.92906e-06 206.787 4.26989 211.057 9.53704 211.057C14.8042 211.057 19.0741 206.787 19.0741 201.52C19.0741 196.253 14.8042 191.983 9.53704 191.983Z" fill="#FCFBF8"/>
<path d="M9.53704 167.978C4.26989 167.978 1.09486e-05 172.248 1.04881e-05 177.515C1.00276e-05 182.782 4.26989 187.052 9.53704 187.052C14.8042 187.052 19.0741 182.782 19.0741 177.515C19.0741 172.248 14.8042 167.978 9.53704 167.978Z" fill="#FCFBF8"/>
<path d="M177.464 95.9521C172.198 95.9521 167.928 100.221 167.928 105.488C167.928 110.755 172.197 115.024 177.464 115.024C182.731 115.024 187 110.755 187 105.488C187 100.221 182.731 95.9521 177.464 95.9521Z" fill="#FCFBF8"/>
<path d="M177.464 71.9775C172.198 71.9775 167.928 76.2469 167.928 81.5135C167.928 86.78 172.198 91.0494 177.464 91.0494C182.731 91.0494 187 86.78 187 81.5135C187 76.2469 182.731 71.9775 177.464 71.9775Z" fill="#FCFBF8"/>
<path d="M177.464 47.976C172.198 47.976 167.928 52.2454 167.928 57.512C167.928 62.7785 172.198 67.0479 177.464 67.0479C182.731 67.0479 187 62.7785 187 57.512C187 52.2454 182.731 47.976 177.464 47.976Z" fill="#FCFBF8"/>
<path d="M153.49 95.9521C148.223 95.9521 143.954 100.221 143.954 105.488C143.954 110.755 148.223 115.024 153.49 115.024C158.756 115.024 163.025 110.755 163.025 105.488C163.025 100.221 158.756 95.9521 153.49 95.9521Z" fill="#FCFBF8"/>
<path d="M153.49 71.9775C148.223 71.9775 143.954 76.2469 143.954 81.5135C143.954 86.78 148.223 91.0494 153.49 91.0494C158.756 91.0494 163.025 86.78 163.025 81.5135C163.025 76.2469 158.756 71.9775 153.49 71.9775Z" fill="#FCFBF8"/>
<path d="M153.49 47.976C148.223 47.976 143.954 52.2454 143.954 57.512C143.954 62.7785 148.223 67.0479 153.49 67.0479C158.756 67.0479 163.025 62.7785 163.025 57.512C163.025 52.2454 158.756 47.976 153.49 47.976Z" fill="#FCFBF8"/>
<path d="M129.488 143.928C124.221 143.928 119.952 148.198 119.952 153.464C119.952 158.731 124.221 163 129.488 163C134.755 163 139.024 158.731 139.024 153.464C139.024 148.198 134.755 143.928 129.488 143.928Z" fill="#FCFBF8"/>
<path d="M129.488 119.954C124.221 119.954 119.952 124.223 119.952 129.49C119.952 134.756 124.221 139.025 129.488 139.025C134.755 139.025 139.024 134.756 139.024 129.49C139.024 124.223 134.755 119.954 129.488 119.954Z" fill="#FCFBF8"/>
<path d="M105.513 143.928C100.247 143.928 95.9775 148.197 95.9775 153.464C95.9775 158.731 100.247 163 105.513 163C110.78 163 115.049 158.731 115.049 153.464C115.049 148.198 110.78 143.928 105.513 143.928Z" fill="#FCFBF8"/>
<path d="M105.513 119.954C100.247 119.954 95.9775 124.223 95.9775 129.49C95.9775 134.756 100.247 139.025 105.513 139.025C110.78 139.025 115.049 134.756 115.049 129.49C115.049 124.223 110.78 119.954 105.513 119.954Z" fill="#FCFBF8"/>
<path d="M105.513 71.9775C100.247 71.9775 95.9775 76.2469 95.9775 81.5135C95.9775 86.78 100.247 91.0494 105.513 91.0494C110.78 91.0494 115.049 86.78 115.049 81.5135C115.049 76.2469 110.78 71.9775 105.513 71.9775Z" fill="#FCFBF8"/>
<path d="M81.512 143.928C76.2454 143.928 71.976 148.197 71.976 153.464C71.976 158.731 76.2454 163 81.512 163C86.7785 163 91.0479 158.731 91.0479 153.464C91.0479 148.197 86.7785 143.928 81.512 143.928Z" fill="#FCFBF8"/>
<path d="M81.512 119.954C76.2454 119.954 71.976 124.223 71.976 129.49C71.976 134.756 76.2454 139.025 81.512 139.025C86.7785 139.025 91.0479 134.756 91.0479 129.49C91.0479 124.223 86.7785 119.954 81.512 119.954Z" fill="#FCFBF8"/>
<path d="M129.488 24.0015C124.221 24.0015 119.952 28.2709 119.952 33.5374C119.952 38.804 124.221 43.0734 129.488 43.0734C134.755 43.0734 139.024 38.804 139.024 33.5374C139.024 28.2709 134.755 24.0015 129.488 24.0015Z" fill="#FCFBF8"/>
<path d="M105.513 24.0015C100.247 24.0015 95.9775 28.2709 95.9775 33.5374C95.9775 38.804 100.247 43.0734 105.513 43.0734C110.78 43.0734 115.049 38.804 115.049 33.5374C115.049 28.2709 110.78 24.0015 105.513 24.0015Z" fill="#FCFBF8"/>
<path d="M81.512 24.0015C76.2454 24.0015 71.976 28.2709 71.976 33.5374C71.976 38.804 76.2454 43.0734 81.512 43.0734C86.7785 43.0734 91.0479 38.804 91.0479 33.5374C91.0479 28.2709 86.7785 24.0015 81.512 24.0015Z" fill="#FCFBF8"/>
<path d="M57.5374 95.9521C52.2709 95.9521 48.0015 100.221 48.0015 105.488C48.0015 110.755 52.2709 115.024 57.5374 115.024C62.804 115.024 67.0734 110.755 67.0734 105.488C67.0734 100.221 62.804 95.9521 57.5374 95.9521Z" fill="#FCFBF8"/>
<path d="M57.5374 71.9775C52.2709 71.9775 48.0015 76.2469 48.0015 81.5135C48.0015 86.78 52.2709 91.0494 57.5374 91.0494C62.804 91.0494 67.0734 86.78 67.0734 81.5135C67.0734 76.2469 62.804 71.9775 57.5374 71.9775Z" fill="#FCFBF8"/>
<path d="M57.5374 47.976C52.2709 47.976 48.0015 52.2454 48.0015 57.512C48.0015 62.7785 52.2709 67.0479 57.5374 67.0479C62.804 67.0479 67.0734 62.7785 67.0734 57.512C67.0734 52.2454 62.804 47.976 57.5374 47.976Z" fill="#FCFBF8"/>
<path d="M33.5359 95.9521C28.2694 95.9521 24 100.221 24 105.488C24 110.755 28.2694 115.024 33.5359 115.024C38.8025 115.024 43.0719 110.755 43.0719 105.488C43.0719 100.221 38.8025 95.9521 33.5359 95.9521Z" fill="#FCFBF8"/>
<path d="M33.5359 71.9775C28.2694 71.9775 24 76.2469 24 81.5135C24 86.78 28.2694 91.0494 33.5359 91.0494C38.8025 91.0494 43.0719 86.78 43.0719 81.5135C43.0719 76.2469 38.8025 71.9775 33.5359 71.9775Z" fill="#FCFBF8"/>
<path d="M33.5359 47.976C28.2694 47.976 24 52.2454 24 57.512C24 62.7785 28.2694 67.0479 33.5359 67.0479C38.8025 67.0479 43.0719 62.7785 43.0719 57.512C43.0719 52.2454 38.8025 47.976 33.5359 47.976Z" fill="#FCFBF8"/>
<path d="M129.488 4.1942e-06C124.221 3.73378e-06 119.952 4.26938 119.952 9.53594C119.952 14.8025 124.221 19.0719 129.488 19.0719C134.755 19.0719 139.024 14.8025 139.024 9.53594C139.024 4.26938 134.755 4.65462e-06 129.488 4.1942e-06Z" fill="#FCFBF8"/>
<path d="M105.513 2.09828e-06C100.247 1.63786e-06 95.9775 4.26938 95.9775 9.53594C95.9775 14.8025 100.247 19.0719 105.513 19.0719C110.78 19.0719 115.049 14.8025 115.049 9.53594C115.049 4.26938 110.78 2.5587e-06 105.513 2.09828e-06Z" fill="#FCFBF8"/>
<path d="M81.512 0C76.2454 -4.60415e-07 71.976 4.26938 71.976 9.53594C71.976 14.8025 76.2454 19.0719 81.512 19.0719C86.7785 19.0719 91.0479 14.8025 91.0479 9.53594C91.0479 4.26938 86.7786 4.60419e-07 81.512 0Z" fill="#FCFBF8"/>
<path d="M177.464 407.952C172.198 407.952 167.928 412.221 167.928 417.488C167.928 422.755 172.197 427.024 177.464 427.024C182.731 427.024 187 422.755 187 417.488C187 412.221 182.731 407.952 177.464 407.952Z" fill="#FCFBF8"/>
<path d="M177.464 383.978C172.198 383.978 167.928 388.247 167.928 393.513C167.928 398.78 172.198 403.049 177.464 403.049C182.731 403.049 187 398.78 187 393.513C187 388.247 182.731 383.978 177.464 383.978Z" fill="#FCFBF8"/>
<path d="M177.464 359.976C172.198 359.976 167.928 364.245 167.928 369.512C167.928 374.779 172.198 379.048 177.464 379.048C182.731 379.048 187 374.779 187 369.512C187 364.245 182.731 359.976 177.464 359.976Z" fill="#FCFBF8"/>
<path d="M153.49 407.952C148.223 407.952 143.954 412.221 143.954 417.488C143.954 422.755 148.223 427.024 153.49 427.024C158.756 427.024 163.025 422.755 163.025 417.488C163.025 412.221 158.756 407.952 153.49 407.952Z" fill="#FCFBF8"/>
<path d="M153.49 383.978C148.223 383.978 143.954 388.247 143.954 393.513C143.954 398.78 148.223 403.049 153.49 403.049C158.756 403.049 163.025 398.78 163.025 393.513C163.025 388.247 158.756 383.978 153.49 383.978Z" fill="#FCFBF8"/>
<path d="M153.49 359.976C148.223 359.976 143.954 364.245 143.954 369.512C143.954 374.779 148.223 379.048 153.49 379.048C158.756 379.048 163.025 374.779 163.025 369.512C163.025 364.245 158.756 359.976 153.49 359.976Z" fill="#FCFBF8"/>
<path d="M129.488 455.928C124.221 455.928 119.952 460.197 119.952 465.464C119.952 470.731 124.221 475 129.488 475C134.755 475 139.024 470.731 139.024 465.464C139.024 460.197 134.755 455.928 129.488 455.928Z" fill="#FCFBF8"/>
<path d="M129.488 431.954C124.221 431.954 119.952 436.223 119.952 441.49C119.952 446.756 124.221 451.025 129.488 451.025C134.755 451.025 139.024 446.756 139.024 441.49C139.024 436.223 134.755 431.954 129.488 431.954Z" fill="#FCFBF8"/>
<path d="M105.513 455.928C100.247 455.928 95.9775 460.197 95.9775 465.464C95.9775 470.731 100.247 475 105.513 475C110.78 475 115.049 470.731 115.049 465.464C115.049 460.197 110.78 455.928 105.513 455.928Z" fill="#FCFBF8"/>
<path d="M105.513 431.954C100.247 431.954 95.9775 436.223 95.9775 441.49C95.9775 446.756 100.247 451.025 105.513 451.025C110.78 451.025 115.049 446.756 115.049 441.49C115.049 436.223 110.78 431.954 105.513 431.954Z" fill="#FCFBF8"/>
<path d="M105.513 383.978C100.247 383.978 95.9775 388.247 95.9775 393.513C95.9775 398.78 100.247 403.049 105.513 403.049C110.78 403.049 115.049 398.78 115.049 393.513C115.049 388.247 110.78 383.978 105.513 383.978Z" fill="#FCFBF8"/>
<path d="M81.512 455.928C76.2454 455.928 71.976 460.197 71.976 465.464C71.976 470.731 76.2454 475 81.512 475C86.7785 475 91.0479 470.731 91.0479 465.464C91.0479 460.197 86.7785 455.928 81.512 455.928Z" fill="#FCFBF8"/>
<path d="M81.512 431.954C76.2454 431.954 71.976 436.223 71.976 441.49C71.976 446.756 76.2454 451.025 81.512 451.025C86.7785 451.025 91.0479 446.756 91.0479 441.49C91.0479 436.223 86.7785 431.954 81.512 431.954Z" fill="#FCFBF8"/>
<path d="M129.488 336.001C124.221 336.001 119.952 340.271 119.952 345.537C119.952 350.804 124.221 355.073 129.488 355.073C134.755 355.073 139.024 350.804 139.024 345.537C139.024 340.271 134.755 336.001 129.488 336.001Z" fill="#FCFBF8"/>
<path d="M105.513 336.001C100.247 336.001 95.9775 340.271 95.9775 345.537C95.9775 350.804 100.247 355.073 105.513 355.073C110.78 355.073 115.049 350.804 115.049 345.537C115.049 340.271 110.78 336.001 105.513 336.001Z" fill="#FCFBF8"/>
<path d="M81.512 336.001C76.2454 336.001 71.976 340.271 71.976 345.537C71.976 350.804 76.2454 355.073 81.512 355.073C86.7785 355.073 91.0479 350.804 91.0479 345.537C91.0479 340.271 86.7785 336.001 81.512 336.001Z" fill="#FCFBF8"/>
<path d="M57.5374 407.952C52.2709 407.952 48.0015 412.221 48.0015 417.488C48.0015 422.755 52.2709 427.024 57.5374 427.024C62.804 427.024 67.0734 422.755 67.0734 417.488C67.0734 412.221 62.804 407.952 57.5374 407.952Z" fill="#FCFBF8"/>
<path d="M57.5374 383.978C52.2709 383.978 48.0015 388.247 48.0015 393.513C48.0015 398.78 52.2709 403.049 57.5374 403.049C62.804 403.049 67.0734 398.78 67.0734 393.513C67.0734 388.247 62.804 383.978 57.5374 383.978Z" fill="#FCFBF8"/>
<path d="M57.5374 359.976C52.2709 359.976 48.0015 364.245 48.0015 369.512C48.0015 374.779 52.2709 379.048 57.5374 379.048C62.804 379.048 67.0734 374.779 67.0734 369.512C67.0734 364.245 62.804 359.976 57.5374 359.976Z" fill="#FCFBF8"/>
<path d="M33.5359 407.952C28.2694 407.952 24 412.221 24 417.488C24 422.755 28.2694 427.024 33.5359 427.024C38.8025 427.024 43.0719 422.755 43.0719 417.488C43.0719 412.221 38.8025 407.952 33.5359 407.952Z" fill="#FCFBF8"/>
<path d="M33.5359 383.978C28.2694 383.978 24 388.247 24 393.513C24 398.78 28.2694 403.049 33.5359 403.049C38.8025 403.049 43.0719 398.78 43.0719 393.513C43.0719 388.247 38.8025 383.978 33.5359 383.978Z" fill="#FCFBF8"/>
<path d="M33.5359 359.976C28.2694 359.976 24 364.245 24 369.512C24 374.779 28.2694 379.048 33.5359 379.048C38.8025 379.048 43.0719 374.779 43.0719 369.512C43.0719 364.245 38.8025 359.976 33.5359 359.976Z" fill="#FCFBF8"/>
<path d="M129.488 312C124.221 312 119.952 316.269 119.952 321.536C119.952 326.802 124.221 331.072 129.488 331.072C134.755 331.072 139.024 326.802 139.024 321.536C139.024 316.269 134.755 312 129.488 312Z" fill="#FCFBF8"/>
<path d="M105.513 312C100.247 312 95.9775 316.269 95.9775 321.536C95.9775 326.802 100.247 331.072 105.513 331.072C110.78 331.072 115.049 326.802 115.049 321.536C115.049 316.269 110.78 312 105.513 312Z" fill="#FCFBF8"/>
<path d="M81.512 312C76.2454 312 71.976 316.269 71.976 321.536C71.976 326.802 76.2454 331.072 81.512 331.072C86.7785 331.072 91.0479 326.802 91.0479 321.536C91.0479 316.269 86.7786 312 81.512 312Z" fill="#FCFBF8"/>
</svg>
