<svg width="535" height="2423" viewBox="0 0 535 2423" fill="none" xmlns="http://www.w3.org/2000/svg">
<path d="M510.818 1948.42C497.463 1948.42 486.637 1959.25 486.637 1972.61C486.637 1985.98 497.463 1996.81 510.818 1996.81C524.173 1996.81 535 1985.98 535 1972.61C535 1959.25 524.173 1948.42 510.818 1948.42Z" fill="#FCFAF8"/>
<path d="M510.818 1887.51C497.463 1887.51 486.637 1898.35 486.637 1911.71C486.637 1925.07 497.463 1935.91 510.818 1935.91C524.174 1935.91 535 1925.07 535 1911.71C535 1898.35 524.174 1887.51 510.818 1887.51Z" fill="#FCFAF8"/>
<path d="M510.818 1826.68C497.463 1826.68 486.637 1837.51 486.637 1850.87C486.637 1864.24 497.463 1875.07 510.818 1875.07C524.174 1875.07 535 1864.24 535 1850.87C535 1837.51 524.174 1826.68 510.818 1826.68Z" fill="#FCFAF8"/>
<path d="M510.818 1765.77C497.463 1765.77 486.637 1776.61 486.637 1789.97C486.637 1803.33 497.463 1814.17 510.818 1814.17C524.174 1814.17 535 1803.33 535 1789.97C535 1776.61 524.174 1765.77 510.818 1765.77Z" fill="#FCFAF8"/>
<path d="M510.818 1704.94C497.463 1704.94 486.637 1715.77 486.637 1729.13C486.637 1742.5 497.463 1753.33 510.818 1753.33C524.174 1753.33 535 1742.5 535 1729.13C535 1715.77 524.174 1704.94 510.818 1704.94Z" fill="#FCFAF8"/>
<path d="M510.818 1644.03C497.463 1644.03 486.637 1654.87 486.637 1668.23C486.637 1681.59 497.463 1692.43 510.818 1692.43C524.174 1692.43 535 1681.59 535 1668.23C535 1654.87 524.174 1644.03 510.818 1644.03Z" fill="#FCFAF8"/>
<path d="M450.023 2009.25C436.668 2009.25 425.841 2020.09 425.841 2033.45C425.841 2046.81 436.668 2057.65 450.023 2057.65C463.378 2057.65 474.204 2046.81 474.204 2033.45C474.205 2020.09 463.378 2009.25 450.023 2009.25Z" fill="#FCFAF8"/>
<path d="M450.023 1583.2C436.668 1583.2 425.841 1594.03 425.841 1607.39C425.841 1620.76 436.668 1631.59 450.023 1631.59C463.378 1631.59 474.205 1620.76 474.205 1607.39C474.205 1594.03 463.378 1583.2 450.023 1583.2Z" fill="#FCFAF8"/>
<path d="M85.0453 2009.25C71.6902 2009.25 60.8637 2020.09 60.8637 2033.45C60.8637 2046.81 71.6902 2057.65 85.0453 2057.65C98.4004 2057.65 109.227 2046.81 109.227 2033.45C109.227 2020.09 98.4004 2009.25 85.0453 2009.25Z" fill="#FCFAF8"/>
<path d="M85.0453 1583.2C71.6902 1583.2 60.8638 1594.03 60.8638 1607.39C60.8638 1620.76 71.6902 1631.59 85.0453 1631.59C98.4004 1631.59 109.227 1620.76 109.227 1607.39C109.227 1594.03 98.4005 1583.2 85.0453 1583.2Z" fill="#FCFAF8"/>
<path d="M24.1816 1948.42C10.8265 1948.42 1.91061e-06 1959.25 0 1972.61C-1.91061e-06 1985.98 10.8265 1996.81 24.1816 1996.81C37.5367 1996.81 48.3631 1985.98 48.3632 1972.61C48.3632 1959.25 37.5367 1948.42 24.1816 1948.42Z" fill="#FCFAF8"/>
<path d="M24.1816 1887.51C10.8265 1887.51 1.06179e-05 1898.35 8.70731e-06 1911.71C6.7967e-06 1925.07 10.8265 1935.91 24.1816 1935.91C37.5367 1935.91 48.3632 1925.07 48.3632 1911.71C48.3632 1898.35 37.5367 1887.51 24.1816 1887.51Z" fill="#FCFAF8"/>
<path d="M24.1816 1826.68C10.8265 1826.68 1.93155e-05 1837.51 1.74048e-05 1850.87C1.54942e-05 1864.24 10.8265 1875.07 24.1816 1875.07C37.5367 1875.07 48.3632 1864.24 48.3632 1850.87C48.3632 1837.51 37.5367 1826.68 24.1816 1826.68Z" fill="#FCFAF8"/>
<path d="M24.1816 1765.77C10.8265 1765.77 2.80228e-05 1776.61 2.61122e-05 1789.97C2.42015e-05 1803.33 10.8265 1814.17 24.1816 1814.17C37.5367 1814.17 48.3632 1803.33 48.3632 1789.97C48.3632 1776.61 37.5367 1765.77 24.1816 1765.77Z" fill="#FCFAF8"/>
<path d="M24.1816 1704.94C10.8265 1704.94 3.67203e-05 1715.77 3.48097e-05 1729.13C3.28991e-05 1742.5 10.8265 1753.33 24.1816 1753.33C37.5367 1753.33 48.3632 1742.5 48.3632 1729.13C48.3632 1715.77 37.5367 1704.94 24.1816 1704.94Z" fill="#FCFAF8"/>
<path d="M24.1816 1644.03C10.8265 1644.03 4.54276e-05 1654.87 4.3517e-05 1668.23C4.16064e-05 1681.59 10.8265 1692.43 24.1816 1692.43C37.5367 1692.43 48.3632 1681.59 48.3632 1668.23C48.3632 1654.87 37.5367 1644.03 24.1816 1644.03Z" fill="#FCFAF8"/>
<path d="M449.968 1461.29C436.615 1461.29 425.789 1472.12 425.789 1485.48C425.789 1498.85 436.615 1509.68 449.968 1509.68C463.322 1509.68 474.147 1498.85 474.147 1485.48C474.147 1472.12 463.322 1461.29 449.968 1461.29Z" fill="#FCFAF8"/>
<path d="M449.968 1400.46C436.615 1400.46 425.789 1411.29 425.789 1424.66C425.789 1438.02 436.615 1448.85 449.968 1448.85C463.322 1448.85 474.147 1438.02 474.147 1424.66C474.147 1411.29 463.322 1400.46 449.968 1400.46Z" fill="#FCFAF8"/>
<path d="M449.968 1339.57C436.615 1339.57 425.789 1350.4 425.789 1363.76C425.789 1377.12 436.615 1387.95 449.968 1387.95C463.322 1387.95 474.147 1377.12 474.147 1363.76C474.147 1350.4 463.322 1339.57 449.968 1339.57Z" fill="#FCFAF8"/>
<path d="M389.18 1461.29C375.826 1461.29 365.001 1472.12 365.001 1485.48C365.001 1498.85 375.826 1509.68 389.18 1509.68C402.533 1509.68 413.358 1498.85 413.358 1485.48C413.358 1472.12 402.533 1461.29 389.18 1461.29Z" fill="#FCFAF8"/>
<path d="M389.18 1400.46C375.826 1400.46 365.001 1411.29 365.001 1424.66C365.001 1438.02 375.826 1448.85 389.18 1448.85C402.533 1448.85 413.358 1438.02 413.358 1424.66C413.358 1411.29 402.533 1400.46 389.18 1400.46Z" fill="#FCFAF8"/>
<path d="M389.18 1339.57C375.826 1339.57 365.001 1350.4 365.001 1363.76C365.001 1377.12 375.826 1387.95 389.18 1387.95C402.533 1387.95 413.358 1377.12 413.358 1363.76C413.358 1350.4 402.533 1339.57 389.18 1339.57Z" fill="#FCFAF8"/>
<path d="M328.323 1583.01C314.969 1583.01 304.144 1593.85 304.144 1607.21C304.144 1620.57 314.969 1631.4 328.323 1631.4C341.676 1631.4 352.502 1620.57 352.502 1607.21C352.502 1593.85 341.676 1583.01 328.323 1583.01Z" fill="#FCFAF8"/>
<path d="M328.323 1522.19C314.969 1522.19 304.144 1533.02 304.144 1546.38C304.144 1559.74 314.969 1570.57 328.323 1570.57C341.676 1570.57 352.502 1559.74 352.502 1546.38C352.502 1533.02 341.676 1522.19 328.323 1522.19Z" fill="#FCFAF8"/>
<path d="M267.534 1583.01C254.181 1583.01 243.355 1593.85 243.355 1607.21C243.355 1620.57 254.181 1631.4 267.534 1631.4C280.888 1631.4 291.713 1620.57 291.713 1607.21C291.713 1593.85 280.888 1583.01 267.534 1583.01Z" fill="#FCFAF8"/>
<path d="M267.534 1522.19C254.181 1522.19 243.355 1533.02 243.355 1546.38C243.355 1559.74 254.181 1570.57 267.534 1570.57C280.888 1570.57 291.713 1559.74 291.713 1546.38C291.713 1533.02 280.888 1522.19 267.534 1522.19Z" fill="#FCFAF8"/>
<path d="M267.534 1400.46C254.181 1400.46 243.355 1411.29 243.355 1424.66C243.355 1438.02 254.181 1448.85 267.534 1448.85C280.888 1448.85 291.713 1438.02 291.713 1424.66C291.713 1411.29 280.888 1400.46 267.534 1400.46Z" fill="#FCFAF8"/>
<path d="M206.677 1583.01C193.324 1583.01 182.498 1593.85 182.498 1607.21C182.498 1620.57 193.324 1631.4 206.677 1631.4C220.031 1631.4 230.856 1620.57 230.856 1607.21C230.856 1593.85 220.031 1583.01 206.677 1583.01Z" fill="#FCFAF8"/>
<path d="M206.677 1522.19C193.324 1522.19 182.498 1533.02 182.498 1546.38C182.498 1559.74 193.324 1570.57 206.677 1570.57C220.031 1570.57 230.856 1559.74 230.856 1546.38C230.856 1533.02 220.031 1522.19 206.677 1522.19Z" fill="#FCFAF8"/>
<path d="M328.323 1278.74C314.969 1278.74 304.144 1289.57 304.144 1302.93C304.144 1316.3 314.969 1327.13 328.323 1327.13C341.676 1327.13 352.502 1316.3 352.502 1302.93C352.502 1289.57 341.676 1278.74 328.323 1278.74Z" fill="#FCFAF8"/>
<path d="M267.534 1278.74C254.181 1278.74 243.355 1289.57 243.355 1302.93C243.355 1316.3 254.181 1327.13 267.534 1327.13C280.888 1327.13 291.713 1316.3 291.713 1302.93C291.713 1289.57 280.888 1278.74 267.534 1278.74Z" fill="#FCFAF8"/>
<path d="M206.677 1278.74C193.324 1278.74 182.499 1289.57 182.499 1302.93C182.499 1316.3 193.324 1327.13 206.677 1327.13C220.031 1327.13 230.856 1316.3 230.856 1302.93C230.856 1289.57 220.031 1278.74 206.677 1278.74Z" fill="#FCFAF8"/>
<path d="M145.889 1461.29C132.535 1461.29 121.71 1472.12 121.71 1485.48C121.71 1498.85 132.535 1509.68 145.889 1509.68C159.242 1509.68 170.068 1498.85 170.068 1485.48C170.068 1472.12 159.242 1461.29 145.889 1461.29Z" fill="#FCFAF8"/>
<path d="M145.889 1400.46C132.535 1400.46 121.71 1411.29 121.71 1424.66C121.71 1438.02 132.535 1448.85 145.889 1448.85C159.242 1448.85 170.068 1438.02 170.068 1424.66C170.068 1411.29 159.242 1400.46 145.889 1400.46Z" fill="#FCFAF8"/>
<path d="M145.889 1339.57C132.535 1339.57 121.71 1350.4 121.71 1363.76C121.71 1377.12 132.535 1387.95 145.889 1387.95C159.242 1387.95 170.068 1377.12 170.068 1363.76C170.068 1350.4 159.242 1339.57 145.889 1339.57Z" fill="#FCFAF8"/>
<path d="M85.0319 1461.29C71.6783 1461.29 60.8531 1472.12 60.8531 1485.48C60.8531 1498.85 71.6783 1509.68 85.0319 1509.68C98.3855 1509.68 109.211 1498.85 109.211 1485.48C109.211 1472.12 98.3855 1461.29 85.0319 1461.29Z" fill="#FCFAF8"/>
<path d="M85.0319 1400.46C71.6783 1400.46 60.8531 1411.29 60.8531 1424.66C60.8531 1438.02 71.6783 1448.85 85.0319 1448.85C98.3855 1448.85 109.211 1438.02 109.211 1424.66C109.211 1411.29 98.3855 1400.46 85.0319 1400.46Z" fill="#FCFAF8"/>
<path d="M85.0319 1339.57C71.6783 1339.57 60.8531 1350.4 60.8531 1363.76C60.8531 1377.12 71.6783 1387.95 85.0319 1387.95C98.3855 1387.95 109.211 1377.12 109.211 1363.76C109.211 1350.4 98.3855 1339.57 85.0319 1339.57Z" fill="#FCFAF8"/>
<path d="M328.323 1217.84C314.969 1217.84 304.144 1228.68 304.144 1242.04C304.144 1255.4 314.969 1266.23 328.323 1266.23C341.676 1266.23 352.502 1255.4 352.502 1242.04C352.502 1228.68 341.676 1217.84 328.323 1217.84Z" fill="#FCFAF8"/>
<path d="M267.534 1217.84C254.181 1217.84 243.355 1228.68 243.355 1242.04C243.355 1255.4 254.181 1266.23 267.534 1266.23C280.888 1266.23 291.713 1255.4 291.713 1242.04C291.713 1228.68 280.888 1217.84 267.534 1217.84Z" fill="#FCFAF8"/>
<path d="M206.677 1217.84C193.324 1217.84 182.499 1228.68 182.499 1242.04C182.499 1255.4 193.324 1266.23 206.677 1266.23C220.031 1266.23 230.856 1255.4 230.856 1242.04C230.856 1228.68 220.031 1217.84 206.677 1217.84Z" fill="#FCFAF8"/>
<path d="M449.968 2252.89C436.614 2252.89 425.789 2263.72 425.789 2277.08C425.789 2290.44 436.614 2301.28 449.968 2301.28C463.322 2301.28 474.147 2290.44 474.147 2277.08C474.147 2263.72 463.322 2252.89 449.968 2252.89Z" fill="#FCFAF8"/>
<path d="M449.968 2192.06C436.614 2192.06 425.789 2202.89 425.789 2216.25C425.789 2229.62 436.614 2240.45 449.968 2240.45C463.322 2240.45 474.147 2229.62 474.147 2216.25C474.147 2202.89 463.322 2192.06 449.968 2192.06Z" fill="#FCFAF8"/>
<path d="M449.968 2131.16C436.615 2131.16 425.789 2142 425.789 2155.36C425.789 2168.72 436.614 2179.55 449.968 2179.55C463.322 2179.55 474.147 2168.72 474.147 2155.36C474.147 2142 463.322 2131.16 449.968 2131.16Z" fill="#FCFAF8"/>
<path d="M389.18 2252.89C375.826 2252.89 365.001 2263.72 365.001 2277.08C365.001 2290.44 375.826 2301.28 389.18 2301.28C402.533 2301.28 413.358 2290.44 413.358 2277.08C413.358 2263.72 402.533 2252.89 389.18 2252.89Z" fill="#FCFAF8"/>
<path d="M389.18 2192.06C375.826 2192.06 365.001 2202.89 365.001 2216.25C365.001 2229.62 375.826 2240.45 389.18 2240.45C402.533 2240.45 413.358 2229.62 413.358 2216.25C413.358 2202.89 402.533 2192.06 389.18 2192.06Z" fill="#FCFAF8"/>
<path d="M389.18 2131.16C375.826 2131.16 365.001 2142 365.001 2155.36C365.001 2168.72 375.826 2179.55 389.18 2179.55C402.533 2179.55 413.358 2168.72 413.358 2155.36C413.358 2142 402.533 2131.16 389.18 2131.16Z" fill="#FCFAF8"/>
<path d="M328.323 2374.61C314.969 2374.61 304.144 2385.44 304.144 2398.81C304.144 2412.17 314.969 2423 328.323 2423C341.676 2423 352.501 2412.17 352.501 2398.81C352.501 2385.44 341.676 2374.61 328.323 2374.61Z" fill="#FCFAF8"/>
<path d="M328.323 2313.78C314.969 2313.78 304.144 2324.62 304.144 2337.98C304.144 2351.34 314.969 2362.17 328.323 2362.17C341.676 2362.17 352.501 2351.34 352.501 2337.98C352.501 2324.62 341.676 2313.78 328.323 2313.78Z" fill="#FCFAF8"/>
<path d="M267.534 2374.61C254.181 2374.61 243.355 2385.44 243.355 2398.81C243.355 2412.17 254.18 2423 267.534 2423C280.888 2423 291.713 2412.17 291.713 2398.81C291.713 2385.44 280.888 2374.61 267.534 2374.61Z" fill="#FCFAF8"/>
<path d="M267.534 2313.78C254.181 2313.78 243.355 2324.62 243.355 2337.98C243.355 2351.34 254.181 2362.17 267.534 2362.17C280.888 2362.17 291.713 2351.34 291.713 2337.98C291.713 2324.62 280.888 2313.78 267.534 2313.78Z" fill="#FCFAF8"/>
<path d="M267.534 2192.06C254.181 2192.06 243.355 2202.89 243.355 2216.25C243.355 2229.62 254.181 2240.45 267.534 2240.45C280.888 2240.45 291.713 2229.62 291.713 2216.25C291.713 2202.89 280.888 2192.06 267.534 2192.06Z" fill="#FCFAF8"/>
<path d="M206.677 2374.61C193.324 2374.61 182.498 2385.44 182.498 2398.81C182.498 2412.17 193.324 2423 206.677 2423C220.031 2423 230.856 2412.17 230.856 2398.81C230.856 2385.44 220.031 2374.61 206.677 2374.61Z" fill="#FCFAF8"/>
<path d="M206.677 2313.78C193.324 2313.78 182.498 2324.62 182.498 2337.98C182.498 2351.34 193.324 2362.17 206.677 2362.17C220.031 2362.17 230.856 2351.34 230.856 2337.98C230.856 2324.62 220.031 2313.78 206.677 2313.78Z" fill="#FCFAF8"/>
<path d="M328.323 2070.34C314.969 2070.34 304.144 2081.17 304.144 2094.53C304.144 2107.89 314.969 2118.73 328.323 2118.73C341.676 2118.73 352.502 2107.89 352.502 2094.53C352.502 2081.17 341.676 2070.34 328.323 2070.34Z" fill="#FCFAF8"/>
<path d="M267.534 2070.34C254.181 2070.34 243.355 2081.17 243.355 2094.53C243.355 2107.89 254.181 2118.73 267.534 2118.73C280.888 2118.73 291.713 2107.89 291.713 2094.53C291.713 2081.17 280.888 2070.34 267.534 2070.34Z" fill="#FCFAF8"/>
<path d="M206.677 2070.34C193.324 2070.34 182.498 2081.17 182.498 2094.53C182.498 2107.89 193.324 2118.73 206.677 2118.73C220.031 2118.73 230.856 2107.89 230.856 2094.53C230.856 2081.17 220.031 2070.34 206.677 2070.34Z" fill="#FCFAF8"/>
<path d="M145.889 2252.89C132.535 2252.89 121.71 2263.72 121.71 2277.08C121.71 2290.44 132.535 2301.28 145.889 2301.28C159.242 2301.28 170.068 2290.44 170.068 2277.08C170.068 2263.72 159.242 2252.89 145.889 2252.89Z" fill="#FCFAF8"/>
<path d="M145.889 2192.06C132.535 2192.06 121.71 2202.89 121.71 2216.25C121.71 2229.62 132.535 2240.45 145.889 2240.45C159.242 2240.45 170.068 2229.62 170.068 2216.25C170.068 2202.89 159.242 2192.06 145.889 2192.06Z" fill="#FCFAF8"/>
<path d="M145.889 2131.16C132.535 2131.16 121.71 2142 121.71 2155.36C121.71 2168.72 132.535 2179.55 145.889 2179.55C159.242 2179.55 170.068 2168.72 170.068 2155.36C170.068 2142 159.242 2131.16 145.889 2131.16Z" fill="#FCFAF8"/>
<path d="M85.0319 2252.89C71.6783 2252.89 60.8531 2263.72 60.8531 2277.08C60.8531 2290.44 71.6783 2301.28 85.0319 2301.28C98.3854 2301.28 109.211 2290.44 109.211 2277.08C109.211 2263.72 98.3855 2252.89 85.0319 2252.89Z" fill="#FCFAF8"/>
<path d="M85.0319 2192.06C71.6783 2192.06 60.8531 2202.89 60.8531 2216.25C60.8531 2229.62 71.6783 2240.45 85.0319 2240.45C98.3855 2240.45 109.211 2229.62 109.211 2216.25C109.211 2202.89 98.3855 2192.06 85.0319 2192.06Z" fill="#FCFAF8"/>
<path d="M85.0319 2131.16C71.6783 2131.16 60.8531 2142 60.8531 2155.36C60.8531 2168.72 71.6783 2179.55 85.0319 2179.55C98.3855 2179.55 109.211 2168.72 109.211 2155.36C109.211 2142 98.3855 2131.16 85.0319 2131.16Z" fill="#FCFAF8"/>
<path d="M328.323 2009.44C314.969 2009.44 304.144 2020.27 304.144 2033.64C304.144 2047 314.969 2057.83 328.323 2057.83C341.676 2057.83 352.502 2047 352.502 2033.64C352.502 2020.27 341.676 2009.44 328.323 2009.44Z" fill="#FCFAF8"/>
<path d="M267.534 2009.44C254.181 2009.44 243.355 2020.27 243.355 2033.64C243.355 2047 254.181 2057.83 267.534 2057.83C280.888 2057.83 291.713 2047 291.713 2033.64C291.713 2020.27 280.888 2009.44 267.534 2009.44Z" fill="#FCFAF8"/>
<path d="M206.677 2009.44C193.324 2009.44 182.498 2020.27 182.498 2033.64C182.498 2047 193.324 2057.83 206.677 2057.83C220.031 2057.83 230.856 2047 230.856 2033.64C230.856 2020.27 220.031 2009.44 206.677 2009.44Z" fill="#FCFAF8"/>
<path d="M510.818 730.573C497.463 730.573 486.637 741.407 486.637 754.771C486.637 768.135 497.463 778.968 510.818 778.968C524.173 778.968 535 768.135 535 754.771C535 741.407 524.173 730.573 510.818 730.573Z" fill="#FCFAF8"/>
<path d="M510.818 669.669C497.463 669.669 486.637 680.503 486.637 693.867C486.637 707.231 497.463 718.064 510.818 718.064C524.174 718.064 535 707.231 535 693.867C535 680.503 524.174 669.669 510.818 669.669Z" fill="#FCFAF8"/>
<path d="M510.818 608.833C497.463 608.833 486.637 619.667 486.637 633.031C486.637 646.395 497.463 657.228 510.818 657.228C524.174 657.228 535 646.395 535 633.031C535 619.667 524.174 608.833 510.818 608.833Z" fill="#FCFAF8"/>
<path d="M510.818 547.929C497.463 547.929 486.637 558.763 486.637 572.127C486.637 585.491 497.463 596.324 510.818 596.324C524.174 596.324 535 585.491 535 572.127C535 558.763 524.174 547.929 510.818 547.929Z" fill="#FCFAF8"/>
<path d="M510.818 487.093C497.463 487.093 486.637 497.927 486.637 511.291C486.637 524.655 497.463 535.488 510.818 535.488C524.174 535.488 535 524.655 535 511.291C535 497.927 524.174 487.093 510.818 487.093Z" fill="#FCFAF8"/>
<path d="M510.818 426.189C497.463 426.189 486.637 437.023 486.637 450.386C486.637 463.75 497.463 474.584 510.818 474.584C524.174 474.584 535 463.75 535 450.386C535 437.023 524.174 426.189 510.818 426.189Z" fill="#FCFAF8"/>
<path d="M450.023 791.409C436.668 791.409 425.841 802.243 425.841 815.607C425.841 828.971 436.668 839.804 450.023 839.804C463.378 839.804 474.204 828.971 474.204 815.607C474.205 802.243 463.378 791.409 450.023 791.409Z" fill="#FCFAF8"/>
<path d="M450.023 365.353C436.668 365.353 425.841 376.187 425.841 389.551C425.841 402.915 436.668 413.748 450.023 413.748C463.378 413.748 474.205 402.915 474.205 389.551C474.205 376.187 463.378 365.353 450.023 365.353Z" fill="#FCFAF8"/>
<path d="M85.0453 791.409C71.6902 791.409 60.8637 802.243 60.8637 815.607C60.8637 828.971 71.6902 839.804 85.0453 839.804C98.4004 839.804 109.227 828.971 109.227 815.607C109.227 802.243 98.4004 791.409 85.0453 791.409Z" fill="#FCFAF8"/>
<path d="M85.0453 365.353C71.6902 365.353 60.8638 376.187 60.8638 389.551C60.8638 402.915 71.6902 413.748 85.0453 413.748C98.4004 413.748 109.227 402.915 109.227 389.551C109.227 376.187 98.4005 365.353 85.0453 365.353Z" fill="#FCFAF8"/>
<path d="M24.1816 730.573C10.8265 730.573 1.91061e-06 741.407 0 754.771C-1.91061e-06 768.135 10.8265 778.968 24.1816 778.968C37.5367 778.968 48.3631 768.135 48.3632 754.771C48.3632 741.407 37.5367 730.573 24.1816 730.573Z" fill="#FCFAF8"/>
<path d="M24.1816 669.669C10.8265 669.669 1.06179e-05 680.503 8.70731e-06 693.867C6.7967e-06 707.231 10.8265 718.064 24.1816 718.064C37.5367 718.064 48.3632 707.231 48.3632 693.867C48.3632 680.503 37.5367 669.669 24.1816 669.669Z" fill="#FCFAF8"/>
<path d="M24.1816 608.833C10.8265 608.833 1.93155e-05 619.667 1.74048e-05 633.031C1.54942e-05 646.395 10.8265 657.228 24.1816 657.228C37.5367 657.228 48.3632 646.395 48.3632 633.031C48.3632 619.667 37.5367 608.833 24.1816 608.833Z" fill="#FCFAF8"/>
<path d="M24.1816 547.929C10.8265 547.929 2.80228e-05 558.763 2.61122e-05 572.126C2.42015e-05 585.49 10.8265 596.324 24.1816 596.324C37.5367 596.324 48.3632 585.49 48.3632 572.126C48.3632 558.763 37.5367 547.929 24.1816 547.929Z" fill="#FCFAF8"/>
<path d="M24.1816 487.093C10.8265 487.093 3.67203e-05 497.927 3.48097e-05 511.291C3.28991e-05 524.655 10.8265 535.488 24.1816 535.488C37.5367 535.488 48.3632 524.655 48.3632 511.291C48.3632 497.927 37.5367 487.093 24.1816 487.093Z" fill="#FCFAF8"/>
<path d="M24.1816 426.189C10.8265 426.189 4.54276e-05 437.022 4.3517e-05 450.386C4.16064e-05 463.75 10.8265 474.584 24.1816 474.584C37.5367 474.584 48.3632 463.75 48.3632 450.386C48.3632 437.022 37.5367 426.189 24.1816 426.189Z" fill="#FCFAF8"/>
<path d="M449.968 243.447C436.615 243.447 425.789 254.279 425.789 267.641C425.789 281.003 436.615 291.836 449.968 291.836C463.322 291.836 474.147 281.003 474.147 267.641C474.147 254.279 463.322 243.447 449.968 243.447Z" fill="#FCFAF8"/>
<path d="M449.968 182.619C436.615 182.619 425.789 193.452 425.789 206.814C425.789 220.176 436.615 231.008 449.968 231.008C463.322 231.008 474.147 220.176 474.147 206.814C474.147 193.452 463.322 182.619 449.968 182.619Z" fill="#FCFAF8"/>
<path d="M449.968 121.724C436.615 121.723 425.789 132.556 425.789 145.918C425.789 159.28 436.615 170.112 449.968 170.112C463.322 170.112 474.147 159.28 474.147 145.918C474.147 132.556 463.322 121.724 449.968 121.724Z" fill="#FCFAF8"/>
<path d="M389.18 243.447C375.826 243.447 365.001 254.279 365.001 267.641C365.001 281.003 375.826 291.836 389.18 291.836C402.533 291.836 413.358 281.003 413.358 267.641C413.358 254.279 402.533 243.447 389.18 243.447Z" fill="#FCFAF8"/>
<path d="M389.18 182.619C375.826 182.619 365.001 193.452 365.001 206.814C365.001 220.176 375.826 231.008 389.18 231.008C402.533 231.008 413.358 220.176 413.358 206.814C413.358 193.452 402.533 182.619 389.18 182.619Z" fill="#FCFAF8"/>
<path d="M389.18 121.724C375.826 121.723 365.001 132.556 365.001 145.918C365.001 159.28 375.826 170.112 389.18 170.112C402.533 170.112 413.358 159.28 413.358 145.918C413.358 132.556 402.533 121.724 389.18 121.724Z" fill="#FCFAF8"/>
<path d="M328.323 365.17C314.969 365.17 304.144 376.003 304.144 389.365C304.144 402.727 314.969 413.559 328.323 413.559C341.676 413.559 352.502 402.727 352.502 389.365C352.502 376.003 341.676 365.17 328.323 365.17Z" fill="#FCFAF8"/>
<path d="M328.323 304.343C314.969 304.343 304.144 315.175 304.144 328.537C304.144 341.899 314.969 352.732 328.323 352.732C341.676 352.732 352.502 341.899 352.502 328.537C352.502 315.175 341.676 304.343 328.323 304.343Z" fill="#FCFAF8"/>
<path d="M267.534 365.17C254.181 365.17 243.355 376.003 243.355 389.365C243.355 402.727 254.181 413.559 267.534 413.559C280.888 413.559 291.713 402.727 291.713 389.365C291.713 376.003 280.888 365.17 267.534 365.17Z" fill="#FCFAF8"/>
<path d="M267.534 304.343C254.181 304.343 243.355 315.175 243.355 328.537C243.355 341.899 254.181 352.732 267.534 352.732C280.888 352.732 291.713 341.899 291.713 328.537C291.713 315.175 280.888 304.343 267.534 304.343Z" fill="#FCFAF8"/>
<path d="M267.534 182.619C254.181 182.619 243.355 193.452 243.355 206.814C243.355 220.176 254.181 231.008 267.534 231.008C280.888 231.008 291.713 220.176 291.713 206.814C291.713 193.452 280.888 182.619 267.534 182.619Z" fill="#FCFAF8"/>
<path d="M206.677 365.17C193.324 365.17 182.498 376.003 182.498 389.365C182.498 402.727 193.324 413.559 206.677 413.559C220.031 413.559 230.856 402.727 230.856 389.365C230.856 376.003 220.031 365.17 206.677 365.17Z" fill="#FCFAF8"/>
<path d="M206.677 304.343C193.324 304.343 182.498 315.175 182.498 328.537C182.498 341.899 193.324 352.732 206.677 352.732C220.031 352.732 230.856 341.899 230.856 328.537C230.856 315.175 220.031 304.343 206.677 304.343Z" fill="#FCFAF8"/>
<path d="M328.323 60.8959C314.969 60.8959 304.144 71.7281 304.144 85.0902C304.144 98.4524 314.969 109.285 328.323 109.285C341.676 109.285 352.502 98.4524 352.502 85.0903C352.502 71.7281 341.676 60.8959 328.323 60.8959Z" fill="#FCFAF8"/>
<path d="M267.534 60.8959C254.181 60.8959 243.355 71.7281 243.355 85.0902C243.355 98.4524 254.181 109.285 267.534 109.285C280.888 109.285 291.713 98.4524 291.713 85.0902C291.713 71.7281 280.888 60.8959 267.534 60.8959Z" fill="#FCFAF8"/>
<path d="M206.677 60.8959C193.324 60.8959 182.499 71.7281 182.499 85.0902C182.499 98.4524 193.324 109.285 206.677 109.285C220.031 109.285 230.856 98.4524 230.856 85.0902C230.856 71.7281 220.031 60.8959 206.677 60.8959Z" fill="#FCFAF8"/>
<path d="M145.889 243.447C132.535 243.447 121.71 254.279 121.71 267.641C121.71 281.003 132.535 291.836 145.889 291.836C159.242 291.836 170.068 281.003 170.068 267.641C170.068 254.279 159.242 243.447 145.889 243.447Z" fill="#FCFAF8"/>
<path d="M145.889 182.619C132.535 182.619 121.71 193.452 121.71 206.814C121.71 220.176 132.535 231.008 145.889 231.008C159.242 231.008 170.068 220.176 170.068 206.814C170.068 193.452 159.242 182.619 145.889 182.619Z" fill="#FCFAF8"/>
<path d="M145.889 121.723C132.535 121.723 121.71 132.556 121.71 145.918C121.71 159.28 132.535 170.112 145.889 170.112C159.242 170.112 170.068 159.28 170.068 145.918C170.068 132.556 159.242 121.723 145.889 121.723Z" fill="#FCFAF8"/>
<path d="M85.0319 243.447C71.6783 243.447 60.8531 254.279 60.8531 267.641C60.8531 281.003 71.6783 291.836 85.0319 291.836C98.3855 291.836 109.211 281.003 109.211 267.641C109.211 254.279 98.3855 243.447 85.0319 243.447Z" fill="#FCFAF8"/>
<path d="M85.0319 182.619C71.6783 182.619 60.8531 193.452 60.8531 206.814C60.8531 220.176 71.6783 231.008 85.0319 231.008C98.3855 231.008 109.211 220.176 109.211 206.814C109.211 193.452 98.3855 182.619 85.0319 182.619Z" fill="#FCFAF8"/>
<path d="M85.0319 121.723C71.6783 121.723 60.8531 132.556 60.8531 145.918C60.8531 159.28 71.6783 170.112 85.0319 170.112C98.3855 170.112 109.211 159.28 109.211 145.918C109.211 132.556 98.3855 121.723 85.0319 121.723Z" fill="#FCFAF8"/>
<path d="M328.323 1.74136e-05C314.969 1.55021e-05 304.144 10.8322 304.144 24.1943C304.144 37.5565 314.969 48.3887 328.323 48.3887C341.676 48.3887 352.502 37.5565 352.502 24.1943C352.502 10.8322 341.676 1.93252e-05 328.323 1.74136e-05Z" fill="#FCFAF8"/>
<path d="M267.534 8.71171e-06C254.181 6.80013e-06 243.355 10.8322 243.355 24.1943C243.355 37.5565 254.181 48.3887 267.534 48.3887C280.888 48.3887 291.713 37.5565 291.713 24.1943C291.713 10.8322 280.888 1.06233e-05 267.534 8.71171e-06Z" fill="#FCFAF8"/>
<path d="M206.677 0C193.324 -1.91158e-06 182.499 10.8321 182.499 24.1943C182.499 37.5565 193.324 48.3887 206.677 48.3887C220.031 48.3887 230.856 37.5565 230.856 24.1943C230.856 10.8322 220.031 1.91158e-06 206.677 0Z" fill="#FCFAF8"/>
<path d="M449.968 1035.04C436.614 1035.04 425.789 1045.88 425.789 1059.24C425.789 1072.6 436.614 1083.43 449.968 1083.43C463.322 1083.43 474.147 1072.6 474.147 1059.24C474.147 1045.88 463.322 1035.04 449.968 1035.04Z" fill="#FCFAF8"/>
<path d="M449.968 974.217C436.614 974.217 425.789 985.05 425.789 998.412C425.789 1011.77 436.614 1022.61 449.968 1022.61C463.322 1022.61 474.147 1011.77 474.147 998.412C474.147 985.05 463.322 974.217 449.968 974.217Z" fill="#FCFAF8"/>
<path d="M449.968 913.321C436.615 913.321 425.789 924.154 425.789 937.516C425.789 950.878 436.614 961.71 449.968 961.71C463.322 961.71 474.147 950.878 474.147 937.516C474.147 924.154 463.322 913.321 449.968 913.321Z" fill="#FCFAF8"/>
<path d="M389.18 1035.04C375.826 1035.04 365.001 1045.88 365.001 1059.24C365.001 1072.6 375.826 1083.43 389.18 1083.43C402.533 1083.43 413.358 1072.6 413.358 1059.24C413.358 1045.88 402.533 1035.04 389.18 1035.04Z" fill="#FCFAF8"/>
<path d="M389.18 974.217C375.826 974.217 365.001 985.05 365.001 998.412C365.001 1011.77 375.826 1022.61 389.18 1022.61C402.533 1022.61 413.358 1011.77 413.358 998.412C413.358 985.05 402.533 974.217 389.18 974.217Z" fill="#FCFAF8"/>
<path d="M389.18 913.321C375.826 913.321 365.001 924.154 365.001 937.516C365.001 950.878 375.826 961.71 389.18 961.71C402.533 961.71 413.358 950.878 413.358 937.516C413.358 924.154 402.533 913.321 389.18 913.321Z" fill="#FCFAF8"/>
<path d="M328.323 1156.77C314.969 1156.77 304.144 1167.6 304.144 1180.96C304.144 1194.32 314.969 1205.16 328.323 1205.16C341.676 1205.16 352.501 1194.32 352.501 1180.96C352.501 1167.6 341.676 1156.77 328.323 1156.77Z" fill="#FCFAF8"/>
<path d="M328.323 1095.94C314.969 1095.94 304.144 1106.77 304.144 1120.14C304.144 1133.5 314.969 1144.33 328.323 1144.33C341.676 1144.33 352.501 1133.5 352.501 1120.14C352.501 1106.77 341.676 1095.94 328.323 1095.94Z" fill="#FCFAF8"/>
<path d="M267.534 1156.77C254.181 1156.77 243.355 1167.6 243.355 1180.96C243.355 1194.32 254.18 1205.16 267.534 1205.16C280.888 1205.16 291.713 1194.32 291.713 1180.96C291.713 1167.6 280.888 1156.77 267.534 1156.77Z" fill="#FCFAF8"/>
<path d="M267.534 1095.94C254.181 1095.94 243.355 1106.77 243.355 1120.14C243.355 1133.5 254.181 1144.33 267.534 1144.33C280.888 1144.33 291.713 1133.5 291.713 1120.14C291.713 1106.77 280.888 1095.94 267.534 1095.94Z" fill="#FCFAF8"/>
<path d="M267.534 974.217C254.181 974.217 243.355 985.05 243.355 998.412C243.355 1011.77 254.181 1022.61 267.534 1022.61C280.888 1022.61 291.713 1011.77 291.713 998.412C291.713 985.05 280.888 974.217 267.534 974.217Z" fill="#FCFAF8"/>
<path d="M206.677 1156.77C193.324 1156.77 182.498 1167.6 182.498 1180.96C182.498 1194.32 193.324 1205.16 206.677 1205.16C220.031 1205.16 230.856 1194.32 230.856 1180.96C230.856 1167.6 220.031 1156.77 206.677 1156.77Z" fill="#FCFAF8"/>
<path d="M206.677 1095.94C193.324 1095.94 182.498 1106.77 182.498 1120.14C182.498 1133.5 193.324 1144.33 206.677 1144.33C220.031 1144.33 230.856 1133.5 230.856 1120.14C230.856 1106.77 220.031 1095.94 206.677 1095.94Z" fill="#FCFAF8"/>
<path d="M328.323 852.494C314.969 852.494 304.144 863.326 304.144 876.688C304.144 890.05 314.969 900.883 328.323 900.883C341.676 900.883 352.502 890.05 352.502 876.688C352.502 863.326 341.676 852.494 328.323 852.494Z" fill="#FCFAF8"/>
<path d="M267.534 852.494C254.181 852.494 243.355 863.326 243.355 876.688C243.355 890.05 254.181 900.883 267.534 900.883C280.888 900.883 291.713 890.05 291.713 876.688C291.713 863.326 280.888 852.494 267.534 852.494Z" fill="#FCFAF8"/>
<path d="M206.677 852.494C193.324 852.494 182.498 863.326 182.498 876.688C182.498 890.05 193.324 900.883 206.677 900.883C220.031 900.883 230.856 890.05 230.856 876.688C230.856 863.326 220.031 852.494 206.677 852.494Z" fill="#FCFAF8"/>
<path d="M145.889 1035.04C132.535 1035.04 121.71 1045.88 121.71 1059.24C121.71 1072.6 132.535 1083.43 145.889 1083.43C159.242 1083.43 170.068 1072.6 170.068 1059.24C170.068 1045.88 159.242 1035.04 145.889 1035.04Z" fill="#FCFAF8"/>
<path d="M145.889 974.217C132.535 974.217 121.71 985.05 121.71 998.412C121.71 1011.77 132.535 1022.61 145.889 1022.61C159.242 1022.61 170.068 1011.77 170.068 998.412C170.068 985.05 159.242 974.217 145.889 974.217Z" fill="#FCFAF8"/>
<path d="M145.889 913.321C132.535 913.321 121.71 924.154 121.71 937.516C121.71 950.878 132.535 961.71 145.889 961.71C159.242 961.71 170.068 950.878 170.068 937.516C170.068 924.154 159.242 913.321 145.889 913.321Z" fill="#FCFAF8"/>
<path d="M85.0319 1035.04C71.6783 1035.04 60.8531 1045.88 60.8531 1059.24C60.8531 1072.6 71.6783 1083.43 85.0319 1083.43C98.3854 1083.43 109.211 1072.6 109.211 1059.24C109.211 1045.88 98.3855 1035.04 85.0319 1035.04Z" fill="#FCFAF8"/>
<path d="M85.0319 974.217C71.6783 974.217 60.8531 985.049 60.8531 998.412C60.8531 1011.77 71.6783 1022.61 85.0319 1022.61C98.3855 1022.61 109.211 1011.77 109.211 998.412C109.211 985.05 98.3855 974.217 85.0319 974.217Z" fill="#FCFAF8"/>
<path d="M85.0319 913.321C71.6783 913.321 60.8531 924.154 60.8531 937.516C60.8531 950.878 71.6783 961.71 85.0319 961.71C98.3855 961.71 109.211 950.878 109.211 937.516C109.211 924.154 98.3855 913.321 85.0319 913.321Z" fill="#FCFAF8"/>
<path d="M328.323 791.598C314.969 791.598 304.144 802.43 304.144 815.792C304.144 829.154 314.969 839.987 328.323 839.987C341.676 839.987 352.502 829.154 352.502 815.792C352.502 802.43 341.676 791.598 328.323 791.598Z" fill="#FCFAF8"/>
<path d="M267.534 791.598C254.181 791.598 243.355 802.43 243.355 815.792C243.355 829.154 254.181 839.987 267.534 839.987C280.888 839.987 291.713 829.154 291.713 815.792C291.713 802.43 280.888 791.598 267.534 791.598Z" fill="#FCFAF8"/>
<path d="M206.677 791.598C193.324 791.598 182.498 802.43 182.498 815.792C182.498 829.154 193.324 839.987 206.677 839.987C220.031 839.987 230.856 829.154 230.856 815.792C230.856 802.43 220.031 791.598 206.677 791.598Z" fill="#FCFAF8"/>
</svg>
