<svg width="1246" height="413" viewBox="0 0 1246 413" fill="none" xmlns="http://www.w3.org/2000/svg">
<path d="M1246 63.512H218.893V241.532H1246V63.512Z" fill="#CB7AE5"/>
<path d="M1176.38 234.98H0V413H1176.38V234.98Z" fill="#CB7AE5"/>
<path d="M462.04 229.556C461.794 229.556 461.5 229.507 461.205 229.434C461.156 229.434 461.131 229.409 461.107 229.384C460.125 228.697 458.922 228.329 457.719 228.329C457.621 228.329 457.523 228.329 457.425 228.329C457.106 228.329 456.811 228.354 456.541 228.354C456.394 228.354 456.148 228.354 456.05 228.305C456.026 228.28 456.001 228.256 455.976 228.231C455.731 227.446 455.608 224.746 455.436 221.654C455.24 217.801 455.117 215.666 454.921 214.611C454.896 214.464 454.872 214.341 454.823 214.194C457.327 212.549 458.063 209.334 456.443 206.88C456.32 206.709 456.246 206.561 456.173 206.439C452.442 199.248 453.595 190.438 459.069 184.008C460.739 182.069 460.763 179.296 459.168 177.309C459.045 177.161 458.947 177.014 458.849 176.867C457.768 175.075 456.173 170.535 457.793 160.424C458.333 156.989 459.757 154.166 461.892 152.277C462.973 151.295 463.635 149.97 463.684 148.571C463.684 148.473 463.684 148.399 463.684 148.35C464.274 148.105 464.912 148.007 465.599 148.007C466.606 148.007 467.563 148.252 468.496 148.497C468.692 148.546 468.938 148.62 469.159 148.669C469.625 148.767 470.091 148.841 470.558 148.841C470.852 148.841 471.172 148.841 471.466 148.767C473.184 148.497 477.382 147.761 480.23 147.221C482.414 146.804 484.157 145.233 484.697 143.197C485.237 141.16 484.476 139 482.734 137.675C482.218 137.282 482.071 136.89 482.071 136.816C482.071 136.816 482.071 136.816 482.071 136.767C482.513 135.172 482.144 133.503 481.113 132.178C480.475 131.343 479.641 130.141 478.83 128.938C476.327 125.257 475.934 124.3 475.909 124.202V124.153C475.492 122.729 475.345 121.502 475.909 120.202C476.106 119.76 477.112 118.68 479.297 117.159C480.843 116.054 481.703 114.312 481.604 112.471C481.482 110.655 480.402 108.986 478.732 108.078C478.56 107.98 478.438 107.882 478.29 107.784C477.922 107.465 477.456 106.974 477.333 106.459C476.842 104.226 474.903 102.532 472.522 102.213C470.73 101.968 470.018 101.33 469.6 100.814C469.232 100.348 468.79 99.6609 468.79 99.0719C468.79 97.4522 468.029 95.9061 466.704 94.8754C466.704 94.8754 466.704 94.8754 466.655 94.8509C466.606 94.6545 466.606 94.1146 466.606 93.7711C466.606 93.3784 466.606 92.9121 466.679 92.6912C467.121 91.0225 466.679 89.231 465.526 87.9058C465.427 87.7831 465.354 87.6603 465.28 87.5131C465.01 86.875 465.427 86.1879 465.697 85.8198C465.845 85.6234 466.237 85.1081 468.373 84.8872C470.902 84.6173 472.939 82.8258 473.405 80.4698C473.405 80.3962 473.43 80.3226 473.454 80.2244C473.749 79.7827 476.032 78.5066 482.488 78.5066C487.668 78.5066 488.502 79.66 488.625 80.0281C488.674 80.1754 488.699 80.2981 488.723 80.4208C489.018 82.4577 490.466 84.151 492.528 84.8381C492.945 84.9854 493.216 85.2308 493.363 85.6725C493.486 85.9916 493.535 86.2861 493.51 86.556C493.363 88.7647 494.688 90.8507 496.8 91.7832C497.708 92.1759 498.174 92.7894 498.223 93.5993C498.321 95.9307 500.015 97.943 502.372 98.5811C504.557 99.1701 506.889 99.9063 507.748 100.912C508.165 101.403 508.435 101.992 508.558 102.802C508.73 103.857 509.245 104.839 510.031 105.624C510.325 105.992 510.301 106.189 510.276 106.311C510.252 106.41 510.227 106.434 510.129 106.508C509.343 107.048 508.681 107.759 508.263 108.569C508.116 108.839 507.944 109.06 507.723 109.256C507.65 109.305 507.576 109.379 507.502 109.428C505.195 110.876 504.311 113.698 505.391 116.103C505.514 116.373 505.612 116.619 505.686 116.84C505.71 116.938 505.735 117.06 505.759 117.183C506.103 119.195 507.601 120.864 509.638 121.502C509.638 121.502 509.638 121.502 509.663 121.502C510.939 121.895 512.24 122.312 512.707 122.558C513.836 123.171 514.4 124.202 514.253 125.404C514.057 126.901 512.854 128.251 511.307 128.693C510.767 128.546 510.203 128.447 509.638 128.447C508.582 128.447 507.551 128.717 506.619 129.257C505.219 130.067 504.262 131.417 503.967 132.938C503.845 133.577 503.673 134.485 503.501 135C502.838 136.767 503.182 138.73 504.409 140.178L504.827 140.669C506.447 142.583 508.288 144.743 508.73 147.663C509 149.455 509.393 154.903 509.54 159.345C509.614 161.111 510.571 162.731 512.142 163.713C515.112 165.553 517.272 167.909 518.598 170.707C518.696 170.903 518.794 171.075 518.893 171.247C519.015 171.468 519.113 171.64 519.138 171.787C519.187 172.032 519.236 172.278 519.31 172.523C521.126 178.266 519.408 184.892 514.719 190.217C513.713 191.37 513.247 192.843 513.418 194.315C513.59 195.788 514.425 197.138 515.677 198.021C519.654 200.843 522.305 205.113 522.943 209.727C523.827 216.108 520.734 221.629 514.67 224.501C510.301 226.562 504.09 227.838 498.493 227.838C497.683 227.838 496.873 227.814 496.112 227.765C494.124 227.617 491.497 227.078 488.723 226.489C485.876 225.875 482.93 225.262 480.843 225.139C480.745 225.139 480.622 225.139 480.524 225.139C479.199 225.139 477.898 225.581 476.867 226.39C476.523 226.66 476.179 226.906 475.737 227.102C475.639 227.151 475.541 227.176 475.443 227.2C474.142 227.593 473.037 228.378 472.301 229.458C472.104 229.532 471.908 229.556 471.736 229.556C471.662 229.556 471.491 229.556 471.343 229.507C470.73 229.311 470.067 229.188 469.429 229.188C468.815 229.188 468.201 229.286 467.612 229.458C467.612 229.458 467.563 229.458 467.538 229.458C467.342 229.507 467.121 229.507 466.949 229.507C466.704 229.507 466.483 229.483 466.262 229.409C465.673 229.237 465.059 229.139 464.47 229.139C463.807 229.139 463.12 229.262 462.506 229.483C462.285 229.556 462.04 229.581 461.917 229.581L462.04 229.556ZM485.63 161.161C485.262 161.161 484.894 161.185 484.501 161.234C481.899 161.602 479.886 163.615 479.641 166.093C479.542 167.026 479.665 168.032 480.009 168.891C480.819 171.075 483.004 172.523 485.434 172.523C485.507 172.523 485.557 172.523 485.63 172.523C485.778 172.523 485.925 172.523 486.097 172.498C486.514 172.449 486.907 172.4 487.275 172.302C489.632 171.713 491.374 169.799 491.546 167.492C491.644 166.265 491.35 164.94 490.712 163.885C489.779 162.339 488.11 161.332 486.244 161.185C486.097 161.185 485.9 161.161 485.655 161.161H485.63Z" fill="#1F1F1F"/>
<path d="M1110.96 229.556C1110.74 229.556 1110.69 229.507 1110.67 229.483C1111.06 226.096 1109.34 222.832 1106.27 221.09C1104.53 219.666 1100.41 211.273 1095.18 200.647C1094.07 198.414 1092.82 195.837 1091.69 193.604C1090.17 190.561 1086.93 188.646 1083.4 188.646C1083.25 188.646 1083.1 188.646 1082.95 188.646C1079.25 188.818 1076.03 191.076 1074.78 194.364C1073.62 197.358 1072.47 200.352 1071.42 202.978C1069.4 207.985 1067.64 212.402 1066.14 215.445C1064.05 219.74 1065.97 224.82 1070.46 226.881C1070.51 226.881 1070.53 226.906 1070.61 227.004C1070.88 227.348 1070.73 228.206 1070.65 228.599C1069.16 228.746 1067.66 228.845 1066.21 228.845C1059.53 228.845 1053.3 227.249 1047.16 223.936C1046.55 223.593 1045.89 223.347 1045.2 223.151C1045.15 223.151 1045.08 223.126 1045.05 223.102C1043.43 221.949 1041.49 221.36 1039.55 221.36C1038.08 221.36 1036.61 221.703 1035.26 222.366C1034.32 222.832 1033.22 223.077 1031.94 223.077C1029.39 223.077 1026.42 222.194 1023.82 221.384C1021.98 220.82 1020.45 220.378 1019.23 220.182C1018.69 220.083 1018.15 220.034 1017.61 220.034C1017.07 220.034 1016.48 220.083 1015.91 220.182C1014.46 220.452 1012.92 220.991 1010.73 221.826C1007.64 223.004 1004.13 224.329 1000.01 224.329C999.859 224.329 999.736 224.329 999.589 224.329C994.36 224.206 989.303 222.513 984.958 219.421C983.363 218.267 981.423 217.678 979.435 217.678C978.797 217.678 978.158 217.752 977.52 217.875C974.918 218.39 972.684 219.961 971.408 222.169C971.015 222.857 969.935 224.697 967.235 224.697C965.492 224.697 963.552 223.936 961.662 223.225C961.319 223.077 960.877 222.93 960.484 222.783C959.404 222.39 958.275 222.194 957.121 222.194C955.378 222.194 953.635 222.66 952.113 223.593C952.113 223.593 952.015 223.642 952.015 223.666C950.321 224.697 949.069 225.409 947.621 225.409C946.271 225.409 944.921 224.697 943.595 223.298C940.821 220.353 941.459 217.286 946.344 210.218C949.192 206.095 950.518 203.837 950.91 201.334C950.959 201.04 950.984 200.745 951.008 200.451C951.279 194.438 951.058 187.886 950.837 180.965C950.051 156.915 949.143 129.724 969.346 114.263C977.397 108.103 988.837 104.569 1000.69 104.569C1012.55 104.569 1023.94 108.177 1031.7 114.729C1034.15 116.815 1036.12 119.465 1037.32 122.435C1038.62 125.576 1041.74 127.736 1045.3 127.957C1045.49 127.957 1045.69 127.957 1045.86 127.957C1049.2 127.957 1052.32 126.214 1053.91 123.417C1056.02 119.735 1058.41 115.981 1061.15 111.956C1061.6 111.318 1062.38 110.459 1062.95 109.845C1065.57 106.999 1065.97 102.876 1063.9 99.6363C1063.61 99.1701 1063.41 98.7283 1063.31 98.2866C1062.31 94.1637 1062.97 90.3108 1065.16 87.7094C1067.51 84.8872 1070.83 84.2982 1073.21 84.2982C1074.34 84.2982 1075.52 84.4209 1076.74 84.6909C1077.23 84.7891 1077.68 84.9363 1078.12 85.1326C1079.39 85.7216 1080.77 86.0161 1082.14 86.0161C1084.89 86.0161 1087.57 84.8627 1089.36 82.7031C1091.45 80.1999 1095.72 78.4575 1099.77 78.4575C1102.32 78.4575 1104.51 79.1692 1105.95 80.4698C1106.69 81.1325 1107.18 81.9668 1107.6 83.1939C1108.26 85.2308 1109.71 86.9732 1111.67 88.053C1111.97 88.2739 1111.94 88.3966 1111.92 88.4211C1110.23 89.869 1109.12 91.9796 1108.9 94.1392C1108.51 98.262 1107.23 99.9799 1103.92 100.986C1102.57 101.379 1101.34 101.575 1100.21 101.575C1098.88 101.575 1097.71 101.305 1096.5 100.765C1095.23 100.176 1093.85 99.8818 1092.48 99.8818C1090.37 99.8818 1088.26 100.569 1086.56 101.919C1086.19 102.213 1085.78 102.483 1085.26 102.753C1081.75 104.667 1079.96 108.545 1080.89 112.275C1082.41 118.386 1087.27 126.754 1093.21 130.263C1096.55 132.227 1101.24 133.675 1105.76 135.074C1108.85 136.031 1112.02 137.012 1114.47 138.092C1117.03 139.221 1118.57 141.7 1118.06 143.859C1117.52 146.191 1115.01 146.583 1113.56 146.583C1111.94 145.454 1110.03 144.865 1108.07 144.865C1107.01 144.865 1105.93 145.037 1104.92 145.405C1104.83 145.43 1104.7 145.454 1104.56 145.454C1103.87 145.454 1102.54 145.16 1100.58 144.571C1099.67 144.301 1098.76 144.178 1097.83 144.178C1096.21 144.178 1094.61 144.571 1093.19 145.381C1090.96 146.632 1089.38 148.694 1088.84 151.099C1088.82 151.246 1088.77 151.369 1088.7 151.491C1087.15 154.191 1087.22 157.479 1088.89 160.105C1090.42 162.51 1092.75 165.21 1094.79 167.566C1096.23 169.21 1097.58 170.756 1098.52 172.106C1104.09 179.959 1107.8 188.671 1111.36 197.113C1113.83 202.929 1116.14 208.402 1119.11 213.899C1119.11 213.924 1119.21 214.095 1119.23 214.12C1120.88 216.942 1124 218.635 1127.29 218.635C1128.05 218.635 1128.81 218.537 1129.57 218.366C1129.96 218.267 1130.28 218.218 1130.55 218.169C1130.67 218.169 1130.99 218.096 1130.99 218.096C1131.41 217.997 1131.83 217.924 1132.17 217.924C1132.32 217.924 1132.66 217.924 1132.79 218.145C1132.83 218.243 1132.96 218.464 1132.59 219.151C1132.56 219.224 1132.52 219.274 1132.49 219.347C1132.05 219.764 1130.09 221.31 1122.48 225.016C1113.61 229.335 1111.31 229.605 1111.21 229.605C1111.21 229.605 1111.16 229.605 1111.13 229.605C1111.09 229.605 1110.99 229.605 1110.99 229.605L1110.96 229.556ZM1043.63 193.726C1042.5 193.726 1041.34 193.923 1040.26 194.34C1039.65 194.561 1039.01 194.782 1038.37 194.953C1034.59 195.96 1031.92 199.125 1031.7 202.831C1031.7 203.224 1031.65 203.641 1031.62 204.058C1031.5 206.88 1032.85 209.58 1035.23 211.298C1035.65 211.617 1036.07 211.911 1036.48 212.255C1038.2 213.703 1040.39 214.464 1042.6 214.464C1043.5 214.464 1044.41 214.341 1045.32 214.071C1048.39 213.163 1050.75 210.807 1051.51 207.837C1051.73 206.954 1052.02 206.021 1052.34 204.966C1053.37 201.776 1052.39 198.316 1049.81 196.058C1048.1 194.536 1045.86 193.751 1043.58 193.751L1043.63 193.726Z" fill="#1F1F1F"/>
<path d="M640.65 388.999C637.483 388.999 634.734 387.919 633.138 386.029C632.844 385.661 632.525 385.072 632.206 384.213C630.978 380.876 627.64 378.643 623.908 378.643H608.492C607.437 375.182 608.615 374.274 608.983 373.955C611.094 372.287 612.273 369.808 612.15 367.207C612.125 366.642 612.101 366.102 612.076 365.685C612.003 364.09 611.904 362.102 612.052 361.415C612.052 361.415 612.076 361.39 612.101 361.366C612.911 361.219 613.844 361.145 614.997 361.145C616.642 361.145 618.532 361.268 620.373 361.415C622.116 361.538 623.736 361.66 625.234 361.685C625.283 361.685 625.308 361.685 625.357 361.685C628.081 361.685 630.634 360.507 632.304 358.47C633.286 357.267 634.488 355.672 635.348 354.494C636.698 352.678 637.95 351.01 639.103 349.611C641.165 347.157 641.607 343.794 640.208 340.923C638.49 337.414 637.483 333.438 637.189 329.07C635.839 309.241 636.771 288.037 637.68 267.546C637.851 263.791 637.999 260.061 638.146 256.404C638.22 254.539 638.195 252.698 638.146 250.784C638.121 249.091 638.097 247.348 638.146 245.631L641.73 257.901C642.442 260.38 644.357 262.417 646.861 263.398C647.941 263.815 649.07 264.036 650.199 264.036C651.721 264.036 653.243 263.668 654.593 262.932C655.182 262.858 655.501 262.834 655.747 262.834C655.87 262.834 655.968 262.834 656.066 262.858C656.704 263.006 657.367 263.055 658.03 263.055C659.797 263.055 661.54 262.564 663.013 261.582C665.051 260.257 666.401 258.22 666.744 255.913L668.315 245.606C669.666 246.342 671.187 246.71 672.685 246.71C674.01 246.71 675.336 246.44 676.539 245.876C679.166 244.673 680.982 242.293 681.399 239.569L681.547 238.661L682.921 237.827C683.437 240.232 685.082 242.318 687.365 243.471C688.666 244.134 690.089 244.477 691.538 244.477C692.642 244.477 693.747 244.281 694.803 243.888C694.876 245.95 694.827 248.06 694.803 250.097C694.778 251.889 694.729 253.754 694.778 255.594C694.852 259.03 695.048 262.392 695.269 265.975C695.49 269.681 695.735 273.435 695.784 277.141C695.834 280.552 695.981 284.724 696.128 289.117C696.668 304.406 697.306 323.45 695.318 333.831C695.244 334.273 695.146 334.69 695.048 335.107C694.459 337.586 695.097 340.187 696.791 342.175C698.46 344.138 700.989 345.267 703.64 345.267C703.664 345.267 740.707 344.923 741.1 344.923C737.761 347.77 737.148 352.531 739.774 355.991C739.774 355.991 739.799 356.04 739.823 356.139C739.823 356.188 739.872 356.335 739.627 356.629C737.221 359.476 737.049 363.501 739.234 366.519C739.283 367.035 739.357 367.697 739.259 367.992C738.375 371.379 739.823 374.912 742.867 376.876H714.564C711.078 376.876 707.911 378.814 706.512 381.833C704.425 386.275 701.308 388.189 696.054 388.189H695.711C691.243 388.14 688.297 386.299 686.211 382.226C684.762 379.428 681.817 377.612 678.527 377.538C676.613 377.489 673.299 377.44 668.389 377.44C664.658 377.44 661.123 377.465 658.472 377.538C654.839 377.612 651.623 379.821 650.395 383.06C649.757 384.729 648.947 385.882 647.769 386.79C645.977 388.165 643.326 388.974 640.674 388.974L640.65 388.999Z" fill="#1F1F1F"/>
<path d="M1042.4 388.999C1040.49 388.999 1038.1 388.508 1035.38 387.576C1034.32 387.207 1033.22 387.036 1032.09 387.036C1032.02 387.036 1031.92 387.036 1031.84 387.036C1030.25 387.085 1028.65 387.085 1027.08 387.085C1016.43 387.085 1011.94 386.201 1010.05 385.465C1009.78 385.367 1009.51 385.269 1009.24 385.195C1008.4 384.95 1007.47 384.68 1006.44 384.508C1005.9 384.41 1005.36 384.385 1004.82 384.385C1004.13 384.385 1003.44 384.459 1002.76 384.606C1002.53 384.655 1002.26 384.704 1002.04 384.753C1001.11 384.974 1000.03 385.195 998.877 385.195C998.509 385.195 998.14 385.195 997.772 385.121C997.036 385.023 996.103 384.655 995.465 384.385C994.213 383.845 992.863 383.575 991.512 383.575C989.843 383.575 988.199 383.993 986.701 384.802C985.4 385.514 983.559 386.324 980.736 386.324C980.417 386.324 980.073 386.324 979.705 386.299C978.797 386.226 977.815 385.956 976.661 385.441C975.36 384.852 973.936 384.532 972.512 384.532C971.457 384.532 970.426 384.704 969.419 385.023C968.855 385.195 968.339 385.318 967.848 385.318C966.915 385.367 964.461 385.441 961.76 385.441C959.772 385.441 953.684 385.44 952.923 384.41C951.941 383.035 952.211 378.544 953.365 377.244C953.635 376.949 954.052 376.581 955.01 376.287C957.293 375.624 959.232 374.176 960.435 372.237C960.95 371.428 961.81 370.397 964.117 369.636C965.394 369.219 966.375 368.875 967.063 368.654C968.487 368.164 969.763 367.354 970.794 366.299C971.383 365.71 972.193 365.022 973.273 364.262C974.648 363.28 976.268 362.716 978.158 362.544C981.644 362.249 984.688 360.139 986.063 357.096C987.438 354.053 986.922 350.519 984.737 347.942C984.492 347.647 984.271 347.353 984.05 347.009C982.675 344.801 982.479 341.954 983.485 338.322C985.326 331.647 991.709 329.733 999.859 327.916C1002.39 327.352 1004.82 326.788 1006.85 326.1C1009.92 325.021 1012.21 322.542 1012.89 319.499C1013.56 316.529 1012.6 313.462 1010.34 311.302C1009.26 310.247 1008.13 309.167 1007.35 307.94C1005.19 304.529 1003.2 299.253 1006 293.657C1007.89 289.878 1011.54 286.761 1016.35 284.896C1019.74 283.571 1022.03 280.552 1022.25 277.092C1022.37 274.957 1022.66 272.797 1022.96 270.515C1023.52 266.098 1024.11 261.509 1023.4 257.533C1023.28 256.87 1023.08 256.232 1022.84 255.619C1022.84 255.619 1022.84 255.57 1022.81 255.545C1021.66 252.87 1019.23 250.882 1016.26 250.195C1015.99 250.122 1015.79 250.023 1015.62 249.827C1015.05 249.189 1015.23 247.79 1015.37 247.005C1015.52 246.22 1015.57 245.385 1015.5 244.6V240.87C1017.41 240.428 1019.13 239.471 1020.43 238.072C1020.9 238.072 1021.78 238.023 1022.91 237.998H1023.42C1025.63 237.925 1028.65 237.851 1030.94 237.851C1032.09 237.851 1033.81 237.851 1034.3 238.047C1035.65 239.324 1037.34 240.232 1039.21 240.575C1039.53 240.624 1040.12 240.747 1040.24 241.36C1040.39 242.097 1040.39 242.71 1040.24 243.152C1039.77 244.723 1039.75 246.367 1040.22 247.937C1040.29 248.183 1040.29 248.477 1040.22 248.796C1040.09 249.385 1039.8 249.704 1039.21 249.876C1035.33 251.03 1032.65 254.367 1032.53 258.22C1032.36 263.447 1033.17 271.055 1033.61 275.153L1033.73 276.331C1034.15 280.307 1037.29 283.546 1041.47 284.283C1047.33 285.313 1049.4 288.185 1050.5 290.541C1052.78 295.351 1051.43 299.277 1049.27 304.283C1047.8 307.744 1046.82 310.222 1046.92 313.118C1046.99 315.523 1048.07 317.806 1049.94 319.45C1051.24 320.603 1053.08 321.83 1055.02 323.082C1057.33 324.579 1059.51 326.002 1060.84 327.524C1064.89 332.138 1068.08 340.874 1066.43 347.525C1066.29 348.089 1066.09 348.629 1065.84 349.095C1063.73 353.194 1065.18 358.151 1069.23 360.63C1070.21 361.219 1071.19 362.2 1072.15 363.133C1074.19 365.121 1075.81 366.618 1078.17 367.526C1079.34 367.992 1080.6 368.213 1081.85 368.213C1082.95 368.213 1084.06 368.041 1085.11 367.673C1085.26 367.624 1085.38 367.575 1085.53 367.526C1085.58 367.526 1085.63 367.477 1085.7 367.452C1086.68 367.059 1087.59 366.667 1088.62 366.618C1088.72 366.618 1088.8 366.618 1088.89 366.618C1090.22 366.618 1091.45 367.108 1092.55 367.55L1092.75 367.624C1093.93 368.115 1095.2 368.36 1096.48 368.36C1097.29 368.36 1098.1 368.262 1098.88 368.065C1099.52 367.918 1100.09 367.771 1100.7 367.771C1101.98 367.771 1103.21 368.36 1104.92 369.808C1105.07 369.931 1105.22 370.078 1105.37 370.274C1106.59 371.771 1108.26 372.876 1110.18 373.415C1110.4 373.464 1110.54 373.538 1110.69 373.636L1111.16 373.955C1116.78 377.735 1117.1 379.575 1116.61 380.974C1116.24 382.005 1115.63 382.447 1114.55 382.447C1114.3 382.447 1114.03 382.447 1113.74 382.373C1113.2 382.275 1112.66 382.25 1112.12 382.25C1110.5 382.25 1108.88 382.643 1107.45 383.404C1106.45 383.944 1105.44 384.263 1104.36 384.385C1103.87 384.434 1103.35 384.459 1102.84 384.459C1101.12 384.459 1099.45 384.164 1097.85 383.87C1096.68 383.674 1095.72 383.502 1094.83 383.404C1094.54 383.379 1094.22 383.355 1093.93 383.355C1092.67 383.355 1091.45 383.575 1090.29 384.042L1089.88 384.213C1088.72 384.68 1087.4 385.195 1085.6 385.318C1085.19 385.342 1084.77 385.367 1084.35 385.367C1081.82 385.367 1079.44 384.827 1077.14 384.287C1076.5 384.14 1075.76 383.968 1075.1 383.845C1074.44 383.723 1073.77 383.649 1073.11 383.649C1071.54 383.649 1069.99 384.017 1068.59 384.729C1066.85 385.612 1064.67 386.741 1062.53 386.937C1062.21 386.962 1061.87 386.987 1061.55 386.987C1060 386.987 1058.68 386.643 1057.5 386.25C1056.49 385.931 1055.46 385.76 1054.43 385.76C1053.23 385.76 1052.02 385.98 1050.89 386.398C1050.35 386.594 1049.74 386.839 1049.25 387.036C1046.99 387.944 1044.66 388.852 1042.96 388.925C1042.79 388.925 1042.6 388.925 1042.42 388.925L1042.4 388.999Z" fill="#1F1F1F"/>
<path d="M187.104 388.999C186.981 388.999 186.883 388.999 186.834 388.925C186.907 388.508 186.956 388.066 186.932 387.649C186.932 387.134 186.858 386.569 186.736 385.907C186.392 383.772 184.87 381.98 182.734 381.195C181.163 379.87 177.039 371.452 172.67 362.568C170.706 358.544 168.472 354.003 167.294 351.893C166.164 349.905 163.98 348.678 161.623 348.678C161.476 348.678 161.304 348.678 161.157 348.678C158.628 348.85 156.443 350.445 155.584 352.703C154.701 355.083 152.933 359.771 150.969 364.679C149.202 369.072 147.729 372.581 146.551 375.133C146.109 376.09 145.692 376.974 145.274 377.759C144.366 379.453 144.366 381.44 145.25 383.134C146.133 384.827 147.778 386.054 149.742 386.422C150.086 386.496 150.159 386.594 150.208 386.643C150.454 386.937 150.331 387.698 150.257 388.091C148.883 388.238 147.533 388.312 146.207 388.312C140.046 388.312 134.301 386.815 128.606 383.747C128.115 383.477 127.6 383.281 127.06 383.134C126.863 383.085 126.839 383.035 126.814 382.986C126.642 382.766 126.716 382.324 126.814 381.931C127.084 381.44 127.747 381.023 128.852 380.508C131.429 379.281 132.828 376.557 132.239 373.857C132.19 373.612 132.166 373.366 132.19 373.096C132.411 368.777 134.964 362.593 137.689 356.065C140.217 349.93 142.623 344.138 143.212 339.721C143.212 339.672 143.212 339.647 143.212 339.598C143.409 337.708 142.844 334.518 142.378 332.947C142.108 332.015 141.592 331.131 140.88 330.42C140.708 330.248 140.487 330.027 140.316 329.855C139.653 329.193 138.965 328.53 138.401 327.696C137.223 325.953 135.185 324.898 133 324.898C132.828 324.898 132.681 324.898 132.509 324.898C130.153 325.07 128.091 326.444 127.133 328.481C126.569 329.683 125.734 330.542 124.482 331.156C123.721 331.549 122.837 331.745 121.905 331.745C120.579 331.745 119.45 331.303 118.763 330.567C118.149 329.904 117.928 329.021 118.1 327.966C119.327 327.18 120.26 326.027 120.702 324.702C122.936 323.72 124.384 321.609 124.433 319.278C124.433 318.959 124.458 318.664 124.507 318.419C124.801 316.358 123.967 314.296 122.297 312.946C118.419 309.83 114 306.32 107.863 303.817C106.292 303.179 104.402 302.713 102.585 302.296C100.671 301.829 98.8542 301.412 97.4059 300.774C94.6565 299.572 88.495 295.252 82.7508 290.541C76.0738 285.043 71.8761 280.528 71.5079 278.417C71.3852 277.73 71.9743 276.773 72.5635 276.135C72.9562 275.693 73.3735 275.35 73.7909 275.129C75.7056 274.147 76.933 272.307 77.1048 270.245C77.2766 268.184 76.3193 266.196 74.5764 264.969C70.3296 261.926 68.6604 259.864 69.0531 258.048C69.4213 256.281 70.1823 255.3 71.3115 255.103C74.6746 254.49 76.933 251.471 76.442 248.281C76.3438 247.569 76.442 246.931 76.712 246.367C77.2521 245.361 78.3813 244.747 79.7069 244.747C79.9278 244.747 80.1487 244.747 80.3942 244.796C80.7134 244.845 81.057 244.87 81.3761 244.87C83.9782 244.87 86.3839 243.348 87.3413 240.992V240.919C87.9795 239.495 89.8943 237.851 91.4162 237.851C91.8335 237.851 92.2017 237.974 92.4718 238.244L107.446 252.404C108.673 253.557 110.294 254.171 111.987 254.171C112.503 254.171 113.018 254.122 113.509 253.999C115.694 253.484 117.437 251.962 118.1 249.925C118.664 248.256 120.039 246.465 122.297 246.465C123.697 246.465 124.924 247.201 125.71 247.815C128.336 249.876 130.987 254.932 133.221 259.57C134.203 261.631 136.314 262.981 138.695 263.104C138.818 263.104 138.941 263.104 139.064 263.104C141.322 263.104 143.409 261.999 144.562 260.159C144.759 259.84 144.98 259.545 145.201 259.275C146.919 257.238 149.447 256.159 152.54 256.159C153.571 256.159 154.652 256.281 155.756 256.527C156.493 256.674 157.106 256.944 157.671 257.312C158.751 258.024 160.027 258.392 161.329 258.392C161.77 258.392 162.237 258.343 162.679 258.245C164.397 257.901 165.919 256.895 166.827 255.447C168.251 253.214 171.614 250.833 176.818 250.833C179.15 250.833 181.163 251.496 182.489 252.674C183.471 253.557 183.839 254.662 184.158 255.717C184.674 257.435 185.95 258.858 187.668 259.619C187.717 259.619 187.742 259.643 187.742 259.643C187.84 259.742 187.963 259.864 187.938 259.962C187.938 259.987 187.938 260.012 187.938 260.012C187.938 260.012 187.914 260.012 187.865 260.061C186.392 261.091 185.435 262.662 185.263 264.38L185.214 264.773C184.87 268.38 184.084 270.368 180.623 271.399C179.371 271.767 178.267 271.938 177.236 271.938C175.763 271.938 174.511 271.595 173.161 270.859C172.154 270.294 171.025 270.024 169.92 270.024C168.177 270.024 166.459 270.687 165.207 271.963C164.569 272.626 163.587 273.043 162.801 273.411C160.297 274.54 158.849 277.068 159.193 279.669C160.052 285.78 164.937 294.688 170.878 298.148C173.946 299.94 178.217 301.265 182.341 302.541C185.164 303.425 188.061 304.308 190.295 305.29C192.627 306.32 194.026 308.578 193.584 310.566C193.069 312.775 190.565 313.045 189.485 313.069C189.485 313.069 189.46 313.069 189.436 313.069C188.184 311.818 186.49 311.155 184.772 311.155C183.692 311.155 182.611 311.4 181.63 311.94C181.531 311.989 181.36 312.014 181.237 312.014C180.402 312.014 178.438 311.523 175.394 310.517C174.707 310.296 173.995 310.173 173.308 310.173C171.933 310.173 170.583 310.591 169.454 311.4C167.76 312.603 166.803 314.542 166.901 316.554C166.901 316.652 166.901 316.75 166.901 316.824C166.901 316.971 166.852 317.388 166.68 317.609C165.256 319.425 165.011 321.855 166.066 323.916C167.343 326.395 169.822 329.364 172.326 332.211C173.627 333.708 174.854 335.132 175.738 336.359C180.844 343.549 184.207 351.5 187.472 359.206C189.73 364.507 191.866 369.538 194.566 374.544C194.615 374.642 194.64 374.716 194.665 374.765C195.106 376.336 196.211 377.686 197.733 378.495C198.69 379.011 199.77 379.256 200.851 379.256C201.464 379.256 202.078 379.183 202.692 379.011C203.526 378.765 204.385 378.544 205.048 378.446C205.171 378.446 205.318 378.397 205.441 378.373H205.49C205.809 378.299 206.177 378.225 206.472 378.225C206.57 378.225 206.914 378.225 207.037 378.422C207.061 378.495 207.208 378.716 206.865 379.354C206.84 379.403 206.816 379.452 206.791 379.502C206.472 379.821 204.876 381.17 197.635 384.704C189.239 388.778 187.349 388.901 187.177 388.901H187.153L187.104 388.999Z" fill="#1F1F1F"/>
<path d="M817.542 388.999C817.198 388.999 815.062 388.778 806.053 384.41C798.149 380.557 796.382 379.06 796.038 378.716C796.013 378.667 795.964 378.594 795.94 378.544C795.571 377.857 795.694 377.587 795.743 377.514C795.866 377.317 796.234 377.317 796.357 377.317C796.701 377.317 797.143 377.416 797.486 377.489L797.683 377.538C797.683 377.538 797.879 377.563 797.977 377.587C798.64 377.686 799.597 377.955 800.456 378.201C801.119 378.397 801.807 378.471 802.469 378.471C803.648 378.471 804.826 378.176 805.882 377.636C807.551 376.778 808.754 375.305 809.269 373.563C809.269 373.489 809.318 373.44 809.367 373.366C812.338 367.845 814.67 362.347 817.149 356.556C818.426 353.537 819.776 350.396 821.175 347.353C822.157 345.218 821.887 342.788 820.488 340.874C819.162 339.083 817.002 338.027 814.719 338.027C814.572 338.027 814.449 338.027 814.301 338.027C810.938 338.224 807.453 338.297 803.918 338.297C795.522 338.297 787.52 337.757 781.358 336.8C772.668 335.451 769.845 333.585 769.011 332.285C769.011 328.947 768.667 325.536 768.323 321.928C767.44 313.069 766.605 304.725 771.343 299.792C772.104 299.007 772.938 298.369 773.896 297.805C775.81 296.7 777.062 294.762 777.234 292.651C777.406 290.516 776.498 288.455 774.779 287.056C772.226 284.97 770.925 283.375 770.827 282.148C770.778 281.608 770.95 281.141 771.392 280.749C771.76 280.405 772.226 280.233 772.791 280.233C775.54 280.233 780.155 283.988 785.482 288.504C787.52 290.246 789.14 291.596 790.245 292.381C791.079 292.97 792.061 293.387 793.092 293.559C795.571 294.001 800.702 294.32 805.882 294.32C809.171 294.32 812.092 294.197 813.884 293.976C815.062 293.829 816.192 293.412 817.149 292.725C818.352 291.89 820.046 290.467 822.132 288.7C827.606 284.086 832.369 280.258 835.241 280.258C835.584 280.258 835.928 280.332 836.223 280.454C837.18 280.871 838.187 281.092 839.218 281.092C840.052 281.092 840.887 280.945 841.697 280.675C843.464 280.037 844.913 278.761 845.674 277.117C846.901 274.491 847.711 271.865 848.055 269.533C848.448 266.662 846.852 263.889 844.103 262.637C843.243 262.245 842.188 261.779 841.5 261.067C840.126 259.668 838.236 258.932 836.345 258.932C835.118 258.932 833.915 259.226 832.786 259.84C831.313 260.65 829.938 261.018 828.343 261.018C827.189 261.018 825.986 260.821 824.636 260.429C820.856 259.3 819.997 257.116 819.628 253.214L819.579 252.747C819.383 250.858 818.352 249.115 816.732 247.986C816.683 247.962 816.658 247.937 816.658 247.913C816.658 247.913 816.658 247.913 816.658 247.864C816.634 247.741 816.756 247.594 816.879 247.52C816.879 247.52 816.904 247.52 816.953 247.471C818.843 246.661 820.242 245.091 820.807 243.201C821.15 242.048 821.568 240.845 822.623 239.888C824.071 238.587 826.281 237.876 828.809 237.876C834.48 237.876 838.162 240.477 839.733 242.907C840.739 244.477 842.384 245.581 844.274 245.974C844.765 246.072 845.256 246.121 845.747 246.121C847.171 246.121 848.546 245.729 849.749 244.943C850.362 244.551 851.025 244.281 851.811 244.109C853.013 243.839 854.216 243.716 855.345 243.716C858.733 243.716 861.507 244.894 863.373 247.128C865.557 249.729 866.22 253.582 865.214 257.705C865.042 258.367 864.723 259.005 864.158 259.693C862.121 262.245 862.268 265.779 864.526 268.159C865.533 269.214 866.785 270.54 867.349 271.374C877.34 285.951 883.085 298.32 885.981 311.499C886.055 311.867 886.104 312.284 886.104 312.775C886.153 315.327 887.724 317.634 890.179 318.714C890.67 320.186 891.676 321.462 893.026 322.321C893.223 323.475 892.977 324.432 892.315 325.168C891.578 326.002 890.302 326.469 888.878 326.469C887.871 326.469 886.89 326.248 886.055 325.83C884.705 325.143 883.796 324.211 883.183 322.91C882.127 320.677 879.869 319.18 877.291 318.984C877.119 318.984 876.948 318.984 876.751 318.984C874.37 318.984 872.136 320.137 870.835 322.051C870.221 322.959 869.436 323.72 868.749 324.383L868.675 324.456C868.503 324.628 868.307 324.824 868.159 324.972C867.374 325.757 866.809 326.714 866.515 327.745C866.024 329.463 865.386 332.947 865.606 335.009C865.606 335.058 865.606 335.107 865.606 335.132C866.245 339.991 868.871 346.322 871.645 353.022C874.616 360.188 877.414 366.937 877.659 371.673C877.659 371.943 877.659 372.213 877.586 372.483C876.948 375.428 878.47 378.422 881.293 379.772C882.471 380.336 883.232 380.778 883.502 381.318C883.6 381.759 883.674 382.226 883.502 382.471C883.453 382.52 883.428 382.569 883.232 382.618C882.643 382.766 882.054 382.986 881.514 383.281C875.278 386.643 868.994 388.287 862.243 388.287C860.795 388.287 859.298 388.214 857.8 388.066C857.727 387.625 857.579 386.815 857.849 386.471C857.898 386.398 857.972 386.299 858.365 386.226C860.501 385.809 862.317 384.483 863.274 382.618C864.232 380.753 864.207 378.569 863.225 376.728C862.783 375.87 862.342 374.912 861.851 373.882C860.574 371.109 858.929 367.256 857.015 362.446C854.879 357.12 852.94 351.991 851.982 349.414C851.05 346.911 848.644 345.193 845.845 344.997C845.674 344.997 845.502 344.997 845.33 344.997C842.728 344.997 840.322 346.347 839.095 348.555C837.818 350.862 835.388 355.795 833.252 360.139C828.49 369.882 823.973 379.06 822.23 380.532C819.898 381.391 818.229 383.379 817.861 385.71C817.738 386.422 817.689 387.036 817.665 387.576C817.665 388.042 817.665 388.533 817.763 388.974C817.714 389.023 817.615 389.048 817.468 389.048L817.542 388.999Z" fill="#1F1F1F"/>
<path d="M840.739 215.126C847.662 215.028 852.866 210.66 857.898 206.463C859.42 205.187 860.992 203.886 862.587 202.684C864.968 200.941 865.901 197.947 864.919 195.273C863.937 192.573 861.262 190.781 858.267 190.781H852.449C851.271 190.61 848.448 189.407 847.637 188.254C847.269 187.714 847.392 187.395 847.417 187.248C847.834 185.996 847.834 184.671 847.466 183.444L847.883 181.996C853.431 162.314 858.684 143.712 853.259 122.999C856.376 124.398 861.826 125.233 867.816 125.233C873.781 125.233 879.181 124.398 882.299 122.999C877.979 137.258 878.445 145.503 881.219 159.737C881.391 160.596 881.759 162.142 883.207 166.314C883.846 168.179 885.343 169.701 887.282 170.437C888.117 170.756 889.025 170.903 889.909 170.903C891.063 170.903 892.216 170.633 893.247 170.118C893.395 170.044 893.591 169.995 893.812 169.995C894.745 169.995 896.07 170.781 897.101 171.443C898.304 172.204 899.679 172.597 901.054 172.597C902.747 172.597 904.417 172.032 905.742 170.903C911.732 165.848 922.459 150.363 924.939 144.055C926.829 139.245 927.663 134.485 928.474 129.871C928.915 127.368 929.357 124.791 929.971 122.239C930.216 121.208 930.192 120.423 930.167 119.834C930.167 119.22 930.167 118.876 930.364 118.705C930.634 118.459 931.149 118.435 931.64 118.435C932.352 118.435 933.408 118.508 934.954 118.656L970.671 164.449C970.401 164.277 970.131 164.13 969.837 164.007C967.75 163.026 964.412 162.535 959.919 162.535C953.046 162.535 944.012 163.737 935.789 165.774C930.904 166.977 926.78 168.327 923.564 169.799C921.649 170.658 920.275 172.302 919.784 174.241C919.293 176.18 919.759 178.241 921.036 179.836C922.165 181.235 923.024 182.634 923.613 184.082C925.11 187.689 925.135 191.542 923.687 195.911C923.564 196.254 922.165 199.665 909.449 210.169C896.782 220.623 892.806 221.728 892.388 221.826C889.59 222.439 887.16 222.734 884.975 222.734C879.918 222.734 876.162 221.237 872.038 217.531C870.688 216.304 868.945 215.715 867.202 215.715C865.459 215.715 863.594 216.378 862.219 217.654L849.626 229.556L840.666 215.126H840.739ZM866.318 135.417C865.361 135.417 864.551 135.442 863.815 135.515C860.501 135.834 857.898 138.313 857.555 141.454C857.457 142.264 857.432 143.197 857.481 144.227C857.628 147.712 860.574 150.485 864.256 150.632C864.674 150.632 865.14 150.657 865.68 150.657C867.055 150.657 868.479 150.608 869.853 150.534C873.609 150.363 876.555 147.442 876.555 143.884V142.19C876.555 138.632 873.609 135.712 869.853 135.54C868.7 135.491 867.497 135.442 866.343 135.442L866.318 135.417Z" fill="#1F1F1F"/>
<path d="M882.324 122.95C881.734 119.735 878.789 117.429 875.401 117.429C875.229 117.429 875.057 117.429 874.886 117.429C873.241 117.551 871.523 117.6 869.436 117.6C867.178 117.6 864.895 117.527 862.685 117.478L860.427 117.404C860.427 117.404 860.304 117.404 860.23 117.404C856.818 117.404 853.873 119.735 853.283 122.926C845.87 119.613 836.37 106.631 833.326 95.6607C831.853 90.3353 832.074 86.3351 834.013 83.7583C834.431 83.1939 839.021 78.3348 871.94 78.3348C895.138 78.3348 898.943 80.9116 899.311 81.2061C902.158 83.5375 903.214 87.4149 902.453 92.7158C900.636 105.281 889.983 119.515 882.373 122.901L882.324 122.95Z" fill="#1F1F1F"/>
<path d="M321.651 229.556C318.067 229.556 315.464 229.286 313.427 228.722C311.193 228.084 309.499 224.893 309.328 222.317C308.984 217.089 310.53 208.991 312.175 200.402C313.427 193.8 314.728 187.002 314.974 182.094C316.078 157.872 314.753 133.356 313.476 109.649C312.936 99.6118 312.371 89.2801 312.003 79.0956C315.096 78.6293 317.551 78.4084 319.539 78.4084C321.528 78.4084 323.271 78.7274 324.277 79.2919C324.695 79.5373 325.505 79.979 325.726 82.0895C326.045 84.9608 328.303 87.3168 331.298 87.9058C333.065 88.2493 334.906 88.6665 336.06 89.6482C342.197 94.8018 347.328 105.649 351.648 115.392C352.041 116.3 352.483 117.306 352.9 118.165C354.029 120.668 356.607 122.189 359.381 122.189C359.994 122.189 360.633 122.116 361.246 121.944C364.462 121.11 368.242 119.024 372.514 116.57C375.386 114.925 378.111 113.355 380.492 112.471C381.277 112.177 382.014 111.735 382.627 111.195C383.511 110.434 384.37 109.894 385.058 109.649C386.555 109.109 388.077 108.839 389.574 108.839C392.275 108.839 394.631 109.698 396.89 110.533C399.074 111.318 401.112 112.079 403.395 112.079C403.616 112.079 403.861 112.079 404.082 112.079C404.401 112.079 404.745 112.005 405.064 111.956C406.783 111.588 408.648 110.729 412.429 108.741C415.374 107.195 418.713 105.453 421.511 104.888C423.5 104.471 425.513 104.275 427.525 104.275C438.867 104.275 450.011 110.974 455.289 120.962C459.61 129.159 458.947 138.141 453.497 144.964C452.613 146.092 449.913 148.031 448.612 148.964C446.28 150.632 445.298 153.504 446.133 156.154C446.231 156.473 446.305 156.768 446.329 157.013C447.385 165.946 443.727 170.781 439.48 176.376C438.621 177.505 437.737 178.658 436.854 179.91C435.135 182.315 435.283 185.505 437.197 187.787C439.382 190.389 441.665 192.745 444.095 195.248C449.839 201.162 455.24 206.733 458.284 214.439C460.984 221.261 460.1 223.249 459.978 223.47C459.806 223.789 459.61 223.863 459.438 223.912C458.824 224.084 457.646 224.157 455.952 224.157C454.258 224.157 452.319 224.084 450.576 224.01C449.128 223.961 447.9 223.912 447.066 223.912C446.476 223.765 445.863 223.691 445.249 223.691C444.292 223.691 443.334 223.887 442.451 224.231C441.493 224.623 441.027 224.673 441.027 224.673H426.814C425.93 224.673 425.046 224.82 424.236 225.139C424.04 225.212 423.892 225.237 423.794 225.237C423.254 225.237 423.156 224.795 423.131 224.329C423.033 222.562 424.138 221.212 426.519 220.182C427.133 219.912 427.845 219.666 428.63 219.445C430.962 218.807 432.803 217.089 433.466 214.881C434.129 212.672 433.564 210.292 431.92 208.574C429.465 205.997 426.2 202.488 421.929 197.8L421.266 197.064C419.916 195.592 417.976 194.757 415.939 194.757C415.865 194.757 415.792 194.757 415.718 194.757C413.607 194.831 411.618 195.788 410.317 197.383C408.501 199.641 406.537 202.144 404.966 204.156C402.536 207.273 400.228 210.193 398.363 212.451C397.16 213.899 395.49 215.911 394.828 216.157C392.667 216.304 390.679 217.408 389.476 219.102C389.084 219.666 388.691 220.231 388.396 220.672C387.512 221.949 386.432 223.519 385.917 223.985C385.917 223.985 385.917 223.985 385.892 223.985C385.892 223.985 385.843 223.985 385.794 223.985C385.426 223.985 384.125 223.691 380.197 221.016C377.325 219.053 375.386 217.384 374.748 216.623C374.649 216.5 374.527 216.378 374.404 216.255C373.569 215.372 372.489 214.733 371.286 214.39C370.599 214.194 369.912 213.85 369.175 213.359C368.905 213.163 368.414 212.795 367.751 212.328L365.395 210.635C364.143 209.727 362.621 209.261 361.124 209.261C359.724 209.261 358.301 209.653 357.098 210.463C354.594 212.132 353.489 215.126 354.397 217.899C354.937 219.519 354.766 221.826 354.569 224.255C354.471 225.605 354.348 227.102 354.324 228.746C352.458 228.427 350.2 228.256 347.426 228.256C343.4 228.256 338.81 228.599 334.366 228.918C329.997 229.237 325.48 229.581 321.577 229.581L321.651 229.556ZM390.753 126.042C390.409 126.042 390.065 126.042 389.722 126.116C387.169 126.484 385.033 128.128 384.149 130.411C380.001 141.111 372.538 157.553 358.399 187.149L355.576 193.088C354.692 194.953 354.741 197.113 355.772 198.929C356.803 200.745 358.62 202.021 360.755 202.389C362.695 202.733 365.223 203.911 368.144 205.285C369.224 205.801 370.673 206.488 372.146 207.101C373.054 207.494 374.06 207.69 375.042 207.69C375.877 207.69 376.736 207.543 377.546 207.248C379.289 206.61 380.713 205.359 381.474 203.739L409.851 163.296C411.422 161.038 411.422 158.117 409.802 155.86C409.434 155.344 408.943 154.534 408.403 152.866C406.881 148.105 406.316 142.853 405.776 137.773C405.702 136.988 405.604 136.227 405.531 135.466C405.162 132.055 402.118 129.503 398.534 129.503C398.461 129.503 398.24 129.503 398.24 129.503C397.553 129.503 396.988 129.282 396.571 128.865C396.497 128.791 396.448 128.742 396.399 128.668C395.049 126.975 392.962 126.018 390.777 126.018L390.753 126.042ZM330.365 111.588C329.481 111.588 328.573 111.735 327.714 112.079C325.063 113.109 323.32 115.539 323.32 118.263V194.757C323.32 197.751 325.455 200.402 328.499 201.187C329.113 201.359 329.751 201.432 330.365 201.432C332.82 201.432 335.127 200.23 336.428 198.168C338.859 194.291 341.559 190.094 344.112 186.119C345.806 183.493 345.388 180.131 343.105 177.947V124.791C343.105 123.49 342.713 122.239 341.952 121.159C340.454 118.999 337.901 116.054 335.422 113.625C334.072 112.299 332.231 111.612 330.365 111.612V111.588ZM352.949 139.123C351.894 139.123 350.838 139.344 349.831 139.81C347.426 140.939 345.904 143.246 345.904 145.798V159.246C345.904 162.265 348.039 164.891 351.108 165.676C351.722 165.823 352.335 165.897 352.949 165.897C355.404 165.897 357.76 164.67 359.037 162.584C362.105 157.602 364.634 153.307 366.745 149.504C368.169 146.927 367.678 143.761 365.493 141.7C364.143 140.423 362.326 139.736 360.51 139.736C359.405 139.736 358.276 139.982 357.245 140.497C355.993 139.589 354.471 139.123 352.949 139.123Z" fill="#1F1F1F"/>
<path d="M385.45 388.999C385.45 388.999 385.303 388.999 385.279 388.999C384.567 388.778 383.83 388.68 383.094 388.68C382.357 388.68 381.596 388.803 380.86 389.023H366.131C365.837 389.023 365.444 388.852 365.1 388.042C364.781 387.207 364.192 383.355 364.83 379.698C365.223 377.44 364.364 375.133 362.547 373.612L362.596 301.51C362.596 300.602 362.4 299.719 362.032 298.884C357.81 289.559 359.16 285.313 362.596 276.577C363.038 275.472 363.161 274.27 362.94 273.092C362.817 272.38 362.94 272.012 363.038 271.791C363.48 270.908 365.027 270.122 366.671 269.264C367.825 268.675 368.635 268.233 369.298 267.791C369.445 267.668 369.617 267.57 369.764 267.447C372.489 265.165 374.919 262.662 377.497 260.012C384.739 252.551 391.587 245.483 403.69 244.845C403.935 244.845 404.205 244.845 404.475 244.845C406.316 244.845 408.28 245.14 410.17 245.434C411.275 245.606 412.404 245.778 413.386 245.876C413.607 245.876 413.852 245.901 414.073 245.901C415.669 245.901 417.215 245.385 418.467 244.453C418.983 244.06 419.646 243.545 420.161 243.103C422.395 241.287 424.948 239.25 427.575 238.612C429.686 238.096 431.699 237.851 433.589 237.851C441.739 237.851 447.557 242.759 448.097 250.048C448.44 254.613 446.305 259.153 442.549 261.901C441.027 263.006 440.045 264.674 439.848 266.466C439.652 268.282 440.241 270.073 441.469 271.472C445.691 276.209 445.789 278.246 445.789 278.344C445.789 279.743 445.47 280.626 445.126 281.313C444.316 282.957 444.243 284.823 444.905 286.516C445.028 286.835 444.905 287.277 444.832 287.62C444.684 287.939 444.12 289.019 441.837 292.676C440.978 294.05 439.235 296.848 438.621 297.51C438.621 297.51 438.572 297.51 438.572 297.535C437.885 297.903 436.657 297.903 436.264 297.903C435.872 297.903 435.504 297.903 435.111 297.878C434.988 297.878 434.865 297.878 434.743 297.878C432.705 297.878 430.766 298.713 429.416 300.185C428.826 300.823 428.262 301.461 427.746 302.05C426.985 302.934 426.47 303.989 426.249 305.118C426.126 305.707 425.979 306.247 425.783 306.639C424.432 309.486 425.341 312.824 427.967 314.689C429.146 316.014 430.987 319.622 432.263 323.131C434.472 329.168 433.662 330.861 433.221 331.303C433.122 331.401 432.901 331.622 432.165 331.622C431.576 331.622 430.839 331.499 430.005 331.352C429.489 331.254 428.949 331.18 428.434 331.107C428.09 331.058 427.746 331.033 427.403 331.033C423.991 331.033 420.996 333.389 420.456 336.678C420.284 337.757 419.916 338.224 419.646 338.494C419.376 338.764 419.032 338.96 418.615 339.083C416.332 339.672 414.515 341.316 413.779 343.451C413.73 343.623 413.631 343.794 413.533 343.942C413.067 344.58 412.379 344.801 410.416 344.874H409.949C408.157 344.997 406.488 345.709 405.236 346.936C405.015 347.157 404.77 347.402 404.549 347.623C403.542 348.654 402.487 349.733 401.014 350.421C400.425 350.69 398.436 350.862 395.736 350.862C395.196 350.862 394.68 350.862 394.189 350.862C394.14 350.862 394.091 350.862 394.042 350.862C392.201 350.862 390.434 351.549 389.108 352.776C387.758 354.028 386.997 355.746 386.997 357.537V373.219C386.997 373.219 386.997 373.293 386.997 373.391C386.457 375.305 386.85 377.367 388.077 378.986C389.304 380.606 391.219 381.612 393.33 381.759C398.755 382.103 399.958 384.606 400.228 389.097H385.5L385.45 388.999ZM394.018 305.044C392.422 305.044 390.876 305.56 389.624 306.517C387.954 307.793 386.972 309.707 386.972 311.719V321.56C386.972 324.309 388.764 326.788 391.489 327.769C392.324 328.064 393.183 328.211 394.018 328.211C395.981 328.211 397.872 327.45 399.246 326.027C401.799 323.376 404.549 320.603 407.2 317.953L407.593 317.56C409.434 315.72 410.023 313.045 409.09 310.664C408.157 308.284 405.874 306.615 403.199 306.345C400.4 306.075 397.896 305.707 395.564 305.216C395.049 305.118 394.533 305.044 394.018 305.044ZM428.36 268.478C426.494 268.478 424.678 269.165 423.303 270.491C423.279 270.515 423.23 270.564 423.181 270.589C422.935 270.785 422.69 271.03 422.469 271.251L415.963 278.417C414.245 280.282 413.779 282.908 414.736 285.215C415.693 287.522 417.927 289.117 420.505 289.412C421.781 289.534 422.935 289.731 424.015 289.952C424.089 289.952 424.138 289.976 424.211 290.001C424.825 290.172 425.463 290.246 426.102 290.246C428.213 290.246 430.275 289.338 431.625 287.718C432.042 287.228 432.288 287.203 432.46 287.154C434.276 286.908 435.945 286 437.075 284.626C438.007 283.497 438.719 282.589 439.259 281.902C440.389 280.454 440.83 278.638 440.536 276.871C440.217 275.104 439.161 273.509 437.615 272.503C436.044 271.472 434.104 270.491 432.067 269.509L431.6 269.288C430.569 268.797 429.465 268.552 428.36 268.552V268.478Z" fill="#1F1F1F"/>
<path d="M605.841 229.556C594.255 229.556 583.183 228.82 574.69 227.495C562.686 225.605 558.807 223.053 557.654 221.261C557.654 216.648 557.163 211.715 556.696 206.954C555.469 194.757 554.34 183.223 560.869 176.425C562.514 174.732 564.478 173.431 566.908 172.474C569.216 171.566 570.836 169.554 571.179 167.222C571.523 164.866 570.517 162.535 568.528 161.087C562.833 156.866 560.305 154.191 560.133 152.08C560.084 151.344 560.329 150.706 560.894 150.142C561.508 149.553 562.293 149.43 562.833 149.43C566.933 149.43 574.371 155.762 580.36 160.842C584.362 164.253 586.375 165.897 587.848 166.78C588.461 167.149 589.124 167.419 589.836 167.59C592.806 168.327 600.514 168.842 608.566 168.842C613.795 168.842 618.434 168.596 620.668 168.228C621.552 168.081 622.411 167.762 623.172 167.296C624.866 166.265 627.492 164.081 631.027 161.111C637.189 155.909 644.823 149.455 649.119 149.455C649.954 149.455 650.567 149.675 651.107 150.117C651.476 150.436 651.623 150.78 651.598 151.246C651.525 153.774 645.584 158.51 642.368 161.038C640.38 162.633 639.472 165.112 640.012 167.541C640.552 169.946 642.466 171.885 644.97 172.572C651.795 174.413 656.238 177.112 657.146 179.983C658.202 183.321 658.643 192.941 658.153 201.899C657.539 212.844 655.82 220.329 653.415 222.415C648.382 226.783 629.702 229.605 605.817 229.605L605.841 229.556ZM627.001 191.42C626.829 191.42 626.633 191.42 626.461 191.42L619.711 191.91C617.256 192.082 615.096 193.456 613.966 195.542C612.862 197.604 612.96 200.083 614.261 202.07L619.514 210.095C620.815 212.083 623.098 213.261 625.504 213.261C625.946 213.261 626.388 213.212 626.83 213.138C629.702 212.623 631.935 210.463 632.451 207.739C632.696 206.365 632.942 205.015 633.163 203.788C633.433 202.218 633.703 200.696 633.973 199.224C634.341 197.187 633.727 195.101 632.255 193.579C630.904 192.18 629.014 191.395 627.026 191.395L627.001 191.42ZM586.841 191.395C584.828 191.395 582.913 192.205 581.563 193.653C580.09 195.223 579.501 197.334 579.919 199.395L581.342 206.144C581.882 208.745 584.018 210.807 586.767 211.347C587.258 211.445 587.749 211.494 588.24 211.494C590.474 211.494 592.634 210.488 593.984 208.696L598.747 202.389C600.22 200.426 600.465 197.874 599.385 195.69C598.305 193.506 596.071 192.058 593.543 191.861L587.357 191.42C587.185 191.42 586.988 191.42 586.817 191.42L586.841 191.395ZM647.057 186.83C646.492 186.83 645.903 186.904 645.339 187.027L644.897 187.125C642.982 187.591 641.337 188.794 640.404 190.438C639.472 192.082 639.3 194.045 639.963 195.812C640.061 196.107 640.184 196.401 640.306 196.696C641.337 199.346 643.988 201.089 646.934 201.089C647.18 201.089 647.45 201.089 647.695 201.04C650.911 200.721 653.489 198.34 653.93 195.297L654.053 194.364C654.372 192.18 653.513 189.972 651.77 188.499C650.469 187.395 648.8 186.806 647.081 186.806L647.057 186.83ZM628.229 172.498C627.713 172.498 627.296 172.498 626.928 172.548C624.448 172.695 622.239 174.069 621.11 176.18L620.963 176.45C619.833 178.585 619.981 181.161 621.355 183.149C622.656 185.014 624.866 186.168 627.222 186.168C627.37 186.168 627.517 186.168 627.664 186.168C628.842 186.094 629.972 186.021 631.052 185.947C634.685 185.677 637.508 182.83 637.557 179.37C637.606 175.91 634.832 173.014 631.199 172.67C630.168 172.572 629.162 172.523 628.229 172.523V172.498Z" fill="#1F1F1F"/>
<path d="M531.535 181.554C530.995 181.554 530.406 181.554 529.816 181.505C520.537 180.965 510.104 172.719 506.079 162.78C503.182 155.614 504.237 149.135 509.049 144.497C511.872 141.773 515.922 140.841 520.194 139.859C524.195 138.951 528.343 137.994 531.756 135.466C531.878 135.368 532.001 135.27 532.124 135.172C533.621 133.896 535.045 131.76 537.844 127.147C540.912 122.067 544.422 116.3 547.785 116.3C548.546 116.3 549.258 116.594 549.97 117.134C550.019 119.809 551.738 122.214 554.364 123.22C555.223 123.564 556.132 123.711 557.015 123.711C558.832 123.711 560.648 123.048 561.999 121.772C563.005 120.815 564.036 119.858 564.993 118.926C575.672 108.815 582.766 102.409 587.332 99.5873C588.903 98.6302 589.983 97.1332 590.4 95.4153C591.186 92.0286 593.714 87.7831 597.028 84.2982C600.612 80.5435 604.54 78.3102 607.559 78.3102C609.425 78.3102 610.947 79.0955 612.125 80.6416C612.592 81.2552 614.016 83.1448 612.395 86.4578C610.039 91.366 602.061 96.7651 596.096 98.7529C594.525 99.2682 593.223 100.299 592.364 101.624C588.977 107.023 581.49 113.158 574.248 119.097C571.72 121.159 568.651 123.686 566.024 126.018C563.938 127.883 563.251 130.754 564.306 133.307C565.362 135.834 567.915 137.528 570.787 137.552C571.376 137.552 571.597 137.798 571.744 137.969C572.456 138.926 571.572 141.331 571.229 142.239C569.977 145.602 565.558 147.491 561.287 149.307C557.555 150.902 555.002 152.056 553.333 153.774C550.019 157.16 548.645 161.872 547.319 166.437C544.668 175.542 542.139 181.53 531.584 181.53L531.535 181.554ZM542.238 140.129C540.47 140.129 538.727 140.742 537.377 141.97C537.23 142.117 537.058 142.239 536.886 142.362C535.806 143.197 533.719 143.957 531.535 144.767L531.044 144.939C528.417 145.921 526.674 148.277 526.576 150.952C526.502 153.626 528.098 156.081 530.651 157.185C531.559 157.578 532.296 158.044 532.885 158.608C533.351 159.025 533.744 159.492 534.088 159.983C535.413 161.848 537.598 162.928 539.93 162.928C540.151 162.928 540.347 162.928 540.568 162.903C543.121 162.682 545.355 161.161 546.386 158.952C547.614 156.326 548.866 154.265 550.338 152.522C551.639 150.976 552.13 148.964 551.713 147.025C551.296 145.086 549.995 143.442 548.154 142.509C547.54 142.19 547.024 141.896 546.607 141.552C545.306 140.571 543.76 140.104 542.213 140.104L542.238 140.129Z" fill="#1F1F1F"/>
<path d="M308.149 388.999C307.585 388.999 306.946 388.925 306.259 388.754C305.866 383.109 306.308 375.575 306.775 367.599C307.315 358.249 307.953 347.647 306.995 340.481C306.75 338.665 305.719 337.021 304.148 335.941C302.945 335.107 301.472 334.665 299.999 334.665C299.557 334.665 299.14 334.714 298.698 334.788C297.962 334.911 297.225 335.082 296.636 335.205C295.851 335.377 295.384 335.475 295.139 335.475C295.09 335.475 294.992 335.475 294.967 335.426C294.353 334.493 293.691 333.193 294.034 332.285C294.108 332.088 294.206 331.917 294.329 331.769C296.44 329.512 296.685 326.199 294.918 323.671L294.869 323.597C294.231 322.665 294.427 321.217 294.697 320.186C295.262 318.076 294.697 315.842 293.2 314.198C292.61 313.56 292.242 312.603 292.095 311.425H300.171C302.233 311.4 304.172 310.541 305.498 309.069C306.824 307.597 307.413 305.633 307.118 303.719C306.136 297.706 306.112 291.252 306.087 284.994C306.014 269.092 305.94 254.048 292.144 243.348C295.213 239.937 301.963 237.827 309.745 237.827C314.851 237.827 321.405 238.906 324.572 241.974C325.455 242.833 325.873 243.643 325.824 244.477C325.75 245.999 324.154 247.348 321.749 249.214C319.147 251.25 317.085 252.993 316.029 255.324C314.728 258.171 313.083 265.533 312.347 269.509C311.979 271.546 312.592 273.607 314.065 275.129C315.415 276.528 317.306 277.313 319.294 277.313C319.466 277.313 319.638 277.313 319.809 277.313C320.129 277.313 320.448 277.288 320.767 277.288C323.222 277.288 326.707 277.877 328.524 282.884C329.751 286.27 329.923 290.81 330.144 295.621C330.193 296.676 330.242 297.731 330.291 298.786C330.414 300.995 331.691 303.007 333.679 304.161C334.784 304.799 336.06 305.118 337.312 305.118C338.319 305.118 339.325 304.922 340.282 304.504C341.657 304.627 343.179 304.676 344.946 304.676C346.837 304.676 348.8 304.603 350.691 304.553C352.605 304.48 354.569 304.431 356.509 304.431C359.332 304.431 364.02 304.431 368.291 306.075C373.029 307.891 375.926 311.204 377.374 316.48C379.903 325.659 379.387 350.077 378.749 358.74C378.552 361.366 378.062 362.47 377.89 362.765C377.742 362.863 377.595 362.936 377.472 362.961C374.33 363.894 372.268 366.765 372.538 369.882C372.587 370.421 372.636 371.035 372.686 371.599C373.275 377.808 374.085 386.324 370.918 388.214C370.476 388.484 370.034 388.606 369.642 388.606C368.12 388.606 367.187 386.864 366.966 385.244C366.45 381.465 366.647 377.219 366.966 373.17C367.187 370.25 365.37 367.55 362.498 366.495C361.614 366.176 360.559 364.875 360.363 362.765C359.945 358.445 360.51 354.053 361.124 349.39C361.884 343.574 362.67 337.561 361.369 331.622L361.197 330.861C361.05 330.223 360.878 329.315 360.633 328.53C359.847 325.757 357.245 323.769 354.201 323.597C352.949 323.524 350.47 323.45 347.549 323.45H347.524C345.658 323.45 343.866 324.162 342.541 325.413C341.215 326.665 340.479 328.383 340.479 330.174C340.479 332.8 340.037 333.806 339.325 334.518C338.662 335.181 337.607 335.622 336.183 335.794C332.353 336.26 329.629 339.573 330.095 343.205C331.543 354.396 330.414 363.084 327.027 367.035C325.382 368.949 323.295 369.882 320.595 369.882C320.251 369.882 319.908 369.882 319.564 369.832C319.368 369.832 319.147 369.808 318.95 369.808C317.06 369.808 315.244 370.52 313.893 371.82C312.421 373.244 311.709 375.231 311.93 377.219C312.421 381.318 312.789 385.858 310.899 387.87C310.064 388.778 308.91 388.95 308.076 388.95L308.149 388.999Z" fill="#1F1F1F"/>
<path d="M278.225 330.542C276.605 330.542 274.936 330.052 273.414 329.094C270.247 327.131 268.48 325.045 268.161 322.935C267.743 320.162 269.707 317.757 272.113 315.106C272.53 314.664 273.021 314.1 273.414 313.634C273.905 313.045 274.298 312.357 274.543 311.646C286.989 312.971 287.554 319.695 287.455 321.732C287.185 326.493 282.963 330.542 278.274 330.542H278.225Z" fill="#1F1F1F"/>
<path d="M227.46 388.999C227.46 388.999 227.215 388.999 227.019 388.901C226.184 388.582 225.3 388.434 224.416 388.434H209.884C209.884 388.434 209.442 388.385 208.509 387.993C207.601 387.625 206.644 387.428 205.662 387.428C205.024 387.428 204.385 387.502 203.772 387.674C202.913 387.674 201.612 387.723 200.237 387.772C198.469 387.846 196.456 387.919 194.738 387.919C193.02 387.919 191.792 387.845 191.179 387.674C191.007 387.625 190.81 387.526 190.639 387.207C190.516 386.987 189.632 384.95 192.382 378.029C195.499 370.201 200.998 364.507 206.816 358.519C209.32 355.942 211.676 353.513 213.91 350.838C215.825 348.58 215.972 345.39 214.254 342.985C213.321 341.684 212.363 340.408 211.529 339.303C207.208 333.61 203.477 328.677 204.557 319.573C204.582 319.303 204.655 318.984 204.778 318.64C205.637 315.99 204.655 313.094 202.323 311.4C200.875 310.37 198.199 308.431 197.291 307.277C191.743 300.332 191.056 291.179 195.475 282.835C200.826 272.675 212.192 265.852 223.729 265.852C225.055 265.852 226.405 265.95 227.73 266.122C228.05 266.171 228.393 266.196 228.712 266.196C231.437 266.196 233.966 264.699 235.119 262.269C236.42 259.57 235.659 256.404 233.303 254.465C232.738 253.999 231.904 253.386 231.265 252.87C229.105 251.226 226.429 249.189 224.736 247.078C222.772 244.624 222.477 242.612 223.803 240.771C225.128 239.593 230.431 237.802 232.665 237.802C234.039 237.802 234.579 238.219 234.874 238.538C236.936 240.796 237.451 243.986 237.918 247.078C238.286 249.361 238.63 251.52 239.513 253.41C240.471 255.447 244.767 262.858 248.179 268.576C249.455 270.736 251.836 271.988 254.34 271.988C255.126 271.988 255.936 271.865 256.721 271.595C258.293 271.055 260.207 270.515 262.367 270.515C263.889 270.515 265.436 270.785 266.982 271.325C269.167 272.086 272.997 275.89 272.948 278.27C272.948 278.785 272.776 279.497 271.597 279.865C271.082 280.012 270.665 280.086 270.296 280.086C270.198 280.086 269.904 280.086 269.658 279.963C268.824 279.644 267.94 279.497 267.056 279.497C265.019 279.497 263.055 280.332 261.68 281.853C259.716 284.037 259.471 287.154 261.017 289.608C262.638 292.16 263.963 294.173 264.945 295.547C266.025 297.068 267.719 298.124 269.634 298.418C270.247 298.516 270.935 298.615 271.548 298.713H271.745C275.378 299.277 279.895 299.964 282.644 301.02C292.856 304.946 301.767 315.155 303.338 324.775C304.418 331.328 302.16 337.046 296.784 341.291C291.285 345.635 285.467 347.917 279.944 347.917C277.072 347.917 274.298 347.304 271.671 346.101C270.689 345.66 269.658 345.439 268.603 345.439C266.614 345.439 264.65 346.224 263.3 347.721C261.214 349.979 260.993 353.292 262.736 355.795L270.665 367.108C271.401 368.753 272.825 370.053 274.568 370.691C275.402 370.986 276.262 371.158 277.145 371.158C278.127 371.158 279.109 370.961 280.017 370.569C281.564 369.906 283.16 369.17 284.215 368.654C287.676 367.01 290.671 365.611 292.66 365.611C293.887 365.611 294.55 366.127 294.82 367.231C294.82 367.305 294.844 367.378 294.844 367.403C294.182 368.802 289.444 372.213 284.853 375.526L284.559 375.747C283.871 376.238 283.331 376.63 283.037 376.851C282.276 377.342 281.564 377.686 280.852 377.906C279.502 378.299 278.324 379.06 277.44 380.115C275.353 382.348 268.578 387.379 266.074 387.674H266.001C265.461 387.183 264.38 385.612 263.472 384.312C263.153 383.845 262.736 383.256 262.318 382.643C261.116 380.925 259.127 379.845 256.967 379.698C256.255 379.452 254.488 377.317 253.309 375.919C251.419 373.636 249.063 370.642 246.583 367.477C244.938 365.391 242.901 362.789 241.035 360.458C239.759 358.863 237.771 357.906 235.635 357.832C235.561 357.832 235.488 357.832 235.414 357.832C233.376 357.832 231.413 358.666 230.087 360.139L229.277 361.022C224.883 365.832 221.52 369.464 218.991 372.09C217.347 373.808 216.758 376.213 217.445 378.422C218.132 380.655 219.973 382.373 222.33 382.986C228.295 384.532 228.148 387.134 228.099 387.993C228.074 388.484 227.976 388.925 227.411 388.925L227.46 388.999ZM267.645 311.916C265.951 311.916 264.307 312.48 263.03 313.535C261.459 314.836 260.551 316.726 260.6 318.714C260.772 326.272 262.858 332.996 266.492 337.659C267.621 339.107 268.873 340.334 270.247 341.316C271.499 342.224 272.997 342.69 274.543 342.69C275.157 342.69 275.771 342.616 276.384 342.469C278.495 341.929 280.238 340.481 281.073 338.567C281.539 337.487 282.276 336.457 283.184 335.573C284.902 333.904 287.161 332.898 289.223 332.898C289.419 332.898 289.616 332.898 289.812 332.923C290.18 332.947 290.548 333.046 290.966 333.193C291.776 333.487 292.61 333.61 293.445 333.61C295.016 333.61 296.563 333.119 297.815 332.187C299.754 330.739 300.76 328.432 300.441 326.125C299.828 321.634 297.152 317.536 295.016 314.885C292.414 311.646 289.125 308.725 285.516 306.443C284.338 305.707 282.963 305.314 281.588 305.314C280.533 305.314 279.477 305.535 278.52 305.977C276.262 307.008 274.764 309.094 274.568 311.449C274.568 311.523 274.568 311.597 274.543 311.67C274.052 311.621 273.561 311.597 273.119 311.597C271.99 311.597 271.18 311.744 270.517 311.891C270.051 311.989 269.634 312.063 269.241 312.063C269.094 312.063 268.946 312.063 268.799 312.038C268.431 311.989 268.038 311.94 267.67 311.94L267.645 311.916ZM249.063 313.045C246.289 313.045 243.736 314.591 242.606 317.069C242.361 317.609 242.116 318.051 241.796 318.468C240.176 320.701 240.152 323.671 241.723 325.929L243.711 328.751C245.037 330.665 247.271 331.72 249.578 331.72C250.437 331.72 251.296 331.573 252.106 331.279C255.2 330.15 257.041 327.156 256.525 324.064C256.329 322.812 256.181 321.511 256.108 320.235C256.108 320.014 256.108 319.793 256.083 319.573C256.01 316.431 253.653 313.756 250.388 313.167C249.922 313.094 249.48 313.045 249.013 313.045H249.063ZM253.039 292.798C252.671 292.798 252.303 292.823 251.91 292.872C248.768 293.338 246.338 295.768 246.019 298.762L245.896 300.013C245.773 301.191 245.65 302.394 245.503 303.596C245.086 307.057 247.565 310.222 251.149 310.885C251.591 310.959 252.057 311.008 252.499 311.008C255.592 311.008 258.415 309.069 259.274 306.149C259.962 303.866 260.575 301.142 260.011 298.32C259.913 297.854 259.765 297.387 259.569 296.946L259.471 296.725C258.317 294.295 255.789 292.774 253.039 292.774V292.798Z" fill="#1F1F1F"/>
<path d="M463.292 388.999L462.703 388.115C461.402 386.201 459.168 385.048 456.762 385.048C456.59 385.048 456.418 385.048 456.222 385.048C453.644 385.244 451.361 386.741 450.306 388.974V387.257C450.306 384.189 448.047 381.514 444.881 380.802L444.709 379.968C444.12 376.753 441.174 374.422 437.762 374.422C437.566 374.422 437.394 374.422 437.197 374.422C436.559 374.471 435.847 374.52 435.086 374.569C439.456 362.986 437.492 349.218 435.086 339.696H444.807C446.845 339.696 448.784 338.862 450.134 337.414C451.484 335.966 452.073 334.027 451.803 332.113C450.944 326.248 451.484 322.272 453.473 319.965C453.792 319.597 454.16 319.278 454.553 318.984C457.179 317.118 458.112 313.805 456.787 310.959C460.493 306.149 464.789 303.719 469.527 303.719C473.896 303.719 478.487 305.879 482.807 309.977C482.365 310.689 480.917 311.278 478.389 311.768C474.608 312.48 472.153 315.94 472.841 319.499L472.939 319.965C473.577 323.131 476.498 325.413 479.861 325.413C480.033 325.413 480.181 325.413 480.352 325.413C481.359 325.34 482.439 325.291 483.347 325.266C484.55 325.266 485.728 324.947 486.784 324.383L492.577 321.241C494.566 321.192 496.431 320.358 497.732 318.91C499.033 317.487 499.622 315.597 499.377 313.732C499.254 312.873 499.254 312.578 499.254 312.554C499.254 312.48 499.254 312.407 499.254 312.357C499.451 311.155 499.254 309.903 498.763 308.774V308.701C498.763 308.701 498.542 308.063 498.248 305.854C498.125 304.995 497.978 303.719 498.051 303.253C498.616 303.032 499.181 302.909 499.843 302.909C500.801 302.909 501.734 303.155 502.544 303.351L502.691 303.4C503.305 303.547 503.918 303.645 504.532 303.645C504.925 303.645 505.318 303.621 505.71 303.547C506.766 303.375 508.582 303.056 510.595 302.713C512.878 302.296 514.793 300.872 515.726 298.86C516.659 296.848 516.511 294.541 515.284 292.676C515.21 292.553 515.21 292.528 515.21 292.455C515.456 290.786 515.014 289.044 514.008 287.669C513.517 287.007 512.977 286.221 512.216 285.092C509.908 281.681 509.515 280.773 509.491 280.675V280.601C509.024 279.031 509.024 277.951 509.491 276.896C509.491 276.871 509.515 276.822 509.54 276.773C509.54 276.773 509.884 276.209 511.283 275.08C512.805 273.853 513.713 272.086 513.762 270.221C513.836 268.331 513.05 266.515 511.626 265.214C511.234 264.871 510.988 264.527 510.865 264.233C510.055 262.098 508.141 260.478 505.784 259.987C504.778 259.766 504.066 259.374 503.575 258.76C503.256 258.367 502.887 257.803 502.838 257.263C502.691 255.717 501.979 254.244 500.801 253.14C500.776 253.017 500.801 252.502 500.801 252.134C500.801 251.79 500.801 251.471 500.85 251.25C501.095 249.606 500.703 247.937 499.721 246.563C499.672 246.49 499.598 246.391 499.573 246.269C499.328 245.704 499.647 245.091 499.966 244.673C500.064 244.551 500.383 244.134 501.807 243.888C504.336 243.446 506.422 241.729 507.232 239.422C507.453 239.078 509.54 237.827 515.701 237.827C520.439 237.827 521.298 238.808 521.446 239.25C521.446 239.324 521.495 239.373 521.495 239.446C522.01 241.36 523.385 242.956 525.25 243.815C525.422 243.888 525.692 244.06 525.864 244.526C525.938 244.747 525.987 244.968 526.011 245.164C526.159 247.348 527.435 249.312 529.399 250.416C529.964 250.735 530.283 251.152 530.381 251.668C530.847 254.122 532.713 256.134 535.241 256.87C537.426 257.508 538.752 258.146 539.316 258.809C539.685 259.226 539.906 259.717 540.028 260.355C540.249 261.41 540.74 262.392 541.452 263.226C541.747 263.595 541.698 263.766 541.648 263.84C541.624 263.938 541.599 263.963 541.526 264.012C540.765 264.576 540.151 265.263 539.709 266.073C539.586 266.27 539.464 266.441 539.292 266.589C537.23 268.356 536.469 271.08 537.303 273.558L537.353 273.705C537.966 275.865 539.685 277.657 541.943 278.344C542.778 278.614 543.612 278.884 543.956 279.08C545.036 279.669 545.527 280.601 545.404 281.755C545.232 283.129 544.079 284.43 542.655 284.822C542.581 284.822 542.532 284.822 542.459 284.822C539.169 284.822 536.272 286.982 535.561 290.05C535.536 290.172 535.487 290.32 535.462 290.442C534.898 292.479 535.389 294.639 536.788 296.283C538.408 298.197 539.906 300.112 540.274 302.639C540.495 304.038 541.035 311.13 541.108 315.99C541.133 318.984 543.269 321.585 546.337 322.346C548.006 322.763 548.694 323.352 549.111 323.843L549.185 323.916C549.381 324.137 549.602 324.358 549.847 324.579C550.805 325.413 551.59 326.37 552.179 327.426C551.664 327.524 551.148 327.622 550.682 327.72C547.859 328.285 545.699 330.444 545.232 333.119C544.741 335.794 546.043 338.494 548.497 339.917C549.185 340.31 549.43 340.555 549.504 340.629C549.504 340.629 549.504 340.653 549.504 340.678C549.7 342.175 549.209 344.359 548.694 346.69C547.589 351.697 546.214 357.955 549.995 362.323L549.651 362.372C547.589 362.617 545.723 363.746 544.619 365.415C543.49 367.084 543.22 369.145 543.858 371.01L549.97 389.023C549.455 388.901 548.08 388.533 546.263 385.195C545.036 382.962 542.606 381.588 540.004 381.588C539.66 381.588 539.341 381.588 538.997 381.661C536.027 382.078 533.646 384.213 533.081 387.011L532.664 389.023C531.584 386.545 529.006 384.925 526.183 384.925C523.36 384.925 520.783 386.52 519.678 388.999L520.66 385.98C521.642 382.937 520.218 379.673 517.272 378.152C516.217 377.612 515.063 377.342 513.934 377.342C511.896 377.342 509.883 378.176 508.509 379.747C503.378 385.612 496.161 388.974 488.748 388.974C483.765 388.974 478.683 387.551 473.626 384.778C472.546 384.189 471.319 383.87 470.091 383.87C469.134 383.87 468.201 384.042 467.293 384.41C465.231 385.244 463.734 386.962 463.218 389.023L463.292 388.999ZM486.882 338.101C480.942 338.101 475.296 340.334 470.558 344.555C462.874 351.402 460.518 360.286 464.151 368.924C468.226 378.618 478.781 385.661 489.288 385.661C495.891 385.661 501.93 382.937 506.766 377.784C513.443 370.691 515.014 361.832 511.062 353.513C506.766 344.433 496.824 338.101 486.882 338.101Z" fill="#1F1F1F"/>
<path d="M732.213 228.108C728.728 227.151 725.242 223.176 722.173 219.666C720.062 217.261 718.344 215.347 716.871 214.243C715.619 213.31 714.097 212.819 712.526 212.819C712.354 212.819 712.182 212.819 712.011 212.819C710.243 212.942 708.549 213.506 706.831 214.144C705.825 214.513 704.965 214.832 704.425 214.832C704.303 214.832 704.106 214.832 703.983 214.709C702.314 213.236 702.486 212.353 702.535 212.083C702.609 211.715 702.781 210.831 705.775 209.629C708.255 208.623 709.899 206.39 710.047 203.837C710.366 198.07 710.489 187.1 710.317 180.818C710.268 179.026 709.458 177.333 708.058 176.106C706.757 174.953 705.039 174.315 703.271 174.315C703.173 174.315 703.051 174.315 702.952 174.315C701.921 174.364 700.817 174.413 699.688 174.462C696.595 174.609 693.452 174.781 690.899 174.781C689.107 174.781 687.831 174.707 686.996 174.535C686.972 174.02 686.947 173.406 686.898 172.719C686.53 166.191 685.843 154.142 689.647 151.639C690.458 151.393 693.992 150.608 705.947 150.608C727.77 150.608 732.704 152.35 733.686 152.866C733.711 152.915 733.76 152.964 733.785 153.013C735.822 155.909 735.478 161.332 735.159 166.584C734.963 169.603 734.791 172.425 735.086 174.584H720.725C718.835 174.584 717.043 175.296 715.717 176.572C714.392 177.848 713.655 179.566 713.68 181.358C713.729 184.18 713.312 187.051 712.894 189.824C712.158 194.757 711.495 199.42 712.894 204.328C713.091 204.991 713.361 205.604 713.753 206.169C714.956 207.936 717.362 210.242 722.002 214.39C725.045 217.114 728.188 219.936 730.274 222.366C731.87 224.231 733.514 226.734 732.189 228.059L732.213 228.108ZM725.266 156.424C725.266 156.424 725.021 156.424 724.898 156.424C723.18 156.498 721.02 156.743 717.632 157.185C713.974 157.676 711.323 160.768 711.593 164.277C711.863 167.762 714.932 170.462 718.614 170.462H718.638C721.142 170.462 723.646 170.363 725.856 170.216C727.893 170.069 729.783 169.112 731.011 167.541C732.238 165.971 732.68 164.007 732.238 162.118C732.164 161.848 732.115 161.602 732.042 161.357C731.207 158.437 728.409 156.424 725.242 156.424H725.266Z" fill="#1F1F1F"/>
<path d="M624.424 229.556C623.638 229.556 622.804 229.065 621.944 228.108C621.257 227.348 620.889 226.219 624.448 221.654C625.528 220.28 626.437 219.077 627.026 217.997C627.541 217.04 627.787 215.985 627.787 214.93C627.787 211.862 626.314 209.163 624.645 206.046C621.454 200.083 617.477 192.671 622.828 179.444C624.154 176.18 626.069 173.186 628.523 170.535C629.849 169.112 630.487 167.198 630.242 165.308C628.769 154.068 629.898 138.558 630.684 131.957C630.904 130.067 632.009 125.993 632.991 124.423C634.537 121.969 636.894 121.232 640.355 120.423C643.915 119.564 647.965 118.607 649.045 113.109C649.954 108.496 647.818 98.4093 645.928 93.8447C645.584 93.0348 645.093 92.2986 644.455 91.6605C644.234 91.4397 643.817 91.0715 643.498 90.8016C641.681 89.231 641.337 88.4211 641.828 86.875C642 86.3106 642.393 85.6235 643.252 85.6235C643.522 85.6235 643.817 85.6725 644.185 85.7952C644.97 86.0652 645.78 86.2124 646.615 86.2124C648.333 86.2124 650.003 85.6235 651.328 84.5191C651.623 84.2737 651.942 84.0037 652.187 83.7829C654.937 81.4024 658.349 78.4575 662.694 78.4329C664.56 78.5556 670.476 80.2244 671.998 81.0834C672.513 81.4515 672.881 82.065 673.348 83.2921C674.06 85.1572 675.606 86.6296 677.57 87.3168C677.791 87.3904 677.865 87.464 677.914 87.5131C677.938 87.5131 677.963 87.5622 677.987 87.5867C678.38 88.2493 679.288 90.3599 681.473 96.5442C684.271 104.495 684.566 106.189 684.591 106.361C685.303 113.183 680.908 119.809 676.662 126.239C676.072 127.147 675.483 128.006 674.943 128.865C673.495 131.098 673.569 133.945 675.14 136.104C675.606 136.742 675.655 137.331 675.655 137.552C675.655 137.945 675.655 138.976 673.79 140.325C671.482 142.019 670.525 144.89 671.384 147.54L671.801 148.816C672.562 151.123 673.274 153.283 673.421 154.903C673.421 154.903 673.421 154.976 673.372 155.001C672.194 156.571 671.777 158.535 672.243 160.4C672.709 162.265 673.986 163.86 675.778 164.768C676.49 165.136 677.202 165.504 677.865 165.897C680.025 167.124 681.399 169.087 682.651 170.805C683.02 171.321 683.486 171.983 683.928 172.498C684.713 173.456 685.769 174.216 686.972 174.658C687.119 177.75 687.757 180.523 688.445 183.468C689.574 188.303 690.728 193.285 689.623 199.911C689.107 203.027 686.996 206.61 685.303 209.457C684.787 210.341 684.075 211.519 683.56 212.525C682.406 214.709 682.602 217.286 684.075 219.298L684.345 219.691C686.481 222.587 688.15 225.237 686.947 228.182C686.53 228.182 685.401 228.108 683.83 226.44C682.504 225.016 680.565 224.206 678.576 224.206H664.83C664.314 224.206 663.799 224.255 663.283 224.378C659.871 225.114 656.802 225.458 653.93 225.458C651.23 225.458 648.677 225.139 646.075 224.501C645.486 224.354 644.897 224.28 644.308 224.28C644.234 224.28 644.136 224.28 644.062 224.28L642.074 224.354C639.079 224.452 635.74 224.574 632.844 224.574C630.389 224.574 628.131 225.801 626.854 227.765C625.651 229.605 624.866 229.605 624.375 229.605L624.424 229.556Z" fill="#1F1F1F"/>
<path d="M954.592 388.999C952.702 388.999 950.812 388.925 949.634 388.803C949.118 388.754 948.603 388.631 948.014 388.434C947.253 388.189 946.467 388.066 945.682 388.066C944.675 388.066 943.669 388.263 942.736 388.68C942.466 388.803 942.171 388.852 942.098 388.852C941.582 388.925 940.993 388.95 940.306 388.95C939.348 388.95 938.317 388.876 937.311 388.827C936.28 388.754 935.249 388.704 934.291 388.704C933.825 388.704 933.383 388.704 932.99 388.754C932.598 388.385 932.622 385.686 932.622 384.778C932.622 384.263 932.622 383.772 932.647 383.33C932.72 381.269 931.788 379.281 930.094 377.956C930.045 377.906 930.02 377.882 929.971 377.857C929.652 376.728 929.701 372.826 929.75 368.335C929.775 366.004 929.824 362.495 929.75 359.574C929.701 356.85 927.884 354.421 925.16 353.464C924.35 353.169 923.515 353.046 922.705 353.046C920.741 353.046 918.826 353.832 917.476 355.255C916.691 356.065 915.979 356.703 915.267 357.194C912.149 359.329 894.548 362.814 888.436 362.814C884.607 362.814 881.489 365.71 881.391 369.342C881.366 370.912 881.121 372.115 880.63 373.219C880.139 374.348 878.2 376.409 876.53 376.409C876.211 376.409 875.892 376.336 875.647 376.164H875.622C875.254 375.526 874.861 373.219 874.542 371.354C873.806 367.059 873.805 365.955 873.805 365.906C873.805 365.636 873.879 365.366 873.977 365.022C874.493 363.231 874.198 361.317 873.143 359.746C873.069 359.623 872.995 359.501 872.946 359.353C872.946 359.304 872.627 358.347 872.136 354.47C871.94 352.875 871.645 350.74 871.817 350.003C871.817 350.003 871.817 350.003 871.842 349.979C872.774 349.611 873.805 349.414 874.91 349.414C876.53 349.414 878.126 349.832 879.55 350.175C880.163 350.322 880.777 350.494 881.293 350.592C881.784 350.69 882.274 350.74 882.765 350.74C883.109 350.74 883.477 350.715 883.821 350.666C887.012 350.2 898.353 348.163 902.06 347.402C903.312 347.157 904.49 346.568 905.423 345.733C905.791 345.414 906.233 344.997 906.7 344.531C908.344 342.911 909.032 340.629 908.516 338.445C908.001 336.26 906.356 334.469 904.171 333.659C902.256 332.972 901.299 331.843 901.324 331.45C901.324 331.401 901.324 331.377 901.324 331.328C902.306 329.094 901.913 326.518 900.317 324.628C899.433 323.573 898.181 321.83 896.144 318.812C892.118 312.824 891.504 311.351 891.455 311.179V311.13C890.866 309.143 890.498 307.008 891.48 304.799C891.529 304.701 892.56 302.566 899.826 297.976C902.134 296.504 903.312 293.903 902.846 291.301C902.379 288.7 900.317 286.614 897.617 285.976C896.586 285.731 895.8 285.387 895.285 284.896C894.573 284.283 893.738 283.35 893.689 282.442C893.542 279.031 890.719 276.282 887.11 276.037C882.986 275.767 881.734 274.196 881.317 273.681C880.679 272.871 879.918 271.669 880.041 270.613C880.335 268.012 879.034 265.484 876.653 264.159C876.653 264.159 876.628 264.134 876.604 264.11C876.53 263.791 876.53 262.932 876.53 262.368C876.53 261.754 876.53 260.846 876.653 260.576C877.782 258.024 877.119 255.079 875.008 253.189C874.738 252.944 874.542 252.674 874.395 252.355C874.051 251.569 874.272 250.686 875.082 249.631C875.769 248.723 877.66 248.183 880.753 248.011C884.386 247.815 887.258 245.017 887.38 241.581C887.38 241.287 887.454 240.968 887.528 240.624C887.994 239.913 891.652 237.9 902.011 237.9C910.112 237.9 911.585 239.593 911.855 240.33C911.977 240.698 912.051 241.017 912.051 241.336C912.002 244.551 914.408 247.348 917.746 247.962C918.63 248.134 919.145 248.551 919.464 249.385C919.71 250.072 919.784 250.661 919.685 251.128C918.9 254.441 920.839 257.778 924.227 258.907C924.497 259.005 924.742 259.079 924.963 259.202C927.222 260.183 927.344 261.656 927.246 262.687C926.952 265.901 929.112 268.871 932.401 269.705C936.501 270.761 940.993 272.037 942.539 273.853C943.3 274.736 943.693 275.767 943.914 277.288C944.135 278.884 944.945 280.356 946.222 281.411C946.565 281.853 946.688 282.221 946.59 282.491C946.541 282.614 946.516 282.687 946.222 282.884C944.994 283.595 944.037 284.675 943.472 285.927C943.227 286.491 942.932 286.884 942.515 287.228C942.245 287.448 941.926 287.645 941.533 287.792C939.79 288.528 938.415 289.927 937.777 291.645C937.139 293.363 937.262 295.252 938.121 296.872C938.219 297.044 938.317 297.24 938.415 297.412C939.275 299.105 940.821 300.357 942.711 300.897C943.374 301.093 944.061 301.191 944.749 301.191C946.001 301.191 947.228 300.872 948.333 300.259C956.925 295.473 977.815 283.178 986.112 272.65C987.02 271.497 987.953 269.828 989.352 267.202C991.709 262.834 994.139 258.343 996.397 258.343C996.447 258.343 996.471 258.343 996.52 258.343C996.618 258.343 996.643 258.343 996.643 258.343C997.428 258.785 999.319 261.877 1000.69 264.159C1002.73 267.521 1005.19 271.865 1007.35 275.693C1010.54 281.338 1011.99 283.841 1012.7 284.847C1012.53 285.681 1011 286.27 1008.08 286.663C1005.46 287.031 1001.99 287.203 998.337 287.375C995.317 287.522 991.218 287.743 987.928 288.111C985.965 288.332 984.173 289.338 983.019 290.884C981.865 292.43 981.472 294.344 981.89 296.185C982.037 296.798 982.086 297.338 982.062 297.756C981.914 299.277 980.981 300.308 979.656 301.633C978.968 302.32 978.404 302.909 977.937 303.572C977.397 304.333 977.054 305.167 976.882 306.075C975.875 311.327 976.072 332.211 976.784 338.224C976.784 338.297 976.784 338.371 976.808 338.42C976.956 339.475 977.373 340.629 978.257 342.96C979.288 345.61 980.54 348.924 979.533 350.298C979.165 350.813 978.551 351.059 977.594 351.059C977.373 351.059 977.152 351.059 976.906 351.009C976.366 350.96 975.925 350.838 975.556 350.69C974.648 350.298 973.666 350.101 972.684 350.101C971.604 350.101 970.5 350.347 969.518 350.813C967.627 351.721 966.253 353.39 965.811 355.353L965.762 355.599C965.295 357.415 964.412 358.323 963.111 358.323C962.914 358.323 962.693 358.323 962.472 358.249C961.883 358.126 961.343 358.028 960.877 356.04C960.14 352.924 957.244 350.813 954.003 350.813C953.512 350.813 952.997 350.862 952.481 350.96C952.138 351.034 951.794 351.083 951.45 351.108C947.645 351.427 944.798 354.568 945.043 358.175C945.51 365.341 945.731 371.894 945.608 375.281C945.485 378.667 948.063 381.588 951.598 382.103C955.01 382.594 957.636 383.305 959.33 385.22C960.656 386.717 960.95 387.649 960.95 387.846C960.95 387.846 960.901 387.993 960.852 388.091C960.68 388.508 960.14 388.778 959.281 388.901C958.275 389.023 956.581 389.122 954.642 389.122L954.592 388.999ZM943.472 319.523C940.06 319.523 937.114 321.855 936.525 325.045C936.329 326.1 936.034 327.597 935.74 328.456C935.74 328.505 935.691 328.555 935.691 328.579C934.439 330.861 934.684 333.634 936.329 335.671C936.844 336.309 937.434 336.997 937.9 337.561C938.268 337.978 938.636 338.445 939.029 338.911C940.379 340.555 942.441 341.463 944.577 341.463C945.313 341.463 946.05 341.365 946.762 341.119C949.585 340.236 951.524 337.806 951.598 334.984C951.696 332.064 951.745 328.775 951.745 326.174C951.745 324.383 950.984 322.665 949.634 321.413C948.308 320.186 946.541 319.499 944.7 319.499C944.651 319.499 944.307 319.499 944.16 319.499C943.988 319.499 943.816 319.499 943.669 319.499C943.595 319.499 943.521 319.499 943.448 319.499L943.472 319.523ZM959.846 310.738C959.846 310.738 959.527 311.13 958.275 311.695C955.771 312.824 954.2 315.253 954.273 317.879C954.322 319.867 954.494 322.346 954.617 324.162C954.691 325.438 954.764 326.616 954.838 327.72C954.961 330.076 956.409 332.187 958.594 333.291C959.625 333.806 960.754 334.052 961.859 334.052C963.135 334.052 964.436 333.708 965.565 333.046C965.737 332.947 966.032 332.825 966.596 332.8C970.426 332.702 973.47 329.757 973.47 326.125V313.462C973.47 311.4 972.463 309.462 970.769 308.21C969.518 307.277 967.996 306.787 966.425 306.787C965.86 306.787 965.295 306.86 964.731 306.983L964.559 307.032C962.497 307.523 960.754 308.873 959.87 310.713L959.846 310.738Z" fill="#1F1F1F"/>
<path d="M750.084 229.556C749.004 229.556 747.9 229.507 746.746 229.483C745.739 229.458 744.782 229.409 743.825 229.409C743.432 226.857 743.775 224.943 744.88 223.715C745.396 223.126 746.009 222.734 746.844 222.439C752.613 220.329 756.369 215.053 756.295 209.187L755.657 164.645C755.608 160.915 753.963 157.332 751.115 154.755C748.341 152.228 744.659 150.829 740.83 150.829C740.707 150.829 740.462 150.829 740.462 150.829C739.725 150.829 738.4 150.853 736.681 150.902H735.896C732.41 151.025 727.623 151.148 723.99 151.148C722.222 151.148 719.571 151.148 718.761 150.878C718.761 150.878 718.638 150.78 718.638 150.755C716.92 146.608 713.238 143.491 708.697 142.338C708.549 142.289 708.427 142.264 708.304 142.215C705.923 140.595 701.504 134.018 700.326 130.803C700.326 130.779 700.326 130.754 700.35 130.73C700.448 130.656 700.547 130.583 700.62 130.533C704.769 128.202 707.445 124.128 707.813 119.588C708.181 115.048 706.193 110.631 702.486 107.71C698.018 104.226 696.374 99.1701 698.092 94.2373C700.007 88.642 705.505 84.8872 711.765 84.8872C715.079 84.8872 718.565 85.9425 721.903 87.9548C722.198 88.1266 722.492 88.3475 722.836 88.642C725.561 90.8752 728.998 92.0777 732.533 92.0777C733.514 92.0777 734.496 91.9796 735.478 91.8078C736.215 91.6605 736.853 91.5869 737.393 91.5869H737.614C745.199 91.5869 751.533 86.1879 752.343 79.0465C752.416 78.2857 752.49 77.5985 752.539 77.0096C752.686 75.1199 752.465 73.2303 751.827 71.4633C751.582 70.8007 751.287 69.9663 750.993 69.181C748.857 63.512 743.211 59.8554 737.049 59.8554C736.166 59.8554 735.257 59.929 734.349 60.1008C734.079 60.1499 733.784 60.1745 733.49 60.1745C732.974 60.1745 731.428 60.1745 728.458 58.5548C728.85 57.5977 729.145 56.5915 729.317 55.5608C729.562 54.0392 730.029 52.9103 730.569 52.5177C732.729 50.9716 734.398 48.9102 735.405 46.5297C736.411 44.1737 740.069 39.3637 743.751 34.6518C748.194 28.9338 753.104 23.0194 754.503 21.547C755.215 20.8107 756.859 19.4855 758.529 18.1358C761.401 15.8535 763.266 12.6141 763.708 9.08016C764.027 6.60152 764.739 4.85911 766.089 3.26395C767.783 1.25159 770.508 0 773.184 0C775.614 0 777.75 0.981639 779.223 2.74859C781.039 4.95728 781.506 11.2152 780.818 15.4608C780.695 16.197 780.548 16.8596 780.376 17.4732C779.321 21.0316 779.787 24.8109 781.677 28.0258C785.826 35.0936 790.515 43.3148 793.657 51.2415C793.706 51.3642 793.73 51.487 793.755 51.6097C794.05 53.7938 794.884 55.8552 796.185 57.6713C796.676 58.3584 796.799 58.8492 796.848 59.1928C797.069 60.5426 796.75 61.696 795.842 62.7022C795.645 62.923 795.4 63.1439 795.154 63.3402C791.03 66.5306 789.042 71.5615 789.95 76.5187C790.22 78.0403 790.245 79.7336 790.024 81.5006C789.852 82.4577 788.993 86.4333 787.642 91.7832C786.415 96.6423 788.011 101.747 791.84 105.207C794.639 107.71 798.296 109.06 802.052 109.06C803.451 109.06 804.851 108.864 806.201 108.496C808.827 107.759 811.528 107.048 813.099 107.048C813.418 107.048 813.639 107.097 813.737 107.097C814.645 107.293 816.044 108.667 818.033 111.318C820.856 115.048 825.373 117.183 830.086 117.183C831.166 117.183 832.27 117.06 833.375 116.84L845.305 114.263C846.803 117.551 849.577 120.153 853.038 121.576C853.308 121.944 853.603 123.294 853.75 124.104C853.897 124.791 854.265 126.558 853.922 127C853.823 127.147 853.774 127.196 853.774 127.196C852.719 127.834 847.515 128.766 845.821 129.061C841.181 129.871 837.254 132.718 835.192 136.718C834.333 138.411 833.228 139.196 831.117 139.663C830.012 139.908 828.932 140.031 827.999 140.031C826.305 140.031 824.906 139.638 823.63 138.779C821.126 137.135 818.156 136.251 815.161 136.251C814.081 136.251 813 136.374 811.92 136.595L790.515 141.135C783.199 142.681 778.265 149.16 779.026 156.228C779.296 158.706 779.542 161.038 779.566 163.148C779.64 171.689 779.591 180.352 779.566 188.72V188.892C779.517 197.383 779.444 206.169 779.566 214.807C777.872 217.261 777.038 220.133 777.185 223.053C777.283 225.482 776.94 227.838 776.67 229.434H762.186C760.812 229.041 759.388 228.845 757.989 228.845C756.933 228.845 755.878 228.943 754.847 229.164C753.496 229.434 751.999 229.581 750.109 229.581L750.084 229.556Z" fill="#1F1F1F"/>
<path d="M586.767 388.999C585.295 388.999 583.208 388.95 581.809 388.803C581.588 388.803 581.367 388.754 581.146 388.704C580.115 388.508 579.084 388.385 578.053 388.385C576.85 388.385 575.623 388.533 574.444 388.803C574.371 388.803 574.297 388.827 574.273 388.827C573.757 388.901 573.168 388.925 572.481 388.925C571.523 388.925 570.541 388.852 569.486 388.803C568.479 388.729 567.424 388.68 566.466 388.68C566.074 388.68 565.681 388.68 565.288 388.729C565.288 388.729 565.165 388.729 565.141 388.68C565.067 388.557 564.822 387.993 564.822 385.735C564.822 382.937 563.913 380.213 562.22 377.906C562.072 377.293 561.925 375.796 561.925 372.09C561.925 367.673 559.691 363.501 555.935 360.9C553.382 359.133 550.363 358.225 547.294 358.225C545.797 358.225 544.3 358.445 542.851 358.887C537.377 360.531 530.258 361.758 525.422 362.323C519.604 363.035 514.818 366.912 513.197 372.237C513.099 372.532 513.001 372.851 512.854 373.145C512.289 374.446 510.399 376.336 508.754 376.336C508.411 376.336 508.116 376.262 507.871 376.09C507.871 376.09 507.871 376.09 507.846 376.09C507.453 375.305 507.036 372.9 506.766 371.256C506.054 367.084 506.029 365.881 506.029 365.832V365.611C506.275 363.452 505.98 361.292 505.17 359.28L505.121 359.133C505.121 359.133 504.827 358.053 504.36 354.372C504.188 353.022 503.894 350.862 504.041 349.954C505.048 349.513 506.03 349.341 507.11 349.341C508.607 349.341 510.031 349.684 511.479 350.052C512.731 350.371 514.008 350.519 515.284 350.519C516.119 350.519 516.953 350.445 517.788 350.322C518.966 350.126 520.537 349.856 522.256 349.562C526.404 348.825 530.037 346.445 532.198 342.985C534.358 339.549 534.824 335.377 533.499 331.573C533.499 331.573 533.499 331.524 533.499 331.401C533.719 328.309 532.836 325.192 530.995 322.64C530.185 321.511 529.325 320.26 528.417 318.885C524.44 312.996 523.729 311.4 523.679 311.229V311.106C522.869 308.357 522.894 306.59 523.679 304.75C523.729 304.652 523.753 304.553 523.827 304.431C523.827 304.431 524.17 303.891 525.398 302.762C530.896 297.78 531.461 289.633 526.674 284.037C526.429 283.743 526.232 283.448 526.11 283.203C524.342 279.497 520.906 276.724 516.781 275.62C515.333 275.227 514.302 274.613 513.566 273.656C513.075 273.018 512.436 272.086 512.314 271.227C511.921 268.576 510.718 266.073 508.852 264.061C508.779 263.84 508.803 262.932 508.803 262.343C508.803 261.852 508.803 261.41 508.852 261.042C509.147 258.146 508.46 255.226 506.889 252.698C506.815 252.6 506.766 252.453 506.692 252.306C506.349 251.52 506.594 250.612 507.38 249.582C507.551 249.361 507.969 248.796 509.908 248.355C514.302 247.348 517.96 244.477 519.825 240.575C519.874 240.477 519.948 240.379 520.046 240.256C520.046 240.256 523.041 237.827 534.333 237.827C538.457 237.827 543.514 238.465 544.177 240.256C545.282 243.545 547.663 246.416 550.805 248.158C551.271 248.404 551.59 248.796 551.787 249.312C551.909 249.606 551.983 249.876 552.008 250.146C552.572 253.95 554.806 257.361 558.145 259.57C558.856 260.036 559.298 260.576 559.47 261.263C560.747 265.754 564.306 269.337 568.97 270.81C572.014 271.767 574.002 272.773 574.862 273.779C575.451 274.466 575.819 275.227 576.04 276.209C576.482 278.025 577.292 279.743 578.446 281.24L578.519 281.338C578.765 281.681 578.986 282.123 578.888 282.417C578.838 282.589 578.789 282.638 578.74 282.663C577.464 283.694 576.359 284.921 575.524 286.295C575.426 286.442 575.353 286.565 575.254 286.688C572.456 290.148 571.548 294.663 572.824 298.86C574.076 303.056 577.366 306.443 581.661 308.014C582.201 308.21 582.57 308.357 582.815 308.48C584.656 309.486 585.515 311.106 585.27 313.045C584.975 315.425 582.987 317.634 580.557 318.296C575.77 319.376 571.891 322.665 570.222 327.033C568.553 331.401 569.314 336.285 572.235 340.015C574.763 343.23 576.015 345.856 576.457 348.776C576.776 350.887 577.66 361.341 577.832 369.98C577.955 375.796 581.931 380.925 587.749 382.815C589.983 383.526 590.99 384.459 591.554 385.072C592.389 386.005 593.346 387.281 593.076 387.944C592.855 388.508 591.824 388.704 591.505 388.754C591.039 388.827 589.64 388.974 586.866 388.974L586.767 388.999Z" fill="#1F1F1F"/>
<path d="M719.031 388.999C715.865 388.999 713.852 388.876 712.845 388.606C712.305 388.459 711.912 387.87 711.716 387.551C711.47 387.109 711.2 386.471 711.397 385.882C718.565 384.704 723.769 378.741 723.671 371.869C723.622 369.243 723.916 365.415 724.26 360.58C724.53 356.85 724.947 351.206 725.095 346.739C725.242 342.248 723.082 337.954 719.326 335.205C718.467 334.567 717.828 333.266 717.411 331.303C715.226 320.701 716.159 302.737 717.288 293.24C717.485 291.522 718.589 287.178 719.67 285.436C720.799 283.645 722.517 282.565 725.585 281.706C732.582 279.792 737.074 273.337 736.166 266.515C735.724 263.128 734.865 259.202 733.907 256.232C733.195 253.999 731.919 251.962 730.151 250.318C728.335 248.625 728.433 247.766 728.801 246.588C728.9 246.269 729.292 245.287 730.274 245.287H730.421C730.79 245.312 731.158 245.336 731.526 245.336C735.061 245.336 738.498 244.134 741.198 241.949C744.659 239.127 747.384 237.9 750.281 237.851C752.465 238.023 758.21 239.667 760.075 240.624C760.296 240.796 760.591 241.09 760.91 241.679C762.088 243.913 763.88 245.778 766.065 247.152C766.139 247.226 766.188 247.25 766.237 247.299C767.047 248.674 769.06 254.367 769.821 256.551C772.595 264.404 772.987 266.343 773.037 266.662V266.76C773.773 273.779 769.232 280.651 764.838 287.277C761.941 291.669 759.805 295.007 758.725 298.05C757.841 300.48 757.719 303.106 758.308 305.633C758.651 307.106 759.241 308.922 759.83 310.664C760.615 313.045 761.352 315.278 761.499 316.971C761.499 316.971 761.474 317.045 761.425 317.094C760.026 319.204 759.216 321.634 759.142 324.113C758.848 332.383 759.535 344.874 760.026 353.979C760.247 357.807 760.419 361.243 760.542 364.016C760.542 364.556 760.615 365.096 760.714 365.636C760.787 366.078 760.885 366.593 760.984 367.157L761.057 367.55C761.376 369.219 761.72 370.888 761.72 372.164C761.769 378.986 766.998 384.778 774.117 385.882C774.362 386.349 774.338 386.79 774.043 387.232C773.552 387.993 772.276 388.606 771.711 388.606H750.477C749.863 388.606 749.348 388.508 748.931 388.336C746.918 387.428 744.708 386.962 742.524 386.962C740.339 386.962 738.007 387.453 735.945 388.434C735.675 388.557 735.356 388.631 735.012 388.631C733.637 388.631 731.526 388.704 729.071 388.778C725.831 388.901 722.124 389.023 718.982 389.023L719.031 388.999Z" fill="#1F1F1F"/>
<path d="M1136.07 229.556C1121.64 229.556 1118.08 227.937 1117.27 226.955C1116.93 226.538 1116.66 226.145 1116.49 225.801C1114.52 221.531 1110.52 218.415 1105.71 217.408C1102 216.648 1099.06 215.003 1097.83 213.065C1096.92 211.641 1096.92 210.095 1097.8 208.402L1097.93 208.157C1100.95 202.267 1099.45 195.199 1094.25 190.88C1093.56 190.315 1093.02 189.677 1092.55 188.965C1091.2 186.781 1091 183.738 1091.99 180.155C1093.41 174.977 1097.26 172.278 1106.2 170.167C1110.84 169.063 1114.69 165.971 1116.58 161.823C1118.47 157.651 1118.2 152.89 1115.85 148.939C1113.02 144.178 1112.63 139.196 1114.77 134.902C1116.41 131.613 1119.36 128.84 1123.26 126.926C1127.85 124.668 1130.92 120.349 1131.44 115.49C1131.58 114.116 1131.75 112.79 1131.93 111.49C1132.22 109.134 1132.56 106.557 1132.66 104.127C1132.93 98.6302 1129.86 93.452 1124.78 90.7771C1124.66 90.7034 1124.56 90.6298 1124.46 90.5316C1124.32 90.3599 1123.9 89.869 1124.19 87.9058C1124.32 87.0223 1124.37 86.1633 1124.34 85.2799V81.476C1126.18 80.838 1127.88 79.8809 1129.32 78.6293C1129.84 78.6293 1132.34 78.5557 1132.34 78.5557C1134.58 78.5066 1137.65 78.4084 1139.95 78.4084C1141.03 78.4084 1142.85 78.4084 1143.39 78.6293C1144.96 79.8318 1146.65 80.6907 1148.59 81.2306C1149.04 81.3533 1149.31 81.5987 1149.38 81.9668C1149.5 82.6049 1149.53 83.1448 1149.45 83.5865C1149.11 85.3044 1149.09 87.0468 1149.4 88.7647C1149.45 88.9856 1149.43 89.231 1149.38 89.5255C1149.33 89.7954 1149.21 90.1635 1148.74 90.4335C1144.13 93.2066 1141.4 98.0657 1141.6 103.219C1141.7 105.968 1141.97 109.281 1142.41 113.625C1143 119.392 1147.17 124.275 1152.99 126.067C1156.33 127.073 1158.34 128.791 1159.76 131.81C1162.07 136.693 1160.77 140.497 1158.54 145.749L1158.02 146.976C1155.39 153.258 1157.68 160.424 1163.54 164.277L1164.4 164.842C1166.71 166.339 1168.92 167.787 1170.25 169.308C1174.93 174.634 1177.41 183.542 1175.92 189.579C1175.57 190.929 1175.03 191.91 1174.12 192.794C1169.04 197.678 1168.28 205.261 1172.28 211.003C1172.99 212.009 1173.17 212.721 1172.85 213.384C1172.65 213.776 1172.48 214.12 1171.03 214.513C1165.58 216.034 1161.46 220.255 1160.3 225.532C1160.18 226.071 1159.96 226.538 1159.89 226.66C1159.62 227.053 1157.65 228.722 1145.94 229.409C1143.95 229.532 1140.17 229.654 1136.07 229.654V229.556Z" fill="#1F1F1F"/>
</svg>
