<svg width="891" height="880" viewBox="0 0 891 880" fill="none" xmlns="http://www.w3.org/2000/svg">
<path d="M0 70.221C0 68.6979 0.372213 67.0056 1.15048 65.0313C2.06409 62.7184 2.62805 60.2815 2.85364 57.7994C7.17357 51.5378 10.1062 44.4527 11.5612 36.7357C12.5199 34.7049 13.1967 32.5613 13.6027 30.3613C13.7381 29.6054 13.9524 28.872 14.2456 28.1049C16.3436 22.7233 18.8024 21.2002 21.1372 20.354C26.258 18.5038 30.6681 15.0966 33.7473 10.595C34.8527 8.97038 35.7776 8.24832 36.5671 7.83088C42.3421 5.77754 57.7382 0.869813 62.498 0.00108993C63.9756 -0.0214743 65.3968 0.305707 67.0435 1.03905C71.95 3.2165 77.4091 3.82573 82.6765 2.76521C84.8872 2.32521 86.8836 2.41546 88.9703 3.03598C90.6734 3.55496 92.1849 4.84112 93.4481 6.03703C95.7378 8.21448 98.3997 9.95192 101.298 11.1704C102.393 11.633 103.487 12.0617 104.66 12.5242C109.589 14.4422 111.799 15.6945 113.751 17.6689C116.537 20.4894 119.943 22.6217 123.688 23.9192C125.21 25.3407 126.62 26.8074 127.85 28.3079C127.748 29.1992 127.703 30.1018 127.703 31.0044C127.703 34.1295 128.267 37.2208 129.384 40.1655C130.331 42.6588 131.561 45.3665 132.846 48.1532C134.561 51.865 136.162 55.3061 136.422 57.5061C136.49 58.0815 136.523 58.702 136.523 59.3338C136.523 59.8979 136.501 60.5071 136.444 61.1389C136.377 61.9061 136.343 62.662 136.343 63.4292C136.343 69.5328 138.497 75.4785 142.468 80.1832C142.546 82.417 142.592 84.6057 142.625 86.7606V86.9299C135.959 90.1566 131.008 95.9781 128.978 103.097C128.335 105.342 127.613 106.944 126.71 108.14C125.955 109.144 125.131 109.878 124.105 110.487C119.402 113.274 115.691 117.482 113.514 122.502C112.657 124.477 111.923 125.075 111.675 125.278C105.449 130.366 102.156 137.812 102.156 145.371C102.156 149.76 103.272 154.194 105.562 158.21C109.419 165.013 116.153 169.729 123.868 171.016C131.662 172.313 139.614 169.989 145.479 164.709C156.939 154.386 172.121 149.783 188.227 151.746C216.064 155.13 235.216 177.029 235.938 206.283V206.96C235.938 208.111 235.837 209.51 235.634 211.112C235.498 212.184 235.431 213.256 235.431 214.328C235.431 220.781 237.833 227.031 242.232 231.849C242.728 232.39 243.089 232.932 243.36 233.552C243.856 234.669 244.42 236.35 244.42 239.306C244.42 239.893 244.398 240.468 244.375 241.044C244.364 241.416 244.352 241.788 244.352 242.161C244.352 246.256 245.322 250.295 247.195 253.962C248.165 255.857 248.966 257.674 248.966 260.697C248.966 261.126 248.954 261.566 248.921 262.006C248.875 262.649 248.853 263.303 248.853 263.935C248.853 275.172 256.128 285.247 266.99 288.666C272.359 290.358 279.363 292.501 282.905 293.449C305.283 299.429 322.235 302.543 333.289 302.7C339.436 302.791 345.403 300.692 350.151 296.789C352.407 294.938 355.137 292.941 358.295 292.197C370.037 289.455 378.349 278.985 378.349 266.925C378.349 266.925 378.349 266.428 378.349 266.417C378.349 265.718 378.372 265.199 378.394 264.781C379.161 254.74 382.872 244.022 389.121 233.789C391.659 229.637 392.933 224.944 392.933 220.262C392.933 215.467 391.614 210.683 388.963 206.464C383.673 198.047 381 188.661 381 178.575C381 171.591 382.297 164.224 384.857 156.676C385.049 156.101 385.376 155.345 385.827 154.42C387.576 150.832 388.444 146.951 388.444 143.07C388.444 138.771 387.373 134.473 385.241 130.592C384.158 128.516 382.342 123.653 382.342 114.255C382.342 111.153 382.545 107.96 382.917 105.026C383.12 103.447 383.673 102.127 384.248 100.942C385.85 97.614 386.718 93.9699 386.809 90.2806C394.14 89.9986 402.126 90.4386 411.905 91.6345C414.826 92.5822 417.894 92.9884 420.962 92.853L425.327 93.4848C431.722 94.4099 437.576 95.2674 443.723 95.8992C453.322 96.9033 462.729 96.531 473.298 94.7371C475.271 95.2561 477.313 95.5381 479.354 95.5833C483.313 95.6622 487.724 95.0643 494.491 93.9248C497.852 93.3607 500.717 92.8755 502.759 92.8304C503.086 92.8304 503.379 92.8304 503.672 92.8304C514.241 93.214 523.998 87.1442 528.306 77.4867C536.292 73.5718 542.676 69.1944 547.842 64.1174C551.744 68.0097 556.775 70.5482 562.223 71.3944L562.584 71.6313C570.919 77.1595 581.691 77.3965 590.263 72.2518C592.913 70.661 595.947 69.7246 599.828 69.2959C603.55 68.8897 607.136 67.6713 610.351 65.742C618.946 66.8928 626.21 69.2056 632.582 72.8159L634.06 73.6508C640.185 77.0918 648.554 81.7965 652.073 87.6068C653.415 89.8181 654.171 92.2212 654.972 94.7709L655.231 95.6058C657.814 103.808 664.311 110.295 672.533 112.766C677.925 114.391 684.185 114.695 690.151 113.623C693.727 116.444 697.99 118.283 702.502 118.926C721.169 121.622 735.967 114.492 744.19 98.8551C747.032 93.4509 748.589 89.4006 749.254 85.7452C749.525 84.2222 749.672 82.6765 749.672 81.1309C749.672 78.7729 749.446 76.4149 749.243 74.1359C749.017 71.6764 748.758 68.8672 748.623 65.3697C748.611 65.0538 748.611 64.8169 748.611 64.58C748.611 61.7933 749.356 60.0671 750.642 59.8189C754.612 59.0517 763.195 69.2169 767.121 77.7913C768.993 82.6427 769.918 87.3586 769.918 91.9166C769.918 97.9976 768.373 103.74 765.192 109.46C762.992 113.42 761.921 117.753 761.921 122.062C761.921 128.787 764.526 135.42 769.523 140.418C769.523 140.43 769.692 140.61 769.692 140.621C769.704 140.7 769.76 140.949 769.794 141.648C767.606 146.263 765.226 151.012 762.733 155.74C760.737 159.53 759.733 163.693 759.733 167.845C759.733 172.392 760.928 176.927 763.297 180.978C761.199 184.836 760.139 189.101 760.139 193.377C760.139 197.325 761.041 201.274 762.834 204.907C763.207 205.652 763.534 206.52 763.816 207.479C762.225 211.53 760.737 215.591 759.394 219.54C758.469 222.259 758.007 225.079 758.007 227.9C758.007 231.172 758.627 234.432 759.857 237.524C762.406 245.951 769.083 252.551 777.543 254.977C778.129 255.146 778.332 255.248 778.343 255.248C778.343 255.327 778.535 255.564 778.535 256.511C778.535 258.723 777.441 263.089 776.009 268.561L775.885 269.035C775.321 271.212 774.587 274.089 774.305 275.443C774.091 276.492 773.933 277.553 773.843 278.624C773.696 280.452 773.617 282.246 773.617 283.927C773.617 292.265 775.445 297.387 777.215 302.339C778.366 305.555 779.539 308.849 780.103 312.877C780.904 326.596 792.251 337.303 806 337.303H846.334C853.26 337.303 859.903 334.527 864.776 329.597C871.058 331.944 876.01 334.2 880.386 336.682C880.713 341.319 882.27 345.787 884.909 349.612C887.12 352.816 890.12 357.825 890.718 364.312C890.865 365.971 890.944 367.573 890.944 369.096C890.944 377.918 888.44 383.232 886.015 388.354C884.165 392.269 882.417 395.97 881.92 400.99C880.905 410.964 880.251 430.313 880.251 450.214C880.251 468.796 880.826 484.377 881.819 492.962C882.123 495.602 882.834 498.175 883.917 500.6C884.334 501.525 885.09 503.071 885.699 504.267C887.977 508.78 890.549 513.879 890.549 521.066V521.799C890.38 529.009 887.74 534.605 885.417 539.557C884.864 540.731 884.165 542.243 883.747 543.202C882.597 545.887 881.909 548.752 881.717 551.674C881.661 552.475 881.593 553.863 881.593 556.232V560.102C881.604 563.024 881.604 568.101 879.698 572.49C878.266 575.796 877.544 579.316 877.544 582.836C877.544 586.378 878.266 589.932 879.721 593.249C881.841 598.078 882.868 603.234 882.868 608.988C882.868 612.722 882.439 616.671 881.548 621.071C881.277 622.413 880.871 623.643 880.319 624.839C878.683 628.336 877.86 632.093 877.86 635.862C877.86 639.901 878.796 643.928 880.679 647.618C881.108 648.464 881.413 649.287 881.604 650.134C882.586 654.488 883.105 659.171 883.105 663.683C883.105 670.058 881.695 691.088 863.558 693.863C846.537 696.469 795.804 695.905 777.136 694.111C758.379 692.306 756.157 682.141 755.086 677.256C752.898 667.271 745.047 659.509 735.054 657.422C729.144 656.192 723.741 653.766 719.432 650.416C718.27 649.513 717.188 648.554 716.195 647.539C711.367 642.631 704.792 639.844 697.911 639.788C691.031 639.731 684.41 642.417 679.504 647.245C675.793 650.901 666.634 650.844 659.934 650.799H658.333C654.768 650.765 651.238 651.487 647.967 652.886L647.764 652.977C645.531 653.902 643.23 654.849 641.098 654.838C639.925 654.838 638.662 654.556 637.128 653.958C632.47 652.142 627.394 651.713 622.499 652.717C620.525 653.123 618.912 653.214 617.434 652.988C614.389 652.537 612.46 650.619 609.877 647.73L609.855 647.708C607.96 645.564 605.681 643.714 603.189 642.304C599.782 640.374 595.835 638.321 592.067 636.505C583.225 632.251 572.746 633.357 564.975 639.348C562.888 640.961 560.745 642.631 558.94 644.03C550.346 650.72 541.435 657.659 537.702 659.791C531.521 663.334 524.257 666.797 516.136 670.092C508.726 673.093 503.12 679.354 500.932 687.049C500.266 689.384 499.939 691.765 499.939 694.134C499.939 699.594 501.653 704.965 504.947 709.466C506.188 711.508 507.71 713.392 509.459 715.017C513.169 718.469 513.632 722.993 513.869 729.007C513.226 731.308 512.899 733.666 512.899 736.036C512.899 737.672 513.057 739.296 513.361 740.91C513.497 741.609 513.564 742.263 513.564 742.895V743.008C513.463 753.828 503.199 781.085 496.984 789.411C496.217 790.427 495.112 791.239 493.262 792.108C489.889 793.699 486.889 796 484.487 798.855C480.054 800.129 476.016 802.589 472.835 805.94C470.839 808.038 466.992 809.099 464.184 809.866L463.913 809.945C462.943 810.204 462.007 810.475 461.127 810.768C460.958 810.825 460.778 810.892 460.597 810.949C458.127 811.22 455.713 811.851 453.424 812.799C452.882 813.025 452.363 813.149 451.766 813.172C451.258 813.194 450.322 813.149 448.235 812.382C444.569 811.05 440.644 810.554 436.764 810.949C435.456 810.881 434.17 810.915 432.873 811.05C427.854 811.569 424.391 809.64 419.676 806.639L418.233 805.725C414.725 802.589 410.281 800.366 405.656 799.475C404.212 799.204 403.152 798.832 402.306 798.324C401.81 798.02 401.235 797.568 400.581 796.384C394.896 786.219 383.143 781.096 371.83 783.838C370.228 784.233 368.503 784.537 366.709 784.752C358.836 785.7 351.832 790.19 347.692 796.948C345.155 801.077 343.858 805.782 343.858 810.52C343.858 813.521 344.376 816.545 345.437 819.433C346.734 822.998 347.377 826.281 347.377 829.474C347.377 834.54 345.662 839.256 342.267 843.487C337.857 848.992 332.928 851.88 327.232 852.332C322.247 852.715 316.799 851.17 310.561 847.582C303.422 843.487 294.77 843.024 287.236 846.33C279.701 849.635 274.186 856.314 272.359 864.347C271.862 866.513 271.197 868.465 270.362 870.169C266.55 877.931 258.722 880.74 243.337 879.838L242.897 879.815C242.04 879.77 241.273 879.725 240.596 879.713C238.995 878.044 237.123 876.611 235.126 875.471C233.536 870.823 230.569 866.671 226.734 863.591C222.978 857.623 216.944 853.426 210.041 852.005C203.138 850.572 195.942 852.005 190.122 855.998C188.002 857.454 184.528 858.221 181.415 858.774C178.899 859.225 176.463 860.049 174.185 861.211C171.827 861.335 169.56 861.673 167.417 862.226L164.642 860.681L154.536 854.972C151.525 849.669 149.822 844.039 149.438 838.218C149.382 837.394 149.359 836.616 149.359 835.849C149.359 834.574 149.427 833.321 149.551 832.114C149.652 831.2 149.697 830.286 149.697 829.384C149.697 823.122 147.43 817.041 143.268 812.28C138.497 806.831 131.673 803.638 124.443 803.446C118.048 803.277 106.645 801.98 102.077 795.165C97.0236 787.617 96.877 779.111 96.877 778.163C97.0687 770.062 99.8096 764.015 105.754 758.69C111.258 753.771 114.394 746.731 114.394 739.353C114.394 739.251 114.394 739.149 114.394 739.048C114.303 731.568 110.987 724.483 105.291 719.62C98.3546 713.697 94.8355 706.093 94.8355 697.033C94.8355 694.935 95.0272 692.724 95.3881 690.478C96.4146 684.228 98.9637 679.625 102.934 676.816C105.878 674.74 109.341 673.6 113.841 673.217C121.567 672.574 128.605 668.501 133.016 662.126C136.05 657.738 137.629 652.582 137.629 647.358C137.629 644.989 137.302 642.597 136.636 640.262C135.892 637.633 135.52 635.049 135.52 632.387C135.52 628.246 136.49 624.072 138.407 619.976C142.242 611.763 147.498 607.092 154.006 606.111C158.664 605.4 163.909 606.551 170.034 609.597C178.403 613.76 188.363 613.106 196.111 607.882C203.296 603.042 207.548 594.953 207.548 586.378C207.548 585.701 207.526 585.024 207.47 584.347C207.075 579.327 206.601 574.205 206.06 569.105C208.372 565.315 210.853 561.309 213.459 557.598C216.346 556.029 219.719 555.115 223.294 554.145L223.824 553.999C225.482 553.547 227.14 553.085 228.72 552.554C230.513 553.243 232.475 553.807 234.461 554.179C239.311 556.684 243.856 559.391 248.029 562.246C249.281 565.348 251.12 568.169 253.443 570.572C253.872 573.742 254.312 576.574 254.91 579C255.237 580.286 255.598 581.437 256.049 582.666L256.354 585.374C257.414 594.501 263.223 602.399 271.626 606.111C280.029 609.822 289.785 608.818 297.241 603.459C303.997 598.608 310.381 597.491 318.57 599.725C327.897 602.263 332.443 608.503 332.443 618.769C332.443 621.917 331.992 625.516 331.078 629.476C330.638 631.383 330.435 633.323 330.435 635.241C330.435 641.3 332.556 647.223 336.537 651.95C341.782 658.178 349.632 661.574 357.753 661.145C358.735 661.1 359.716 661.066 360.697 661.066C370.567 661.111 379.601 655.56 384.023 646.738C384.745 645.305 385.591 643.928 386.538 642.642C387.012 641.999 387.655 641.3 388.444 640.6C393.666 635.907 396.757 629.295 397.016 622.278L397.095 619.864C397.445 608.954 398.212 600.267 404.438 595.709C407.495 594.964 410.405 593.666 412.999 591.884C414.183 591.072 415.954 589.729 417.24 588.748C421.278 585.645 425.406 582.463 429.591 582.249L430.064 582.226C430.064 582.226 434.249 582.429 446.837 587.439C455.555 590.902 461.432 594.061 462.537 595.855C462.966 596.555 463.338 597.367 463.699 598.36C466.135 605.208 471.346 610.725 478.046 613.557C484.746 616.389 492.326 616.276 498.946 613.23C500.638 612.462 502.285 611.662 503.887 610.815C508.466 608.401 516.508 603.11 520.546 600.346C527.641 595.517 531.882 587.484 531.882 578.898V578.402C532.716 561.129 532.931 560.655 538.503 548.583L538.717 548.132C539.98 545.413 540.758 542.502 541.029 539.524C541.176 537.899 541.39 536.037 542.033 534.469L542.146 534.198C543.691 530.791 544.469 527.136 544.469 523.469C544.469 520.276 543.883 517.083 542.698 514.049C541.819 511.781 540.882 509.163 540.657 506.794C541.356 499.946 548.654 476.558 551.801 470.105C552.173 469.608 552.647 469.112 553.244 468.627C559.392 463.538 562.651 456.137 562.651 448.624C562.651 443.953 561.388 439.237 558.783 435.006C556.718 431.655 554.97 429.049 553.605 427.266C544.413 415.477 531.938 405.74 517.365 398.903C510.395 395.631 502.341 395.631 495.371 398.881C488.4 402.141 483.235 408.324 481.272 415.759C477.561 429.794 471.312 439.891 461.612 447.518C454.168 453.362 445.675 457.153 437.024 458.461C424.312 460.391 414.973 471.334 414.973 484.106C414.973 484.422 414.995 485.618 414.995 485.618C414.995 487.332 414.702 489.092 414.104 490.841C412.311 492.048 410.675 493.47 409.243 495.083C405.825 498.919 401.28 500.578 389.177 497.069C388.14 496.764 386.809 496.381 385.794 496.121C381.688 495.049 377.379 495.004 373.24 495.997L372.01 496.302C367.769 497.351 363.731 498.344 357.359 495.67C356.637 495.365 355.926 494.903 355.137 494.226C350.794 490.491 345.346 488.291 339.628 487.976C334.721 487.705 330.277 486.915 325.551 479.931C321.886 474.516 319.224 471.289 316.415 467.871C314.588 465.66 312.727 463.392 310.482 460.413C306.467 455.066 304.516 450.022 304.516 445.013C304.516 439.451 306.884 434.679 309.185 430.053L309.839 428.711C311.622 425.078 312.501 421.163 312.501 417.27C312.501 411.539 310.606 405.853 306.918 401.182C306.433 400.573 305.926 399.93 305.474 399.377C300.85 393.646 297.805 389.392 297.805 382.792C297.805 382.127 297.838 381.427 297.917 380.716C298.008 379.836 298.053 378.956 298.053 378.076C298.053 366.162 289.875 355.625 278.066 352.838C168.748 327.047 86.737 260.122 40.8984 159.305C39.1839 155.548 37.4244 149.974 35.5633 144.074L35.4843 143.814C34.5482 140.847 33.2623 136.786 32.078 133.446C29.8786 127.23 25.3895 122.085 19.5356 119.05C18.1257 118.317 17.1557 117.572 16.5015 116.692C10.3656 108.377 0.101513 81.1083 0 70.3V70.221ZM106.509 67.3441C106.509 63.5194 105.675 59.7061 104.039 56.2425C104.039 56.2199 104.028 56.2086 104.028 56.2086C101.795 46.5624 94.2715 39.0372 84.6391 36.7921C81.3907 34.5357 77.6234 33.0351 73.7095 32.4372C68.7692 30.9254 63.547 30.948 58.6067 32.4598C53.7454 33.3398 49.3126 35.5623 45.692 38.9131C41.8796 41.6773 38.8794 45.4229 37.0409 49.744C34.6497 53.2866 33.1834 57.3707 32.7548 61.6128C32.0893 63.9369 31.7622 66.3287 31.7622 68.7318C31.7622 71.1349 32.078 73.4252 32.7097 75.7041C33.4541 85.1022 39.2403 93.4058 47.8238 97.3094L47.7561 97.2304C54.0499 104.868 64.1448 108.264 73.7998 105.963C77.6911 105.354 81.3794 103.876 84.6165 101.63C94.2828 99.3966 101.806 91.8602 104.039 82.2027C105.472 78.9308 106.205 75.3882 106.205 71.8231C106.205 71.6877 106.205 71.541 106.205 71.4057C106.419 70.0631 106.521 68.7092 106.521 67.3441H106.509ZM216.324 198.194C216.324 193.884 215.252 189.608 213.143 185.75C209.049 178.259 202.033 172.843 193.393 170.519C182.385 167.541 167.395 169.808 158.394 185.175C157.943 185.942 157.537 186.72 157.176 187.521C155.055 192.181 154.604 196.885 154.604 200.022C154.604 203.158 155.021 206.329 155.856 209.442C157.83 216.844 162.962 222.992 169.899 226.242C176.824 229.491 184.843 229.525 191.791 226.309C195.254 224.718 198.999 222.902 202.067 221.356C208.338 218.197 213.064 212.613 215.151 205.9C215.94 203.384 216.324 200.778 216.324 198.183V198.194ZM184.167 246.414C183.501 248.749 183.174 251.141 183.174 253.51C183.174 259.67 185.374 265.718 189.502 270.501C189.615 270.625 189.716 270.75 189.818 270.896C189.919 271.02 190.021 271.178 190.111 271.325C194.95 278.997 203.443 283.589 212.511 283.431H213.222C221.715 283.622 229.768 279.64 234.765 272.769C234.788 272.746 234.901 272.588 234.923 272.555C235.036 272.408 235.149 272.273 235.25 272.137C239.514 267.331 241.792 261.182 241.792 254.921C241.792 252.63 241.488 250.329 240.867 248.072C240.788 247.779 240.721 247.474 240.653 247.147C239.04 238.72 233.367 231.634 225.494 228.216L224.851 227.923C217.226 224.211 208.27 224.459 200.86 228.577C200.522 228.769 200.341 228.848 200.138 228.927C191.972 231.95 185.881 238.878 183.896 247.35C183.986 246.967 184.122 246.527 184.144 246.425L184.167 246.414ZM272.889 692.599C272.765 692.487 272.686 692.374 272.618 692.227C268.456 683.811 260.087 678.305 250.714 677.809C250.297 677.628 249.936 677.425 249.642 677.211C240.315 670.554 227.727 670.802 218.67 677.831C207.447 678.203 197.747 685.74 194.611 696.526C194.532 696.808 194.408 697.067 194.239 697.27C190.585 701.93 188.723 707.582 188.723 713.268C188.723 717.623 189.818 722.001 192.04 725.961C192.107 726.085 192.209 726.491 192.209 727.089C192.209 727.348 192.186 727.563 192.141 727.788C191.69 729.718 191.476 731.669 191.476 733.61C191.476 740.323 194.081 746.855 198.875 751.763C199.078 752 199.191 752.203 199.27 752.451C202.856 764.027 213.978 771.586 226.058 770.638C226.712 770.593 227.107 770.649 227.445 770.785C236.152 774.102 245.977 772.477 253.173 766.554C262.907 764.365 270.52 756.783 272.753 747.058L272.957 746.833C279.397 741.88 283.097 734.23 283.097 726.254C283.097 724.889 282.995 723.501 282.769 722.125C283.66 719.428 284.089 716.664 284.089 713.945C284.089 705.596 280.04 697.53 272.889 692.599ZM396.238 368.329C396.238 357.599 389.572 347.806 379.285 344.004C378.248 343.621 377.334 343.147 376.499 342.549C376.026 342.21 375.586 341.827 375.135 341.353C367.262 332.948 354.776 330.737 344.5 335.949C343.756 336.333 343.045 336.603 342.357 336.773C341.387 337.021 340.384 337.179 339.244 337.246C327.322 338.07 317.509 346.926 315.468 358.694C315.31 359.619 315.118 360.442 314.881 361.21C314.565 362.236 314.126 363.15 313.494 364.087C310.471 368.52 308.982 373.631 308.982 378.708C308.982 385.004 311.272 391.265 315.75 396.184C316.212 396.703 316.596 397.233 316.9 397.831C317.272 398.542 317.577 399.366 317.825 400.347C321.028 412.577 332.578 420.7 345.166 419.606C346.576 419.482 347.726 419.538 348.787 419.798C349.17 419.888 349.554 420.001 349.982 420.159C361.295 424.265 373.95 420.046 380.537 409.971C380.752 409.644 380.966 409.384 381.203 409.159C381.643 408.741 382.196 408.369 382.94 408.008C391.907 403.529 397.298 394.435 397.298 384.789C397.298 382.499 396.994 380.175 396.362 377.873C396.103 376.914 395.934 375.978 395.877 375.008C395.855 374.703 395.855 374.387 395.855 374.06C395.855 373.338 395.9 372.593 396.013 371.792C396.17 370.63 396.249 369.468 396.249 368.317L396.238 368.329ZM510.688 270.061C510.688 265.278 509.368 260.472 506.684 256.218C505.139 253.759 503.357 250.746 500.999 246.775L500.751 246.369C489.551 227.471 470.365 216.46 449.442 216.934C429.636 217.385 412.728 228.035 403.051 246.188C402.825 246.617 402.611 247.046 402.408 247.474C399.486 253.781 397.592 264.702 397.592 275.319C397.592 278.805 397.795 282.133 398.189 285.202C399.396 294.566 405.6 302.543 414.386 306.006C415.683 306.514 416.721 307.123 417.635 307.902C418.785 308.872 419.688 310.158 420.579 312.053C423.838 319.026 430.031 324.193 437.475 326.156C448.156 328.965 461.172 327.611 473.162 322.433C486.314 316.769 501.293 304.641 503.898 287.582C508.387 282.675 510.688 276.391 510.688 270.073V270.061ZM464.962 404.014C464.962 401.227 464.703 398.102 464.319 393.646C464.15 391.637 463.97 389.674 463.834 387.666C463.158 377.411 456.492 368.532 446.837 365.012C437.193 361.492 426.376 363.996 419.248 371.397C417.714 372.988 416.022 374.534 414.386 376.034C413.631 376.723 412.649 377.614 411.792 378.426C408.296 381.721 405.769 385.917 404.517 390.554C403.231 395.304 401.246 403.258 400.434 407.083C400.062 408.843 399.87 410.648 399.87 412.453C399.87 413.209 399.915 414.066 399.971 414.822C400.705 423.115 405.374 430.561 412.525 434.825C420.793 439.756 431.982 440.692 441.705 437.251C454.089 432.862 462.447 422.268 464.635 408.177C464.816 406.981 464.928 405.774 464.94 404.567C464.94 404.443 464.94 404.138 464.94 404.014H464.962ZM465.312 168.093C465.312 163.276 464.714 159.203 464.24 155.92L464.06 154.69C462.616 144.548 455.341 136.21 445.506 133.39C435.659 130.58 425.079 133.818 418.503 141.671C417.601 142.743 416.687 143.792 415.796 144.818C407.247 154.679 400.66 163.095 400.017 174.005C399.949 175.055 399.915 176.092 399.915 177.13C399.915 198.589 413.8 209.093 427.549 209.984C443.656 211.056 461.635 199.729 464.77 176.025C465.12 173.34 465.301 170.733 465.301 168.071L465.312 168.093ZM465.662 622.357C465.662 619.694 465.255 617.02 464.421 614.437L464.319 614.121C461.387 604.971 453.638 598.179 444.175 596.498C444.096 596.487 443.96 596.453 443.746 596.363C435.862 592.685 426.624 593.193 419.203 597.739C411.612 602.083 406.547 610.071 406.017 618.814L405.961 619.435C405.78 620.676 405.69 621.917 405.69 623.147C405.69 630.559 408.871 637.701 414.533 642.665C420.285 648.938 428.959 652.187 437.385 651.025C437.52 651.002 437.655 650.991 437.813 650.98H438.264C447.852 650.98 456.661 645.677 461.161 637.204C461.533 636.505 461.917 635.805 462.312 635.083C464.522 631.157 465.65 626.768 465.65 622.346L465.662 622.357ZM480.888 734.377C480.46 730.124 478.971 725.983 476.58 722.441C474.741 718.131 471.764 714.397 467.963 711.644C464.342 708.304 459.808 706.025 454.958 705.145C450.006 703.633 444.772 703.645 439.832 705.145C435.952 705.743 432.275 707.221 429.038 709.455C419.394 711.7 411.803 719.259 409.581 728.905C407.946 732.38 407.1 736.182 407.1 739.996C407.1 741.338 407.201 742.692 407.416 744.023C407.416 744.17 407.416 744.305 407.416 744.452C407.416 748.028 408.149 751.605 409.581 754.877C411.815 764.546 419.36 772.093 429.027 774.316C432.264 776.572 435.952 778.05 439.855 778.648C449.397 780.927 459.368 777.622 465.684 770.141C474.279 766.227 480.2 757.799 480.922 748.378C481.565 746.099 481.881 743.753 481.881 741.417C481.881 739.037 481.554 736.656 480.9 734.343L480.888 734.377ZM662.1 271.449C662.1 232.853 643.523 197.156 611.152 173.52C581.465 151.836 543.838 143.555 505.229 150.177C493.702 152.152 484.926 161.595 483.798 173.238C483.471 176.6 482.919 179.974 482.095 183.561C481.655 185.49 481.441 187.442 481.441 189.372C481.441 198.081 485.84 206.374 493.386 211.214C498.721 214.632 503.605 218.705 507.146 222.688C511.297 227.358 513.722 232.323 516.271 237.58C518.076 241.303 519.937 245.128 522.396 248.512C524.855 251.897 527.832 254.56 532.096 258.238C536.461 261.995 540.555 265.526 543.725 270.422C546.612 274.879 556.008 290.685 556.008 307.078C556.008 312.742 554.88 317.683 552.658 321.767C550.515 325.693 549.5 329.947 549.5 334.155C549.5 342.628 553.651 350.886 561.185 355.839C568.133 360.42 574.878 365.531 581.239 371.036C590.973 379.464 605.422 379.487 615.167 371.07C615.991 370.359 616.78 369.694 617.525 369.073C620.48 366.58 623.48 364.041 626.04 361.085C649.648 333.726 662.134 302.734 662.134 271.449H662.1ZM544.887 568.789C544.887 568.959 544.864 569.139 544.83 569.331C544.503 570.978 544.345 572.648 544.345 574.306C544.345 578.323 545.281 582.294 547.097 585.927C547.65 592.572 550.729 598.743 555.715 603.177C555.737 603.2 555.76 603.211 555.782 603.234C558.884 609.27 564.264 613.895 570.705 616.039C570.705 616.039 570.772 616.095 570.874 616.174C574.765 619.694 579.649 621.973 584.849 622.673C591.301 626.43 599.173 627.242 606.257 624.862C606.279 624.862 606.369 624.839 606.55 624.839C613.16 625.9 620.029 624.354 625.533 620.529C632.289 619.277 638.267 615.418 642.158 609.755C648.159 606.641 652.93 601.101 655.062 594.671C659.145 590 661.468 583.953 661.513 577.736C661.513 577.567 661.547 577.477 661.581 577.409C663.329 573.833 664.232 569.929 664.232 565.98C664.232 564.367 664.085 562.742 663.781 561.14V560.7C663.803 560.339 663.803 559.989 663.803 559.628C663.803 553.344 661.513 547.376 657.34 542.626L657.284 542.401C655.637 536.342 651.847 531.096 646.625 527.621C642.587 521.901 636.169 517.805 629.244 516.711C625.059 513.936 620.153 512.435 615.133 512.401C614.761 512.39 614.434 512.345 614.152 512.266C607.61 510.427 600.606 511.228 594.65 514.511C594.03 514.85 593.331 515.041 593.049 515.019C586.676 514.5 580.326 516.35 575.228 520.22C574.923 520.446 574.664 520.603 574.438 520.694C568.11 523.018 562.945 527.722 560.023 533.804C554.406 537.854 550.47 544.138 549.398 550.986C549.376 551.144 549.319 551.257 549.297 551.291C546.33 555.623 544.763 560.734 544.763 565.946C544.763 566.77 544.808 567.605 544.887 568.44C544.887 568.552 544.909 568.677 544.909 568.801L544.887 568.789ZM633.643 100.671C633.575 98.652 633.372 96.7115 633.033 94.8838C631.263 85.3165 624.27 77.5431 614.953 74.7565C610.441 73.4139 605.027 72.9062 599.297 73.3123C589.473 74.0006 580.879 80.1944 577.123 89.2991C575.25 93.8458 574.179 98.2233 573.931 102.341C573.897 102.849 573.885 103.345 573.885 103.853C573.885 112.867 578.578 121.295 586.349 126.022C596.534 132.216 613.588 133.017 624.506 123.631C629.943 118.96 633.011 112.45 633.473 105.715C633.575 104.722 633.654 103.469 633.654 102.003C633.654 101.822 633.631 100.773 633.631 100.671H633.643ZM757.24 494.508C757.24 482.594 749.017 471.91 736.983 469.202C725.478 466.618 716.815 463.358 709.213 455.099C709.044 454.908 708.875 454.727 708.717 454.535C700.212 444.506 685.561 442.43 674.609 449.684C662.765 451.692 635.019 456.431 635.019 485.933C635.019 487.953 635.143 490.097 635.368 492.319C635.774 496.144 637.026 499.833 639.023 503.105C640.794 505.993 643.377 509.547 645.959 512.616C650.065 517.49 655.829 520.682 662.134 521.585C663.837 521.822 665.777 522.07 667.345 522.262C674.406 523.131 680.857 523.92 682.763 525.861C683.858 526.967 684.613 529.99 685.346 532.912L685.82 534.774C689.035 547.15 700.788 555.341 713.511 554.066C713.725 554.044 713.939 554.032 714.165 554.044C716.206 554.078 718.203 554.393 720.436 555.014C730.283 557.789 740.851 554.518 747.405 546.665C754.353 538.339 758.334 526.12 758.334 513.157C758.334 508.396 757.804 503.793 756.744 499.449C757.06 497.791 757.217 496.133 757.217 494.508H757.24ZM696.253 144.886C690.896 142.19 684.749 141.411 678.895 142.72C675.173 143.295 671.642 144.672 668.507 146.77C667.717 147.3 666.916 147.898 666.183 148.508C660.239 153.494 656.9 160.805 656.9 168.387C656.9 169.932 657.036 171.478 657.318 173.024C657.927 176.905 659.416 180.594 661.66 183.821C666.544 192.316 675.759 197.292 685.549 196.75C689.035 196.727 692.441 196.017 695.633 194.64C695.915 194.516 696.208 194.381 696.502 194.245C705.547 189.969 711.368 180.854 711.368 170.779C711.435 170.023 711.469 169.278 711.469 168.522C711.469 158.413 705.581 149.106 696.265 144.864L696.253 144.886ZM833.217 569.658C833.217 562.968 830.622 556.481 825.908 551.607C820.325 545.842 812.407 542.987 804.432 543.867C801.804 544.161 799.638 544.465 797.8 544.815C787.141 541.791 775.749 545.875 769.433 554.991L769.286 555.194C765.891 559.786 764.211 565.202 764.211 570.606C764.211 576.563 766.252 582.497 770.301 587.315C771.068 588.229 771.621 589.853 772.004 591.151C773.211 595.178 775.366 598.845 778.298 601.846C779.246 602.816 780.238 603.854 781.062 604.881C781.783 605.772 782.539 606.596 783.351 607.374C783.171 607.927 783.002 608.48 782.866 609.044C782.821 609.236 782.731 609.416 782.607 609.597C778.761 614.065 776.482 619.785 776.257 625.674C776.223 626.497 776.155 627.22 776.02 627.908C775.625 630.017 774.779 632.161 773.967 634.226L773.708 634.88C772.478 637.949 771.858 641.221 771.858 644.515C771.858 644.876 771.858 645.237 771.88 645.598C771.948 647.223 772.095 649.05 772.343 651.341C773.741 664.53 784.874 674.537 798.138 674.537C810.794 674.537 821.633 665.398 823.742 652.92C827.633 649.107 830.239 644.143 831.164 638.772C831.638 636.02 831.976 632.973 832.202 630.954C832.517 628.111 832.822 625.302 833.42 623.282C834.13 620.868 834.469 618.408 834.469 615.971C834.469 608.739 831.446 601.699 825.908 596.713C828.603 593.384 830.442 589.424 831.243 585.216C831.762 582.475 832.179 579.282 832.529 576.495C832.664 575.457 832.788 574.408 832.946 573.325C833.115 572.106 833.205 570.877 833.205 569.658H833.217Z" fill="#CB7AE5"/>
<path d="M33.0255 132.036C33.0255 125.864 35.2249 119.806 39.3869 115.011C45.3536 108.152 54.4672 104.914 63.4229 106.471C66.6262 107.035 69.8295 106.989 72.9538 106.358C81.7854 104.564 90.9103 107.486 97.0575 114.075C101.603 118.937 104.051 125.3 104.051 131.799C104.051 134.089 103.746 136.391 103.126 138.647C102.505 140.892 102.201 143.228 102.201 145.574C102.201 150.065 103.374 154.51 105.607 158.413C109.498 165.284 116.164 169.921 123.913 171.219C125.436 171.467 126.981 171.591 128.515 171.58C135.632 171.523 142.468 174.389 147.408 179.522C152.077 184.362 154.672 190.827 154.672 197.529C154.672 197.912 154.672 198.307 154.649 198.702C154.626 199.243 154.615 199.751 154.615 200.225C154.615 203.361 155.033 206.532 155.867 209.646C157.762 216.776 162.612 222.767 169.177 226.095C177.941 230.54 183.377 239.521 183.377 249.223C183.377 249.968 183.343 250.712 183.276 251.468C183.208 252.224 183.174 252.98 183.174 253.725C183.174 256.557 183.637 259.355 184.539 262.04C185.464 264.781 185.915 267.591 185.915 270.366C185.915 278.557 182.035 286.466 175.109 291.441C165.849 298.097 153.318 297.917 144.25 291.001C100.069 257.313 65.3291 213.075 40.9773 159.519C39.3869 155.999 37.8304 151.204 35.6423 144.288C35.631 144.243 34.7738 141.513 34.2888 140.012C33.4428 137.395 33.0368 134.71 33.0368 132.036H33.0255ZM95.0385 698.579C95.0385 694.055 96.2228 689.553 98.5463 685.548C102.37 678.959 108.889 674.39 116.39 673.036C123.191 671.818 129.113 667.993 133.072 662.273C136.083 657.918 137.685 652.807 137.685 647.505C137.685 645.327 137.414 643.139 136.862 641.018C136.309 638.874 136.038 636.697 136.038 634.542C136.038 627.152 139.197 619.988 144.926 614.99C152.326 608.536 162.725 606.81 171.805 610.533C179.858 613.828 188.96 612.903 196.168 608.04C201.796 604.238 205.665 598.507 207.052 591.895C209.488 580.275 219.504 571.79 231.37 571.305C243.236 570.82 253.917 578.447 257.301 589.831C259.489 597.209 264.734 603.2 271.682 606.269C278.562 609.315 286.751 609.146 293.586 605.829C302.125 601.677 312.253 602.523 319.991 608.04C326.86 612.948 330.875 620.845 330.875 629.16C330.875 630.198 330.807 631.247 330.683 632.285C330.559 633.323 330.492 634.372 330.492 635.399C330.492 641.503 332.657 647.437 336.594 652.108C341.805 658.291 349.734 661.732 357.81 661.303C358.757 661.258 359.694 661.224 360.618 661.224C369.044 661.269 376.612 657.546 381.53 651.014C385.692 645.485 391.884 641.852 398.731 640.916C405.577 639.98 412.525 641.807 418.018 646.016C423.421 650.145 430.053 652.029 436.697 651.296C437.43 651.217 438.163 651.172 438.896 651.149C448.246 650.923 456.785 645.655 461.172 637.396C461.545 636.697 461.928 635.986 462.334 635.264C462.887 634.271 463.394 633.21 463.834 632.116C467.771 622.188 477.392 615.689 488.073 615.734C491.841 615.757 495.63 614.933 499.014 613.388C500.729 612.598 502.375 611.797 503.966 610.973C507.891 608.897 515.188 604.204 520.625 600.503L521.144 600.142C526.772 596.092 533.799 594.456 540.646 595.63C547.492 596.792 553.572 600.65 557.553 606.348C558.14 607.182 558.783 607.995 559.471 608.773C563.723 613.546 566.035 619.694 566.035 626.024C566.035 626.813 566.001 627.603 565.922 628.393C565.268 635.546 561.67 642.112 555.997 646.512C544.255 655.628 540.679 658.178 538.187 659.689C538.006 659.802 537.826 659.904 537.645 660.017C531.543 663.514 524.313 666.966 516.17 670.261C508.703 673.284 503.165 679.467 500.965 687.218C500.74 688.03 500.537 688.865 500.39 689.7C498.924 697.879 493.634 704.863 486.156 708.485C478.678 712.106 469.914 711.926 462.594 707.988C460.428 706.826 458.116 705.98 455.702 705.472C455.206 705.371 454.709 705.247 454.213 705.111C449.814 703.904 445.156 703.893 440.723 705.077C440.125 705.235 439.528 705.371 438.93 705.495C436.234 706.014 433.527 707.007 431.102 708.361C429.703 709.15 428.237 709.793 426.714 710.312C418.695 713.009 412.266 719.71 409.931 727.788C409.683 728.657 409.378 729.503 409.04 730.338C407.777 733.452 407.1 736.871 407.1 740.187C407.1 741.146 407.156 742.128 407.269 743.098C407.348 743.843 407.405 744.587 407.427 745.343C407.483 747.295 407.754 749.258 408.25 751.176C408.792 753.297 409.051 755.452 409.051 757.584C409.051 763.733 406.863 769.758 402.769 774.519C397.242 780.938 388.929 784.255 380.504 783.398C377.605 783.105 374.717 783.296 371.898 783.985C370.33 784.368 368.604 784.673 366.788 784.899C358.859 785.846 351.922 790.291 347.76 797.094C345.256 801.179 343.925 805.872 343.925 810.667C343.925 812.777 344.173 814.875 344.681 816.906C345.2 818.982 345.448 821.08 345.448 823.156C345.448 830.783 342.075 838.161 336.03 843.159C328.337 849.511 317.69 850.899 308.633 846.725C301.865 843.599 294.094 843.509 287.304 846.499C281.303 849.128 276.374 854.148 273.802 860.241C270.317 868.51 262.805 874.377 253.94 875.776C245.074 877.175 236.13 873.892 230.265 867.1C229.701 866.446 229.08 865.803 228.426 865.171C227.389 864.189 226.43 863.117 225.561 861.978C221.794 856.991 216.154 853.415 210.098 852.163C203.759 850.843 196.923 852.027 191.363 855.389C188.791 856.946 185.971 858.041 183.016 858.638L180.749 859.067C172.752 860.748 164.484 858.548 158.349 853.155C152.732 848.214 149.596 841.106 149.596 833.694C149.596 833.005 149.619 832.317 149.675 831.618C149.731 830.918 149.754 830.219 149.754 829.542C149.754 823.246 147.475 817.177 143.325 812.438C138.565 807.011 131.707 803.796 124.5 803.604C123.631 803.582 122.785 803.537 121.984 803.491C111.653 802.792 102.731 796.011 99.2795 786.241C98.2869 783.421 97.8019 780.498 97.8019 777.61C97.8019 770.503 100.723 763.564 106.126 758.566C111.416 753.67 114.45 746.731 114.45 739.522C114.36 731.771 111.044 724.652 105.348 719.789C103.802 718.469 99.0877 714.442 96.5386 707.278C95.5348 704.457 95.0385 701.524 95.0385 698.602V698.579ZM284.089 714.16C284.089 706.781 280.942 699.741 275.449 694.822C273.769 693.321 272.291 691.595 271.05 689.711C267.261 683.935 261.215 679.851 254.436 678.497C251.819 677.978 249.304 677.053 246.981 675.755C239.198 671.445 229.915 671.445 222.155 675.744C219.764 677.064 217.192 678 214.508 678.519C205.71 680.212 198.536 686.236 195.311 694.619C194.679 696.277 193.867 697.868 192.908 699.357C190.167 703.622 188.712 708.507 188.712 713.483C188.712 716.371 189.197 719.225 190.145 721.978C191.092 724.72 191.577 727.585 191.577 730.474C191.577 731.026 191.555 731.579 191.521 732.121C191.487 732.685 191.464 733.249 191.464 733.813C191.464 739.657 193.348 745.163 196.901 749.721C198.266 751.47 199.394 753.376 200.273 755.396C204.356 764.85 213.29 770.796 223.599 770.92C225.742 770.943 227.874 771.236 229.949 771.789C237.01 773.662 244.578 772.477 250.714 768.539C252.395 767.456 254.188 766.576 256.06 765.911C262.918 763.474 268.49 758.228 271.355 751.503C272.517 748.784 274.13 746.28 276.126 744.102C280.536 739.296 283.074 732.865 283.074 726.446C283.074 726.141 283.029 724.81 283.029 724.449C283.029 722.711 283.198 720.985 283.548 719.282C283.886 717.601 284.067 715.863 284.067 714.137L284.089 714.16ZM199.134 308.364C199.134 307.541 199.168 306.728 199.247 305.893C200.307 294.701 208.462 285.461 219.425 283.024C222.042 282.449 224.535 281.468 226.858 280.114C236.626 274.427 248.954 275.714 257.335 283.307C260.121 285.834 263.38 287.695 267.035 288.846C272.144 290.459 279.374 292.682 282.961 293.63C293.236 296.371 302.44 298.537 310.336 300.049C319.901 301.888 327.638 308.928 330.356 318.292C331.056 320.684 331.383 323.121 331.383 325.536C331.383 332.587 328.507 339.446 323.228 344.422C321.942 345.629 320.78 346.972 319.776 348.416C312.028 359.483 297.094 362.755 285.431 355.941C283.175 354.621 280.728 353.651 278.156 353.041C256.038 347.818 234.709 340.789 214.767 332.158C205.214 328.018 199.134 318.62 199.134 308.364ZM305.136 444.697C305.136 440.963 305.937 437.217 307.572 433.72C312.716 422.562 325.01 416.492 336.988 419.256C339.154 419.753 341.399 419.978 343.643 419.91C346.362 419.832 349.069 420.17 351.674 420.926C358.148 422.81 364.972 422.122 370.894 419.008C382.568 412.859 396.994 416.458 404.427 427.368C406.356 430.188 408.758 432.569 411.589 434.431C419.157 439.417 423.263 447.687 423.263 456.126C423.263 460.932 421.932 465.795 419.135 470.139C417.691 472.384 416.62 474.832 415.932 477.438C412.367 490.954 398.731 499.213 385.106 496.11C381.248 495.23 377.176 495.253 373.33 496.166C366.303 497.847 358.78 496.539 352.779 492.534C349.452 490.311 345.606 488.856 341.658 488.325C334.518 487.378 328.089 483.497 323.916 477.619C321.028 473.546 318.829 470.872 316.494 468.04C314.69 465.851 312.806 463.561 310.573 460.583L310.088 459.928C306.828 455.415 305.147 450.079 305.147 444.697H305.136ZM352.136 312.279C352.136 302.949 357.156 294.307 365.322 289.692C365.75 289.444 366.179 289.196 366.608 288.925C378.552 281.208 394.467 284.548 402.318 296.405C402.904 297.296 403.558 298.154 404.246 298.966C408.42 303.829 410.506 309.853 410.506 315.878C410.506 321.97 408.363 328.063 404.1 332.948C395.618 342.662 381.282 344.67 370.454 337.653C369.405 336.976 368.311 336.378 367.205 335.859C358.363 331.786 352.542 323.099 352.148 313.362C352.136 313.001 352.125 312.651 352.125 312.29L352.136 312.279ZM446.126 350.503C446.126 348.607 446.329 346.701 446.758 344.817C448.844 335.531 455.849 328.13 465.007 325.536C467.737 324.768 470.489 323.787 473.173 322.625C484.814 317.615 498.755 306.92 502.996 291.937C503.718 289.376 504.834 286.939 506.3 284.728L506.684 284.141C512.154 275.759 521.956 271.268 531.87 272.6C541.785 273.931 550.052 280.847 553.12 290.38C555.038 296.337 556.008 302.024 556.008 307.292C556.008 312.719 554.959 317.525 552.884 321.564C552.782 321.767 552.681 321.959 552.579 322.151C550.594 325.784 549.5 330.127 549.5 334.358C549.5 343.124 553.865 351.225 561.185 356.042C568.133 360.612 574.878 365.722 581.239 371.239C590.906 379.611 605.49 379.622 615.167 371.273C615.957 370.596 616.701 369.965 617.412 369.367C620.423 366.828 623.469 364.267 626.029 361.3C649.648 333.941 662.123 302.949 662.123 271.663C662.123 257.877 659.776 244.383 655.163 231.567C654.137 228.701 653.629 225.734 653.629 222.767C653.629 217.126 655.468 211.552 659.01 206.949C664.401 199.932 672.984 196.152 681.805 196.908C682.933 197.01 684.094 197.032 685.256 196.976C685.482 196.976 685.696 196.953 685.922 196.953C689.283 196.897 692.565 196.186 695.667 194.843C695.971 194.708 696.287 194.561 696.614 194.415C702.863 191.459 707.769 185.908 710.048 179.195C711.142 175.957 712.822 173.069 714.932 170.609C712.969 168.037 711.469 165.07 710.555 161.809C709.958 159.654 709.078 157.579 707.939 155.627C705.593 151.61 704.397 147.086 704.397 142.551C704.397 139.392 704.972 136.221 706.145 133.198C708.988 125.831 715.033 120.167 722.556 117.798C724.248 117.267 725.906 116.602 727.497 115.835C734.174 112.585 741.934 112.36 748.792 115.214C755.65 118.069 760.962 123.721 763.376 130.75C763.579 131.359 763.816 131.968 764.075 132.555C765.519 135.872 766.241 139.403 766.241 142.923C766.241 147.052 765.259 151.17 763.297 154.916L762.744 155.965C761.853 157.646 761.131 159.508 760.624 161.437C759.597 165.341 757.725 168.838 755.221 171.76C758.594 176.183 760.545 181.677 760.545 187.487C760.545 188.503 760.488 189.518 760.364 190.545C760.252 191.538 760.195 192.553 760.195 193.546C760.195 195.904 760.522 198.273 761.176 200.597C761.819 202.888 762.135 205.245 762.135 207.592C762.135 210.526 761.639 213.459 760.646 216.257C760.229 217.419 759.834 218.581 759.439 219.743C758.526 222.417 758.063 225.226 758.063 228.069C758.063 231.183 758.616 234.252 759.71 237.163C759.845 237.512 759.97 237.873 760.082 238.234C761.458 242.454 763.872 246.256 767.087 249.235C772.433 254.21 775.377 261.126 775.377 268.245C775.377 270.242 775.14 272.261 774.666 274.258C774.486 275.014 774.407 275.398 774.362 275.59C774.136 276.661 773.978 277.744 773.899 278.794C773.753 280.621 773.674 282.427 773.674 284.096C773.674 292.422 775.58 297.781 777.261 302.497C778.208 305.137 779.178 307.868 779.81 311.004C780.001 311.941 780.137 312.877 780.216 313.825C781.377 327.081 792.724 337.472 806.045 337.472H846.379C848.895 337.472 851.41 337.088 853.88 336.332C865.396 332.812 877.837 337.686 883.894 348.1C884.221 348.675 884.582 349.228 884.954 349.77C886.782 352.421 889.319 356.539 890.38 361.808C890.56 362.71 890.695 363.624 890.774 364.549C890.921 366.14 891 367.731 891 369.265C891 378.099 888.496 383.402 886.071 388.524C884.142 392.619 882.473 396.162 881.977 401.16C880.961 411.178 880.307 430.471 880.307 450.384C880.307 468.954 880.883 484.546 881.875 493.131C882.18 495.771 882.89 498.344 883.973 500.781C884.379 501.695 885.146 503.24 885.744 504.425C887.943 508.78 890.425 513.699 890.583 520.57C890.583 520.773 890.583 521.698 890.583 521.698C890.583 522.014 890.583 522.318 890.56 522.634C890.256 529.528 887.706 534.954 885.451 539.727C884.898 540.9 884.199 542.423 883.781 543.382C882.631 546.067 881.954 548.922 881.762 551.844L881.717 552.611C881.153 564.897 872.04 575.107 859.892 577.048C847.744 578.988 835.901 572.129 831.547 560.621C830.307 557.338 828.4 554.36 825.908 551.776C820.212 545.887 812.587 543.145 804.432 544.036C803.507 544.138 802.639 544.239 801.815 544.352C799.402 544.668 796.965 544.657 794.563 544.285C792.206 543.935 789.814 543.912 787.457 544.206C779.81 545.187 772.117 542.716 766.466 537.459C761.176 532.54 758.199 525.647 758.199 518.471C758.199 517.986 758.21 517.501 758.244 517.004C758.312 515.786 758.345 514.545 758.345 513.304C758.345 509.806 758.052 506.343 757.477 503.026C757.217 501.548 757.082 500.047 757.082 498.547C757.082 497.893 757.105 497.238 757.161 496.584C757.206 495.941 757.24 495.298 757.24 494.655C757.24 482.436 748.905 472.034 736.983 469.349C725.512 466.776 716.883 463.527 709.315 455.348C709.1 455.122 708.897 454.896 708.694 454.659C700.833 445.532 687.907 442.915 677.259 448.308C675.218 449.334 673.052 450.101 670.819 450.564C659.258 452.967 635.21 457.954 635.03 485.719C634.985 492.748 632.086 499.449 627.01 504.301C621.935 509.152 615.1 511.747 608.084 511.465C604.475 511.318 600.922 511.939 597.549 513.304C594.944 514.353 592.192 514.974 589.383 515.132C586.507 515.301 583.698 515.944 581.036 517.05C571.709 520.908 560.993 519.013 553.56 512.187C548.124 507.189 545.169 500.228 545.169 493.075C545.169 490.446 545.563 487.795 546.387 485.211C547.142 482.831 548.282 479.345 549.41 476.242C550.684 472.756 552.692 469.574 555.297 466.934C560.091 462.072 562.73 455.607 562.73 448.748C562.73 443.941 561.388 439.237 558.862 435.13C556.786 431.757 555.049 429.151 553.684 427.379C544.605 415.736 532.017 405.864 517.456 399.027C510.936 395.97 503.684 395.733 497.006 398.35C490.295 400.979 482.795 400.697 476.298 397.583C469.801 394.458 464.895 388.772 462.763 381.89C461.342 377.287 458.668 373.18 455.025 370.01C449.318 365.023 446.149 357.859 446.149 350.469L446.126 350.503ZM448.709 121.453C448.709 117.73 449.51 113.973 451.168 110.442C455.849 100.457 466.338 94.5227 477.313 95.6509C478.001 95.7186 478.7 95.7638 479.388 95.775C482.907 95.8427 486.731 95.4253 494.525 94.1166C496.567 93.7781 499.206 93.3494 500.458 93.2027C501.631 93.0673 502.815 92.9996 504 93.0335C512.718 93.2027 520.862 89.1412 525.78 82.1688C527.934 79.1226 530.72 76.5729 533.957 74.7L535.209 73.9667C543.781 68.8333 554.553 69.0815 562.877 74.6211C570.175 79.4724 574.472 87.6181 574.472 96.2263C574.472 97.4335 574.393 98.652 574.213 99.8592C574.088 100.75 573.998 101.653 573.942 102.522C573.908 103.075 573.897 103.56 573.897 104.045C573.897 107.328 574.54 110.577 575.803 113.702C577.077 116.85 577.709 120.167 577.709 123.461C577.709 129.08 575.882 134.642 572.363 139.245C566.768 146.545 557.734 150.335 548.609 149.218C534.465 147.481 519.869 147.876 505.229 150.392C502.014 150.945 498.98 152.084 496.206 153.776C490.329 157.353 483.268 158.459 476.58 156.823C469.891 155.198 464.128 150.978 460.552 145.1C459.424 143.25 458.059 141.535 456.503 140.012C451.405 135.026 448.709 128.29 448.709 121.464V121.453ZM600.425 152.693C600.425 151.599 600.493 150.505 600.64 149.399C601.835 140.091 607.937 132.126 616.645 128.617C618.258 127.963 619.814 127.173 621.269 126.248C630.868 120.156 643.32 121.024 651.983 128.403C657.904 133.446 661.107 140.723 661.107 148.169C661.107 151.61 660.419 155.074 659.01 158.38C658.389 159.824 657.893 161.347 657.554 162.881C655.592 171.613 649.276 178.721 640.827 181.688C632.379 184.656 623.006 183.054 616.024 177.446C614.434 176.171 612.821 174.942 611.163 173.735C611.107 173.689 610.994 173.61 610.938 173.565C604.294 168.635 600.425 160.85 600.425 152.693ZM639.508 625.02C639.508 617.923 642.418 610.973 647.843 605.953C650.494 603.505 652.659 600.503 654.103 597.288C654.802 595.731 655.66 594.253 656.641 592.854C659.179 589.289 660.792 585.115 661.299 580.782C661.536 578.819 661.987 576.879 662.664 575.017C663.138 573.708 663.499 572.343 663.758 570.956C665.213 563.092 670.21 556.345 677.304 552.656C684.399 548.967 692.791 548.764 700.066 552.081C703.878 553.829 707.984 554.596 712.27 554.36C715.033 554.213 717.808 554.495 720.481 555.228C724.688 556.368 729.155 556.458 733.373 555.477C740.231 553.886 747.427 555.149 753.337 558.974C759.236 562.799 763.342 568.857 764.696 575.762C765.395 579.349 766.884 582.813 768.982 585.78C770.392 587.777 771.519 589.966 772.32 592.279C772.963 594.129 773.798 595.9 774.813 597.548C777.362 601.688 778.67 606.415 778.67 611.165C778.67 613.805 778.276 616.445 777.452 619.006C776.821 621.003 776.426 623.068 776.291 625.121C776.121 627.705 775.569 630.243 774.644 632.658C774.441 633.199 773.741 634.948 773.741 634.948C773.144 636.448 772.692 637.915 772.399 639.37C770.865 646.693 766.252 652.999 759.733 656.666C753.213 660.333 745.431 661.009 738.381 658.516C737.31 658.133 736.193 657.828 735.054 657.591C727.598 656.045 722.432 652.92 719.421 650.574C718.304 649.705 717.221 648.746 716.229 647.742C711.345 642.778 704.859 640.025 697.923 639.968C691.99 639.923 686.407 641.807 681.793 645.406C677.519 648.757 672.296 650.675 666.871 650.901H666.476C655.614 651.352 645.644 644.966 641.482 634.925C640.151 631.71 639.508 628.336 639.508 624.997V625.02ZM819.828 669.494C819.828 666.007 820.528 662.499 821.96 659.193C822.242 658.539 822.501 657.862 822.738 657.174C823.607 654.601 824.87 652.187 826.483 649.998C827.994 647.956 829.19 645.711 830.036 643.33C833.758 632.838 843.74 625.899 854.861 626.057C865.983 626.227 875.762 633.459 879.168 644.052C879.473 645 879.845 645.948 880.262 646.873C881.164 648.87 881.819 650.98 882.202 653.135C882.811 656.655 883.138 660.366 883.138 663.875C883.138 667.44 882.744 671.096 881.988 674.458C879.552 685.345 870.415 693.457 859.317 694.585C855.967 694.935 851.884 695.194 846.842 695.409C837.92 695.781 829.438 691.539 824.385 684.172C821.374 679.783 819.828 674.65 819.828 669.471V669.494Z" fill="#DADBE7"/>
</svg>
