<svg width="248" height="242" viewBox="0 0 248 242" fill="none" xmlns="http://www.w3.org/2000/svg">
<path d="M248 0H0V242H248V0Z" fill="black"/>
<path d="M107.528 220.507C107.098 220.507 104.343 220.204 92.8135 214.295C82.6751 209.092 80.4249 207.071 79.9698 206.617C79.9193 206.541 79.894 206.465 79.8434 206.39C79.363 205.455 79.54 205.101 79.6159 205C79.7676 204.748 80.2479 204.723 80.3996 204.723C80.8547 204.723 81.411 204.849 81.866 204.95L82.1189 205C82.1189 205 82.3717 205.051 82.4981 205.076C83.3577 205.228 84.5713 205.581 85.6838 205.884C86.5181 206.137 87.403 206.263 88.2626 206.263C89.7796 206.263 91.2966 205.884 92.6366 205.127C94.7603 203.94 96.3279 201.97 96.9599 199.621C96.9599 199.52 97.0105 199.444 97.0611 199.343C100.879 191.867 103.862 184.468 107.023 176.638C108.666 172.547 110.36 168.329 112.18 164.187C113.419 161.308 113.09 158 111.295 155.449C109.601 153.024 106.82 151.61 103.887 151.61C103.71 151.61 103.534 151.61 103.357 151.61C99.0584 151.862 94.5833 151.989 90.0577 151.989C79.3125 151.989 69.0476 151.282 61.1593 149.968C50.0096 148.125 46.4194 145.624 45.3575 143.856C45.3575 139.336 44.9277 134.739 44.4726 129.865C43.3349 117.919 42.273 106.63 48.3409 99.962C49.3017 98.9013 50.3635 98.0173 51.6024 97.2597C54.0548 95.7443 55.6477 93.1682 55.8752 90.2891C56.1028 87.4099 54.9398 84.6066 52.7401 82.7376C49.4534 79.9343 47.7847 77.7623 47.6583 76.0954C47.6077 75.363 47.8353 74.7568 48.3662 74.2012C48.8213 73.7466 49.4281 73.4941 50.1613 73.4941C53.7009 73.4941 59.6171 78.5452 66.4182 84.6571C69.0223 87.0058 71.0955 88.8495 72.5367 89.885C73.6238 90.6932 74.8627 91.2235 76.1774 91.4761C79.3378 92.0822 85.9366 92.4863 92.586 92.4863C96.8082 92.4863 100.55 92.3095 102.851 92.0317C104.368 91.8297 105.809 91.2488 107.048 90.3649C108.565 89.2536 110.764 87.3342 113.444 84.9349C120.448 78.6967 126.566 73.5446 130.258 73.5446C130.713 73.5446 131.142 73.6456 131.496 73.7971C132.71 74.3528 134.025 74.6558 135.339 74.6558C136.401 74.6558 137.488 74.4538 138.5 74.0749C140.775 73.2162 142.621 71.4989 143.582 69.2764C145.149 65.7153 146.211 62.1795 146.616 59.0226C147.121 55.1584 145.073 51.3953 141.559 49.7032C140.472 49.1728 139.107 48.5414 138.222 47.5817C136.477 45.6875 134.05 44.7026 131.598 44.7026C130.03 44.7026 128.462 45.1067 127.047 45.9401C125.15 47.0514 123.406 47.5312 121.358 47.5312C119.892 47.5312 118.349 47.2534 116.605 46.723C111.776 45.2077 110.663 42.2528 110.183 36.9743L110.132 36.3429C109.905 33.7921 108.565 31.4433 106.492 29.928C106.416 29.8775 106.39 29.8522 106.39 29.8522C106.39 29.8522 106.39 29.827 106.39 29.7765C106.365 29.5997 106.517 29.4229 106.669 29.2966C106.669 29.2966 106.694 29.2713 106.77 29.2461C109.197 28.1348 110.992 26.0386 111.7 23.4878C112.13 21.9219 112.661 20.3056 114.051 19.0175C115.897 17.2496 118.729 16.2899 121.99 16.2899C129.246 16.2899 133.974 19.8005 135.971 23.0837C137.261 25.2052 139.359 26.6953 141.787 27.2256C142.419 27.3519 143.051 27.4277 143.683 27.4277C145.503 27.4277 147.273 26.8721 148.79 25.8366C149.574 25.3062 150.433 24.9274 151.445 24.7001C153.012 24.3465 154.529 24.1697 155.97 24.1697C160.319 24.1697 163.884 25.7608 166.26 28.7662C169.042 32.2768 169.901 37.4794 168.612 43.0357C168.409 43.9449 167.98 44.7783 167.272 45.7128C164.668 49.1476 164.845 53.9462 167.727 57.1536C169.016 58.5932 170.609 60.3611 171.342 61.4976C184.135 81.197 191.518 97.891 195.209 115.671C195.31 116.176 195.361 116.732 195.386 117.388C195.437 120.823 197.459 123.93 200.595 125.395C201.201 127.364 202.516 129.107 204.235 130.269C204.488 131.835 204.185 133.123 203.325 134.108C202.364 135.219 200.772 135.876 198.926 135.876C197.636 135.876 196.398 135.573 195.31 134.992C193.591 134.057 192.403 132.82 191.619 131.052C190.254 128.046 187.372 126.001 184.06 125.773C183.832 125.773 183.604 125.748 183.377 125.748C180.318 125.748 177.461 127.289 175.792 129.865C175.008 131.077 173.997 132.113 173.112 133.022L173.011 133.123C172.783 133.35 172.531 133.603 172.328 133.83C171.342 134.891 170.609 136.179 170.23 137.593C169.598 139.891 168.789 144.614 169.067 147.417C169.067 147.468 169.067 147.544 169.067 147.594C169.876 154.135 173.238 162.697 176.803 171.764C180.596 181.437 184.186 190.579 184.489 196.944C184.489 197.323 184.489 197.676 184.414 198.055C183.604 202.02 185.551 206.061 189.167 207.905C190.684 208.663 191.644 209.269 191.998 210.001C192.125 210.582 192.226 211.239 191.998 211.567C191.948 211.643 191.897 211.693 191.644 211.769C190.886 211.971 190.127 212.274 189.445 212.653C181.481 217.199 173.39 219.421 164.769 219.421C162.923 219.421 161.002 219.32 159.08 219.118C158.979 218.537 158.802 217.426 159.131 216.972C159.206 216.871 159.308 216.744 159.788 216.643C162.544 216.088 164.87 214.269 166.083 211.769C167.297 209.243 167.297 206.314 166.033 203.813C165.451 202.677 164.895 201.364 164.288 199.975C162.645 196.237 160.546 191.034 158.094 184.518C155.363 177.32 152.886 170.4 151.647 166.915C150.459 163.556 147.374 161.207 143.784 160.929C143.556 160.929 143.329 160.929 143.127 160.929C139.789 160.929 136.73 162.773 135.137 165.728C133.494 168.834 130.384 175.502 127.653 181.386C121.535 194.519 115.77 206.945 113.546 208.94C110.562 210.102 108.413 212.779 107.933 215.961C107.781 216.921 107.705 217.755 107.68 218.487C107.68 219.118 107.68 219.775 107.806 220.381C107.73 220.457 107.604 220.482 107.427 220.482L107.528 220.507Z" fill="white"/>
</svg>
