<svg width="316" height="314" viewBox="0 0 316 314" fill="none" xmlns="http://www.w3.org/2000/svg">
<path d="M316 0H0V314H316V0Z" fill="black"/>
<path d="M187.962 290.288C184.875 290.288 181.755 290.158 179.838 289.964C178.993 289.866 178.148 289.671 177.206 289.346C175.971 288.892 174.671 288.697 173.371 288.697C171.714 288.697 170.056 289.054 168.529 289.769C168.074 289.996 167.619 290.061 167.489 290.061C166.612 290.191 165.669 290.223 164.564 290.223C162.972 290.223 161.282 290.126 159.657 289.996C157.968 289.899 156.278 289.769 154.685 289.769C153.905 289.769 153.223 289.769 152.573 289.866C151.923 289.216 151.988 284.474 151.988 282.883C151.988 281.973 151.988 281.129 152.053 280.349C152.183 276.711 150.623 273.203 147.861 270.897C147.796 270.832 147.731 270.767 147.666 270.702C147.146 268.721 147.211 261.867 147.309 253.941C147.341 249.849 147.406 243.677 147.309 238.513C147.211 233.705 144.254 229.45 139.802 227.761C138.469 227.274 137.104 227.014 135.772 227.014C132.555 227.014 129.435 228.378 127.193 230.879C125.926 232.309 124.723 233.413 123.553 234.29C118.451 238.058 89.594 244.164 79.5524 244.197C73.2805 244.197 68.146 249.297 68.016 255.663C67.9511 258.424 67.5611 260.535 66.7812 262.484C65.9687 264.465 62.784 268.103 60.0543 268.103C59.5019 268.103 59.0144 267.941 58.5919 267.681C58.5919 267.681 58.5594 267.681 58.5269 267.649C57.942 266.544 57.2921 262.484 56.7396 259.171C55.5372 251.603 55.5372 249.654 55.5372 249.589C55.5372 249.134 55.6347 248.647 55.7972 248.062C56.6421 244.912 56.1547 241.533 54.4323 238.773C54.3023 238.578 54.2049 238.35 54.1074 238.09C54.0749 237.993 53.5874 236.336 52.775 229.515C52.45 226.722 51.9951 222.954 52.2225 221.687C52.2225 221.687 52.2225 221.687 52.255 221.655C53.7824 221.005 55.4722 220.648 57.2596 220.648C59.9243 220.648 62.5241 221.362 64.8638 222.012C65.8712 222.304 66.8787 222.564 67.7236 222.759C68.5035 222.921 69.3159 223.019 70.1283 223.019C70.7133 223.019 71.2982 222.986 71.8507 222.889C77.0502 222.077 95.6384 218.504 101.748 217.172C103.828 216.717 105.712 215.711 107.24 214.216C107.857 213.632 108.572 212.917 109.32 212.105C112.017 209.279 113.122 205.251 112.277 201.419C111.432 197.586 108.767 194.435 105.128 193.006C101.975 191.772 100.415 189.823 100.448 189.141C100.448 189.043 100.448 188.978 100.48 188.946C102.105 185.015 101.455 180.5 98.8231 177.155C97.3608 175.303 95.3135 172.25 91.9663 166.956C85.3369 156.432 84.362 153.833 84.2645 153.573V153.476C83.3221 150 82.6722 146.232 84.3295 142.335C84.3945 142.172 86.1168 138.404 98.0107 130.349C101.813 127.783 103.73 123.17 102.95 118.623C102.17 114.076 98.8231 110.405 94.4035 109.268C92.7137 108.846 91.4463 108.229 90.5689 107.384C89.399 106.312 88.0341 104.688 87.9691 103.064C87.7417 97.0551 83.0946 92.2154 77.1802 91.8256C70.4208 91.3708 68.3735 88.6099 67.6911 87.7004C66.6187 86.2712 65.4163 84.1599 65.6113 82.3085C66.0987 77.761 63.9539 73.3111 60.0543 70.9399C60.0543 70.9399 59.9893 70.8749 59.9568 70.8425C59.8268 70.2903 59.8268 68.7961 59.8593 67.7892C59.8593 66.7173 59.8918 65.0932 60.0868 64.6385C61.9391 60.156 60.8667 54.9914 57.3896 51.6458C56.9346 51.2235 56.6421 50.7363 56.3821 50.1516C55.8297 48.7549 56.1872 47.1958 57.5195 45.3444C58.6244 43.7528 61.7766 42.8108 66.8137 42.5185C72.7606 42.1612 77.4726 37.2889 77.6676 31.2473C77.6676 30.7276 77.7651 30.143 77.9276 29.5583C78.675 28.324 84.687 24.751 101.683 24.751C114.942 24.751 117.379 27.7393 117.801 29.0061C117.996 29.6557 118.126 30.2079 118.094 30.7601C118.029 36.4119 121.961 41.3166 127.453 42.3885C128.915 42.6809 129.728 43.4279 130.248 44.8896C130.67 46.0914 130.8 47.1309 130.605 47.9429C129.305 53.7571 132.522 59.6363 138.047 61.6177C138.469 61.7801 138.892 61.9425 139.282 62.1049C142.986 63.8264 143.181 66.4249 143.019 68.2439C142.531 73.8957 146.074 79.0928 151.468 80.5869C158.162 82.4384 165.539 84.6796 168.074 87.8953C169.309 89.4544 169.991 91.2734 170.316 93.9369C170.674 96.7303 172.006 99.2964 174.086 101.18C174.638 101.96 174.833 102.577 174.703 103.064C174.638 103.259 174.606 103.422 174.086 103.746C172.071 105.013 170.511 106.865 169.569 109.073C169.146 110.048 168.659 110.762 168.009 111.347C167.554 111.737 167.034 112.062 166.384 112.354C163.524 113.653 161.282 116.122 160.242 119.11C159.202 122.131 159.397 125.444 160.795 128.302C160.957 128.627 161.12 128.952 161.25 129.277C162.647 132.233 165.214 134.441 168.302 135.416C169.406 135.741 170.544 135.936 171.649 135.936C173.696 135.936 175.711 135.383 177.531 134.312C191.634 125.866 225.886 104.266 239.437 85.784C240.932 83.7701 242.427 80.8143 244.767 76.2019C248.634 68.5363 252.631 60.6107 256.303 60.6107C256.368 60.6107 256.433 60.6107 256.498 60.6107C256.661 60.6107 256.693 60.6107 256.726 60.6107C258.026 61.3903 261.113 66.8472 263.355 70.8425C266.67 76.7541 270.699 84.3873 274.274 91.111C279.506 101.018 281.878 105.403 283.048 107.189C282.756 108.651 280.286 109.69 275.476 110.373C271.154 111.022 265.5 111.315 259.488 111.639C254.548 111.899 247.821 112.289 242.427 112.939C239.177 113.328 236.253 115.115 234.368 117.811C232.483 120.507 231.801 123.885 232.515 127.133C232.743 128.238 232.84 129.147 232.775 129.862C232.515 132.525 230.988 134.377 228.843 136.683C227.706 137.917 226.796 138.924 226.016 140.093C225.139 141.425 224.554 142.919 224.261 144.478C222.604 153.703 222.929 190.407 224.099 200.964C224.099 201.094 224.099 201.191 224.131 201.321C224.391 203.173 225.041 205.187 226.504 209.279C228.161 213.957 230.241 219.738 228.583 222.174C227.966 223.084 226.958 223.506 225.431 223.506C225.074 223.506 224.684 223.506 224.294 223.441C223.416 223.344 222.669 223.149 222.051 222.857C220.557 222.174 218.932 221.817 217.339 221.817C215.552 221.817 213.765 222.239 212.14 223.084C209.02 224.675 206.81 227.599 206.063 231.042L205.965 231.464C205.218 234.647 203.756 236.271 201.643 236.271C201.318 236.271 200.961 236.239 200.571 236.174C199.596 235.979 198.719 235.817 197.971 232.276C196.769 226.819 191.992 223.116 186.695 223.116C185.882 223.116 185.037 223.214 184.193 223.409C183.64 223.539 183.088 223.636 182.503 223.669C176.263 224.221 171.584 229.743 171.974 236.077C172.754 248.679 173.111 260.178 172.916 266.122C172.721 272.066 176.946 277.231 182.73 278.108C188.32 278.952 192.609 280.219 195.404 283.565C197.581 286.196 198.069 287.82 198.069 288.21C198.069 288.21 197.971 288.469 197.906 288.632C197.614 289.346 196.769 289.834 195.339 290.029C193.714 290.256 190.919 290.386 187.735 290.386L187.962 290.288ZM169.699 168.19C164.109 168.19 159.3 172.283 158.325 177.902C158 179.753 157.545 182.384 157.058 183.879C157.025 183.976 156.993 184.073 156.96 184.106C154.913 188.134 155.303 192.973 158 196.579C158.845 197.716 159.787 198.918 160.567 199.892C161.152 200.639 161.77 201.419 162.42 202.263C164.662 205.154 168.042 206.746 171.519 206.746C172.721 206.746 173.923 206.551 175.126 206.161C179.74 204.634 182.925 200.314 183.088 195.41C183.25 190.277 183.348 184.496 183.348 179.916C183.348 176.765 182.113 173.744 179.87 171.568C177.693 169.424 174.801 168.222 171.779 168.222C171.714 168.222 171.129 168.222 170.901 168.222C170.641 168.222 170.349 168.222 170.089 168.222C169.959 168.222 169.861 168.222 169.731 168.222L169.699 168.19ZM196.541 152.761C196.541 152.761 196.021 153.476 193.974 154.45C189.879 156.464 187.312 160.719 187.41 165.332C187.507 168.807 187.767 173.192 187.962 176.375C188.092 178.617 188.222 180.695 188.32 182.612C188.515 186.737 190.887 190.472 194.494 192.389C196.184 193.298 198.004 193.72 199.856 193.72C201.968 193.72 204.081 193.136 205.933 191.966C206.225 191.772 206.68 191.577 207.59 191.544C213.862 191.382 218.834 186.185 218.834 179.818V157.568C218.834 153.963 217.209 150.552 214.382 148.344C212.335 146.72 209.833 145.843 207.265 145.843C206.323 145.843 205.413 145.972 204.471 146.2L204.211 146.265C200.798 147.109 197.971 149.513 196.509 152.729L196.541 152.761Z" fill="white"/>
</svg>
