<svg width="245" height="244" viewBox="0 0 245 244" fill="none" xmlns="http://www.w3.org/2000/svg">
<path d="M245 0H0V244H245V0Z" fill="black"/>
<path d="M42.7314 218.406C38.1962 218.406 34.8956 218.078 32.3257 217.346C29.4786 216.538 27.3622 212.5 27.1354 209.219C26.7071 202.606 28.6724 192.333 30.7384 181.454C32.3257 173.099 33.9886 164.467 34.2657 158.258C35.6767 127.566 33.9886 96.5197 32.3761 66.4835C31.6958 53.7875 30.9903 40.6877 30.5368 27.7898C34.4421 27.2093 37.5663 26.9316 40.0607 26.9316C42.555 26.9316 44.7722 27.3355 46.032 28.0674C46.5611 28.3703 47.5689 28.9509 47.8712 31.6011C48.2744 35.261 51.1215 38.2394 54.926 38.9713C57.1683 39.4257 59.4863 39.9557 60.9477 41.1925C68.7078 47.7298 75.183 61.4606 80.6505 73.8285C81.1544 74.9643 81.7087 76.2516 82.2126 77.3369C83.6487 80.492 86.8989 82.4355 90.4011 82.4355C91.1821 82.4355 91.9884 82.3345 92.7694 82.1326C96.8511 81.0725 101.613 78.4223 107.005 75.3177C110.633 73.2227 114.06 71.254 117.083 70.1181C118.091 69.7395 118.998 69.2095 119.779 68.528C120.888 67.5688 121.971 66.8621 122.853 66.5592C124.768 65.8777 126.682 65.5496 128.572 65.5496C131.999 65.5496 134.972 66.6349 137.819 67.695C140.565 68.7047 143.16 69.6638 146.032 69.6638C146.31 69.6638 146.612 69.6638 146.889 69.6386C147.317 69.6133 147.721 69.5628 148.124 69.4619C150.316 69.0076 152.659 67.897 157.446 65.3982C161.175 63.4546 165.408 61.2335 168.935 60.5267C171.429 60.0219 173.999 59.7443 176.544 59.7443C190.88 59.7443 204.99 68.2251 211.616 80.8706C217.083 91.2697 216.227 102.628 209.349 111.285C208.215 112.699 204.813 115.172 203.176 116.359C200.228 118.479 198.993 122.114 200.051 125.471C200.177 125.874 200.253 126.228 200.303 126.556C201.639 137.889 197.003 143.997 191.636 151.09C190.553 152.503 189.444 153.992 188.336 155.557C186.169 158.611 186.345 162.65 188.789 165.527C191.561 168.809 194.458 171.812 197.507 174.967C204.763 182.464 211.591 189.506 215.446 199.274C218.872 207.906 217.739 210.43 217.613 210.708C217.411 211.112 217.159 211.213 216.932 211.263C216.151 211.465 214.665 211.566 212.523 211.566C210.382 211.566 207.912 211.465 205.72 211.389C203.881 211.314 202.344 211.263 201.286 211.263C200.53 211.061 199.749 210.985 198.968 210.985C197.759 210.985 196.549 211.213 195.441 211.692C194.231 212.197 193.652 212.247 193.652 212.247H175.687C174.579 212.247 173.47 212.449 172.437 212.828C172.185 212.929 172.009 212.929 171.883 212.929C171.203 212.929 171.077 212.374 171.026 211.768C170.9 209.547 172.311 207.805 175.31 206.518C176.091 206.164 176.998 205.862 177.98 205.609C180.928 204.801 183.246 202.631 184.103 199.829C184.959 197.027 184.204 193.999 182.163 191.853C179.064 188.597 174.932 184.13 169.54 178.223L168.683 177.289C166.995 175.422 164.526 174.361 161.931 174.361C161.83 174.361 161.754 174.361 161.654 174.361C158.983 174.437 156.463 175.649 154.851 177.693C152.558 180.545 150.064 183.726 148.073 186.275C144.999 190.212 142.077 193.923 139.708 196.775C138.172 198.618 136.08 201.142 135.249 201.47C132.528 201.672 130.008 203.035 128.497 205.205C127.993 205.937 127.489 206.644 127.111 207.174C125.977 208.789 124.616 210.783 123.961 211.364C123.961 211.364 123.936 211.364 123.911 211.364C123.911 211.364 123.861 211.364 123.785 211.364C123.306 211.364 121.669 210.985 116.705 207.603C113.052 205.104 110.608 203.009 109.802 202.05C109.676 201.899 109.524 201.722 109.373 201.571C108.315 200.46 106.954 199.652 105.443 199.198C104.586 198.946 103.704 198.517 102.772 197.911C102.444 197.658 101.815 197.204 100.983 196.598L98.0101 194.453C96.4228 193.292 94.5079 192.711 92.5931 192.711C90.8042 192.711 89.0153 193.216 87.5036 194.226C84.329 196.321 82.9432 200.157 84.1022 203.666C84.7825 205.71 84.5557 208.638 84.329 211.717C84.203 213.409 84.0518 215.327 84.0266 217.422C81.6835 217.018 78.8364 216.816 75.309 216.816C70.2196 216.816 64.4246 217.245 58.806 217.649C53.2883 218.053 47.5689 218.482 42.6558 218.482L42.7314 218.406ZM130.059 87.2817C129.63 87.2817 129.177 87.3069 128.748 87.3826C125.523 87.837 122.828 89.9319 121.694 92.8346C116.428 106.389 107.005 127.212 89.1413 164.72L85.5636 172.241C84.4298 174.614 84.5305 177.34 85.7903 179.637C87.0501 181.934 89.3933 183.549 92.0892 184.029C94.5331 184.458 97.7329 185.947 101.411 187.714C102.772 188.345 104.611 189.228 106.451 190.011C107.61 190.515 108.869 190.768 110.104 190.768C111.162 190.768 112.245 190.591 113.253 190.212C115.47 189.405 117.259 187.815 118.217 185.77L154.095 134.532C156.085 131.68 156.085 127.969 154.045 125.117C153.591 124.461 152.961 123.451 152.281 121.331C150.366 115.324 149.661 108.66 148.98 102.224C148.88 101.24 148.779 100.255 148.653 99.2962C148.174 94.98 144.344 91.7492 139.809 91.7492C139.734 91.7492 139.431 91.7492 139.431 91.7492C138.575 91.7492 137.869 91.4716 137.34 90.9163C137.264 90.8406 137.189 90.7396 137.113 90.6639C135.425 88.5437 132.78 87.3069 130.008 87.3069L130.059 87.2817ZM53.7418 68.9823C52.608 68.9823 51.4742 69.1842 50.3908 69.6133C47.0398 70.9006 44.8226 74.0052 44.8226 77.4379V174.336C44.8226 178.148 47.5185 181.479 51.3734 182.489C52.1545 182.691 52.9355 182.792 53.7166 182.792C56.8156 182.792 59.7635 181.252 61.376 178.652C64.4498 173.756 67.8512 168.43 71.0762 163.407C73.2178 160.101 72.6887 155.835 69.7912 153.058V85.7168C69.7912 84.0761 69.2873 82.486 68.3551 81.0978C66.4654 78.3718 63.2404 74.6109 60.1162 71.5568C58.4029 69.891 56.0849 68.9823 53.7166 68.9823H53.7418ZM82.2882 103.865C80.9528 103.865 79.6174 104.142 78.3577 104.723C75.309 106.136 73.3942 109.089 73.3942 112.295V129.332C73.3942 133.144 76.0901 136.501 79.9702 137.485C80.7512 137.687 81.5323 137.788 82.2882 137.788C85.4124 137.788 88.3602 136.223 89.9979 133.598C93.878 127.288 97.0527 121.861 99.7234 117.04C101.537 113.759 100.882 109.771 98.1361 107.146C96.4228 105.531 94.13 104.672 91.8372 104.672C90.4263 104.672 89.0153 104.975 87.7304 105.632C86.143 104.47 84.2282 103.865 82.2882 103.865Z" fill="white"/>
</svg>
