<svg width="1219" height="429" viewBox="0 0 1219 429" fill="none" xmlns="http://www.w3.org/2000/svg">
<path d="M432.67 253.082C432.399 253.082 432.075 253.028 431.751 252.947C431.697 252.947 431.67 252.92 431.643 252.892C430.562 252.135 429.238 251.729 427.914 251.729C427.806 251.729 427.697 251.729 427.589 251.729C427.238 251.729 426.914 251.756 426.617 251.756C426.454 251.756 426.184 251.756 426.076 251.702C426.049 251.675 426.022 251.648 425.995 251.621C425.725 250.755 425.59 247.779 425.401 244.37C425.184 240.122 425.049 237.768 424.833 236.605C424.806 236.442 424.779 236.307 424.725 236.145C427.481 234.332 428.292 230.788 426.508 228.082C426.373 227.893 426.292 227.73 426.211 227.595C422.104 219.668 423.374 209.955 429.4 202.866C431.237 200.728 431.265 197.671 429.508 195.48C429.373 195.317 429.265 195.155 429.157 194.993C427.968 193.018 426.211 188.012 427.995 176.865C428.589 173.077 430.157 169.966 432.508 167.883C433.697 166.8 434.426 165.339 434.48 163.797C434.48 163.689 434.48 163.608 434.48 163.554C435.129 163.283 435.831 163.175 436.588 163.175C437.696 163.175 438.75 163.445 439.777 163.716C439.993 163.77 440.263 163.851 440.506 163.905C441.02 164.013 441.533 164.095 442.047 164.095C442.371 164.095 442.722 164.095 443.046 164.013C444.938 163.716 449.559 162.904 452.694 162.309C455.099 161.849 457.017 160.117 457.612 157.872C458.206 155.626 457.369 153.245 455.45 151.784C454.882 151.351 454.72 150.918 454.72 150.837C454.72 150.837 454.72 150.837 454.72 150.783C455.207 149.024 454.801 147.185 453.666 145.724C452.964 144.804 452.045 143.478 451.153 142.152C448.397 138.094 447.965 137.039 447.938 136.93V136.876C447.478 135.307 447.316 133.954 447.938 132.52C448.154 132.033 449.262 130.843 451.667 129.165C453.369 127.948 454.315 126.027 454.207 123.998C454.072 121.996 452.883 120.156 451.045 119.155C450.856 119.046 450.721 118.938 450.559 118.83C450.153 118.478 449.64 117.937 449.505 117.369C448.964 114.907 446.83 113.04 444.208 112.688C442.236 112.418 441.452 111.714 440.993 111.146C440.587 110.632 440.101 109.874 440.101 109.225C440.101 107.439 439.263 105.735 437.804 104.599C437.804 104.599 437.804 104.599 437.75 104.571C437.696 104.355 437.696 103.76 437.696 103.381C437.696 102.948 437.696 102.434 437.777 102.191C438.263 100.351 437.777 98.3756 436.507 96.9146C436.399 96.7793 436.318 96.644 436.237 96.4817C435.939 95.7782 436.399 95.0207 436.696 94.6148C436.858 94.3984 437.291 93.8302 439.642 93.5867C442.425 93.2891 444.668 91.314 445.181 88.7166C445.181 88.6355 445.208 88.5543 445.235 88.4461C445.56 87.9591 448.073 86.5522 455.18 86.5522C460.882 86.5522 461.8 87.8238 461.935 88.2296C461.989 88.392 462.016 88.5272 462.043 88.6625C462.368 90.9082 463.962 92.775 466.232 93.5326C466.691 93.6949 466.989 93.9655 467.151 94.4525C467.286 94.8042 467.34 95.1289 467.313 95.4265C467.151 97.8616 468.61 100.161 470.934 101.189C471.934 101.622 472.447 102.299 472.501 103.192C472.609 105.762 474.474 107.981 477.068 108.684C479.473 109.333 482.04 110.145 482.986 111.254C483.446 111.795 483.743 112.445 483.878 113.338C484.067 114.501 484.635 115.583 485.499 116.449C485.824 116.855 485.797 117.071 485.77 117.207C485.743 117.315 485.715 117.342 485.607 117.423C484.743 118.018 484.013 118.803 483.554 119.696C483.392 119.993 483.202 120.237 482.959 120.453C482.878 120.507 482.797 120.589 482.716 120.643C480.176 122.239 479.203 125.35 480.392 128.002C480.527 128.3 480.635 128.57 480.716 128.814C480.743 128.922 480.77 129.057 480.797 129.192C481.176 131.411 482.824 133.251 485.067 133.954C485.067 133.954 485.067 133.954 485.094 133.954C486.499 134.387 487.931 134.847 488.445 135.118C489.688 135.794 490.309 136.93 490.147 138.256C489.931 139.907 488.607 141.395 486.905 141.882C486.31 141.719 485.688 141.611 485.067 141.611C483.905 141.611 482.77 141.909 481.743 142.504C480.203 143.397 479.149 144.885 478.825 146.562C478.69 147.266 478.5 148.267 478.311 148.835C477.582 150.783 477.96 152.948 479.311 154.544L479.771 155.085C481.554 157.195 483.581 159.576 484.067 162.796C484.364 164.771 484.797 170.777 484.959 175.675C485.04 177.623 486.094 179.408 487.823 180.491C491.093 182.52 493.471 185.117 494.93 188.202C495.038 188.418 495.146 188.607 495.255 188.797C495.39 189.04 495.498 189.23 495.525 189.392C495.579 189.663 495.633 189.933 495.714 190.204C497.714 196.535 495.822 203.84 490.661 209.711C489.553 210.983 489.039 212.606 489.228 214.229C489.418 215.853 490.336 217.341 491.715 218.315C496.092 221.426 499.011 226.134 499.713 231.221C500.686 238.255 497.281 244.343 490.607 247.508C485.797 249.781 478.96 251.188 472.799 251.188C471.907 251.188 471.015 251.161 470.177 251.107C467.989 250.944 465.097 250.349 462.043 249.7C458.909 249.023 455.666 248.347 453.369 248.212C453.261 248.212 453.126 248.212 453.018 248.212C451.559 248.212 450.126 248.699 448.991 249.592C448.613 249.889 448.235 250.16 447.748 250.376C447.64 250.43 447.532 250.457 447.424 250.484C445.992 250.917 444.776 251.783 443.965 252.974C443.749 253.055 443.533 253.082 443.344 253.082C443.263 253.082 443.073 253.082 442.911 253.028C442.236 252.811 441.506 252.676 440.804 252.676C440.128 252.676 439.452 252.784 438.804 252.974C438.804 252.974 438.75 252.974 438.723 252.974C438.507 253.028 438.263 253.028 438.074 253.028C437.804 253.028 437.561 253.001 437.318 252.92C436.669 252.73 435.994 252.622 435.345 252.622C434.615 252.622 433.859 252.757 433.183 253.001C432.94 253.082 432.67 253.109 432.535 253.109L432.67 253.082ZM458.639 177.677C458.233 177.677 457.828 177.704 457.396 177.758C454.531 178.164 452.315 180.382 452.045 183.115C451.937 184.143 452.072 185.252 452.45 186.199C453.342 188.607 455.747 190.204 458.422 190.204C458.504 190.204 458.558 190.204 458.639 190.204C458.801 190.204 458.963 190.204 459.152 190.177C459.611 190.123 460.044 190.068 460.449 189.96C463.043 189.311 464.962 187.2 465.151 184.657C465.259 183.304 464.935 181.843 464.232 180.68C463.206 178.975 461.368 177.866 459.314 177.704C459.152 177.704 458.936 177.677 458.666 177.677H458.639Z" fill="#1F1F1F"/>
<path d="M1147.02 253.082C1146.77 253.082 1146.72 253.028 1146.69 253.001C1147.13 249.267 1145.23 245.668 1141.86 243.748C1139.94 242.178 1135.4 232.925 1129.64 221.21C1128.43 218.748 1127.05 215.907 1125.81 213.445C1124.13 210.09 1120.56 207.979 1116.67 207.979C1116.51 207.979 1116.35 207.979 1116.19 207.979C1112.1 208.169 1108.56 210.658 1107.19 214.284C1105.92 217.584 1104.65 220.885 1103.48 223.78C1101.27 229.3 1099.32 234.17 1097.67 237.525C1095.38 242.259 1097.49 247.86 1102.43 250.133C1102.48 250.133 1102.51 250.16 1102.59 250.268C1102.89 250.647 1102.73 251.594 1102.65 252.027C1101 252.189 1099.35 252.297 1097.76 252.297C1090.41 252.297 1083.54 250.539 1076.79 246.886C1076.11 246.507 1075.38 246.237 1074.62 246.02C1074.57 246.02 1074.49 245.993 1074.46 245.966C1072.68 244.694 1070.54 244.045 1068.41 244.045C1066.79 244.045 1065.17 244.424 1063.68 245.154C1062.65 245.669 1061.44 245.939 1060.03 245.939C1057.22 245.939 1053.95 244.965 1051.09 244.072C1049.06 243.45 1047.38 242.963 1046.03 242.746C1045.44 242.638 1044.84 242.584 1044.25 242.584C1043.66 242.584 1043.01 242.638 1042.39 242.746C1040.79 243.044 1039.09 243.639 1036.68 244.559C1033.28 245.858 1029.41 247.319 1024.88 247.319C1024.71 247.319 1024.58 247.319 1024.42 247.319C1018.66 247.184 1013.09 245.317 1008.31 241.908C1006.55 240.636 1004.42 239.987 1002.23 239.987C1001.53 239.987 1000.82 240.068 1000.12 240.203C997.258 240.771 994.799 242.503 993.393 244.938C992.961 245.696 991.772 247.725 988.8 247.725C986.881 247.725 984.746 246.886 982.665 246.101C982.287 245.939 981.801 245.777 981.368 245.614C980.179 245.181 978.936 244.965 977.666 244.965C975.748 244.965 973.829 245.479 972.153 246.507C972.153 246.507 972.045 246.561 972.045 246.588C970.181 247.725 968.803 248.509 967.208 248.509C965.722 248.509 964.236 247.725 962.777 246.183C959.723 242.936 960.426 239.554 965.803 231.762C968.938 227.216 970.397 224.727 970.829 221.967C970.883 221.643 970.91 221.318 970.937 220.993C971.235 214.365 970.991 207.141 970.748 199.511C969.884 172.996 968.884 143.018 991.123 125.973C999.987 119.182 1012.58 115.286 1025.63 115.286C1038.68 115.286 1051.22 119.263 1059.76 126.487C1062.46 128.787 1064.63 131.709 1065.95 134.982C1067.38 138.446 1070.81 140.827 1074.73 141.07C1074.95 141.07 1075.16 141.07 1075.35 141.07C1079.03 141.07 1082.46 139.149 1084.22 136.065C1086.54 132.006 1089.16 127.867 1092.19 123.429C1092.68 122.726 1093.54 121.779 1094.16 121.103C1097.05 117.964 1097.49 113.419 1095.22 109.847C1094.89 109.333 1094.67 108.846 1094.57 108.359C1093.46 103.814 1094.19 99.5661 1096.59 96.6982C1099.19 93.5867 1102.84 92.9374 1105.46 92.9374C1106.7 92.9374 1108 93.0727 1109.35 93.3703C1109.89 93.4785 1110.38 93.6408 1110.86 93.8573C1112.27 94.5066 1113.78 94.8313 1115.29 94.8313C1118.32 94.8313 1121.27 93.5597 1123.24 91.1787C1125.54 88.419 1130.24 86.498 1134.7 86.498C1137.51 86.498 1139.91 87.2827 1141.51 88.7166C1142.32 89.4471 1142.86 90.3671 1143.32 91.7199C1144.05 93.9655 1145.64 95.8865 1147.8 97.0769C1148.13 97.3204 1148.1 97.4557 1148.07 97.4828C1146.21 99.0791 1144.99 101.406 1144.75 103.787C1144.32 108.332 1142.91 110.226 1139.26 111.335C1137.78 111.768 1136.43 111.985 1135.18 111.985C1133.72 111.985 1132.43 111.687 1131.1 111.092C1129.7 110.443 1128.18 110.118 1126.67 110.118C1124.35 110.118 1122.02 110.876 1120.16 112.364C1119.75 112.688 1119.29 112.986 1118.73 113.283C1114.86 115.394 1112.89 119.669 1113.92 123.781C1115.59 130.518 1120.94 139.744 1127.48 143.613C1131.16 145.778 1136.32 147.374 1141.29 148.916C1144.69 149.971 1148.18 151.054 1150.88 152.244C1153.69 153.489 1155.4 156.221 1154.83 158.602C1154.23 161.173 1151.48 161.606 1149.88 161.606C1148.1 160.361 1145.99 159.712 1143.83 159.712C1142.67 159.712 1141.48 159.901 1140.37 160.307C1140.26 160.334 1140.13 160.361 1139.97 160.361C1139.21 160.361 1137.75 160.036 1135.59 159.387C1134.59 159.089 1133.59 158.954 1132.56 158.954C1130.78 158.954 1129.02 159.387 1127.45 160.28C1124.99 161.66 1123.27 163.932 1122.67 166.584C1122.64 166.746 1122.59 166.881 1122.51 167.017C1120.81 169.993 1120.89 173.618 1122.72 176.513C1124.4 179.165 1126.97 182.141 1129.21 184.738C1130.8 186.551 1132.29 188.256 1133.32 189.744C1139.45 198.402 1143.53 208.007 1147.45 217.314C1150.18 223.726 1152.72 229.76 1155.99 235.82C1155.99 235.847 1156.1 236.037 1156.12 236.064C1157.94 239.175 1161.37 241.042 1164.99 241.042C1165.83 241.042 1166.66 240.934 1167.5 240.744C1167.93 240.636 1168.29 240.582 1168.58 240.528C1168.72 240.528 1169.07 240.447 1169.07 240.447C1169.53 240.338 1169.99 240.257 1170.37 240.257C1170.53 240.257 1170.91 240.257 1171.04 240.501C1171.1 240.609 1171.23 240.853 1170.83 241.61C1170.8 241.691 1170.74 241.745 1170.72 241.827C1170.23 242.286 1168.07 243.991 1159.69 248.076C1149.94 252.838 1147.4 253.136 1147.29 253.136C1147.29 253.136 1147.23 253.136 1147.21 253.136C1147.15 253.136 1147.05 253.136 1147.05 253.136L1147.02 253.082ZM1072.89 213.58C1071.65 213.58 1070.38 213.797 1069.19 214.256C1068.52 214.5 1067.81 214.743 1067.11 214.933C1062.95 216.042 1060 219.532 1059.76 223.618C1059.76 224.051 1059.71 224.511 1059.68 224.971C1059.55 228.082 1061.03 231.058 1063.65 232.952C1064.11 233.304 1064.57 233.629 1065.03 234.007C1066.92 235.604 1069.33 236.442 1071.76 236.442C1072.76 236.442 1073.76 236.307 1074.76 236.009C1078.14 235.008 1080.73 232.411 1081.57 229.137C1081.81 228.163 1082.14 227.135 1082.49 225.972C1083.62 222.454 1082.54 218.64 1079.7 216.15C1077.81 214.473 1075.35 213.607 1072.84 213.607L1072.89 213.58Z" fill="#1F1F1F"/>
<path d="M629.288 428.865C625.802 428.865 622.775 427.674 621.019 425.591C620.695 425.185 620.343 424.536 619.992 423.589C618.641 419.909 614.966 417.447 610.858 417.447H593.888C592.726 413.632 594.023 412.631 594.428 412.279C596.752 410.44 598.049 407.707 597.914 404.839C597.887 404.217 597.86 403.621 597.833 403.162C597.752 401.403 597.644 399.211 597.806 398.454C597.806 398.454 597.833 398.427 597.86 398.4C598.752 398.237 599.779 398.156 601.049 398.156C602.859 398.156 604.94 398.291 606.967 398.454C608.886 398.589 610.669 398.724 612.317 398.751C612.372 398.751 612.399 398.751 612.453 398.751C615.452 398.751 618.263 397.453 620.1 395.207C621.181 393.881 622.505 392.123 623.451 390.824C624.937 388.822 626.315 386.982 627.585 385.44C629.855 382.734 630.342 379.028 628.801 375.862C626.91 371.993 625.802 367.61 625.478 362.794C623.991 340.933 625.018 317.556 626.018 294.965C626.207 290.825 626.369 286.712 626.532 282.681C626.613 280.625 626.586 278.596 626.532 276.485C626.504 274.618 626.477 272.697 626.532 270.804L630.477 284.332C631.26 287.064 633.368 289.31 636.125 290.392C637.314 290.852 638.557 291.096 639.8 291.096C641.475 291.096 643.151 290.69 644.637 289.878C645.285 289.797 645.637 289.77 645.907 289.77C646.042 289.77 646.15 289.77 646.258 289.797C646.961 289.959 647.69 290.013 648.42 290.013C650.366 290.013 652.284 289.472 653.906 288.39C656.148 286.929 657.635 284.683 658.013 282.14L659.743 270.776C661.229 271.588 662.904 271.994 664.553 271.994C666.012 271.994 667.471 271.696 668.795 271.074C671.687 269.748 673.686 267.124 674.146 264.121L674.308 263.12L675.821 262.2C676.389 264.851 678.199 267.151 680.712 268.423C682.144 269.153 683.712 269.532 685.306 269.532C686.522 269.532 687.738 269.315 688.9 268.883C688.981 271.155 688.927 273.482 688.9 275.728C688.873 277.703 688.819 279.759 688.873 281.788C688.954 285.576 689.17 289.283 689.414 293.233C689.657 297.318 689.927 301.458 689.981 305.543C690.035 309.304 690.197 313.904 690.359 318.747C690.954 335.603 691.657 356.598 689.468 368.043C689.387 368.53 689.278 368.99 689.17 369.45C688.522 372.182 689.224 375.05 691.089 377.242C692.927 379.406 695.71 380.651 698.628 380.651C698.655 380.651 739.433 380.272 739.865 380.272C736.19 383.411 735.515 388.66 738.406 392.474C738.406 392.474 738.433 392.529 738.46 392.637C738.46 392.691 738.514 392.853 738.244 393.178C735.596 396.316 735.406 400.754 737.811 404.081C737.866 404.65 737.947 405.38 737.839 405.705C736.866 409.439 738.46 413.335 741.811 415.499H710.654C706.816 415.499 703.33 417.636 701.79 420.964C699.493 425.862 696.061 427.972 690.278 427.972H689.9C684.982 427.918 681.739 425.889 679.442 421.397C677.848 418.313 674.605 416.311 670.984 416.23C668.876 416.175 665.228 416.121 659.824 416.121C655.716 416.121 651.825 416.148 648.906 416.23C644.907 416.311 641.367 418.746 640.016 422.317C639.313 424.157 638.422 425.429 637.124 426.43C635.152 427.945 632.233 428.838 629.315 428.838L629.288 428.865Z" fill="#1F1F1F"/>
<path d="M1071.52 428.865C1069.41 428.865 1066.79 428.324 1063.79 427.295C1062.63 426.89 1061.41 426.7 1060.17 426.7C1060.09 426.7 1059.98 426.7 1059.9 426.7C1058.14 426.754 1056.38 426.754 1054.65 426.754C1042.93 426.754 1037.98 425.78 1035.9 424.969C1035.6 424.86 1035.31 424.752 1035.01 424.671C1034.09 424.4 1033.06 424.103 1031.93 423.913C1031.33 423.805 1030.74 423.778 1030.14 423.778C1029.39 423.778 1028.63 423.859 1027.87 424.022C1027.63 424.076 1027.33 424.13 1027.09 424.184C1026.06 424.428 1024.87 424.671 1023.6 424.671C1023.2 424.671 1022.79 424.671 1022.39 424.59C1021.58 424.482 1020.55 424.076 1019.85 423.778C1018.47 423.183 1016.98 422.885 1015.5 422.885C1013.66 422.885 1011.85 423.345 1010.2 424.238C1008.77 425.023 1006.74 425.916 1003.63 425.916C1003.28 425.916 1002.91 425.916 1002.5 425.889C1001.5 425.807 1000.42 425.51 999.149 424.942C997.717 424.292 996.15 423.941 994.582 423.941C993.42 423.941 992.285 424.13 991.177 424.482C990.556 424.671 989.988 424.806 989.448 424.806C988.421 424.86 985.719 424.942 982.746 424.942C980.557 424.942 973.856 424.942 973.018 423.805C971.937 422.29 972.234 417.339 973.505 415.905C973.802 415.58 974.261 415.174 975.315 414.85C977.828 414.119 979.963 412.523 981.287 410.385C981.855 409.493 982.8 408.356 985.341 407.518C986.746 407.058 987.827 406.679 988.583 406.435C990.151 405.894 991.556 405.001 992.691 403.838C993.339 403.189 994.231 402.431 995.42 401.592C996.933 400.51 998.717 399.888 1000.8 399.698C1004.63 399.374 1007.99 397.047 1009.5 393.692C1011.01 390.337 1010.44 386.441 1008.04 383.6C1007.77 383.275 1007.53 382.951 1007.28 382.572C1005.77 380.137 1005.55 376.998 1006.66 372.994C1008.69 365.635 1015.71 363.524 1024.69 361.522C1027.47 360.9 1030.14 360.278 1032.39 359.52C1035.77 358.33 1038.28 355.597 1039.03 352.242C1039.76 348.968 1038.71 345.586 1036.22 343.205C1035.04 342.042 1033.79 340.852 1032.93 339.499C1030.55 335.738 1028.36 329.921 1031.44 323.752C1033.52 319.585 1037.55 316.149 1042.85 314.093C1046.57 312.632 1049.09 309.304 1049.33 305.489C1049.47 303.135 1049.79 300.755 1050.11 298.238C1050.74 293.368 1051.38 288.309 1050.6 283.926C1050.47 283.195 1050.25 282.492 1049.98 281.815C1049.98 281.815 1049.98 281.761 1049.95 281.734C1048.68 278.785 1046.01 276.594 1042.74 275.836C1042.44 275.755 1042.22 275.647 1042.03 275.43C1041.41 274.727 1041.6 273.184 1041.76 272.319C1041.93 271.453 1041.98 270.533 1041.9 269.667V265.555C1044.01 265.068 1045.9 264.012 1047.33 262.47C1047.84 262.47 1048.82 262.416 1050.06 262.389H1050.63C1053.06 262.308 1056.38 262.227 1058.9 262.227C1060.17 262.227 1062.06 262.227 1062.6 262.443C1064.09 263.85 1065.95 264.851 1068 265.23C1068.35 265.284 1069 265.419 1069.14 266.096C1069.3 266.907 1069.3 267.584 1069.14 268.071C1068.62 269.802 1068.6 271.615 1069.11 273.347C1069.19 273.617 1069.19 273.942 1069.11 274.294C1068.98 274.943 1068.65 275.295 1068 275.484C1063.73 276.756 1060.79 280.435 1060.65 284.683C1060.46 290.446 1061.36 298.834 1061.84 303.352L1061.98 304.651C1062.44 309.034 1065.9 312.605 1070.49 313.417C1076.95 314.553 1079.22 317.719 1080.43 320.316C1082.95 325.619 1081.46 329.948 1079.08 335.467C1077.46 339.282 1076.38 342.015 1076.49 345.208C1076.57 347.859 1077.76 350.375 1079.81 352.188C1081.24 353.46 1083.27 354.812 1085.41 356.192C1087.95 357.843 1090.35 359.412 1091.81 361.089C1096.27 366.176 1099.78 375.808 1097.97 383.14C1097.81 383.762 1097.59 384.358 1097.32 384.872C1095 389.39 1096.59 394.855 1101.05 397.588C1102.13 398.237 1103.21 399.32 1104.27 400.348C1106.51 402.539 1108.29 404.19 1110.89 405.191C1112.19 405.705 1113.56 405.948 1114.94 405.948C1116.16 405.948 1117.37 405.759 1118.54 405.353C1118.7 405.299 1118.83 405.245 1119 405.191C1119.05 405.191 1119.1 405.137 1119.18 405.11C1120.27 404.677 1121.27 404.244 1122.4 404.19C1122.51 404.19 1122.59 404.19 1122.7 404.19C1124.16 404.19 1125.51 404.731 1126.72 405.218L1126.94 405.299C1128.24 405.84 1129.64 406.111 1131.05 406.111C1131.94 406.111 1132.83 406.002 1133.7 405.786C1134.4 405.624 1135.02 405.461 1135.7 405.461C1137.1 405.461 1138.45 406.111 1140.34 407.707C1140.51 407.842 1140.67 408.005 1140.83 408.221C1142.18 409.871 1144.02 411.089 1146.13 411.684C1146.37 411.738 1146.53 411.819 1146.69 411.928L1147.21 412.279C1153.4 416.446 1153.75 418.475 1153.21 420.017C1152.8 421.154 1152.13 421.641 1150.94 421.641C1150.67 421.641 1150.37 421.641 1150.04 421.56C1149.45 421.451 1148.86 421.424 1148.26 421.424C1146.48 421.424 1144.69 421.857 1143.13 422.696C1142.02 423.291 1140.91 423.643 1139.72 423.778C1139.18 423.832 1138.61 423.859 1138.05 423.859C1136.15 423.859 1134.32 423.535 1132.56 423.21C1131.26 422.994 1130.21 422.804 1129.24 422.696C1128.91 422.669 1128.56 422.642 1128.24 422.642C1126.86 422.642 1125.51 422.885 1124.24 423.399L1123.78 423.589C1122.51 424.103 1121.05 424.671 1119.08 424.806C1118.62 424.833 1118.16 424.86 1117.7 424.86C1114.92 424.86 1112.29 424.265 1109.75 423.67C1109.05 423.508 1108.24 423.318 1107.51 423.183C1106.78 423.048 1106.05 422.966 1105.32 422.966C1103.59 422.966 1101.89 423.372 1100.35 424.157C1098.43 425.131 1096.03 426.376 1093.68 426.592C1093.32 426.619 1092.95 426.646 1092.59 426.646C1090.89 426.646 1089.43 426.267 1088.14 425.834C1087.03 425.483 1085.89 425.293 1084.76 425.293C1083.43 425.293 1082.11 425.537 1080.87 425.997C1080.27 426.213 1079.6 426.484 1079.06 426.7C1076.57 427.701 1074 428.702 1072.14 428.784C1071.95 428.784 1071.73 428.784 1071.54 428.784L1071.52 428.865Z" fill="#1F1F1F"/>
<path d="M130.014 428.865C129.879 428.865 129.771 428.865 129.717 428.784C129.798 428.324 129.852 427.837 129.825 427.377C129.825 426.808 129.744 426.186 129.609 425.456C129.23 423.102 127.555 421.127 125.204 420.261C123.475 418.8 118.935 409.52 114.125 399.725C111.963 395.288 109.504 390.283 108.207 387.956C106.964 385.764 104.559 384.412 101.964 384.412C101.802 384.412 101.613 384.412 101.451 384.412C98.6676 384.601 96.2625 386.36 95.3167 388.849C94.3439 391.473 92.3983 396.641 90.2365 402.052C88.2908 406.895 86.6694 410.764 85.3724 413.578C84.8859 414.633 84.4266 415.607 83.9672 416.473C82.9673 418.34 82.9673 420.531 83.9401 422.398C84.913 424.265 86.7235 425.618 88.8853 426.024C89.2636 426.105 89.3447 426.213 89.3988 426.267C89.669 426.592 89.5339 427.431 89.4528 427.864C87.9395 428.026 86.4533 428.107 84.994 428.107C78.2113 428.107 71.888 426.457 65.6187 423.075C65.0782 422.777 64.5107 422.561 63.9162 422.398C63.7 422.344 63.673 422.29 63.646 422.236C63.4568 421.993 63.5379 421.505 63.646 421.073C63.9432 420.531 64.6729 420.072 65.8889 419.503C68.7263 418.151 70.2666 415.147 69.618 412.171C69.564 411.901 69.537 411.63 69.564 411.332C69.8072 406.571 72.6176 399.752 75.6171 392.556C78.4005 385.792 81.0487 379.406 81.6972 374.536C81.6972 374.482 81.6972 374.455 81.6972 374.401C81.9134 372.318 81.2919 368.8 80.7785 367.069C80.4812 366.041 79.9137 365.067 79.1301 364.282C78.9409 364.093 78.6977 363.849 78.5086 363.66C77.7789 362.929 77.0223 362.199 76.4008 361.279C75.1037 359.358 72.8608 358.194 70.4557 358.194C70.2666 358.194 70.1045 358.194 69.9153 358.194C67.3211 358.384 65.0512 359.899 63.9973 362.145C63.3758 363.47 62.457 364.417 61.0788 365.094C60.2411 365.527 59.2683 365.743 58.2414 365.743C56.7822 365.743 55.5391 365.256 54.7825 364.444C54.1069 363.714 53.8637 362.74 54.0529 361.576C55.404 360.711 56.4309 359.439 56.9173 357.978C59.3764 356.896 60.9707 354.569 61.0248 351.999C61.0248 351.647 61.0518 351.322 61.1058 351.052C61.4301 348.779 60.5113 346.506 58.6738 345.018C54.4042 341.582 49.5401 337.713 42.7844 334.953C41.0549 334.25 38.9742 333.736 36.9745 333.276C34.8667 332.762 32.867 332.302 31.2727 331.598C28.2461 330.273 21.4634 325.511 15.14 320.316C7.78981 314.255 3.16891 309.277 2.76357 306.95C2.62845 306.193 3.277 305.138 3.92555 304.434C4.35791 303.947 4.8173 303.568 5.27669 303.325C7.38447 302.243 8.73561 300.213 8.92477 297.941C9.11393 295.668 8.06004 293.476 6.14142 292.124C1.46647 288.769 -0.37108 286.496 0.0612848 284.494C0.466627 282.546 1.30433 281.464 2.54738 281.247C6.24951 280.571 8.73561 277.243 8.19516 273.726C8.08706 272.941 8.19516 272.237 8.49241 271.615C9.08691 270.506 10.33 269.83 11.7892 269.83C12.0324 269.83 12.2756 269.83 12.5458 269.884C12.8971 269.938 13.2754 269.965 13.6267 269.965C16.4912 269.965 19.1394 268.287 20.1933 265.69V265.609C20.8959 264.04 23.0037 262.227 24.6791 262.227C25.1385 262.227 25.5438 262.362 25.8411 262.66L42.325 278.271C43.6761 279.543 45.4596 280.219 47.3242 280.219C47.8917 280.219 48.4592 280.165 48.9996 280.03C51.4047 279.461 53.3233 277.784 54.0529 275.538C54.6744 273.699 56.1877 271.723 58.6738 271.723C60.2141 271.723 61.5652 272.535 62.43 273.212C65.3214 275.484 68.2399 281.058 70.699 286.171C71.7799 288.444 74.1038 289.932 76.725 290.067C76.8602 290.067 76.9953 290.067 77.1304 290.067C79.6165 290.067 81.9134 288.85 83.1835 286.821C83.3997 286.469 83.6429 286.144 83.8861 285.847C85.7777 283.601 88.561 282.411 91.9659 282.411C93.1009 282.411 94.2899 282.546 95.5059 282.816C96.3166 282.979 96.9922 283.276 97.6137 283.682C98.8027 284.467 100.208 284.873 101.64 284.873C102.127 284.873 102.64 284.819 103.126 284.71C105.018 284.332 106.693 283.222 107.693 281.626C109.261 279.164 112.963 276.539 118.691 276.539C121.259 276.539 123.475 277.27 124.934 278.569C126.015 279.543 126.42 280.76 126.771 281.924C127.339 283.817 128.744 285.387 130.636 286.225C130.69 286.225 130.717 286.252 130.717 286.252C130.825 286.361 130.96 286.496 130.933 286.604C130.933 286.631 130.933 286.658 130.933 286.658C130.933 286.658 130.906 286.658 130.852 286.712C129.23 287.849 128.177 289.58 127.987 291.474L127.933 291.907C127.555 295.884 126.69 298.076 122.88 299.212C121.502 299.618 120.286 299.808 119.151 299.808C117.53 299.808 116.151 299.429 114.665 298.617C113.557 297.995 112.314 297.697 111.098 297.697C109.179 297.697 107.288 298.428 105.91 299.835C105.207 300.565 104.126 301.025 103.261 301.431C100.505 302.675 98.9108 305.462 99.2891 308.33C100.235 315.067 105.612 324.888 112.152 328.703C115.53 330.678 120.232 332.139 124.772 333.546C127.879 334.52 131.068 335.494 133.527 336.577C136.094 337.713 137.634 340.202 137.148 342.394C136.581 344.829 133.824 345.126 132.635 345.153C132.635 345.153 132.608 345.153 132.581 345.153C131.203 343.774 129.338 343.043 127.447 343.043C126.258 343.043 125.069 343.314 123.988 343.909C123.88 343.963 123.691 343.99 123.556 343.99C122.637 343.99 120.475 343.449 117.124 342.34C116.368 342.096 115.584 341.961 114.827 341.961C113.314 341.961 111.828 342.421 110.585 343.314C108.72 344.639 107.666 346.777 107.774 348.995C107.774 349.104 107.774 349.212 107.774 349.293C107.774 349.455 107.72 349.915 107.531 350.159C105.964 352.161 105.694 354.839 106.855 357.112C108.261 359.845 110.99 363.119 113.746 366.257C115.179 367.908 116.53 369.477 117.502 370.83C123.123 378.757 126.825 387.523 130.419 396.019C132.906 401.863 135.256 407.409 138.229 412.929C138.283 413.037 138.31 413.118 138.337 413.172C138.824 414.904 140.04 416.392 141.715 417.285C142.769 417.853 143.958 418.123 145.147 418.123C145.822 418.123 146.498 418.042 147.174 417.853C148.092 417.582 149.038 417.339 149.768 417.231C149.903 417.231 150.065 417.177 150.2 417.149H150.254C150.605 417.068 151.011 416.987 151.335 416.987C151.443 416.987 151.821 416.987 151.957 417.204C151.984 417.285 152.146 417.528 151.767 418.232C151.74 418.286 151.713 418.34 151.686 418.394C151.335 418.746 149.579 420.234 141.607 424.13C132.365 428.621 130.284 428.756 130.095 428.756H130.068L130.014 428.865Z" fill="#1F1F1F"/>
<path d="M824.014 428.865C823.636 428.865 821.285 428.621 811.368 423.805C802.666 419.557 800.721 417.907 800.342 417.528C800.315 417.474 800.261 417.393 800.234 417.339C799.829 416.581 799.964 416.284 800.018 416.202C800.153 415.986 800.558 415.986 800.694 415.986C801.072 415.986 801.558 416.094 801.937 416.175L802.153 416.23C802.153 416.23 802.369 416.257 802.477 416.284C803.207 416.392 804.261 416.689 805.206 416.96C805.936 417.177 806.693 417.258 807.422 417.258C808.719 417.258 810.016 416.933 811.178 416.338C813.016 415.391 814.34 413.767 814.908 411.846C814.908 411.765 814.962 411.711 815.016 411.63C818.285 405.542 820.853 399.482 823.582 393.097C824.987 389.769 826.473 386.306 828.014 382.951C829.095 380.597 828.797 377.918 827.257 375.808C825.798 373.833 823.42 372.669 820.907 372.669C820.745 372.669 820.609 372.669 820.447 372.669C816.745 372.886 812.908 372.967 809.017 372.967C799.775 372.967 790.965 372.372 784.183 371.317C774.617 369.829 771.509 367.772 770.59 366.338C770.59 362.659 770.212 358.898 769.834 354.921C768.861 345.153 767.942 335.954 773.157 330.516C773.995 329.65 774.914 328.947 775.968 328.325C778.075 327.107 779.454 324.97 779.643 322.643C779.832 320.289 778.832 318.016 776.941 316.474C774.13 314.174 772.698 312.416 772.59 311.063C772.536 310.468 772.725 309.954 773.211 309.521C773.617 309.142 774.13 308.952 774.752 308.952C777.778 308.952 782.859 313.092 788.722 318.07C790.965 319.991 792.749 321.479 793.965 322.345C794.884 322.995 795.965 323.454 797.1 323.644C799.829 324.131 805.477 324.483 811.178 324.483C814.8 324.483 818.015 324.347 819.988 324.104C821.285 323.942 822.528 323.482 823.582 322.724C824.906 321.804 826.771 320.235 829.068 318.287C835.094 313.2 840.336 308.98 843.498 308.98C843.876 308.98 844.254 309.061 844.579 309.196C845.633 309.656 846.741 309.899 847.875 309.899C848.794 309.899 849.713 309.737 850.605 309.439C852.55 308.736 854.145 307.329 854.983 305.516C856.334 302.621 857.225 299.726 857.604 297.156C858.036 293.991 856.28 290.933 853.253 289.553C852.307 289.12 851.145 288.606 850.389 287.822C848.875 286.28 846.795 285.468 844.714 285.468C843.363 285.468 842.039 285.793 840.796 286.469C839.174 287.362 837.661 287.768 835.904 287.768C834.634 287.768 833.31 287.551 831.824 287.118C827.662 285.874 826.717 283.466 826.311 279.164L826.257 278.65C826.041 276.566 824.906 274.645 823.123 273.401C823.069 273.374 823.042 273.347 823.042 273.32C823.042 273.32 823.042 273.32 823.042 273.266C823.014 273.13 823.15 272.968 823.285 272.887C823.285 272.887 823.312 272.887 823.366 272.833C825.447 271.94 826.987 270.208 827.608 268.125C827.987 266.853 828.446 265.528 829.608 264.472C831.202 263.038 833.634 262.254 836.418 262.254C842.66 262.254 846.713 265.122 848.443 267.8C849.551 269.532 851.361 270.749 853.442 271.182C853.983 271.291 854.523 271.345 855.064 271.345C856.631 271.345 858.144 270.912 859.468 270.046C860.144 269.613 860.873 269.315 861.738 269.126C863.062 268.828 864.386 268.693 865.629 268.693C869.359 268.693 872.412 269.992 874.466 272.454C876.871 275.322 877.601 279.57 876.493 284.115C876.303 284.846 875.952 285.549 875.331 286.307C873.088 289.12 873.25 293.016 875.736 295.641C876.844 296.804 878.222 298.265 878.844 299.185C889.842 315.257 896.165 328.893 899.354 343.422C899.435 343.828 899.489 344.288 899.489 344.829C899.543 347.643 901.273 350.186 903.975 351.376C904.515 353 905.623 354.407 907.109 355.354C907.326 356.625 907.055 357.68 906.326 358.492C905.515 359.412 904.11 359.926 902.543 359.926C901.435 359.926 900.354 359.683 899.435 359.223C897.949 358.465 896.949 357.437 896.273 356.003C895.111 353.541 892.625 351.89 889.788 351.674C889.599 351.674 889.41 351.674 889.193 351.674C886.572 351.674 884.113 352.946 882.681 355.056C882.005 356.057 881.141 356.896 880.384 357.626L880.303 357.707C880.114 357.897 879.897 358.113 879.735 358.276C878.871 359.141 878.249 360.197 877.925 361.333C877.384 363.227 876.682 367.069 876.925 369.342C876.925 369.396 876.925 369.45 876.925 369.477C877.628 374.834 880.519 381.814 883.573 389.201C886.842 397.101 889.923 404.541 890.193 409.763C890.193 410.061 890.193 410.358 890.112 410.656C889.41 413.903 891.085 417.204 894.193 418.692C895.49 419.314 896.327 419.801 896.625 420.396C896.733 420.883 896.814 421.397 896.625 421.668C896.571 421.722 896.544 421.776 896.327 421.83C895.679 421.992 895.03 422.236 894.436 422.561C887.572 426.267 880.654 428.08 873.223 428.08C871.629 428.08 869.98 427.999 868.332 427.837C868.251 427.35 868.089 426.457 868.386 426.078C868.44 425.997 868.521 425.889 868.953 425.807C871.304 425.347 873.304 423.886 874.358 421.83C875.412 419.774 875.385 417.366 874.304 415.337C873.817 414.39 873.331 413.335 872.791 412.198C871.385 409.141 869.575 404.893 867.467 399.59C865.116 393.719 862.981 388.064 861.927 385.223C860.9 382.464 858.252 380.57 855.172 380.353C854.982 380.353 854.793 380.353 854.604 380.353C851.74 380.353 849.091 381.841 847.74 384.276C846.335 386.82 843.66 392.258 841.309 397.047C836.066 407.788 831.094 417.907 829.176 419.53C826.608 420.477 824.771 422.669 824.366 425.239C824.23 426.024 824.176 426.7 824.149 427.295C824.149 427.81 824.149 428.351 824.257 428.838C824.203 428.892 824.095 428.919 823.933 428.919L824.014 428.865Z" fill="#1F1F1F"/>
<path d="M849.551 237.173C857.171 237.065 862.9 232.249 868.44 227.622C870.115 226.215 871.845 224.781 873.601 223.456C876.222 221.535 877.249 218.234 876.168 215.285C875.087 212.308 872.142 210.333 868.845 210.333H862.441C861.144 210.144 858.036 208.818 857.144 207.547C856.739 206.951 856.874 206.6 856.901 206.437C857.36 205.057 857.36 203.596 856.955 202.244L857.415 200.647C863.522 178.948 869.305 158.44 863.333 135.605C866.764 137.147 872.763 138.067 879.357 138.067C885.924 138.067 891.869 137.147 895.301 135.605C890.545 151.324 891.058 160.415 894.112 176.108C894.301 177.054 894.706 178.759 896.3 183.359C897.003 185.415 898.651 187.092 900.786 187.904C901.705 188.256 902.705 188.418 903.678 188.418C904.948 188.418 906.218 188.12 907.353 187.552C907.515 187.471 907.731 187.417 907.974 187.417C909.001 187.417 910.46 188.283 911.595 189.013C912.919 189.852 914.433 190.285 915.946 190.285C917.811 190.285 919.648 189.663 921.107 188.418C927.701 182.844 939.51 165.772 942.239 158.819C944.32 153.516 945.239 148.267 946.13 143.18C946.617 140.421 947.103 137.58 947.779 134.766C948.049 133.63 948.022 132.764 947.995 132.114C947.995 131.438 947.995 131.059 948.211 130.87C948.509 130.599 949.076 130.572 949.616 130.572C950.4 130.572 951.562 130.653 953.265 130.816L992.583 181.302C992.285 181.113 991.988 180.951 991.664 180.815C989.367 179.733 985.692 179.192 980.747 179.192C973.18 179.192 963.236 180.518 954.183 182.763C948.806 184.089 944.266 185.577 940.726 187.2C938.618 188.147 937.105 189.96 936.564 192.098C936.024 194.235 936.537 196.508 937.943 198.266C939.186 199.809 940.131 201.351 940.78 202.947C942.428 206.924 942.455 211.172 940.861 215.988C940.726 216.367 939.186 220.128 925.188 231.708C911.244 243.233 906.866 244.451 906.407 244.559C903.326 245.236 900.651 245.56 898.246 245.56C892.679 245.56 888.545 243.91 884.005 239.824C882.519 238.472 880.6 237.822 878.681 237.822C876.763 237.822 874.709 238.553 873.196 239.96L859.333 253.082L849.47 237.173H849.551ZM877.709 149.295C876.655 149.295 875.763 149.322 874.952 149.403C871.304 149.755 868.44 152.488 868.062 155.951C867.953 156.844 867.926 157.872 867.98 159.008C868.143 162.85 871.385 165.907 875.439 166.07C875.898 166.07 876.412 166.097 877.006 166.097C878.519 166.097 880.087 166.043 881.6 165.962C885.734 165.772 888.977 162.552 888.977 158.629V156.762C888.977 152.839 885.734 149.62 881.6 149.43C880.33 149.376 879.006 149.322 877.736 149.322L877.709 149.295Z" fill="#1F1F1F"/>
<path d="M895.328 135.551C894.679 132.006 891.436 129.463 887.707 129.463C887.518 129.463 887.329 129.463 887.14 129.463C885.329 129.598 883.438 129.652 881.141 129.652C878.654 129.652 876.141 129.571 873.709 129.517L871.223 129.436C871.223 129.436 871.088 129.436 871.007 129.436C867.251 129.436 864.008 132.006 863.36 135.524C855.199 131.871 844.741 117.558 841.39 105.464C839.769 99.5932 840.012 95.183 842.147 92.3421C842.606 91.7199 847.659 86.3628 883.897 86.3628C909.433 86.3628 913.622 89.2036 914.027 89.5283C917.162 92.0986 918.324 96.3735 917.486 102.218C915.487 116.07 903.759 131.763 895.382 135.496L895.328 135.551Z" fill="#1F1F1F"/>
<path d="M278.126 253.082C274.181 253.082 271.316 252.784 269.074 252.162C266.614 251.458 264.75 247.941 264.561 245.1C264.182 239.337 265.885 230.409 267.695 220.939C269.074 213.661 270.506 206.167 270.776 200.756C271.992 174.051 270.533 147.022 269.128 120.886C268.533 109.82 267.912 98.4297 267.506 87.2015C270.911 86.6874 273.613 86.4439 275.802 86.4439C277.991 86.4439 279.91 86.7957 281.018 87.4179C281.477 87.6885 282.369 88.1755 282.612 90.5023C282.963 93.6679 285.449 96.2653 288.746 96.9146C290.692 97.2934 292.718 97.7533 293.989 98.8356C300.744 104.517 306.392 116.476 311.148 127.217C311.58 128.218 312.067 129.328 312.526 130.275C313.769 133.034 316.607 134.712 319.66 134.712C320.336 134.712 321.038 134.631 321.714 134.441C325.254 133.521 329.415 131.222 334.117 128.516C337.279 126.703 340.279 124.972 342.9 123.998C343.765 123.673 344.575 123.186 345.251 122.591C346.224 121.752 347.17 121.157 347.926 120.886C349.575 120.291 351.25 119.993 352.898 119.993C355.871 119.993 358.465 120.94 360.951 121.86C363.356 122.726 365.599 123.565 368.112 123.565C368.355 123.565 368.626 123.565 368.869 123.565C369.22 123.565 369.598 123.484 369.95 123.429C371.841 123.024 373.895 122.077 378.057 119.885C381.299 118.181 384.974 116.26 388.055 115.637C390.244 115.177 392.46 114.961 394.676 114.961C407.16 114.961 419.429 122.347 425.238 133.359C429.994 142.396 429.265 152.298 423.266 159.82C422.293 161.064 419.32 163.202 417.888 164.23C415.321 166.07 414.24 169.235 415.159 172.157C415.267 172.509 415.348 172.834 415.375 173.104C416.537 182.953 412.511 188.283 407.836 194.451C406.89 195.696 405.917 196.968 404.944 198.348C403.053 200.999 403.215 204.516 405.323 207.033C407.728 209.9 410.241 212.498 412.916 215.258C419.239 221.778 425.184 227.92 428.535 236.415C431.508 243.937 430.535 246.128 430.4 246.372C430.211 246.724 429.994 246.805 429.805 246.859C429.13 247.048 427.833 247.13 425.968 247.13C424.104 247.13 421.969 247.048 420.05 246.967C418.456 246.913 417.105 246.859 416.186 246.859C415.537 246.697 414.862 246.615 414.186 246.615C413.132 246.615 412.078 246.832 411.106 247.211C410.052 247.644 409.538 247.698 409.538 247.698H393.892C392.919 247.698 391.946 247.86 391.055 248.212C390.838 248.293 390.676 248.32 390.568 248.32C389.974 248.32 389.866 247.833 389.839 247.319C389.73 245.371 390.946 243.883 393.568 242.746C394.243 242.449 395.027 242.178 395.892 241.935C398.459 241.231 400.486 239.337 401.215 236.902C401.945 234.467 401.323 231.843 399.513 229.949C396.81 227.108 393.216 223.239 388.514 218.071L387.785 217.26C386.299 215.636 384.164 214.716 381.921 214.716C381.84 214.716 381.759 214.716 381.678 214.716C379.354 214.798 377.165 215.853 375.733 217.611C373.733 220.101 371.571 222.86 369.842 225.079C367.166 228.515 364.626 231.735 362.573 234.224C361.248 235.82 359.411 238.039 358.681 238.309C356.303 238.472 354.114 239.689 352.79 241.556C352.358 242.178 351.926 242.801 351.601 243.288C350.628 244.694 349.439 246.426 348.872 246.94C348.872 246.94 348.872 246.94 348.845 246.94C348.845 246.94 348.791 246.94 348.737 246.94C348.332 246.94 346.899 246.615 342.576 243.666C339.414 241.502 337.279 239.662 336.577 238.823C336.468 238.688 336.333 238.553 336.198 238.417C335.279 237.443 334.09 236.74 332.766 236.361C332.01 236.145 331.253 235.766 330.442 235.225C330.145 235.008 329.605 234.603 328.875 234.089L326.281 232.222C324.903 231.221 323.227 230.707 321.579 230.707C320.039 230.707 318.471 231.139 317.147 232.032C314.391 233.872 313.175 237.173 314.175 240.23C314.769 242.016 314.58 244.559 314.364 247.238C314.256 248.726 314.121 250.376 314.094 252.189C312.04 251.837 309.554 251.648 306.5 251.648C302.068 251.648 297.015 252.027 292.124 252.378C287.314 252.73 282.342 253.109 278.045 253.109L278.126 253.082ZM354.168 138.96C353.79 138.96 353.412 138.96 353.033 139.041C350.223 139.447 347.872 141.259 346.899 143.776C342.332 155.572 334.117 173.7 318.552 206.329L315.445 212.877C314.472 214.933 314.526 217.314 315.661 219.316C316.796 221.318 318.796 222.725 321.147 223.131C323.281 223.51 326.065 224.808 329.28 226.323C330.469 226.892 332.064 227.649 333.685 228.326C334.685 228.759 335.793 228.975 336.874 228.975C337.793 228.975 338.738 228.813 339.63 228.488C341.549 227.784 343.116 226.405 343.954 224.619L375.192 180.031C376.922 177.541 376.922 174.322 375.138 171.833C374.733 171.265 374.192 170.372 373.598 168.532C371.922 163.283 371.301 157.493 370.706 151.892C370.625 151.027 370.517 150.188 370.436 149.349C370.031 145.588 366.68 142.775 362.735 142.775C362.654 142.775 362.41 142.775 362.41 142.775C361.654 142.775 361.032 142.531 360.573 142.071C360.492 141.99 360.438 141.936 360.384 141.855C358.897 139.988 356.6 138.933 354.195 138.933L354.168 138.96ZM287.692 123.024C286.719 123.024 285.72 123.186 284.774 123.565C281.855 124.701 279.937 127.38 279.937 130.383V214.716C279.937 218.017 282.288 220.939 285.639 221.805C286.314 221.994 287.017 222.076 287.692 222.076C290.395 222.076 292.935 220.75 294.367 218.477C297.042 214.202 300.015 209.576 302.825 205.193C304.69 202.298 304.23 198.591 301.717 196.183V137.58C301.717 136.146 301.285 134.766 300.447 133.575C298.799 131.195 295.988 127.948 293.259 125.269C291.773 123.808 289.746 123.051 287.692 123.051V123.024ZM312.58 153.38C311.418 153.38 310.256 153.624 309.148 154.138C306.5 155.383 304.825 157.926 304.825 160.74V175.566C304.825 178.894 307.176 181.789 310.554 182.655C311.229 182.817 311.905 182.899 312.58 182.899C315.283 182.899 317.877 181.546 319.282 179.246C322.66 173.754 325.443 169.019 327.767 164.825C329.334 161.984 328.794 158.494 326.389 156.221C324.903 154.814 322.903 154.057 320.903 154.057C319.687 154.057 318.444 154.327 317.309 154.896C315.931 153.895 314.256 153.38 312.58 153.38Z" fill="#1F1F1F"/>
<path d="M348.331 428.865C348.331 428.865 348.169 428.865 348.142 428.865C347.359 428.621 346.548 428.513 345.737 428.513C344.927 428.513 344.089 428.648 343.278 428.892H327.065C326.74 428.892 326.308 428.702 325.93 427.81C325.578 426.89 324.93 422.642 325.632 418.61C326.065 416.121 325.119 413.578 323.119 411.901L323.173 332.41C323.173 331.409 322.957 330.435 322.552 329.515C317.904 319.234 319.39 314.553 323.173 304.921C323.66 303.704 323.795 302.378 323.552 301.079C323.416 300.295 323.552 299.889 323.66 299.645C324.146 298.671 325.848 297.805 327.659 296.858C328.929 296.209 329.821 295.722 330.55 295.235C330.713 295.1 330.902 294.992 331.064 294.856C334.063 292.34 336.739 289.58 339.576 286.658C347.548 278.433 355.087 270.641 368.409 269.938C368.68 269.938 368.977 269.938 369.274 269.938C371.301 269.938 373.463 270.262 375.543 270.587C376.76 270.776 378.003 270.966 379.083 271.074C379.327 271.074 379.597 271.101 379.84 271.101C381.597 271.101 383.299 270.533 384.677 269.505C385.245 269.072 385.974 268.504 386.542 268.017C389.001 266.015 391.811 263.769 394.703 263.066C397.027 262.497 399.242 262.227 401.323 262.227C410.295 262.227 416.699 267.638 417.294 275.674C417.672 280.706 415.321 285.711 411.187 288.742C409.511 289.959 408.43 291.799 408.214 293.774C407.998 295.776 408.646 297.751 409.998 299.293C414.646 304.515 414.754 306.761 414.754 306.869C414.754 308.411 414.402 309.385 414.024 310.143C413.132 311.956 413.051 314.012 413.781 315.879C413.916 316.231 413.781 316.718 413.7 317.096C413.538 317.448 412.916 318.639 410.403 322.67C409.457 324.185 407.538 327.269 406.863 328C406.863 328 406.809 328 406.809 328.027C406.052 328.433 404.701 328.433 404.269 328.433C403.836 328.433 403.431 328.433 402.999 328.406C402.864 328.406 402.728 328.406 402.593 328.406C400.35 328.406 398.216 329.326 396.729 330.949C396.081 331.652 395.459 332.356 394.892 333.005C394.054 333.979 393.487 335.143 393.243 336.387C393.108 337.037 392.946 337.632 392.73 338.065C391.244 341.203 392.244 344.883 395.135 346.939C396.432 348.4 398.459 352.377 399.864 356.246C402.296 362.902 401.404 364.769 400.918 365.256C400.81 365.364 400.567 365.608 399.756 365.608C399.107 365.608 398.297 365.472 397.378 365.31C396.81 365.202 396.216 365.121 395.648 365.04C395.27 364.985 394.892 364.958 394.514 364.958C390.757 364.958 387.461 367.556 386.866 371.181C386.677 372.372 386.272 372.886 385.974 373.183C385.677 373.481 385.299 373.698 384.839 373.833C382.326 374.482 380.327 376.295 379.516 378.649C379.462 378.838 379.354 379.028 379.246 379.19C378.732 379.893 377.976 380.137 375.814 380.218H375.3C373.328 380.353 371.49 381.138 370.112 382.491C369.869 382.734 369.598 383.005 369.355 383.248C368.247 384.385 367.085 385.575 365.464 386.333C364.815 386.63 362.627 386.82 359.654 386.82C359.06 386.82 358.492 386.82 357.952 386.82C357.898 386.82 357.844 386.82 357.789 386.82C355.763 386.82 353.817 387.577 352.358 388.93C350.872 390.31 350.034 392.204 350.034 394.179V411.468C350.034 411.468 350.034 411.549 350.034 411.657C349.439 413.767 349.872 416.04 351.223 417.826C352.574 419.612 354.682 420.721 357.006 420.883C362.978 421.262 364.302 424.022 364.599 428.973H348.386L348.331 428.865ZM357.762 336.306C356.006 336.306 354.304 336.874 352.925 337.929C351.088 339.336 350.007 341.447 350.007 343.665V354.515C350.007 357.545 351.98 360.278 354.979 361.36C355.898 361.685 356.844 361.847 357.762 361.847C359.924 361.847 362.005 361.008 363.518 359.439C366.329 356.517 369.355 353.46 372.274 350.538L372.706 350.105C374.733 348.075 375.381 345.126 374.354 342.502C373.328 339.877 370.814 338.038 367.869 337.74C364.788 337.442 362.032 337.037 359.465 336.495C358.897 336.387 358.33 336.306 357.762 336.306ZM395.567 295.993C393.514 295.993 391.514 296.75 390.001 298.211C389.974 298.238 389.92 298.292 389.866 298.319C389.595 298.536 389.325 298.806 389.082 299.05L381.921 306.95C380.029 309.007 379.516 311.902 380.57 314.445C381.624 316.988 384.083 318.747 386.92 319.071C388.325 319.207 389.595 319.423 390.784 319.667C390.865 319.667 390.919 319.694 391.001 319.721C391.676 319.91 392.379 319.991 393.081 319.991C395.405 319.991 397.675 318.99 399.161 317.205C399.621 316.663 399.891 316.636 400.08 316.582C402.08 316.312 403.917 315.311 405.161 313.796C406.187 312.551 406.971 311.55 407.566 310.792C408.809 309.196 409.295 307.194 408.971 305.246C408.619 303.298 407.457 301.539 405.755 300.43C404.026 299.294 401.891 298.211 399.648 297.129L399.134 296.886C397.999 296.344 396.783 296.074 395.567 296.074V295.993Z" fill="#1F1F1F"/>
<path d="M590.942 253.082C578.188 253.082 566 252.27 556.65 250.809C543.436 248.726 539.167 245.912 537.897 243.937C537.897 238.85 537.356 233.412 536.843 228.163C535.492 214.716 534.249 202 541.437 194.506C543.247 192.639 545.409 191.205 548.084 190.15C550.624 189.149 552.408 186.93 552.786 184.36C553.164 181.762 552.057 179.192 549.868 177.596C543.598 172.942 540.815 169.993 540.626 167.666C540.572 166.854 540.842 166.151 541.464 165.529C542.139 164.879 543.004 164.744 543.598 164.744C548.111 164.744 556.299 171.724 562.893 177.325C567.297 181.086 569.513 182.899 571.135 183.873C571.81 184.278 572.54 184.576 573.324 184.765C576.593 185.577 585.078 186.145 593.942 186.145C599.698 186.145 604.805 185.875 607.264 185.469C608.237 185.307 609.183 184.955 610.021 184.441C611.885 183.304 614.777 180.896 618.668 177.623C625.451 171.887 633.855 164.771 638.584 164.771C639.502 164.771 640.178 165.015 640.772 165.502C641.178 165.853 641.34 166.232 641.313 166.746C641.232 169.533 634.692 174.755 631.152 177.541C628.964 179.3 627.964 182.033 628.558 184.711C629.153 187.363 631.26 189.5 634.017 190.258C641.529 192.287 646.42 195.263 647.42 198.429C648.582 202.108 649.069 212.714 648.528 222.59C647.852 234.657 645.961 242.909 643.313 245.209C637.773 250.025 617.209 253.136 590.915 253.136L590.942 253.082ZM614.236 211.037C614.047 211.037 613.831 211.037 613.642 211.037L606.21 211.578C603.508 211.767 601.13 213.282 599.887 215.582C598.671 217.855 598.779 220.588 600.211 222.779L605.994 231.626C607.426 233.818 609.939 235.117 612.588 235.117C613.074 235.117 613.56 235.063 614.047 234.981C617.209 234.413 619.668 232.032 620.235 229.029C620.505 227.514 620.776 226.026 621.019 224.673C621.316 222.941 621.613 221.264 621.911 219.641C622.316 217.395 621.64 215.095 620.019 213.418C618.533 211.876 616.452 211.01 614.263 211.01L614.236 211.037ZM570.054 211.01C567.838 211.01 565.73 211.903 564.244 213.499C562.622 215.23 561.974 217.557 562.433 219.83L564.001 227.27C564.595 230.138 566.946 232.411 569.973 233.006C570.513 233.115 571.054 233.169 571.594 233.169C574.053 233.169 576.431 232.059 577.917 230.084L583.16 223.131C584.781 220.966 585.051 218.153 583.862 215.745C582.673 213.337 580.214 211.74 577.431 211.524L570.621 211.037C570.432 211.037 570.216 211.037 570.027 211.037L570.054 211.01ZM636.314 205.977C635.692 205.977 635.044 206.059 634.422 206.194L633.936 206.302C631.828 206.816 630.017 208.142 628.991 209.955C627.964 211.767 627.775 213.932 628.504 215.88C628.612 216.205 628.747 216.529 628.882 216.854C630.017 219.776 632.936 221.697 636.179 221.697C636.449 221.697 636.746 221.697 637.016 221.643C640.556 221.291 643.394 218.667 643.88 215.312L644.015 214.284C644.367 211.876 643.421 209.441 641.502 207.817C640.07 206.6 638.232 205.95 636.341 205.95L636.314 205.977ZM615.587 190.177C615.02 190.177 614.56 190.177 614.155 190.231C611.426 190.393 608.994 191.908 607.751 194.235L607.588 194.533C606.345 196.887 606.508 199.727 608.021 201.919C609.453 203.975 611.885 205.247 614.479 205.247C614.641 205.247 614.804 205.247 614.966 205.247C616.263 205.166 617.506 205.084 618.695 205.003C622.694 204.706 625.802 201.567 625.856 197.752C625.91 193.937 622.856 190.745 618.857 190.366C617.722 190.258 616.614 190.204 615.587 190.204V190.177Z" fill="#1F1F1F"/>
<path d="M509.144 200.16C508.55 200.16 507.901 200.16 507.253 200.106C497.038 199.511 485.553 190.42 481.122 179.462C477.933 171.562 479.095 164.419 484.391 159.306C487.499 156.303 491.958 155.274 496.66 154.192C501.064 153.191 505.631 152.136 509.387 149.349C509.523 149.241 509.658 149.133 509.793 149.024C511.441 147.618 513.009 145.264 516.089 140.177C519.467 134.577 523.331 128.218 527.033 128.218C527.871 128.218 528.655 128.543 529.438 129.138C529.492 132.087 531.384 134.739 534.276 135.848C535.221 136.227 536.221 136.389 537.194 136.389C539.194 136.389 541.193 135.659 542.68 134.252C543.788 133.197 544.923 132.142 545.976 131.113C557.731 119.966 565.541 112.905 570.567 109.793C572.297 108.738 573.486 107.088 573.945 105.194C574.81 101.46 577.593 96.7793 581.241 92.9374C585.187 88.7978 589.51 86.3357 592.834 86.3357C594.888 86.3357 596.563 87.2015 597.86 88.906C598.374 89.5824 599.941 91.6657 598.158 95.3183C595.563 100.73 586.781 106.682 580.214 108.873C578.485 109.442 577.053 110.578 576.107 112.039C572.378 117.991 564.136 124.755 556.164 131.303C553.381 133.575 550.003 136.362 547.111 138.933C544.814 140.989 544.058 144.154 545.22 146.968C546.382 149.755 549.192 151.622 552.354 151.649C553.002 151.649 553.246 151.919 553.408 152.109C554.191 153.164 553.219 155.816 552.84 156.817C551.462 160.523 546.598 162.607 541.896 164.609C537.788 166.367 534.978 167.639 533.141 169.533C529.493 173.267 527.979 178.461 526.52 183.494C523.601 193.532 520.818 200.133 509.198 200.133L509.144 200.16ZM520.926 154.49C518.981 154.49 517.062 155.166 515.576 156.519C515.414 156.681 515.224 156.817 515.035 156.952C513.846 157.872 511.549 158.711 509.144 159.603L508.604 159.793C505.712 160.875 503.794 163.472 503.686 166.421C503.605 169.371 505.361 172.076 508.171 173.294C509.171 173.727 509.982 174.241 510.631 174.863C511.144 175.323 511.576 175.837 511.955 176.378C513.414 178.434 515.819 179.625 518.386 179.625C518.629 179.625 518.845 179.625 519.089 179.598C521.899 179.354 524.358 177.677 525.493 175.242C526.844 172.347 528.222 170.074 529.844 168.153C531.276 166.449 531.816 164.23 531.357 162.093C530.898 159.955 529.465 158.142 527.439 157.114C526.763 156.762 526.196 156.438 525.736 156.059C524.304 154.977 522.602 154.463 520.899 154.463L520.926 154.49Z" fill="#1F1F1F"/>
<path d="M263.264 428.865C262.642 428.865 261.939 428.784 261.183 428.594C260.75 422.371 261.237 414.065 261.75 405.272C262.345 394.964 263.047 383.275 261.994 375.375C261.723 373.373 260.588 371.56 258.859 370.37C257.535 369.45 255.913 368.963 254.292 368.963C253.806 368.963 253.346 369.017 252.86 369.098C252.049 369.233 251.238 369.423 250.59 369.558C249.725 369.747 249.212 369.856 248.942 369.856C248.887 369.856 248.779 369.856 248.752 369.801C248.077 368.773 247.347 367.339 247.725 366.338C247.807 366.122 247.915 365.932 248.05 365.77C250.374 363.281 250.644 359.628 248.698 356.842L248.644 356.76C247.942 355.732 248.158 354.136 248.455 353C249.077 350.673 248.455 348.211 246.807 346.398C246.158 345.695 245.753 344.639 245.591 343.341H254.481C256.751 343.314 258.886 342.367 260.345 340.743C261.804 339.12 262.453 336.955 262.129 334.845C261.048 328.216 261.021 321.101 260.994 314.201C260.913 296.669 260.832 280.084 245.645 268.287C249.023 264.527 256.454 262.2 265.02 262.2C270.641 262.2 277.856 263.39 281.342 266.772C282.315 267.719 282.774 268.612 282.72 269.532C282.639 271.209 280.882 272.697 278.234 274.754C275.37 276.999 273.1 278.92 271.938 281.491C270.506 284.629 268.695 292.746 267.885 297.129C267.479 299.375 268.155 301.647 269.776 303.325C271.262 304.867 273.343 305.733 275.532 305.733C275.721 305.733 275.91 305.733 276.099 305.733C276.451 305.733 276.802 305.706 277.153 305.706C279.856 305.706 283.693 306.355 285.693 311.875C287.044 315.608 287.233 320.614 287.476 325.917C287.53 327.08 287.584 328.243 287.638 329.407C287.773 331.842 289.179 334.06 291.367 335.332C292.583 336.036 293.989 336.387 295.367 336.387C296.475 336.387 297.583 336.171 298.636 335.711C300.15 335.846 301.825 335.9 303.771 335.9C305.852 335.9 308.013 335.819 310.094 335.765C312.202 335.684 314.364 335.63 316.499 335.63C319.606 335.63 324.768 335.63 329.47 337.442C334.685 339.445 337.874 343.097 339.468 348.914C342.251 359.033 341.684 385.954 340.981 395.505C340.765 398.4 340.225 399.617 340.035 399.942C339.873 400.05 339.711 400.131 339.576 400.158C336.117 401.186 333.847 404.352 334.144 407.788C334.199 408.383 334.253 409.06 334.307 409.682C334.955 416.527 335.847 425.916 332.361 427.999C331.875 428.297 331.388 428.432 330.956 428.432C329.28 428.432 328.254 426.511 328.01 424.725C327.443 420.559 327.659 415.878 328.01 411.414C328.254 408.194 326.254 405.218 323.092 404.054C322.119 403.703 320.957 402.269 320.741 399.942C320.282 395.18 320.903 390.337 321.579 385.196C322.417 378.784 323.281 372.155 321.849 365.608L321.66 364.769C321.498 364.066 321.309 363.065 321.038 362.199C320.174 359.141 317.309 356.95 313.958 356.76C312.58 356.679 309.851 356.598 306.635 356.598H306.608C304.554 356.598 302.582 357.383 301.123 358.763C299.663 360.142 298.853 362.036 298.853 364.011C298.853 366.906 298.366 368.016 297.583 368.8C296.853 369.531 295.691 370.018 294.124 370.207C289.908 370.721 286.909 374.374 287.422 378.378C289.016 390.716 287.773 400.294 284.044 404.65C282.234 406.76 279.937 407.788 276.964 407.788C276.586 407.788 276.208 407.788 275.829 407.734C275.613 407.734 275.37 407.707 275.154 407.707C273.073 407.707 271.073 408.492 269.587 409.926C267.966 411.495 267.182 413.686 267.425 415.878C267.966 420.396 268.371 425.402 266.29 427.62C265.371 428.621 264.101 428.811 263.183 428.811L263.264 428.865Z" fill="#1F1F1F"/>
<path d="M230.323 364.417C228.539 364.417 226.702 363.876 225.026 362.821C221.54 360.657 219.595 358.357 219.243 356.03C218.784 352.973 220.946 350.321 223.594 347.399C224.053 346.912 224.594 346.29 225.026 345.776C225.567 345.126 225.999 344.369 226.269 343.584C239.97 345.045 240.591 352.459 240.483 354.704C240.186 359.953 235.538 364.417 230.377 364.417H230.323Z" fill="#1F1F1F"/>
<path d="M174.44 428.865C174.44 428.865 174.169 428.865 173.953 428.756C173.034 428.405 172.062 428.242 171.089 428.242H155.091C155.091 428.242 154.605 428.188 153.578 427.755C152.578 427.35 151.524 427.133 150.443 427.133C149.741 427.133 149.038 427.214 148.363 427.404C147.417 427.404 145.985 427.458 144.471 427.512C142.526 427.593 140.31 427.674 138.418 427.674C136.527 427.674 135.175 427.593 134.5 427.404C134.311 427.35 134.095 427.241 133.905 426.89C133.77 426.646 132.797 424.4 135.824 416.771C139.256 408.14 145.309 401.863 151.713 395.261C154.47 392.42 157.064 389.742 159.523 386.793C161.631 384.303 161.793 380.786 159.901 378.135C158.874 376.701 157.821 375.294 156.902 374.076C152.146 367.799 148.038 362.361 149.227 352.323C149.254 352.026 149.335 351.674 149.47 351.295C150.416 348.373 149.335 345.18 146.768 343.314C145.174 342.177 142.228 340.04 141.229 338.768C135.121 331.111 134.365 321.019 139.229 311.82C145.12 300.619 157.631 293.098 170.332 293.098C171.791 293.098 173.278 293.206 174.737 293.395C175.088 293.449 175.466 293.476 175.818 293.476C178.817 293.476 181.601 291.826 182.871 289.147C184.303 286.171 183.465 282.681 180.871 280.544C180.249 280.03 179.331 279.353 178.628 278.785C176.25 276.972 173.305 274.727 171.44 272.4C169.278 269.694 168.954 267.476 170.413 265.446C171.872 264.148 177.709 262.173 180.168 262.173C181.682 262.173 182.276 262.633 182.6 262.984C184.87 265.473 185.438 268.991 185.951 272.4C186.357 274.916 186.735 277.297 187.708 279.38C188.762 281.626 193.491 289.797 197.247 296.101C198.652 298.482 201.273 299.862 204.03 299.862C204.894 299.862 205.786 299.726 206.651 299.429C208.38 298.834 210.488 298.238 212.866 298.238C214.541 298.238 216.244 298.536 217.946 299.131C220.351 299.97 224.567 304.164 224.513 306.788C224.513 307.356 224.324 308.141 223.027 308.547C222.459 308.709 222 308.79 221.594 308.79C221.486 308.79 221.162 308.79 220.892 308.655C219.973 308.303 219 308.141 218.027 308.141C215.785 308.141 213.623 309.061 212.109 310.738C209.948 313.146 209.677 316.582 211.38 319.288C213.163 322.102 214.623 324.32 215.703 325.835C216.892 327.513 218.757 328.676 220.865 329.001C221.54 329.109 222.297 329.217 222.973 329.326H223.189C227.188 329.948 232.16 330.706 235.187 331.869C246.428 336.198 256.238 347.453 257.967 358.059C259.156 365.283 256.67 371.587 250.752 376.268C244.699 381.057 238.295 383.573 232.214 383.573C229.053 383.573 225.999 382.897 223.108 381.571C222.027 381.084 220.892 380.84 219.73 380.84C217.541 380.84 215.379 381.706 213.893 383.357C211.596 385.846 211.353 389.498 213.271 392.258L222 404.731C222.81 406.544 224.378 407.977 226.296 408.681C227.215 409.006 228.161 409.195 229.134 409.195C230.215 409.195 231.296 408.979 232.295 408.546C233.998 407.815 235.754 407.003 236.916 406.435C240.727 404.623 244.023 403.08 246.212 403.08C247.563 403.08 248.293 403.649 248.59 404.866C248.59 404.947 248.617 405.028 248.617 405.055C247.888 406.598 242.672 410.358 237.619 414.011L237.295 414.254C236.538 414.796 235.944 415.229 235.619 415.472C234.782 416.013 233.998 416.392 233.214 416.635C231.728 417.068 230.431 417.907 229.458 419.07C227.161 421.533 219.703 427.079 216.946 427.404H216.865C216.271 426.863 215.082 425.131 214.082 423.697C213.731 423.183 213.271 422.534 212.812 421.857C211.488 419.963 209.299 418.773 206.921 418.61C206.137 418.34 204.192 415.986 202.895 414.444C200.814 411.928 198.22 408.627 195.49 405.137C193.68 402.837 191.437 399.969 189.383 397.399C187.978 395.64 185.789 394.585 183.438 394.504C183.357 394.504 183.276 394.504 183.195 394.504C180.952 394.504 178.79 395.423 177.331 397.047L176.439 398.021C171.602 403.324 167.9 407.328 165.117 410.223C163.306 412.117 162.658 414.769 163.414 417.204C164.171 419.666 166.198 421.56 168.792 422.236C175.358 423.941 175.196 426.808 175.142 427.755C175.115 428.297 175.007 428.784 174.386 428.784L174.44 428.865ZM218.649 343.882C216.784 343.882 214.974 344.504 213.569 345.667C211.839 347.101 210.839 349.185 210.893 351.376C211.083 359.71 213.379 367.123 217.379 372.264C218.622 373.86 220 375.213 221.513 376.295C222.892 377.296 224.54 377.81 226.242 377.81C226.918 377.81 227.593 377.729 228.269 377.567C230.593 376.971 232.512 375.375 233.43 373.265C233.944 372.074 234.755 370.938 235.754 369.964C237.646 368.124 240.132 367.015 242.402 367.015C242.618 367.015 242.834 367.015 243.051 367.042C243.456 367.069 243.861 367.177 244.321 367.339C245.212 367.664 246.131 367.799 247.05 367.799C248.779 367.799 250.482 367.258 251.86 366.23C253.995 364.634 255.103 362.09 254.751 359.547C254.076 354.596 251.13 350.078 248.779 347.156C245.915 343.584 242.294 340.364 238.322 337.848C237.024 337.037 235.511 336.604 233.998 336.604C232.836 336.604 231.674 336.847 230.62 337.334C228.134 338.471 226.486 340.77 226.269 343.368C226.269 343.449 226.269 343.53 226.242 343.611C225.702 343.557 225.161 343.53 224.675 343.53C223.432 343.53 222.54 343.692 221.811 343.855C221.297 343.963 220.838 344.044 220.405 344.044C220.243 344.044 220.081 344.044 219.919 344.017C219.514 343.963 219.081 343.909 218.676 343.909L218.649 343.882ZM198.22 345.126C195.166 345.126 192.356 346.831 191.113 349.564C190.842 350.159 190.572 350.646 190.221 351.106C188.437 353.568 188.41 356.842 190.14 359.331L192.329 362.442C193.788 364.553 196.247 365.716 198.787 365.716C199.733 365.716 200.679 365.554 201.571 365.229C204.975 363.984 207.002 360.684 206.435 357.275C206.218 355.895 206.056 354.461 205.975 353.054C205.975 352.81 205.975 352.567 205.948 352.323C205.867 348.86 203.273 345.911 199.679 345.262C199.165 345.18 198.679 345.126 198.166 345.126H198.22ZM202.597 322.805C202.192 322.805 201.787 322.832 201.354 322.886C197.895 323.4 195.22 326.079 194.869 329.38L194.734 330.76C194.599 332.058 194.464 333.384 194.301 334.71C193.842 338.525 196.571 342.015 200.517 342.745C201.003 342.827 201.516 342.881 202.003 342.881C205.408 342.881 208.515 340.743 209.461 337.524C210.218 335.007 210.893 332.004 210.272 328.893C210.164 328.379 210.002 327.865 209.785 327.378L209.677 327.134C208.407 324.456 205.624 322.778 202.597 322.778V322.805Z" fill="#1F1F1F"/>
<path d="M434.048 428.865L433.399 427.891C431.967 425.78 429.508 424.509 426.86 424.509C426.671 424.509 426.481 424.509 426.265 424.509C423.428 424.725 420.915 426.376 419.753 428.838V426.944C419.753 423.562 417.267 420.613 413.781 419.828L413.592 418.908C412.943 415.364 409.7 412.793 405.944 412.793C405.728 412.793 405.539 412.793 405.323 412.793C404.62 412.848 403.836 412.902 402.999 412.956C407.809 400.185 405.647 385.007 402.999 374.509H413.7C415.943 374.509 418.077 373.589 419.564 371.993C421.05 370.397 421.698 368.259 421.401 366.149C420.455 359.683 421.05 355.299 423.239 352.756C423.59 352.35 423.995 351.999 424.428 351.674C427.319 349.618 428.346 345.965 426.887 342.827C430.967 337.524 435.696 334.845 440.912 334.845C445.722 334.845 450.775 337.226 455.531 341.744C455.045 342.529 453.45 343.178 450.667 343.719C446.505 344.504 443.803 348.319 444.56 352.242L444.668 352.756C445.37 356.246 448.586 358.763 452.288 358.763C452.477 358.763 452.64 358.763 452.829 358.763C453.937 358.681 455.126 358.627 456.126 358.6C457.45 358.6 458.747 358.249 459.909 357.626L466.286 354.163C468.475 354.109 470.529 353.189 471.961 351.593C473.393 350.024 474.042 347.94 473.771 345.884C473.636 344.937 473.636 344.612 473.636 344.585C473.636 344.504 473.636 344.423 473.636 344.369C473.852 343.043 473.636 341.663 473.096 340.419V340.337C473.096 340.337 472.853 339.634 472.528 337.199C472.393 336.252 472.231 334.845 472.312 334.331C472.934 334.088 473.555 333.952 474.285 333.952C475.339 333.952 476.366 334.223 477.257 334.439L477.419 334.493C478.095 334.656 478.771 334.764 479.446 334.764C479.879 334.764 480.311 334.737 480.743 334.656C481.905 334.466 483.905 334.115 486.121 333.736C488.634 333.276 490.742 331.707 491.769 329.488C492.795 327.269 492.633 324.726 491.282 322.67C491.201 322.535 491.201 322.508 491.201 322.426C491.471 320.587 490.985 318.666 489.877 317.15C489.337 316.42 488.742 315.554 487.904 314.31C485.364 310.549 484.932 309.548 484.905 309.439V309.358C484.391 307.627 484.391 306.436 484.905 305.273C484.905 305.246 484.932 305.192 484.959 305.138C484.959 305.138 485.337 304.515 486.877 303.271C488.553 301.918 489.553 299.97 489.607 297.914C489.688 295.83 488.823 293.828 487.256 292.394C486.823 292.015 486.553 291.637 486.418 291.312C485.526 288.958 483.419 287.172 480.824 286.631C479.716 286.388 478.933 285.955 478.392 285.278C478.041 284.846 477.636 284.223 477.582 283.628C477.419 281.924 476.636 280.3 475.339 279.083C475.312 278.947 475.339 278.379 475.339 277.973C475.339 277.595 475.339 277.243 475.393 276.999C475.663 275.187 475.231 273.347 474.15 271.832C474.096 271.75 474.015 271.642 473.988 271.507C473.717 270.885 474.069 270.208 474.42 269.748C474.528 269.613 474.879 269.153 476.447 268.883C479.23 268.396 481.527 266.502 482.419 263.958C482.662 263.58 484.959 262.2 491.742 262.2C496.957 262.2 497.903 263.282 498.065 263.769C498.065 263.85 498.119 263.904 498.119 263.985C498.686 266.096 500.2 267.854 502.253 268.801C502.443 268.883 502.74 269.072 502.929 269.586C503.01 269.83 503.064 270.073 503.091 270.289C503.253 272.697 504.659 274.862 506.82 276.079C507.442 276.431 507.793 276.891 507.901 277.459C508.415 280.165 510.468 282.383 513.252 283.195C515.657 283.899 517.116 284.602 517.738 285.333C518.143 285.793 518.386 286.334 518.521 287.037C518.764 288.201 519.305 289.283 520.089 290.203C520.413 290.609 520.359 290.798 520.305 290.879C520.278 290.987 520.251 291.014 520.17 291.068C519.332 291.691 518.656 292.448 518.17 293.341C518.035 293.558 517.9 293.747 517.711 293.909C515.441 295.857 514.603 298.861 515.522 301.593L515.576 301.756C516.251 304.137 518.143 306.112 520.629 306.869C521.548 307.167 522.467 307.464 522.845 307.681C524.034 308.33 524.574 309.358 524.439 310.63C524.25 312.145 522.98 313.579 521.413 314.012C521.332 314.012 521.278 314.012 521.196 314.012C517.575 314.012 514.387 316.393 513.603 319.775C513.576 319.91 513.522 320.073 513.495 320.208C512.873 322.453 513.414 324.834 514.954 326.647C516.738 328.757 518.386 330.868 518.791 333.655C519.035 335.197 519.629 343.016 519.71 348.373C519.737 351.674 522.088 354.542 525.466 355.381C527.304 355.841 528.06 356.49 528.52 357.031L528.601 357.112C528.817 357.356 529.06 357.599 529.33 357.843C530.384 358.763 531.249 359.818 531.898 360.981C531.33 361.089 530.763 361.198 530.249 361.306C527.141 361.928 524.763 364.309 524.25 367.258C523.71 370.207 525.142 373.183 527.844 374.753C528.601 375.186 528.871 375.456 528.952 375.537C528.952 375.537 528.952 375.564 528.952 375.591C529.168 377.242 528.628 379.65 528.06 382.22C526.844 387.74 525.331 394.639 529.492 399.455L529.114 399.509C526.844 399.78 524.791 401.024 523.574 402.864C522.331 404.704 522.034 406.976 522.737 409.033L529.465 428.892C528.898 428.756 527.385 428.351 525.385 424.671C524.034 422.209 521.359 420.694 518.494 420.694C518.116 420.694 517.765 420.694 517.386 420.775C514.117 421.235 511.495 423.589 510.874 426.673L510.414 428.892C509.225 426.159 506.388 424.373 503.28 424.373C500.173 424.373 497.335 426.132 496.119 428.865L497.2 425.537C498.281 422.182 496.714 418.583 493.471 416.906C492.309 416.311 491.039 416.013 489.796 416.013C487.553 416.013 485.337 416.933 483.824 418.665C478.176 425.131 470.231 428.838 462.071 428.838C456.585 428.838 450.991 427.268 445.424 424.211C444.235 423.562 442.884 423.21 441.533 423.21C440.479 423.21 439.452 423.399 438.453 423.805C436.183 424.725 434.534 426.619 433.967 428.892L434.048 428.865ZM460.017 372.751C453.477 372.751 447.262 375.213 442.047 379.866C433.588 387.415 430.994 397.209 434.994 406.733C439.479 417.42 451.099 425.185 462.665 425.185C469.934 425.185 476.582 422.182 481.905 416.5C489.255 408.681 490.985 398.914 486.634 389.742C481.905 379.731 470.961 372.751 460.017 372.751Z" fill="#1F1F1F"/>
<path d="M730.083 251.486C726.246 250.43 722.408 246.047 719.031 242.178C716.707 239.527 714.815 237.416 713.194 236.199C711.816 235.171 710.14 234.63 708.411 234.63C708.221 234.63 708.032 234.63 707.843 234.63C705.898 234.765 704.033 235.387 702.141 236.091C701.033 236.497 700.088 236.848 699.493 236.848C699.358 236.848 699.142 236.848 699.007 236.713C697.169 235.09 697.358 234.116 697.412 233.818C697.493 233.412 697.683 232.438 700.979 231.112C703.709 230.003 705.519 227.541 705.681 224.727C706.033 218.369 706.168 206.275 705.979 199.349C705.925 197.374 705.033 195.507 703.492 194.154C702.06 192.882 700.169 192.179 698.223 192.179C698.115 192.179 697.98 192.179 697.872 192.179C696.737 192.233 695.521 192.287 694.278 192.341C690.873 192.503 687.414 192.693 684.603 192.693C682.631 192.693 681.226 192.612 680.307 192.422C680.28 191.854 680.253 191.178 680.199 190.42C679.793 183.223 679.037 169.939 683.225 167.179C684.117 166.908 688.008 166.043 701.169 166.043C725.192 166.043 730.623 167.964 731.704 168.532C731.731 168.586 731.785 168.64 731.812 168.694C734.055 171.887 733.677 177.866 733.326 183.656C733.11 186.984 732.92 190.095 733.245 192.476H717.436C715.355 192.476 713.383 193.261 711.924 194.668C710.464 196.075 709.654 197.969 709.681 199.944C709.735 203.055 709.275 206.221 708.816 209.278C708.005 214.716 707.276 219.857 708.816 225.268C709.032 225.999 709.329 226.675 709.762 227.297C711.086 229.245 713.734 231.789 718.841 236.361C722.192 239.364 725.651 242.476 727.948 245.154C729.705 247.211 731.515 249.97 730.056 251.431L730.083 251.486ZM722.435 172.455C722.435 172.455 722.165 172.455 722.03 172.455C720.139 172.536 717.761 172.807 714.031 173.294C710.005 173.835 707.087 177.244 707.384 181.113C707.681 184.955 711.059 187.931 715.112 187.931H715.139C717.896 187.931 720.652 187.823 723.084 187.66C725.327 187.498 727.408 186.443 728.759 184.711C730.11 182.98 730.596 180.815 730.11 178.732C730.029 178.434 729.975 178.164 729.894 177.893C728.975 174.674 725.894 172.455 722.408 172.455H722.435Z" fill="#1F1F1F"/>
<path d="M611.399 253.082C610.534 253.082 609.615 252.541 608.669 251.486C607.913 250.647 607.507 249.402 611.426 244.37C612.615 242.855 613.615 241.529 614.263 240.338C614.831 239.283 615.101 238.12 615.101 236.956C615.101 233.574 613.479 230.598 611.642 227.162C608.129 220.588 603.751 212.417 609.642 197.833C611.101 194.235 613.209 190.934 615.912 188.012C617.371 186.443 618.073 184.333 617.803 182.249C616.182 169.858 617.425 152.758 618.29 145.48C618.533 143.397 619.749 138.906 620.83 137.174C622.532 134.468 625.126 133.657 628.937 132.764C632.855 131.817 637.314 130.762 638.503 124.701C639.502 119.615 637.151 108.495 635.071 103.462C634.692 102.569 634.152 101.758 633.449 101.054C633.206 100.811 632.747 100.405 632.395 100.107C630.396 98.3756 630.017 97.4828 630.558 95.7783C630.747 95.156 631.179 94.3984 632.125 94.3984C632.422 94.3984 632.747 94.4525 633.152 94.5878C634.017 94.8854 634.909 95.0477 635.827 95.0477C637.719 95.0477 639.557 94.3984 641.016 93.1809C641.34 92.9103 641.691 92.6127 641.962 92.3692C644.988 89.7448 648.744 86.498 653.527 86.471C655.581 86.6063 662.094 88.4461 663.769 89.393C664.336 89.7989 664.742 90.4753 665.255 91.8281C666.039 93.8843 667.741 95.5077 669.903 96.2653C670.146 96.3464 670.227 96.4276 670.281 96.4817C670.308 96.4817 670.336 96.5358 670.363 96.5629C670.795 97.2934 671.795 99.6202 674.2 106.438C677.28 115.204 677.605 117.071 677.632 117.261C678.415 124.782 673.578 132.087 668.903 139.176C668.255 140.177 667.606 141.124 667.012 142.071C665.417 144.533 665.498 147.672 667.228 150.053C667.741 150.756 667.795 151.405 667.795 151.649C667.795 152.082 667.795 153.218 665.742 154.706C663.201 156.573 662.148 159.739 663.093 162.661L663.553 164.068C664.39 166.611 665.174 168.992 665.336 170.777C665.336 170.777 665.336 170.859 665.282 170.886C663.985 172.617 663.526 174.782 664.039 176.838C664.553 178.894 665.958 180.653 667.93 181.654C668.714 182.06 669.498 182.466 670.227 182.899C672.605 184.251 674.119 186.416 675.497 188.31C675.902 188.878 676.416 189.608 676.902 190.177C677.767 191.232 678.929 192.071 680.253 192.558C680.415 195.967 681.118 199.024 681.874 202.271C683.117 207.601 684.387 213.093 683.171 220.398C682.604 223.834 680.28 227.784 678.415 230.923C677.848 231.897 677.064 233.196 676.497 234.305C675.227 236.713 675.443 239.554 677.064 241.772L677.361 242.205C679.712 245.398 681.55 248.32 680.226 251.567C679.766 251.567 678.523 251.486 676.794 249.646C675.335 248.076 673.2 247.184 671.011 247.184H655.878C655.311 247.184 654.743 247.238 654.176 247.373C650.42 248.185 647.042 248.563 643.88 248.563C640.908 248.563 638.097 248.212 635.233 247.508C634.584 247.346 633.936 247.265 633.287 247.265C633.206 247.265 633.098 247.265 633.017 247.265L630.828 247.346C627.531 247.454 623.856 247.589 620.668 247.589C617.965 247.589 615.479 248.942 614.074 251.107C612.75 253.136 611.885 253.136 611.345 253.136L611.399 253.082Z" fill="#1F1F1F"/>
<path d="M974.883 428.865C972.802 428.865 970.721 428.784 969.424 428.648C968.857 428.594 968.289 428.459 967.641 428.242C966.803 427.972 965.938 427.837 965.073 427.837C963.966 427.837 962.858 428.053 961.831 428.513C961.533 428.648 961.209 428.702 961.128 428.702C960.561 428.784 959.912 428.811 959.155 428.811C958.102 428.811 956.967 428.729 955.859 428.675C954.724 428.594 953.589 428.54 952.535 428.54C952.021 428.54 951.535 428.54 951.103 428.594C950.67 428.188 950.697 425.212 950.697 424.211C950.697 423.643 950.697 423.102 950.724 422.615C950.805 420.342 949.779 418.151 947.914 416.69C947.86 416.635 947.833 416.608 947.779 416.581C947.428 415.337 947.482 411.035 947.536 406.084C947.563 403.513 947.617 399.644 947.536 396.425C947.482 393.421 945.482 390.743 942.482 389.688C941.591 389.363 940.672 389.228 939.78 389.228C937.618 389.228 935.511 390.093 934.024 391.663C933.16 392.556 932.376 393.259 931.592 393.8C928.16 396.154 908.785 399.996 902.056 399.996C897.841 399.996 894.409 403.189 894.301 407.193C894.274 408.924 894.003 410.25 893.463 411.468C892.923 412.712 890.788 414.985 888.95 414.985C888.599 414.985 888.248 414.904 887.977 414.714H887.95C887.545 414.011 887.113 411.468 886.761 409.411C885.951 404.677 885.951 403.459 885.951 403.405C885.951 403.107 886.032 402.81 886.14 402.431C886.707 400.456 886.383 398.346 885.221 396.614C885.14 396.479 885.059 396.343 885.005 396.181C885.005 396.127 884.654 395.072 884.113 390.797C883.897 389.038 883.573 386.684 883.762 385.873C883.762 385.873 883.762 385.873 883.789 385.846C884.816 385.44 885.951 385.223 887.167 385.223C888.95 385.223 890.707 385.683 892.274 386.062C892.95 386.224 893.625 386.414 894.193 386.522C894.733 386.63 895.274 386.684 895.814 386.684C896.192 386.684 896.598 386.657 896.976 386.603C900.489 386.089 912.973 383.844 917.054 383.005C918.432 382.734 919.729 382.085 920.756 381.165C921.161 380.813 921.648 380.353 922.161 379.839C923.972 378.054 924.728 375.537 924.161 373.129C923.593 370.721 921.783 368.746 919.378 367.853C917.27 367.096 916.216 365.851 916.243 365.418C916.243 365.364 916.243 365.337 916.243 365.283C917.324 362.821 916.892 359.98 915.135 357.897C914.162 356.733 912.784 354.812 910.541 351.485C906.11 344.883 905.434 343.259 905.38 343.07V343.016C904.732 340.824 904.326 338.471 905.407 336.036C905.461 335.927 906.596 333.573 914.595 328.514C917.135 326.891 918.432 324.023 917.919 321.155C917.405 318.287 915.135 315.987 912.163 315.284C911.028 315.013 910.163 314.634 909.596 314.093C908.812 313.417 907.893 312.389 907.839 311.388C907.677 307.627 904.569 304.596 900.597 304.326C896.057 304.028 894.679 302.297 894.22 301.729C893.517 300.836 892.679 299.51 892.814 298.347C893.139 295.479 891.707 292.692 889.085 291.231C889.085 291.231 889.058 291.204 889.031 291.177C888.95 290.825 888.95 289.878 888.95 289.256C888.95 288.579 888.95 287.578 889.085 287.281C890.328 284.467 889.599 281.22 887.275 279.137C886.977 278.866 886.761 278.569 886.599 278.217C886.221 277.351 886.464 276.377 887.356 275.214C888.112 274.213 890.193 273.617 893.598 273.428C897.597 273.212 900.759 270.127 900.894 266.339C900.894 266.015 900.975 265.663 901.056 265.284C901.57 264.499 905.596 262.281 917 262.281C925.917 262.281 927.539 264.148 927.836 264.959C927.971 265.365 928.052 265.717 928.052 266.069C927.998 269.613 930.646 272.697 934.321 273.374C935.294 273.563 935.862 274.023 936.213 274.943C936.483 275.701 936.564 276.35 936.456 276.864C935.592 280.517 937.726 284.196 941.456 285.441C941.753 285.549 942.023 285.63 942.266 285.765C944.752 286.848 944.887 288.471 944.779 289.607C944.455 293.152 946.833 296.426 950.454 297.345C954.967 298.509 959.912 299.916 961.615 301.918C962.452 302.892 962.885 304.028 963.128 305.706C963.371 307.464 964.263 309.088 965.668 310.251C966.046 310.738 966.181 311.144 966.073 311.442C966.019 311.577 965.992 311.658 965.668 311.875C964.317 312.659 963.263 313.85 962.641 315.229C962.371 315.852 962.047 316.285 961.588 316.663C961.29 316.907 960.939 317.123 960.507 317.286C958.588 318.097 957.075 319.64 956.372 321.534C955.67 323.427 955.805 325.511 956.75 327.296C956.858 327.486 956.967 327.702 957.075 327.892C958.021 329.759 959.723 331.138 961.804 331.734C962.533 331.95 963.29 332.058 964.047 332.058C965.425 332.058 966.776 331.707 967.992 331.03C977.45 325.754 1000.45 312.199 1009.58 300.592C1010.58 299.321 1011.61 297.481 1013.15 294.586C1015.74 289.77 1018.42 284.819 1020.9 284.819C1020.96 284.819 1020.98 284.819 1021.04 284.819C1021.15 284.819 1021.17 284.819 1021.17 284.819C1022.04 285.306 1024.12 288.715 1025.63 291.231C1027.87 294.937 1030.58 299.726 1032.95 303.947C1036.47 310.17 1038.06 312.93 1038.85 314.039C1038.66 314.959 1036.98 315.608 1033.77 316.041C1030.87 316.447 1027.06 316.636 1023.04 316.826C1019.71 316.988 1015.2 317.232 1011.58 317.637C1009.42 317.881 1007.45 318.99 1006.18 320.695C1004.91 322.399 1004.47 324.51 1004.93 326.539C1005.09 327.215 1005.15 327.811 1005.12 328.27C1004.96 329.948 1003.93 331.084 1002.47 332.545C1001.72 333.303 1001.09 333.952 1000.58 334.683C999.987 335.521 999.609 336.441 999.419 337.442C998.312 343.232 998.528 366.257 999.311 372.886C999.311 372.967 999.311 373.048 999.338 373.102C999.501 374.266 999.96 375.537 1000.93 378.108C1002.07 381.03 1003.45 384.682 1002.34 386.197C1001.93 386.766 1001.26 387.036 1000.2 387.036C999.96 387.036 999.717 387.036 999.447 386.982C998.852 386.928 998.366 386.793 997.96 386.63C996.96 386.197 995.88 385.981 994.799 385.981C993.61 385.981 992.394 386.252 991.313 386.766C989.232 387.767 987.719 389.606 987.232 391.771L987.178 392.042C986.665 394.044 985.692 395.045 984.26 395.045C984.044 395.045 983.8 395.045 983.557 394.964C982.909 394.828 982.314 394.72 981.801 392.528C980.99 389.092 977.801 386.766 974.234 386.766C973.694 386.766 973.126 386.82 972.559 386.928C972.18 387.009 971.802 387.063 971.424 387.09C967.235 387.442 964.101 390.905 964.371 394.882C964.884 402.783 965.128 410.007 964.992 413.74C964.857 417.474 967.695 420.694 971.586 421.262C975.342 421.803 978.234 422.588 980.098 424.698C981.557 426.348 981.882 427.377 981.882 427.593C981.882 427.593 981.828 427.755 981.774 427.864C981.584 428.324 980.99 428.621 980.044 428.756C978.936 428.892 977.072 429 974.937 429L974.883 428.865ZM962.641 352.269C958.885 352.269 955.642 354.84 954.994 358.357C954.778 359.52 954.453 361.171 954.129 362.118C954.129 362.172 954.075 362.226 954.075 362.253C952.697 364.769 952.967 367.826 954.778 370.072C955.345 370.775 955.994 371.533 956.507 372.155C956.913 372.615 957.318 373.129 957.75 373.643C959.237 375.456 961.506 376.457 963.857 376.457C964.668 376.457 965.479 376.349 966.262 376.078C969.37 375.104 971.505 372.426 971.586 369.314C971.694 366.095 971.748 362.469 971.748 359.601C971.748 357.626 970.91 355.732 969.424 354.352C967.965 353 966.019 352.242 963.993 352.242C963.939 352.242 963.56 352.242 963.398 352.242C963.209 352.242 963.02 352.242 962.858 352.242C962.777 352.242 962.695 352.242 962.614 352.242L962.641 352.269ZM980.666 342.583C980.666 342.583 980.314 343.016 978.936 343.638C976.18 344.883 974.45 347.561 974.531 350.456C974.586 352.648 974.775 355.381 974.91 357.383C974.991 358.79 975.072 360.088 975.153 361.306C975.288 363.903 976.882 366.23 979.288 367.448C980.422 368.016 981.665 368.286 982.882 368.286C984.287 368.286 985.719 367.908 986.962 367.177C987.151 367.069 987.475 366.934 988.097 366.906C992.312 366.798 995.663 363.552 995.663 359.547V345.586C995.663 343.314 994.555 341.176 992.691 339.796C991.313 338.768 989.637 338.227 987.908 338.227C987.286 338.227 986.665 338.308 986.043 338.444L985.854 338.498C983.584 339.039 981.665 340.527 980.693 342.556L980.666 342.583Z" fill="#1F1F1F"/>
<path d="M749.729 253.082C748.54 253.082 747.323 253.028 746.053 253.001C744.945 252.974 743.892 252.92 742.838 252.92C742.405 250.106 742.784 247.995 744 246.643C744.567 245.993 745.243 245.56 746.162 245.236C752.512 242.909 756.646 237.092 756.565 230.625L755.863 181.519C755.809 177.406 753.998 173.456 750.864 170.615C747.81 167.828 743.757 166.286 739.541 166.286C739.406 166.286 739.136 166.286 739.136 166.286C738.325 166.286 736.866 166.313 734.974 166.367H734.109C730.272 166.503 725.003 166.638 721.003 166.638C719.058 166.638 716.139 166.638 715.247 166.34C715.247 166.34 715.112 166.232 715.112 166.205C713.221 161.633 709.167 158.196 704.168 156.925C704.006 156.871 703.871 156.844 703.736 156.79C701.115 155.004 696.25 147.753 694.953 144.209C694.953 144.181 694.953 144.154 694.98 144.127C695.088 144.046 695.197 143.965 695.278 143.911C699.844 141.341 702.79 136.849 703.195 131.844C703.601 126.839 701.412 121.968 697.331 118.749C692.413 114.907 690.603 109.333 692.494 103.895C694.602 97.7263 700.655 93.5867 707.546 93.5867C711.194 93.5867 715.031 94.7501 718.706 96.9687C719.031 97.1581 719.355 97.4016 719.733 97.7263C722.733 100.188 726.516 101.514 730.407 101.514C731.488 101.514 732.569 101.406 733.65 101.217C734.461 101.054 735.163 100.973 735.758 100.973H736.001C744.351 100.973 751.323 95.0207 752.215 87.1474C752.296 86.3087 752.377 85.5511 752.431 84.9017C752.593 82.8184 752.35 80.7351 751.647 78.7871C751.377 78.0566 751.053 77.1367 750.728 76.2709C748.377 70.0209 742.162 65.9896 735.379 65.9896C734.407 65.9896 733.407 66.0708 732.407 66.2601C732.11 66.3143 731.785 66.3413 731.461 66.3413C730.894 66.3413 729.191 66.3413 725.921 64.5556C726.354 63.5004 726.678 62.3911 726.867 61.2548C727.138 59.5773 727.651 58.3327 728.245 57.8998C730.623 56.1953 732.461 53.9226 733.569 51.2982C734.677 48.7008 738.703 43.3978 742.757 38.2031C747.648 31.899 753.052 25.3785 754.593 23.7552C755.376 22.9435 757.187 21.4825 759.024 19.9944C762.186 17.4782 764.24 13.9068 764.726 10.0107C765.077 7.27806 765.861 5.35709 767.347 3.59845C769.212 1.37986 772.212 0 775.157 0C777.832 0 780.183 1.08224 781.805 3.03027C783.804 5.46531 784.318 12.3646 783.561 17.0453C783.426 17.857 783.264 18.5875 783.075 19.2639C781.913 23.187 782.426 27.3536 784.507 30.898C789.074 38.6901 794.235 47.7538 797.694 56.4929C797.748 56.6282 797.775 56.7635 797.802 56.8988C798.126 59.3068 799.045 61.5795 800.477 63.5816C801.018 64.3392 801.153 64.8803 801.207 65.2591C801.45 66.7472 801.099 68.0188 800.099 69.1281C799.883 69.3716 799.613 69.6151 799.342 69.8315C794.803 73.3488 792.614 78.8953 793.614 84.3606C793.911 86.0381 793.938 87.905 793.695 89.853C793.506 90.9082 792.56 95.2912 791.073 101.189C789.722 106.547 791.479 112.174 795.694 115.989C798.775 118.749 802.801 120.237 806.936 120.237C808.476 120.237 810.016 120.02 811.503 119.615C814.394 118.803 817.367 118.018 819.096 118.018C819.447 118.018 819.691 118.072 819.799 118.072C820.799 118.289 822.339 119.804 824.528 122.726C827.635 126.839 832.608 129.192 837.796 129.192C838.985 129.192 840.201 129.057 841.417 128.814L854.55 125.973C856.199 129.598 859.252 132.466 863.062 134.035C863.36 134.441 863.684 135.929 863.846 136.822C864.008 137.58 864.413 139.528 864.035 140.015C863.927 140.177 863.873 140.231 863.873 140.231C862.711 140.935 856.982 141.963 855.118 142.288C850.01 143.18 845.687 146.319 843.417 150.729C842.471 152.596 841.255 153.462 838.931 153.976C837.715 154.246 836.526 154.382 835.499 154.382C833.634 154.382 832.094 153.949 830.689 153.002C827.933 151.189 824.663 150.215 821.366 150.215C820.177 150.215 818.988 150.35 817.799 150.594L794.235 155.599C786.182 157.304 780.751 164.446 781.589 172.239C781.886 174.971 782.156 177.541 782.183 179.868C782.264 189.284 782.21 198.835 782.183 208.061V208.25C782.129 217.611 782.048 227.297 782.183 236.821C780.318 239.527 779.4 242.692 779.562 245.912C779.67 248.591 779.292 251.188 778.994 252.947H763.051C761.538 252.514 759.97 252.297 758.43 252.297C757.268 252.297 756.106 252.405 754.971 252.649C753.485 252.947 751.836 253.109 749.756 253.109L749.729 253.082Z" fill="#1F1F1F"/>
<path d="M569.946 428.865C568.324 428.865 566.027 428.811 564.487 428.648C564.244 428.648 564.001 428.594 563.757 428.54C562.622 428.324 561.488 428.188 560.353 428.188C559.028 428.188 557.677 428.351 556.38 428.648C556.299 428.648 556.218 428.675 556.191 428.675C555.624 428.756 554.975 428.784 554.218 428.784C553.165 428.784 552.084 428.702 550.922 428.648C549.814 428.567 548.652 428.513 547.598 428.513C547.165 428.513 546.733 428.513 546.301 428.567C546.301 428.567 546.166 428.567 546.139 428.513C546.058 428.378 545.787 427.755 545.787 425.266C545.787 422.182 544.787 419.179 542.923 416.635C542.761 415.959 542.599 414.309 542.599 410.223C542.599 405.353 540.14 400.754 536.005 397.886C533.195 395.938 529.871 394.936 526.493 394.936C524.845 394.936 523.196 395.18 521.602 395.667C515.576 397.48 507.739 398.833 502.416 399.455C496.011 400.239 490.742 404.514 488.958 410.385C488.85 410.71 488.742 411.062 488.58 411.387C487.958 412.82 485.878 414.904 484.067 414.904C483.689 414.904 483.365 414.823 483.094 414.633C483.094 414.633 483.094 414.633 483.067 414.633C482.635 413.767 482.176 411.116 481.878 409.303C481.095 404.704 481.068 403.378 481.068 403.324V403.08C481.338 400.699 481.014 398.318 480.122 396.1L480.068 395.938C480.068 395.938 479.743 394.747 479.23 390.689C479.041 389.201 478.717 386.82 478.879 385.819C479.987 385.332 481.068 385.142 482.257 385.142C483.905 385.142 485.472 385.521 487.067 385.927C488.445 386.279 489.85 386.441 491.255 386.441C492.174 386.441 493.093 386.36 494.012 386.224C495.309 386.008 497.038 385.71 498.93 385.386C503.497 384.574 507.496 381.95 509.874 378.135C512.252 374.347 512.765 369.747 511.306 365.554C511.306 365.554 511.306 365.5 511.306 365.364C511.549 361.955 510.577 358.519 508.55 355.705C507.658 354.461 506.712 353.081 505.712 351.566C501.335 345.072 500.551 343.314 500.497 343.124V342.989C499.605 339.959 499.632 338.011 500.497 335.981C500.551 335.873 500.578 335.765 500.659 335.63C500.659 335.63 501.037 335.034 502.389 333.79C508.442 328.298 509.063 319.315 503.794 313.146C503.524 312.821 503.307 312.497 503.172 312.226C501.227 308.141 497.443 305.083 492.904 303.866C491.309 303.433 490.174 302.757 489.364 301.701C488.823 300.998 488.121 299.97 487.985 299.023C487.553 296.101 486.229 293.341 484.175 291.123C484.094 290.879 484.121 289.878 484.121 289.229C484.121 288.688 484.121 288.201 484.175 287.795C484.5 284.602 483.743 281.382 482.013 278.596C481.932 278.487 481.878 278.325 481.797 278.163C481.419 277.297 481.689 276.296 482.554 275.16C482.743 274.916 483.202 274.294 485.337 273.807C490.174 272.697 494.201 269.532 496.254 265.23C496.308 265.122 496.39 265.014 496.498 264.878C496.498 264.878 499.794 262.2 512.225 262.2C516.765 262.2 522.331 262.903 523.061 264.878C524.277 268.504 526.898 271.669 530.357 273.59C530.871 273.861 531.222 274.294 531.438 274.862C531.573 275.187 531.654 275.484 531.681 275.782C532.303 279.976 534.762 283.736 538.437 286.171C539.221 286.685 539.707 287.281 539.896 288.038C541.302 292.989 545.22 296.94 550.354 298.563C553.705 299.618 555.894 300.727 556.84 301.837C557.488 302.594 557.894 303.433 558.137 304.515C558.623 306.517 559.515 308.411 560.785 310.062L560.866 310.17C561.136 310.549 561.379 311.036 561.271 311.36C561.217 311.55 561.163 311.604 561.109 311.631C559.704 312.767 558.488 314.12 557.569 315.635C557.461 315.798 557.38 315.933 557.272 316.068C554.191 319.883 553.192 324.861 554.597 329.488C555.975 334.115 559.596 337.848 564.325 339.58C564.919 339.796 565.325 339.959 565.595 340.094C567.622 341.203 568.568 342.989 568.297 345.126C567.973 347.751 565.784 350.186 563.109 350.916C557.839 352.107 553.57 355.732 551.732 360.548C549.895 365.364 550.732 370.748 553.948 374.861C556.732 378.405 558.11 381.3 558.596 384.52C558.947 386.847 559.92 398.373 560.109 407.896C560.245 414.309 564.622 419.963 571.027 422.047C573.486 422.831 574.594 423.859 575.215 424.536C576.134 425.564 577.188 426.971 576.891 427.701C576.647 428.324 575.512 428.54 575.161 428.594C574.648 428.675 573.107 428.838 570.054 428.838L569.946 428.865Z" fill="#1F1F1F"/>
<path d="M715.545 428.865C712.059 428.865 709.843 428.729 708.735 428.432C708.14 428.269 707.708 427.62 707.492 427.268C707.222 426.781 706.924 426.078 707.141 425.429C715.031 424.13 720.76 417.555 720.652 409.98C720.598 407.085 720.922 402.864 721.301 397.534C721.598 393.421 722.057 387.198 722.219 382.274C722.381 377.323 720.003 372.588 715.869 369.558C714.923 368.855 714.221 367.421 713.761 365.256C711.356 353.568 712.383 333.763 713.626 323.292C713.842 321.398 715.058 316.609 716.247 314.688C717.49 312.713 719.382 311.523 722.76 310.576C730.461 308.465 735.406 301.35 734.407 293.828C733.92 290.094 732.974 285.765 731.921 282.492C731.137 280.03 729.732 277.784 727.786 275.971C725.786 274.104 725.894 273.157 726.3 271.859C726.408 271.507 726.84 270.425 727.921 270.425H728.083C728.489 270.452 728.894 270.479 729.299 270.479C733.191 270.479 736.974 269.153 739.946 266.745C743.757 263.634 746.756 262.281 749.945 262.227C752.35 262.416 758.673 264.229 760.727 265.284C760.97 265.473 761.294 265.798 761.646 266.448C762.943 268.91 764.915 270.966 767.32 272.481C767.402 272.562 767.456 272.589 767.51 272.643C768.401 274.158 770.617 280.435 771.455 282.843C774.509 291.501 774.941 293.639 774.995 293.991V294.099C775.806 301.837 770.806 309.412 765.969 316.718C762.781 321.561 760.43 325.24 759.241 328.595C758.268 331.274 758.133 334.169 758.781 336.955C759.16 338.579 759.808 340.581 760.457 342.502C761.321 345.126 762.132 347.588 762.294 349.455C762.294 349.455 762.267 349.537 762.213 349.591C760.673 351.917 759.781 354.596 759.7 357.329C759.376 366.447 760.132 380.218 760.673 390.256C760.916 394.477 761.105 398.264 761.24 401.322C761.24 401.917 761.321 402.512 761.429 403.107C761.51 403.594 761.619 404.163 761.727 404.785L761.808 405.218C762.159 407.058 762.537 408.897 762.537 410.304C762.591 417.826 768.347 424.211 776.184 425.429C776.454 425.943 776.427 426.43 776.103 426.917C775.562 427.755 774.157 428.432 773.536 428.432H750.161C749.485 428.432 748.918 428.324 748.458 428.134C746.243 427.133 743.811 426.619 741.406 426.619C739.001 426.619 736.433 427.16 734.163 428.242C733.866 428.378 733.515 428.459 733.137 428.459C731.623 428.459 729.299 428.54 726.597 428.621C723.03 428.756 718.95 428.892 715.491 428.892L715.545 428.865Z" fill="#1F1F1F"/>
<path d="M1174.66 253.082C1158.77 253.082 1154.85 251.296 1153.96 250.214C1153.58 249.754 1153.29 249.321 1153.1 248.942C1150.94 244.235 1146.53 240.798 1141.24 239.689C1137.15 238.85 1133.91 237.038 1132.56 234.9C1131.56 233.331 1131.56 231.626 1132.53 229.76L1132.67 229.489C1135.99 222.996 1134.34 215.203 1128.62 210.442C1127.86 209.819 1127.26 209.116 1126.75 208.331C1125.26 205.923 1125.05 202.568 1126.13 198.618C1127.7 192.909 1131.94 189.933 1141.78 187.606C1146.88 186.389 1151.13 182.98 1153.21 178.407C1155.29 173.808 1154.99 168.559 1152.4 164.203C1149.29 158.954 1148.86 153.462 1151.21 148.727C1153.02 145.101 1156.26 142.044 1160.56 139.934C1165.61 137.444 1168.99 132.683 1169.56 127.326C1169.72 125.81 1169.91 124.349 1170.1 122.915C1170.42 120.318 1170.8 117.477 1170.91 114.799C1171.2 108.738 1167.83 103.029 1162.23 100.08C1162.1 99.999 1161.99 99.9178 1161.88 99.8096C1161.72 99.6202 1161.26 99.0791 1161.58 96.9146C1161.72 95.9406 1161.77 94.9936 1161.75 94.0196V89.8259C1163.77 89.1225 1165.64 88.0673 1167.23 86.6874C1167.8 86.6874 1170.56 86.6063 1170.56 86.6063C1173.01 86.5522 1176.39 86.4439 1178.93 86.4439C1180.12 86.4439 1182.12 86.4439 1182.72 86.6874C1184.44 88.0132 1186.31 88.9601 1188.44 89.5554C1188.93 89.6907 1189.23 89.9612 1189.31 90.3671C1189.44 91.0705 1189.47 91.6657 1189.39 92.1527C1189.01 94.0467 1188.98 95.9676 1189.34 97.8616C1189.39 98.1051 1189.36 98.3756 1189.31 98.7003C1189.25 98.9979 1189.12 99.4038 1188.61 99.7014C1183.53 102.759 1180.53 108.116 1180.74 113.798C1180.85 116.828 1181.15 120.48 1181.63 125.269C1182.28 131.627 1186.88 137.012 1193.28 138.987C1196.96 140.096 1199.17 141.99 1200.74 145.318C1203.28 150.702 1201.85 154.896 1199.39 160.686L1198.82 162.038C1195.93 168.965 1198.44 176.865 1204.9 181.113L1205.85 181.735C1208.39 183.386 1210.82 184.982 1212.28 186.659C1217.44 192.531 1220.17 202.352 1218.52 209.008C1218.14 210.496 1217.55 211.578 1216.55 212.552C1210.95 217.936 1210.12 226.296 1214.52 232.627C1215.3 233.737 1215.49 234.521 1215.14 235.252C1214.93 235.685 1214.74 236.064 1213.14 236.497C1207.14 238.174 1202.6 242.828 1201.33 248.645C1201.2 249.24 1200.96 249.754 1200.87 249.889C1200.58 250.322 1198.42 252.162 1185.53 252.92C1183.34 253.055 1179.18 253.19 1174.66 253.19V253.082Z" fill="#1F1F1F"/>
</svg>
