<svg width="345" height="338" viewBox="0 0 345 338" fill="none" xmlns="http://www.w3.org/2000/svg">
<path d="M345 0H0V338H345V0Z" fill="black"/>
<path d="M201.543 152.678H132.135V222.042H201.543V152.678Z" fill="black"/>
<path d="M178.934 315.335C179.427 307.218 181.431 302.686 190.749 302.053C194.335 301.807 197.64 299.98 199.75 297.028C201.859 294.077 202.528 290.387 201.613 286.908C201.578 286.768 201.578 286.662 201.578 286.627V258.2C201.578 254.967 200.277 251.84 197.957 249.591C195.706 247.377 192.647 246.147 189.483 246.147C189.412 246.147 189.342 246.147 189.237 246.147C188.393 246.147 187.514 246.147 186.6 246.147C181.958 246.147 178.583 245.866 177.563 245.374C175.032 244.144 173.238 242.212 171.48 240.314C171.129 239.928 170.672 239.436 170.285 239.049C168.175 236.835 165.292 235.535 162.233 235.36H161.424C158.049 235.184 156.853 234.797 156.08 233.638C155.869 233.357 155.728 233.076 155.658 232.759C154.392 228.894 151.298 225.907 147.36 224.853C146.657 224.642 146.059 224.291 145.602 223.799C145.145 223.307 144.512 222.464 144.231 220.531C143.281 214.593 138.148 210.341 132.311 210.341C131.713 210.341 131.115 210.376 130.518 210.481C129.639 210.622 128.725 210.762 127.845 210.938C126.369 211.219 125.103 211.43 124.118 211.43C122.817 211.43 122.466 211.044 122.29 210.868C121.517 210.06 120.145 206.967 123.943 196.039C126.123 189.714 129.287 183.143 131.291 180.789C135.792 177.416 137.374 171.337 135.053 166.206C134.737 165.504 134.456 164.555 134.28 163.466C133.928 161.428 133.049 159.53 131.713 157.914C130.834 156.824 129.85 155.7 128.83 154.505C126.545 151.835 123.204 150.324 119.688 150.324C119.477 150.324 119.266 150.324 119.055 150.324C118.387 150.324 117.754 150.394 117.086 150.394C116.383 150.394 114.273 150.394 113.113 149.726C113.113 149.726 113.043 149.691 113.008 149.656C111.953 148.461 108.964 143.401 107.487 140.907C103.584 134.3 102.6 132.368 102.319 131.806C102.143 131.173 101.967 130.33 102.178 129.768C103.338 126.71 103.198 123.302 101.826 120.35C101.264 119.12 100.666 117.504 100.701 114.974C100.701 114.834 100.842 111.144 108.085 102.535C110.195 100.005 111.214 96.7371 110.863 93.4692C110.511 90.2013 108.859 87.2145 106.257 85.2116C99.8222 80.2219 96.2006 71.9994 96.7631 63.7418C97.6773 50.5296 107.698 41.6395 121.657 41.6395C124.892 41.6395 128.373 42.0963 131.959 43.0099C136.425 44.1695 140.82 47.859 144.652 51.1621C145.567 51.9351 146.692 52.8839 147.571 53.5867C149.716 55.3085 152.388 56.2221 155.095 56.2221C155.482 56.2221 155.869 56.2221 156.291 56.1518C157.978 55.9761 159.912 55.6598 161.811 55.3436C165.046 54.8165 168.421 54.2543 171.586 54.2543C172.043 54.2543 172.465 54.2543 172.922 54.2894C193.702 55.449 205.411 68.2044 217.823 81.768C222.218 86.582 226.402 91.1149 231.043 95.2261C231.289 95.437 231.571 95.6478 231.817 95.8586C232.942 96.702 234.313 97.475 236.317 98.5292C239.13 100.075 241.802 101.516 242.541 103.097C242.752 103.519 242.928 104.151 242.717 105.452C242.33 107.56 242.541 109.738 243.314 111.741C249.221 127.554 251.542 135.249 244.299 152.116C243.666 153.627 243.314 155.243 243.314 156.86L243.385 287.435C240.29 290.176 238.779 294.358 239.482 298.434C240.572 305.04 239.587 311.997 239.025 313.508C238.462 314.949 237.759 315.265 237.267 315.265H212.021C210.79 314.844 209.489 314.633 208.224 314.633C206.958 314.633 205.692 314.844 204.497 315.23C204.426 315.23 204.321 315.23 204.215 315.23H178.97L178.934 315.335ZM186.846 163.606C182.872 164.485 178.583 165.187 173.766 165.679C169.195 166.136 165.292 169.158 163.675 173.48C162.057 177.802 163.077 182.651 166.206 185.99L166.874 186.692C171.445 191.542 176.157 196.531 180.517 201.345C182.837 203.91 186.142 205.316 189.483 205.316C190.924 205.316 192.401 205.035 193.808 204.508C198.484 202.716 201.543 198.218 201.543 193.228V175.378C201.543 171.723 199.89 168.245 197.007 165.96C194.827 164.239 192.19 163.325 189.448 163.325C188.569 163.325 187.69 163.431 186.811 163.606H186.846ZM125.033 98.4589L124.224 98.8805C120.743 100.673 117.368 102.465 114.695 104.327C112.023 106.189 110.195 109.036 109.667 112.268C109.14 115.466 109.913 118.769 111.847 121.405C112.761 122.67 113.992 124.286 115.574 126.359C117.508 128.854 120.356 130.505 123.486 130.962C123.802 130.997 124.224 131.068 124.927 131.946C127.248 134.898 130.764 136.549 134.421 136.549C135.511 136.549 136.565 136.409 137.655 136.093C137.761 136.093 137.866 136.022 137.972 136.022C139.835 135.601 141.804 135.284 143.984 135.038C148.45 134.546 152.247 131.63 153.9 127.448C155.552 123.267 154.744 118.558 151.825 115.15L140.644 102.184C140.257 101.762 139.871 101.34 139.449 100.954C139.378 100.883 139.308 100.813 139.238 100.778C136.917 98.3886 133.788 97.1587 130.588 97.1587C128.689 97.1587 126.791 97.6156 125.033 98.5292V98.4589Z" fill="white"/>
</svg>
