<svg width="790" height="780" viewBox="0 0 790 780" fill="none" xmlns="http://www.w3.org/2000/svg">
<path d="M0 62.241C0 60.891 0.33 59.391 1.02 57.641C1.83 55.591 2.33 53.431 2.53 51.231C6.36 45.681 8.96 39.401 10.25 32.561C11.1 30.761 11.7 28.861 12.06 26.911C12.18 26.241 12.37 25.591 12.63 24.911C14.49 20.141 16.67 18.791 18.74 18.041C23.28 16.401 27.19 13.381 29.92 9.39097C30.9 7.95097 31.72 7.31097 32.42 6.94097C37.54 5.12097 51.19 0.770966 55.41 0.00096607C56.72 -0.0190339 57.98 0.270966 59.44 0.920966C63.79 2.85097 68.63 3.39097 73.3 2.45097C75.26 2.06097 77.03 2.14097 78.88 2.69097C80.39 3.15097 81.73 4.29097 82.85 5.35097C84.88 7.28097 87.24 8.82097 89.81 9.90097C90.78 10.311 91.75 10.691 92.79 11.101C97.16 12.801 99.12 13.911 100.85 15.661C103.32 18.161 106.34 20.051 109.66 21.201C111.01 22.461 112.26 23.761 113.35 25.091C113.26 25.881 113.22 26.681 113.22 27.481C113.22 30.251 113.72 32.991 114.71 35.601C115.55 37.811 116.64 40.211 117.78 42.681C119.3 45.971 120.72 49.021 120.95 50.971C121.01 51.481 121.04 52.031 121.04 52.591C121.04 53.091 121.02 53.631 120.97 54.191C120.91 54.871 120.88 55.541 120.88 56.221C120.88 61.631 122.79 66.901 126.31 71.071C126.38 73.051 126.42 74.991 126.45 76.901V77.051C120.54 79.911 116.15 85.071 114.35 91.381C113.78 93.371 113.14 94.791 112.34 95.851C111.67 96.741 110.94 97.391 110.03 97.931C105.86 100.401 102.57 104.131 100.64 108.581C99.88 110.331 99.23 110.861 99.01 111.041C93.49 115.551 90.57 122.151 90.57 128.851C90.57 132.741 91.56 136.671 93.59 140.231C97.01 146.261 102.98 150.441 109.82 151.581C116.73 152.731 123.78 150.671 128.98 145.991C139.14 136.841 152.6 132.761 166.88 134.501C191.56 137.501 208.54 156.911 209.18 182.841V183.441C209.18 184.461 209.09 185.701 208.91 187.121C208.79 188.071 208.73 189.021 208.73 189.971C208.73 195.691 210.86 201.231 214.76 205.501C215.2 205.981 215.52 206.461 215.76 207.011C216.2 208.001 216.7 209.491 216.7 212.111C216.7 212.631 216.68 213.141 216.66 213.651C216.65 213.981 216.64 214.311 216.64 214.641C216.64 218.271 217.5 221.851 219.16 225.101C220.02 226.781 220.73 228.391 220.73 231.071C220.73 231.451 220.72 231.841 220.69 232.231C220.65 232.801 220.63 233.381 220.63 233.941C220.63 243.901 227.08 252.831 236.71 255.861C241.47 257.361 247.68 259.261 250.82 260.101C270.66 265.401 285.69 268.161 295.49 268.301C300.94 268.381 306.23 266.521 310.44 263.061C312.44 261.421 314.86 259.651 317.66 258.991C328.07 256.561 335.44 247.281 335.44 236.591C335.44 236.591 335.44 236.151 335.44 236.141C335.44 235.521 335.46 235.061 335.48 234.691C336.16 225.791 339.45 216.291 344.99 207.221C347.24 203.541 348.37 199.381 348.37 195.231C348.37 190.981 347.2 186.741 344.85 183.001C340.16 175.541 337.79 167.221 337.79 158.281C337.79 152.091 338.94 145.561 341.21 138.871C341.38 138.361 341.67 137.691 342.07 136.871C343.62 133.691 344.39 130.251 344.39 126.811C344.39 123.001 343.44 119.191 341.55 115.751C340.59 113.911 338.98 109.601 338.98 101.271C338.98 98.521 339.16 95.691 339.49 93.091C339.67 91.691 340.16 90.521 340.67 89.471C342.09 86.521 342.86 83.291 342.94 80.021C349.44 79.771 356.52 80.161 365.19 81.221C367.78 82.061 370.5 82.421 373.22 82.301L377.09 82.861C382.76 83.681 387.95 84.441 393.4 85.001C401.91 85.891 410.25 85.561 419.62 83.971C421.37 84.431 423.18 84.681 424.99 84.721C428.5 84.791 432.41 84.261 438.41 83.251C441.39 82.751 443.93 82.321 445.74 82.281C446.03 82.281 446.29 82.281 446.55 82.281C455.92 82.621 464.57 77.241 468.39 68.681C475.47 65.211 481.13 61.331 485.71 56.831C489.17 60.281 493.63 62.531 498.46 63.281L498.78 63.491C506.17 68.391 515.72 68.601 523.32 64.041C525.67 62.631 528.36 61.801 531.8 61.421C535.1 61.061 538.28 59.981 541.13 58.271C548.75 59.291 555.19 61.341 560.84 64.541L562.15 65.281C567.58 68.331 575 72.501 578.12 77.651C579.31 79.611 579.98 81.741 580.69 84.001L580.92 84.741C583.21 92.011 588.97 97.761 596.26 99.951C601.04 101.391 606.59 101.661 611.88 100.711C615.05 103.211 618.83 104.841 622.83 105.411C639.38 107.801 652.5 101.481 659.79 87.621C662.31 82.831 663.69 79.241 664.28 76.001C664.52 74.651 664.65 73.281 664.65 71.911C664.65 69.821 664.45 67.731 664.27 65.711C664.07 63.531 663.84 61.041 663.72 57.941C663.71 57.661 663.71 57.451 663.71 57.241C663.71 54.771 664.37 53.241 665.51 53.021C669.03 52.341 676.64 61.351 680.12 68.951C681.78 73.251 682.6 77.431 682.6 81.471C682.6 86.861 681.23 91.951 678.41 97.021C676.46 100.531 675.51 104.371 675.51 108.191C675.51 114.151 677.82 120.031 682.25 124.461C682.25 124.471 682.4 124.631 682.4 124.641C682.41 124.711 682.46 124.931 682.49 125.551C680.55 129.641 678.44 133.851 676.23 138.041C674.46 141.401 673.57 145.091 673.57 148.771C673.57 152.801 674.63 156.821 676.73 160.411C674.87 163.831 673.93 167.611 673.93 171.401C673.93 174.901 674.73 178.401 676.32 181.621C676.65 182.281 676.94 183.051 677.19 183.901C675.78 187.491 674.46 191.091 673.27 194.591C672.45 197.001 672.04 199.501 672.04 202.001C672.04 204.901 672.59 207.791 673.68 210.531C675.94 218.001 681.86 223.851 689.36 226.001C689.88 226.151 690.06 226.241 690.07 226.241C690.07 226.311 690.24 226.521 690.24 227.361C690.24 229.321 689.27 233.191 688 238.041L687.89 238.461C687.39 240.391 686.74 242.941 686.49 244.141C686.3 245.071 686.16 246.011 686.08 246.961C685.95 248.581 685.88 250.171 685.88 251.661C685.88 259.051 687.5 263.591 689.07 267.981C690.09 270.831 691.13 273.751 691.63 277.321C692.34 289.481 702.4 298.971 714.59 298.971H750.35C756.49 298.971 762.38 296.511 766.7 292.141C772.27 294.221 776.66 296.221 780.54 298.421C780.83 302.531 782.21 306.491 784.55 309.881C786.51 312.721 789.17 317.161 789.7 322.911C789.83 324.381 789.9 325.801 789.9 327.151C789.9 334.971 787.68 339.681 785.53 344.221C783.89 347.691 782.34 350.971 781.9 355.421C781 364.261 780.42 381.411 780.42 399.051C780.42 415.521 780.93 429.331 781.81 436.941C782.08 439.281 782.71 441.561 783.67 443.711C784.04 444.531 784.71 445.901 785.25 446.961C787.27 450.961 789.55 455.481 789.55 461.851V462.501C789.4 468.891 787.06 473.851 785 478.241C784.51 479.281 783.89 480.621 783.52 481.471C782.5 483.851 781.89 486.391 781.72 488.981C781.67 489.691 781.61 490.921 781.61 493.021V496.451C781.62 499.041 781.62 503.541 779.93 507.431C778.66 510.361 778.02 513.481 778.02 516.601C778.02 519.741 778.66 522.891 779.95 525.831C781.83 530.111 782.74 534.681 782.74 539.781C782.74 543.091 782.36 546.591 781.57 550.491C781.33 551.681 780.97 552.771 780.48 553.831C779.03 556.931 778.3 560.261 778.3 563.601C778.3 567.181 779.13 570.751 780.8 574.021C781.18 574.771 781.45 575.501 781.62 576.251C782.49 580.111 782.95 584.261 782.95 588.261C782.95 593.911 781.7 612.551 765.62 615.011C750.53 617.321 705.55 616.821 689 615.231C672.37 613.631 670.4 604.621 669.45 600.291C667.51 591.441 660.55 584.561 651.69 582.711C646.45 581.621 641.66 579.471 637.84 576.501C636.81 575.701 635.85 574.851 634.97 573.951C630.69 569.601 624.86 567.131 618.76 567.081C612.66 567.031 606.79 569.411 602.44 573.691C599.15 576.931 591.03 576.881 585.09 576.841H583.67C580.51 576.811 577.38 577.451 574.48 578.691L574.3 578.771C572.32 579.591 570.28 580.431 568.39 580.421C567.35 580.421 566.23 580.171 564.87 579.641C560.74 578.031 556.24 577.651 551.9 578.541C550.15 578.901 548.72 578.981 547.41 578.781C544.71 578.381 543 576.681 540.71 574.121L540.69 574.101C539.01 572.201 536.99 570.561 534.78 569.311C531.76 567.601 528.26 565.781 524.92 564.171C517.08 560.401 507.79 561.381 500.9 566.691C499.05 568.121 497.15 569.601 495.55 570.841C487.93 576.771 480.03 582.921 476.72 584.811C471.24 587.951 464.8 591.021 457.6 593.941C451.03 596.601 446.06 602.151 444.12 608.971C443.53 611.041 443.24 613.151 443.24 615.251C443.24 620.091 444.76 624.851 447.68 628.841C448.78 630.651 450.13 632.321 451.68 633.761C454.97 636.821 455.38 640.831 455.59 646.161C455.02 648.201 454.73 650.291 454.73 652.391C454.73 653.841 454.87 655.281 455.14 656.711C455.26 657.331 455.32 657.911 455.32 658.471V658.571C455.23 668.161 446.13 692.321 440.62 699.701C439.94 700.601 438.96 701.321 437.32 702.091C434.33 703.501 431.67 705.541 429.54 708.071C425.61 709.201 422.03 711.381 419.21 714.351C417.44 716.211 414.03 717.151 411.54 717.831L411.3 717.901C410.44 718.131 409.61 718.371 408.83 718.631C408.68 718.681 408.52 718.741 408.36 718.791C406.17 719.031 404.03 719.591 402 720.431C401.52 720.631 401.06 720.741 400.53 720.761C400.08 720.781 399.25 720.741 397.4 720.061C394.15 718.881 390.67 718.441 387.23 718.791C386.07 718.731 384.93 718.761 383.78 718.881C379.33 719.341 376.26 717.631 372.08 714.971L370.8 714.161C367.69 711.381 363.75 709.411 359.65 708.621C358.37 708.381 357.43 708.051 356.68 707.601C356.24 707.331 355.73 706.931 355.15 705.881C350.11 696.871 339.69 692.331 329.66 694.761C328.24 695.111 326.71 695.381 325.12 695.571C318.14 696.411 311.93 700.391 308.26 706.381C306.01 710.041 304.86 714.211 304.86 718.411C304.86 721.071 305.32 723.751 306.26 726.311C307.41 729.471 307.98 732.381 307.98 735.211C307.98 739.701 306.46 743.881 303.45 747.631C299.54 752.511 295.17 755.071 290.12 755.471C285.7 755.811 280.87 754.441 275.34 751.261C269.01 747.631 261.34 747.221 254.66 750.151C247.98 753.081 243.09 759.001 241.47 766.121C241.03 768.041 240.44 769.771 239.7 771.281C236.32 778.161 229.38 780.651 215.74 779.851L215.35 779.831C214.59 779.791 213.91 779.751 213.31 779.741C211.89 778.261 210.23 776.991 208.46 775.981C207.05 771.861 204.42 768.181 201.02 765.451C197.69 760.161 192.34 756.441 186.22 755.181C180.1 753.911 173.72 755.181 168.56 758.721C166.68 760.011 163.6 760.691 160.84 761.181C158.61 761.581 156.45 762.311 154.43 763.341C152.34 763.451 150.33 763.751 148.43 764.241L145.97 762.871L137.01 757.811C134.34 753.111 132.83 748.121 132.49 742.961C132.44 742.231 132.42 741.541 132.42 740.861C132.42 739.731 132.48 738.621 132.59 737.551C132.68 736.741 132.72 735.931 132.72 735.131C132.72 729.581 130.71 724.191 127.02 719.971C122.79 715.141 116.74 712.311 110.33 712.141C104.66 711.991 94.55 710.841 90.5 704.801C86.02 698.111 85.89 690.571 85.89 689.731C86.06 682.551 88.49 677.191 93.76 672.471C98.64 668.111 101.42 661.871 101.42 655.331C101.42 655.241 101.42 655.151 101.42 655.061C101.34 648.431 98.4 642.151 93.35 637.841C87.2 632.591 84.08 625.851 84.08 617.821C84.08 615.961 84.25 614.001 84.57 612.011C85.48 606.471 87.74 602.391 91.26 599.901C93.87 598.061 96.94 597.051 100.93 596.711C107.78 596.141 114.02 592.531 117.93 586.881C120.62 582.991 122.02 578.421 122.02 573.791C122.02 571.691 121.73 569.571 121.14 567.501C120.48 565.171 120.15 562.881 120.15 560.521C120.15 556.851 121.01 553.151 122.71 549.521C126.11 542.241 130.77 538.101 136.54 537.231C140.67 536.601 145.32 537.621 150.75 540.321C158.17 544.011 167 543.431 173.87 538.801C180.24 534.511 184.01 527.341 184.01 519.741C184.01 519.141 183.99 518.541 183.94 517.941C183.59 513.491 183.17 508.951 182.69 504.431C184.74 501.071 186.94 497.521 189.25 494.231C191.81 492.841 194.8 492.031 197.97 491.171L198.44 491.041C199.91 490.641 201.38 490.231 202.78 489.761C204.37 490.371 206.11 490.871 207.87 491.201C212.17 493.421 216.2 495.821 219.9 498.351C221.01 501.101 222.64 503.601 224.7 505.731C225.08 508.541 225.47 511.051 226 513.201C226.29 514.341 226.61 515.361 227.01 516.451L227.28 518.851C228.22 526.941 233.37 533.941 240.82 537.231C248.27 540.521 256.92 539.631 263.53 534.881C269.52 530.581 275.18 529.591 282.44 531.571C290.71 533.821 294.74 539.351 294.74 548.451C294.74 551.241 294.34 554.431 293.53 557.941C293.14 559.631 292.96 561.351 292.96 563.051C292.96 568.421 294.84 573.671 298.37 577.861C303.02 583.381 309.98 586.391 317.18 586.011C318.05 585.971 318.92 585.941 319.79 585.941C328.54 585.981 336.55 581.061 340.47 573.241C341.11 571.971 341.86 570.751 342.7 569.611C343.12 569.041 343.69 568.421 344.39 567.801C349.02 563.641 351.76 557.781 351.99 551.561L352.06 549.421C352.37 539.751 353.05 532.051 358.57 528.011C361.28 527.351 363.86 526.201 366.16 524.621C367.21 523.901 368.78 522.711 369.92 521.841C373.5 519.091 377.16 516.271 380.87 516.081L381.29 516.061C381.29 516.061 385 516.241 396.16 520.681C403.89 523.751 409.1 526.551 410.08 528.141C410.46 528.761 410.79 529.481 411.11 530.361C413.27 536.431 417.89 541.321 423.83 543.831C429.77 546.341 436.49 546.241 442.36 543.541C443.86 542.861 445.32 542.151 446.74 541.401C450.8 539.261 457.93 534.571 461.51 532.121C467.8 527.841 471.56 520.721 471.56 513.111V512.671C472.3 497.361 472.49 496.941 477.43 486.241L477.62 485.841C478.74 483.431 479.43 480.851 479.67 478.211C479.8 476.771 479.99 475.121 480.56 473.731L480.66 473.491C482.03 470.471 482.72 467.231 482.72 463.981C482.72 461.151 482.2 458.321 481.15 455.631C480.37 453.621 479.54 451.301 479.34 449.201C479.96 443.131 486.43 422.401 489.22 416.681C489.55 416.241 489.97 415.801 490.5 415.371C495.95 410.861 498.84 404.301 498.84 397.641C498.84 393.501 497.72 389.321 495.41 385.571C493.58 382.601 492.03 380.291 490.82 378.711C482.67 368.261 471.61 359.631 458.69 353.571C452.51 350.671 445.37 350.671 439.19 353.551C433.01 356.441 428.43 361.921 426.69 368.511C423.4 380.951 417.86 389.901 409.26 396.661C402.66 401.841 395.13 405.201 387.46 406.361C376.19 408.071 367.91 417.771 367.91 429.091C367.91 429.371 367.93 430.431 367.93 430.431C367.93 431.951 367.67 433.511 367.14 435.061C365.55 436.131 364.1 437.391 362.83 438.821C359.8 442.221 355.77 443.691 345.04 440.581C344.12 440.311 342.94 439.971 342.04 439.741C338.4 438.791 334.58 438.751 330.91 439.631L329.82 439.901C326.06 440.831 322.48 441.711 316.83 439.341C316.19 439.071 315.56 438.661 314.86 438.061C311.01 434.751 306.18 432.801 301.11 432.521C296.76 432.281 292.82 431.581 288.63 425.391C285.38 420.591 283.02 417.731 280.53 414.701C278.91 412.741 277.26 410.731 275.27 408.091C271.71 403.351 269.98 398.881 269.98 394.441C269.98 389.511 272.08 385.281 274.12 381.181L274.7 379.991C276.28 376.771 277.06 373.301 277.06 369.851C277.06 364.771 275.38 359.731 272.11 355.591C271.68 355.051 271.23 354.481 270.83 353.991C266.73 348.911 264.03 345.141 264.03 339.291C264.03 338.701 264.06 338.081 264.13 337.451C264.21 336.671 264.25 335.891 264.25 335.111C264.25 324.551 257 315.211 246.53 312.741C149.61 289.881 76.9 230.561 36.26 141.201C34.74 137.871 33.18 132.931 31.53 127.701L31.46 127.471C30.63 124.841 29.49 121.241 28.44 118.281C26.49 112.771 22.51 108.211 17.32 105.521C16.07 104.871 15.21 104.211 14.63 103.431C9.19 96.061 0.09 71.891 0 62.311V62.241ZM94.43 59.691C94.43 56.301 93.69 52.921 92.24 49.851C92.24 49.831 92.23 49.821 92.23 49.821C90.25 41.271 83.58 34.601 75.04 32.611C72.16 30.611 68.82 29.281 65.35 28.751C60.97 27.411 56.34 27.431 51.96 28.771C47.65 29.551 43.72 31.521 40.51 34.491C37.13 36.941 34.47 40.261 32.84 44.091C30.72 47.231 29.42 50.851 29.04 54.611C28.45 56.671 28.16 58.791 28.16 60.921C28.16 63.051 28.44 65.081 29 67.101C29.66 75.431 34.79 82.791 42.4 86.251L42.34 86.181C47.92 92.951 56.87 95.961 65.43 93.921C68.88 93.381 72.15 92.071 75.02 90.081C83.59 88.101 90.26 81.421 92.24 72.861C93.51 69.961 94.16 66.821 94.16 63.661C94.16 63.541 94.16 63.411 94.16 63.291C94.35 62.101 94.44 60.901 94.44 59.691H94.43ZM191.79 175.671C191.79 171.851 190.84 168.061 188.97 164.641C185.34 158.001 179.12 153.201 171.46 151.141C161.7 148.501 148.41 150.511 140.43 164.131C140.03 164.811 139.67 165.501 139.35 166.211C137.47 170.341 137.07 174.511 137.07 177.291C137.07 180.071 137.44 182.881 138.18 185.641C139.93 192.201 144.48 197.651 150.63 200.531C156.77 203.411 163.88 203.441 170.04 200.591C173.11 199.181 176.43 197.571 179.15 196.201C184.71 193.401 188.9 188.451 190.75 182.501C191.45 180.271 191.79 177.961 191.79 175.661V175.671ZM163.28 218.411C162.69 220.481 162.4 222.601 162.4 224.701C162.4 230.161 164.35 235.521 168.01 239.761C168.11 239.871 168.2 239.981 168.29 240.111C168.38 240.221 168.47 240.361 168.55 240.491C172.84 247.291 180.37 251.361 188.41 251.221H189.04C196.57 251.391 203.71 247.861 208.14 241.771C208.16 241.751 208.26 241.611 208.28 241.581C208.38 241.451 208.48 241.331 208.57 241.211C212.35 236.951 214.37 231.501 214.37 225.951C214.37 223.921 214.1 221.881 213.55 219.881C213.48 219.621 213.42 219.351 213.36 219.061C211.93 211.591 206.9 205.311 199.92 202.281L199.35 202.021C192.59 198.731 184.65 198.951 178.08 202.601C177.78 202.771 177.62 202.841 177.44 202.911C170.2 205.591 164.8 211.731 163.04 219.241C163.12 218.901 163.24 218.511 163.26 218.421L163.28 218.411ZM241.94 613.891C241.83 613.791 241.76 613.691 241.7 613.561C238.01 606.101 230.59 601.221 222.28 600.781C221.91 600.621 221.59 600.441 221.33 600.251C213.06 594.351 201.9 594.571 193.87 600.801C183.92 601.131 175.32 607.811 172.54 617.371C172.47 617.621 172.36 617.851 172.21 618.031C168.97 622.161 167.32 627.171 167.32 632.211C167.32 636.071 168.29 639.951 170.26 643.461C170.32 643.571 170.41 643.931 170.41 644.461C170.41 644.691 170.39 644.881 170.35 645.081C169.95 646.791 169.76 648.521 169.76 650.241C169.76 656.191 172.07 661.981 176.32 666.331C176.5 666.541 176.6 666.721 176.67 666.941C179.85 677.201 189.71 683.901 200.42 683.061C201 683.021 201.35 683.071 201.65 683.191C209.37 686.131 218.08 684.691 224.46 679.441C233.09 677.501 239.84 670.781 241.82 662.161L242 661.961C247.71 657.571 250.99 650.791 250.99 643.721C250.99 642.511 250.9 641.281 250.7 640.061C251.49 637.671 251.87 635.221 251.87 632.811C251.87 625.411 248.28 618.261 241.94 613.891ZM351.3 326.471C351.3 316.961 345.39 308.281 336.27 304.911C335.35 304.571 334.54 304.151 333.8 303.621C333.38 303.321 332.99 302.981 332.59 302.561C325.61 295.111 314.54 293.151 305.43 297.771C304.77 298.111 304.14 298.351 303.53 298.501C302.67 298.721 301.78 298.861 300.77 298.921C290.2 299.651 281.5 307.501 279.69 317.931C279.55 318.751 279.38 319.481 279.17 320.161C278.89 321.071 278.5 321.881 277.94 322.711C275.26 326.641 273.94 331.171 273.94 335.671C273.94 341.251 275.97 346.801 279.94 351.161C280.35 351.621 280.69 352.091 280.96 352.621C281.29 353.251 281.56 353.981 281.78 354.851C284.62 365.691 294.86 372.891 306.02 371.921C307.27 371.811 308.29 371.861 309.23 372.091C309.57 372.171 309.91 372.271 310.29 372.411C320.32 376.051 331.54 372.311 337.38 363.381C337.57 363.091 337.76 362.861 337.97 362.661C338.36 362.291 338.85 361.961 339.51 361.641C347.46 357.671 352.24 349.611 352.24 341.061C352.24 339.031 351.97 336.971 351.41 334.931C351.18 334.081 351.03 333.251 350.98 332.391C350.96 332.121 350.96 331.841 350.96 331.551C350.96 330.911 351 330.251 351.1 329.541C351.24 328.511 351.31 327.481 351.31 326.461L351.3 326.471ZM452.77 239.371C452.77 235.131 451.6 230.871 449.22 227.101C447.85 224.921 446.27 222.251 444.18 218.731L443.96 218.371C434.03 201.621 417.02 191.861 398.47 192.281C380.91 192.681 365.92 202.121 357.34 218.211C357.14 218.591 356.95 218.971 356.77 219.351C354.18 224.941 352.5 234.621 352.5 244.031C352.5 247.121 352.68 250.071 353.03 252.791C354.1 261.091 359.6 268.161 367.39 271.231C368.54 271.681 369.46 272.221 370.27 272.911C371.29 273.771 372.09 274.911 372.88 276.591C375.77 282.771 381.26 287.351 387.86 289.091C397.33 291.581 408.87 290.381 419.5 285.791C431.16 280.771 444.44 270.021 446.75 254.901C450.73 250.551 452.77 244.981 452.77 239.381V239.371ZM412.23 358.101C412.23 355.631 412 352.861 411.66 348.911C411.51 347.131 411.35 345.391 411.23 343.611C410.63 334.521 404.72 326.651 396.16 323.531C387.61 320.411 378.02 322.631 371.7 329.191C370.34 330.601 368.84 331.971 367.39 333.301C366.72 333.911 365.85 334.701 365.09 335.421C361.99 338.341 359.75 342.061 358.64 346.171C357.5 350.381 355.74 357.431 355.02 360.821C354.69 362.381 354.52 363.981 354.52 365.581C354.52 366.251 354.56 367.011 354.61 367.681C355.26 375.031 359.4 381.631 365.74 385.411C373.07 389.781 382.99 390.611 391.61 387.561C402.59 383.671 410 374.281 411.94 361.791C412.1 360.731 412.2 359.661 412.21 358.591C412.21 358.481 412.21 358.211 412.21 358.101H412.23ZM412.54 148.991C412.54 144.721 412.01 141.111 411.59 138.201L411.43 137.111C410.15 128.121 403.7 120.731 394.98 118.231C386.25 115.741 376.87 118.611 371.04 125.571C370.24 126.521 369.43 127.451 368.64 128.361C361.06 137.101 355.22 144.561 354.65 154.231C354.59 155.161 354.56 156.081 354.56 157.001C354.56 176.021 366.87 185.331 379.06 186.121C393.34 187.071 409.28 177.031 412.06 156.021C412.37 153.641 412.53 151.331 412.53 148.971L412.54 148.991ZM412.85 551.631C412.85 549.271 412.49 546.901 411.75 544.611L411.66 544.331C409.06 536.221 402.19 530.201 393.8 528.711C393.73 528.701 393.61 528.671 393.42 528.591C386.43 525.331 378.24 525.781 371.66 529.811C364.93 533.661 360.44 540.741 359.97 548.491L359.92 549.041C359.76 550.141 359.68 551.241 359.68 552.331C359.68 558.901 362.5 565.231 367.52 569.631C372.62 575.191 380.31 578.071 387.78 577.041C387.9 577.021 388.02 577.011 388.16 577.001H388.56C397.06 577.001 404.87 572.301 408.86 564.791C409.19 564.171 409.53 563.551 409.88 562.911C411.84 559.431 412.84 555.541 412.84 551.621L412.85 551.631ZM426.35 650.921C425.97 647.151 424.65 643.481 422.53 640.341C420.9 636.521 418.26 633.211 414.89 630.771C411.68 627.811 407.66 625.791 403.36 625.011C398.97 623.671 394.33 623.681 389.95 625.011C386.51 625.541 383.25 626.851 380.38 628.831C371.83 630.821 365.1 637.521 363.13 646.071C361.68 649.151 360.93 652.521 360.93 655.901C360.93 657.091 361.02 658.291 361.21 659.471C361.21 659.601 361.21 659.721 361.21 659.851C361.21 663.021 361.86 666.191 363.13 669.091C365.11 677.661 371.8 684.351 380.37 686.321C383.24 688.321 386.51 689.631 389.97 690.161C398.43 692.181 407.27 689.251 412.87 682.621C420.49 679.151 425.74 671.681 426.38 663.331C426.95 661.311 427.23 659.231 427.23 657.161C427.23 655.051 426.94 652.941 426.36 650.891L426.35 650.921ZM587.01 240.601C587.01 206.391 570.54 174.751 541.84 153.801C515.52 134.581 482.16 127.241 447.93 133.111C437.71 134.861 429.93 143.231 428.93 153.551C428.64 156.531 428.15 159.521 427.42 162.701C427.03 164.411 426.84 166.141 426.84 167.851C426.84 175.571 430.74 182.921 437.43 187.211C442.16 190.241 446.49 193.851 449.63 197.381C453.31 201.521 455.46 205.921 457.72 210.581C459.32 213.881 460.97 217.271 463.15 220.271C465.33 223.271 467.97 225.631 471.75 228.891C475.62 232.221 479.25 235.351 482.06 239.691C484.62 243.641 492.95 257.651 492.95 272.181C492.95 277.201 491.95 281.581 489.98 285.201C488.08 288.681 487.18 292.451 487.18 296.181C487.18 303.691 490.86 311.011 497.54 315.401C503.7 319.461 509.68 323.991 515.32 328.871C523.95 336.341 536.76 336.361 545.4 328.901C546.13 328.271 546.83 327.681 547.49 327.131C550.11 324.921 552.77 322.671 555.04 320.051C575.97 295.801 587.04 268.331 587.04 240.601H587.01ZM483.09 504.151C483.09 504.301 483.07 504.461 483.04 504.631C482.75 506.091 482.61 507.571 482.61 509.041C482.61 512.601 483.44 516.121 485.05 519.341C485.54 525.231 488.27 530.701 492.69 534.631C492.71 534.651 492.73 534.661 492.75 534.681C495.5 540.031 500.27 544.131 505.98 546.031C505.98 546.031 506.04 546.081 506.13 546.151C509.58 549.271 513.91 551.291 518.52 551.911C524.24 555.241 531.22 555.961 537.5 553.851C537.52 553.851 537.6 553.831 537.76 553.831C543.62 554.771 549.71 553.401 554.59 550.011C560.58 548.901 565.88 545.481 569.33 540.461C574.65 537.701 578.88 532.791 580.77 527.091C584.39 522.951 586.45 517.591 586.49 512.081C586.49 511.931 586.52 511.851 586.55 511.791C588.1 508.621 588.9 505.161 588.9 501.661C588.9 500.231 588.77 498.791 588.5 497.371V496.981C588.52 496.661 588.52 496.351 588.52 496.031C588.52 490.461 586.49 485.171 582.79 480.961L582.74 480.761C581.28 475.391 577.92 470.741 573.29 467.661C569.71 462.591 564.02 458.961 557.88 457.991C554.17 455.531 549.82 454.201 545.37 454.171C545.04 454.161 544.75 454.121 544.5 454.051C538.7 452.421 532.49 453.131 527.21 456.041C526.66 456.341 526.04 456.511 525.79 456.491C520.14 456.031 514.51 457.671 509.99 461.101C509.72 461.301 509.49 461.441 509.29 461.521C503.68 463.581 499.1 467.751 496.51 473.141C491.53 476.731 488.04 482.301 487.09 488.371C487.07 488.511 487.02 488.611 487 488.641C484.37 492.481 482.98 497.011 482.98 501.631C482.98 502.361 483.02 503.101 483.09 503.841C483.09 503.941 483.11 504.051 483.11 504.161L483.09 504.151ZM561.78 89.231C561.72 87.441 561.54 85.721 561.24 84.101C559.67 75.621 553.47 68.731 545.21 66.261C541.21 65.071 536.41 64.621 531.33 64.981C522.62 65.591 515 71.081 511.67 79.151C510.01 83.181 509.06 87.061 508.84 90.711C508.81 91.161 508.8 91.601 508.8 92.051C508.8 100.041 512.96 107.511 519.85 111.701C528.88 117.191 544 117.901 553.68 109.581C558.5 105.441 561.22 99.671 561.63 93.701C561.72 92.821 561.79 91.711 561.79 90.411C561.79 90.251 561.77 89.321 561.77 89.231H561.78ZM671.36 438.311C671.36 427.751 664.07 418.281 653.4 415.881C643.2 413.591 635.52 410.701 628.78 403.381C628.63 403.211 628.48 403.051 628.34 402.881C620.8 393.991 607.81 392.151 598.1 398.581C587.6 400.361 563 404.561 563 430.711C563 432.501 563.11 434.401 563.31 436.371C563.67 439.761 564.78 443.031 566.55 445.931C568.12 448.491 570.41 451.641 572.7 454.361C576.34 458.681 581.45 461.511 587.04 462.311C588.55 462.521 590.27 462.741 591.66 462.911C597.92 463.681 603.64 464.381 605.33 466.101C606.3 467.081 606.97 469.761 607.62 472.351L608.04 474.001C610.89 484.971 621.31 492.231 632.59 491.101C632.78 491.081 632.97 491.071 633.17 491.081C634.98 491.111 636.75 491.391 638.73 491.941C647.46 494.401 656.83 491.501 662.64 484.541C668.8 477.161 672.33 466.331 672.33 454.841C672.33 450.621 671.86 446.541 670.92 442.691C671.2 441.221 671.34 439.751 671.34 438.311H671.36ZM617.29 128.421C612.54 126.031 607.09 125.341 601.9 126.501C598.6 127.011 595.47 128.231 592.69 130.091C591.99 130.561 591.28 131.091 590.63 131.631C585.36 136.051 582.4 142.531 582.4 149.251C582.4 150.621 582.52 151.991 582.77 153.361C583.31 156.801 584.63 160.071 586.62 162.931C590.95 170.461 599.12 174.871 607.8 174.391C610.89 174.371 613.91 173.741 616.74 172.521C616.99 172.411 617.25 172.291 617.51 172.171C625.53 168.381 630.69 160.301 630.69 151.371C630.75 150.701 630.78 150.041 630.78 149.371C630.78 140.411 625.56 132.161 617.3 128.401L617.29 128.421ZM738.72 504.921C738.72 498.991 736.42 493.241 732.24 488.921C727.29 483.811 720.27 481.281 713.2 482.061C710.87 482.321 708.95 482.591 707.32 482.901C697.87 480.221 687.77 483.841 682.17 491.921L682.04 492.101C679.03 496.171 677.54 500.971 677.54 505.761C677.54 511.041 679.35 516.301 682.94 520.571C683.62 521.381 684.11 522.821 684.45 523.971C685.52 527.541 687.43 530.791 690.03 533.451C690.87 534.311 691.75 535.231 692.48 536.141C693.12 536.931 693.79 537.661 694.51 538.351C694.35 538.841 694.2 539.331 694.08 539.831C694.04 540.001 693.96 540.161 693.85 540.321C690.44 544.281 688.42 549.351 688.22 554.571C688.19 555.301 688.13 555.941 688.01 556.551C687.66 558.421 686.91 560.321 686.19 562.151L685.96 562.731C684.87 565.451 684.32 568.351 684.32 571.271C684.32 571.591 684.32 571.911 684.34 572.231C684.4 573.671 684.53 575.291 684.75 577.321C685.99 589.011 695.86 597.881 707.62 597.881C718.84 597.881 728.45 589.781 730.32 578.721C733.77 575.341 736.08 570.941 736.9 566.181C737.32 563.741 737.62 561.041 737.82 559.251C738.1 556.731 738.37 554.241 738.9 552.451C739.53 550.311 739.83 548.131 739.83 545.971C739.83 539.561 737.15 533.321 732.24 528.901C734.63 525.951 736.26 522.441 736.97 518.711C737.43 516.281 737.8 513.451 738.11 510.981C738.23 510.061 738.34 509.131 738.48 508.171C738.63 507.091 738.71 506.001 738.71 504.921H738.72Z" fill="#CB7AE5"/>
<path d="M29.28 117.031C29.28 111.561 31.23 106.191 34.92 101.941C40.21 95.861 48.29 92.991 56.23 94.371C59.07 94.871 61.91 94.831 64.68 94.271C72.51 92.681 80.6 95.271 86.05 101.111C90.08 105.421 92.25 111.061 92.25 116.821C92.25 118.851 91.98 120.891 91.43 122.891C90.88 124.881 90.61 126.951 90.61 129.031C90.61 133.011 91.65 136.951 93.63 140.411C97.08 146.501 102.99 150.611 109.86 151.761C111.21 151.981 112.58 152.091 113.94 152.081C120.25 152.031 126.31 154.571 130.69 159.121C134.83 163.411 137.13 169.141 137.13 175.081C137.13 175.421 137.13 175.771 137.11 176.121C137.09 176.601 137.08 177.051 137.08 177.471C137.08 180.251 137.45 183.061 138.19 185.821C139.87 192.141 144.17 197.451 149.99 200.401C157.76 204.341 162.58 212.301 162.58 220.901C162.58 221.561 162.55 222.221 162.49 222.891C162.43 223.561 162.4 224.231 162.4 224.891C162.4 227.401 162.81 229.881 163.61 232.261C164.43 234.691 164.83 237.181 164.83 239.641C164.83 246.901 161.39 253.911 155.25 258.321C147.04 264.221 135.93 264.061 127.89 257.931C88.72 228.071 57.92 188.861 36.33 141.391C34.92 138.271 33.54 134.021 31.6 127.891C31.59 127.851 30.83 125.431 30.4 124.101C29.65 121.781 29.29 119.401 29.29 117.031H29.28ZM84.26 619.191C84.26 615.181 85.31 611.191 87.37 607.641C90.76 601.801 96.54 597.751 103.19 596.551C109.22 595.471 114.47 592.081 117.98 587.011C120.65 583.151 122.07 578.621 122.07 573.921C122.07 571.991 121.83 570.051 121.34 568.171C120.85 566.271 120.61 564.341 120.61 562.431C120.61 555.881 123.41 549.531 128.49 545.101C135.05 539.381 144.27 537.851 152.32 541.151C159.46 544.071 167.53 543.251 173.92 538.941C178.91 535.571 182.34 530.491 183.57 524.631C185.73 514.331 194.61 506.811 205.13 506.381C215.65 505.951 225.12 512.711 228.12 522.801C230.06 529.341 234.71 534.651 240.87 537.371C246.97 540.071 254.23 539.921 260.29 536.981C267.86 533.301 276.84 534.051 283.7 538.941C289.79 543.291 293.35 550.291 293.35 557.661C293.35 558.581 293.29 559.511 293.18 560.431C293.07 561.351 293.01 562.281 293.01 563.191C293.01 568.601 294.93 573.861 298.42 578.001C303.04 583.481 310.07 586.531 317.23 586.151C318.07 586.111 318.9 586.081 319.72 586.081C327.19 586.121 333.9 582.821 338.26 577.031C341.95 572.131 347.44 568.911 353.51 568.081C359.58 567.251 365.74 568.871 370.61 572.601C375.4 576.261 381.28 577.931 387.17 577.281C387.82 577.211 388.47 577.171 389.12 577.151C397.41 576.951 404.98 572.281 408.87 564.961C409.2 564.341 409.54 563.711 409.9 563.071C410.39 562.191 410.84 561.251 411.23 560.281C414.72 551.481 423.25 545.721 432.72 545.761C436.06 545.781 439.42 545.051 442.42 543.681C443.94 542.981 445.4 542.271 446.81 541.541C450.29 539.701 456.76 535.541 461.58 532.261L462.04 531.941C467.03 528.351 473.26 526.901 479.33 527.941C485.4 528.971 490.79 532.391 494.32 537.441C494.84 538.181 495.41 538.901 496.02 539.591C499.79 543.821 501.84 549.271 501.84 554.881C501.84 555.581 501.81 556.281 501.74 556.981C501.16 563.321 497.97 569.141 492.94 573.041C482.53 581.121 479.36 583.381 477.15 584.721C476.99 584.821 476.83 584.911 476.67 585.011C471.26 588.111 464.85 591.171 457.63 594.091C451.01 596.771 446.1 602.251 444.15 609.121C443.95 609.841 443.77 610.581 443.64 611.321C442.34 618.571 437.65 624.761 431.02 627.971C424.39 631.181 416.62 631.021 410.13 627.531C408.21 626.501 406.16 625.751 404.02 625.301C403.58 625.211 403.14 625.101 402.7 624.981C398.8 623.911 394.67 623.901 390.74 624.951C390.21 625.091 389.68 625.211 389.15 625.321C386.76 625.781 384.36 626.661 382.21 627.861C380.97 628.561 379.67 629.131 378.32 629.591C371.21 631.981 365.51 637.921 363.44 645.081C363.22 645.851 362.95 646.601 362.65 647.341C361.53 650.101 360.93 653.131 360.93 656.071C360.93 656.921 360.98 657.791 361.08 658.651C361.15 659.311 361.2 659.971 361.22 660.641C361.27 662.371 361.51 664.111 361.95 665.811C362.43 667.691 362.66 669.601 362.66 671.491C362.66 676.941 360.72 682.281 357.09 686.501C352.19 692.191 344.82 695.131 337.35 694.371C334.78 694.111 332.22 694.281 329.72 694.891C328.33 695.231 326.8 695.501 325.19 695.701C318.16 696.541 312.01 700.481 308.32 706.511C306.1 710.131 304.92 714.291 304.92 718.541C304.92 720.411 305.14 722.271 305.59 724.071C306.05 725.911 306.27 727.771 306.27 729.611C306.27 736.371 303.28 742.911 297.92 747.341C291.1 752.971 281.66 754.201 273.63 750.501C267.63 747.731 260.74 747.651 254.72 750.301C249.4 752.631 245.03 757.081 242.75 762.481C239.66 769.811 233 775.011 225.14 776.251C217.28 777.491 209.35 774.581 204.15 768.561C203.65 767.981 203.1 767.411 202.52 766.851C201.6 765.981 200.75 765.031 199.98 764.021C196.64 759.601 191.64 756.431 186.27 755.321C180.65 754.151 174.59 755.201 169.66 758.181C167.38 759.561 164.88 760.531 162.26 761.061L160.25 761.441C153.16 762.931 145.83 760.981 140.39 756.201C135.41 751.821 132.63 745.521 132.63 738.951C132.63 738.341 132.65 737.731 132.7 737.111C132.75 736.491 132.77 735.871 132.77 735.271C132.77 729.691 130.75 724.311 127.07 720.111C122.85 715.301 116.77 712.451 110.38 712.281C109.61 712.261 108.86 712.221 108.15 712.181C98.99 711.561 91.08 705.551 88.02 696.891C87.14 694.391 86.71 691.801 86.71 689.241C86.71 682.941 89.3 676.791 94.09 672.361C98.78 668.021 101.47 661.871 101.47 655.481C101.39 648.611 98.45 642.301 93.4 637.991C92.03 636.821 87.85 633.251 85.59 626.901C84.7 624.401 84.26 621.801 84.26 619.211V619.191ZM251.87 633.001C251.87 626.461 249.08 620.221 244.21 615.861C242.72 614.531 241.41 613.001 240.31 611.331C236.95 606.211 231.59 602.591 225.58 601.391C223.26 600.931 221.03 600.111 218.97 598.961C212.07 595.141 203.84 595.141 196.96 598.951C194.84 600.121 192.56 600.951 190.18 601.411C182.38 602.911 176.02 608.251 173.16 615.681C172.6 617.151 171.88 618.561 171.03 619.881C168.6 623.661 167.31 627.991 167.31 632.401C167.31 634.961 167.74 637.491 168.58 639.931C169.42 642.361 169.85 644.901 169.85 647.461C169.85 647.951 169.83 648.441 169.8 648.921C169.77 649.421 169.75 649.921 169.75 650.421C169.75 655.601 171.42 660.481 174.57 664.521C175.78 666.071 176.78 667.761 177.56 669.551C181.18 677.931 189.1 683.201 198.24 683.311C200.14 683.331 202.03 683.591 203.87 684.081C210.13 685.741 216.84 684.691 222.28 681.201C223.77 680.241 225.36 679.461 227.02 678.871C233.1 676.711 238.04 672.061 240.58 666.101C241.61 663.691 243.04 661.471 244.81 659.541C248.72 655.281 250.97 649.581 250.97 643.891C250.97 643.621 250.93 642.441 250.93 642.121C250.93 640.581 251.08 639.051 251.39 637.541C251.69 636.051 251.85 634.511 251.85 632.981L251.87 633.001ZM176.55 273.321C176.55 272.591 176.58 271.871 176.65 271.131C177.59 261.211 184.82 253.021 194.54 250.861C196.86 250.351 199.07 249.481 201.13 248.281C209.79 243.241 220.72 244.381 228.15 251.111C230.62 253.351 233.51 255.001 236.75 256.021C241.28 257.451 247.69 259.421 250.87 260.261C259.98 262.691 268.14 264.611 275.14 265.951C283.62 267.581 290.48 273.821 292.89 282.121C293.51 284.241 293.8 286.401 293.8 288.541C293.8 294.791 291.25 300.871 286.57 305.281C285.43 306.351 284.4 307.541 283.51 308.821C276.64 318.631 263.4 321.531 253.06 315.491C251.06 314.321 248.89 313.461 246.61 312.921C227 308.291 208.09 302.061 190.41 294.411C181.94 290.741 176.55 282.411 176.55 273.321ZM270.53 394.161C270.53 390.851 271.24 387.531 272.69 384.431C277.25 374.541 288.15 369.161 298.77 371.611C300.69 372.051 302.68 372.251 304.67 372.191C307.08 372.121 309.48 372.421 311.79 373.091C317.53 374.761 323.58 374.151 328.83 371.391C339.18 365.941 351.97 369.131 358.56 378.801C360.27 381.301 362.4 383.411 364.91 385.061C371.62 389.481 375.26 396.811 375.26 404.291C375.26 408.551 374.08 412.861 371.6 416.711C370.32 418.701 369.37 420.871 368.76 423.181C365.6 435.161 353.51 442.481 341.43 439.731C338.01 438.951 334.4 438.971 330.99 439.781C324.76 441.271 318.09 440.111 312.77 436.561C309.82 434.591 306.41 433.301 302.91 432.831C296.58 431.991 290.88 428.551 287.18 423.341C284.62 419.731 282.67 417.361 280.6 414.851C279 412.911 277.33 410.881 275.35 408.241L274.92 407.661C272.03 403.661 270.54 398.931 270.54 394.161H270.53ZM312.2 276.791C312.2 268.521 316.65 260.861 323.89 256.771C324.27 256.551 324.65 256.331 325.03 256.091C335.62 249.251 349.73 252.211 356.69 262.721C357.21 263.511 357.79 264.271 358.4 264.991C362.1 269.301 363.95 274.641 363.95 279.981C363.95 285.381 362.05 290.781 358.27 295.111C350.75 303.721 338.04 305.501 328.44 299.281C327.51 298.681 326.54 298.151 325.56 297.691C317.72 294.081 312.56 286.381 312.21 277.751C312.2 277.431 312.19 277.121 312.19 276.801L312.2 276.791ZM395.53 310.671C395.53 308.991 395.71 307.301 396.09 305.631C397.94 297.401 404.15 290.841 412.27 288.541C414.69 287.861 417.13 286.991 419.51 285.961C429.83 281.521 442.19 272.041 445.95 258.761C446.59 256.491 447.58 254.331 448.88 252.371L449.22 251.851C454.07 244.421 462.76 240.441 471.55 241.621C480.34 242.801 487.67 248.931 490.39 257.381C492.09 262.661 492.95 267.701 492.95 272.371C492.95 277.181 492.02 281.441 490.18 285.021C490.09 285.201 490 285.371 489.91 285.541C488.15 288.761 487.18 292.611 487.18 296.361C487.18 304.131 491.05 311.311 497.54 315.581C503.7 319.631 509.68 324.161 515.32 329.051C523.89 336.471 536.82 336.481 545.4 329.081C546.1 328.481 546.76 327.921 547.39 327.391C550.06 325.141 552.76 322.871 555.03 320.241C575.97 295.991 587.03 268.521 587.03 240.791C587.03 228.571 584.95 216.611 580.86 205.251C579.95 202.711 579.5 200.081 579.5 197.451C579.5 192.451 581.13 187.511 584.27 183.431C589.05 177.211 596.66 173.861 604.48 174.531C605.48 174.621 606.51 174.641 607.54 174.591C607.74 174.591 607.93 174.571 608.13 174.571C611.11 174.521 614.02 173.891 616.77 172.701C617.04 172.581 617.32 172.451 617.61 172.321C623.15 169.701 627.5 164.781 629.52 158.831C630.49 155.961 631.98 153.401 633.85 151.221C632.11 148.941 630.78 146.311 629.97 143.421C629.44 141.511 628.66 139.671 627.65 137.941C625.57 134.381 624.51 130.371 624.51 126.351C624.51 123.551 625.02 120.741 626.06 118.061C628.58 111.531 633.94 106.511 640.61 104.411C642.11 103.941 643.58 103.351 644.99 102.671C650.91 99.791 657.79 99.591 663.87 102.121C669.95 104.651 674.66 109.661 676.8 115.891C676.98 116.431 677.19 116.971 677.42 117.491C678.7 120.431 679.34 123.561 679.34 126.681C679.34 130.341 678.47 133.991 676.73 137.311L676.24 138.241C675.45 139.731 674.81 141.381 674.36 143.091C673.45 146.551 671.79 149.651 669.57 152.241C672.56 156.161 674.29 161.031 674.29 166.181C674.29 167.081 674.24 167.981 674.13 168.891C674.03 169.771 673.98 170.671 673.98 171.551C673.98 173.641 674.27 175.741 674.85 177.801C675.42 179.831 675.7 181.921 675.7 184.001C675.7 186.601 675.26 189.201 674.38 191.681C674.01 192.711 673.66 193.741 673.31 194.771C672.5 197.141 672.09 199.631 672.09 202.151C672.09 204.911 672.58 207.631 673.55 210.211C673.67 210.521 673.78 210.841 673.88 211.161C675.1 214.901 677.24 218.271 680.09 220.911C684.83 225.321 687.44 231.451 687.44 237.761C687.44 239.531 687.23 241.321 686.81 243.091C686.65 243.761 686.58 244.101 686.54 244.271C686.34 245.221 686.2 246.181 686.13 247.111C686 248.731 685.93 250.331 685.93 251.811C685.93 259.191 687.62 263.941 689.11 268.121C689.95 270.461 690.81 272.881 691.37 275.661C691.54 276.491 691.66 277.321 691.73 278.161C692.76 289.911 702.82 299.121 714.63 299.121H750.39C752.62 299.121 754.85 298.781 757.04 298.111C767.25 294.991 778.28 299.311 783.65 308.541C783.94 309.051 784.26 309.541 784.59 310.021C786.21 312.371 788.46 316.021 789.4 320.691C789.56 321.491 789.68 322.301 789.75 323.121C789.88 324.531 789.95 325.941 789.95 327.301C789.95 335.131 787.73 339.831 785.58 344.371C783.87 348.001 782.39 351.141 781.95 355.571C781.05 364.451 780.47 381.551 780.47 399.201C780.47 415.661 780.98 429.481 781.86 437.091C782.13 439.431 782.76 441.711 783.72 443.871C784.08 444.681 784.76 446.051 785.29 447.101C787.24 450.961 789.44 455.321 789.58 461.411C789.58 461.591 789.58 462.411 789.58 462.411C789.58 462.691 789.58 462.961 789.56 463.241C789.29 469.351 787.03 474.161 785.03 478.391C784.54 479.431 783.92 480.781 783.55 481.631C782.53 484.011 781.93 486.541 781.76 489.131L781.72 489.811C781.22 500.701 773.14 509.751 762.37 511.471C751.6 513.191 741.1 507.111 737.24 496.911C736.14 494.001 734.45 491.361 732.24 489.071C727.19 483.851 720.43 481.421 713.2 482.211C712.38 482.301 711.61 482.391 710.88 482.491C708.74 482.771 706.58 482.761 704.45 482.431C702.36 482.121 700.24 482.101 698.15 482.361C691.37 483.231 684.55 481.041 679.54 476.381C674.85 472.021 672.21 465.911 672.21 459.551C672.21 459.121 672.22 458.691 672.25 458.251C672.31 457.171 672.34 456.071 672.34 454.971C672.34 451.871 672.08 448.801 671.57 445.861C671.34 444.551 671.22 443.221 671.22 441.891C671.22 441.311 671.24 440.731 671.29 440.151C671.33 439.581 671.36 439.011 671.36 438.441C671.36 427.611 663.97 418.391 653.4 416.011C643.23 413.731 635.58 410.851 628.87 403.601C628.68 403.401 628.5 403.201 628.32 402.991C621.35 394.901 609.89 392.581 600.45 397.361C598.64 398.271 596.72 398.951 594.74 399.361C584.49 401.491 563.17 405.911 563.01 430.521C562.97 436.751 560.4 442.691 555.9 446.991C551.4 451.291 545.34 453.591 539.12 453.341C535.92 453.211 532.77 453.761 529.78 454.971C527.47 455.901 525.03 456.451 522.54 456.591C519.99 456.741 517.5 457.311 515.14 458.291C506.87 461.711 497.37 460.031 490.78 453.981C485.96 449.551 483.34 443.381 483.34 437.041C483.34 434.711 483.69 432.361 484.42 430.071C485.09 427.961 486.1 424.871 487.1 422.121C488.23 419.031 490.01 416.211 492.32 413.871C496.57 409.561 498.91 403.831 498.91 397.751C498.91 393.491 497.72 389.321 495.48 385.681C493.64 382.691 492.1 380.381 490.89 378.811C482.84 368.491 471.68 359.741 458.77 353.681C452.99 350.971 446.56 350.761 440.64 353.081C434.69 355.411 428.04 355.161 422.28 352.401C416.52 349.631 412.17 344.591 410.28 338.491C409.02 334.411 406.65 330.771 403.42 327.961C398.36 323.541 395.55 317.191 395.55 310.641L395.53 310.671ZM397.82 107.651C397.82 104.351 398.53 101.021 400 97.891C404.15 89.041 413.45 83.781 423.18 84.781C423.79 84.841 424.41 84.881 425.02 84.891C428.14 84.951 431.53 84.581 438.44 83.421C440.25 83.121 442.59 82.741 443.7 82.611C444.74 82.491 445.79 82.431 446.84 82.461C454.57 82.611 461.79 79.011 466.15 72.831C468.06 70.131 470.53 67.871 473.4 66.211L474.51 65.561C482.11 61.011 491.66 61.231 499.04 66.141C505.51 70.441 509.32 77.661 509.32 85.291C509.32 86.361 509.25 87.441 509.09 88.511C508.98 89.301 508.9 90.101 508.85 90.871C508.82 91.361 508.81 91.791 508.81 92.221C508.81 95.131 509.38 98.011 510.5 100.781C511.63 103.571 512.19 106.511 512.19 109.431C512.19 114.411 510.57 119.341 507.45 123.421C502.49 129.891 494.48 133.251 486.39 132.261C473.85 130.721 460.91 131.071 447.93 133.301C445.08 133.791 442.39 134.801 439.93 136.301C434.72 139.471 428.46 140.451 422.53 139.001C416.6 137.561 411.49 133.821 408.32 128.611C407.32 126.971 406.11 125.451 404.73 124.101C400.21 119.681 397.82 113.711 397.82 107.661V107.651ZM532.33 135.341C532.33 134.371 532.39 133.401 532.52 132.421C533.58 124.171 538.99 117.111 546.71 114.001C548.14 113.421 549.52 112.721 550.81 111.901C559.32 106.501 570.36 107.271 578.04 113.811C583.29 118.281 586.13 124.731 586.13 131.331C586.13 134.381 585.52 137.451 584.27 140.381C583.72 141.661 583.28 143.011 582.98 144.371C581.24 152.111 575.64 158.411 568.15 161.041C560.66 163.671 552.35 162.251 546.16 157.281C544.75 156.151 543.32 155.061 541.85 153.991C541.8 153.951 541.7 153.881 541.65 153.841C535.76 149.471 532.33 142.571 532.33 135.341ZM566.98 553.991C566.98 547.701 569.56 541.541 574.37 537.091C576.72 534.921 578.64 532.261 579.92 529.411C580.54 528.031 581.3 526.721 582.17 525.481C584.42 522.321 585.85 518.621 586.3 514.781C586.51 513.041 586.91 511.321 587.51 509.671C587.93 508.511 588.25 507.301 588.48 506.071C589.77 499.101 594.2 493.121 600.49 489.851C606.78 486.581 614.22 486.401 620.67 489.341C624.05 490.891 627.69 491.571 631.49 491.361C633.94 491.231 636.4 491.481 638.77 492.131C642.5 493.141 646.46 493.221 650.2 492.351C656.28 490.941 662.66 492.061 667.9 495.451C673.13 498.841 676.77 504.211 677.97 510.331C678.59 513.511 679.91 516.581 681.77 519.211C683.02 520.981 684.02 522.921 684.73 524.971C685.3 526.611 686.04 528.181 686.94 529.641C689.2 533.311 690.36 537.501 690.36 541.711C690.36 544.051 690.01 546.391 689.28 548.661C688.72 550.431 688.37 552.261 688.25 554.081C688.1 556.371 687.61 558.621 686.79 560.761C686.61 561.241 685.99 562.791 685.99 562.791C685.46 564.121 685.06 565.421 684.8 566.711C683.44 573.201 679.35 578.791 673.57 582.041C667.79 585.291 660.89 585.891 654.64 583.681C653.69 583.341 652.7 583.071 651.69 582.861C645.08 581.491 640.5 578.721 637.83 576.641C636.84 575.871 635.88 575.021 635 574.131C630.67 569.731 624.92 567.291 618.77 567.241C613.51 567.201 608.56 568.871 604.47 572.061C600.68 575.031 596.05 576.731 591.24 576.931H590.89C581.26 577.331 572.42 571.671 568.73 562.771C567.55 559.921 566.98 556.931 566.98 553.971V553.991ZM726.85 593.411C726.85 590.321 727.47 587.211 728.74 584.281C728.99 583.701 729.22 583.101 729.43 582.491C730.2 580.211 731.32 578.071 732.75 576.131C734.09 574.321 735.15 572.331 735.9 570.221C739.2 560.921 748.05 554.771 757.91 554.911C767.77 555.061 776.44 561.471 779.46 570.861C779.73 571.701 780.06 572.541 780.43 573.361C781.23 575.131 781.81 577.001 782.15 578.911C782.69 582.031 782.98 585.321 782.98 588.431C782.98 591.591 782.63 594.831 781.96 597.811C779.8 607.461 771.7 614.651 761.86 615.651C758.89 615.961 755.27 616.191 750.8 616.381C742.89 616.711 735.37 612.951 730.89 606.421C728.22 602.531 726.85 597.981 726.85 593.391V593.411Z" fill="#DADBE7"/>
</svg>
