<svg width="2501" height="880" viewBox="0 0 2501 880" fill="none" xmlns="http://www.w3.org/2000/svg">
<path d="M887.701 519.142C887.146 519.142 886.481 519.031 885.816 518.865C885.705 518.865 885.649 518.809 885.594 518.754C883.376 517.2 880.659 516.367 877.943 516.367C877.721 516.367 877.499 516.367 877.277 516.367C876.557 516.367 875.891 516.423 875.281 516.423C874.949 516.423 874.394 516.423 874.173 516.312C874.117 516.256 874.062 516.201 874.006 516.145C873.452 514.369 873.175 508.264 872.787 501.271C872.343 492.558 872.066 487.73 871.622 485.343C871.567 485.01 871.511 484.733 871.401 484.4C877.056 480.681 878.719 473.411 875.06 467.861C874.783 467.472 874.616 467.139 874.45 466.862C866.023 450.6 868.628 430.676 880.992 416.135C884.762 411.751 884.818 405.479 881.214 400.984C880.937 400.651 880.715 400.318 880.493 399.985C878.054 395.933 874.45 385.666 878.109 362.8C879.329 355.03 882.544 348.648 887.368 344.374C889.807 342.154 891.304 339.157 891.415 335.994C891.415 335.772 891.415 335.605 891.415 335.494C892.746 334.939 894.187 334.717 895.74 334.717C898.013 334.717 900.175 335.272 902.282 335.827C902.725 335.938 903.28 336.105 903.779 336.216C904.832 336.438 905.886 336.604 906.939 336.604C907.604 336.604 908.325 336.604 908.99 336.438C912.871 335.827 922.352 334.162 928.783 332.941C933.718 331.998 937.654 328.446 938.874 323.84C940.093 319.233 938.375 314.349 934.438 311.352C933.274 310.464 932.941 309.576 932.941 309.41C932.941 309.41 932.941 309.41 932.941 309.299C933.939 305.691 933.108 301.917 930.779 298.92C929.338 297.033 927.453 294.314 925.623 291.594C919.968 283.269 919.081 281.105 919.025 280.883V280.772C918.083 277.553 917.75 274.778 919.025 271.837C919.469 270.838 921.742 268.396 926.676 264.955C930.169 262.457 932.11 258.517 931.888 254.354C931.611 250.247 929.171 246.473 925.401 244.42C925.013 244.198 924.736 243.976 924.403 243.754C923.572 243.032 922.518 241.922 922.241 240.757C921.132 235.706 916.752 231.877 911.374 231.155C907.327 230.6 905.719 229.157 904.777 227.992C903.945 226.937 902.947 225.383 902.947 224.051C902.947 220.388 901.228 216.892 898.235 214.561C898.235 214.561 898.235 214.561 898.124 214.506C898.013 214.062 898.013 212.841 898.013 212.064C898.013 211.176 898.013 210.121 898.179 209.622C899.177 205.848 898.179 201.796 895.573 198.799C895.352 198.522 895.185 198.244 895.019 197.911C894.409 196.468 895.352 194.914 895.961 194.082C896.294 193.638 897.181 192.472 902.005 191.973C907.715 191.362 912.317 187.311 913.37 181.983C913.37 181.816 913.426 181.65 913.481 181.428C914.146 180.429 919.303 177.543 933.884 177.543C945.582 177.543 947.467 180.151 947.745 180.984C947.855 181.317 947.911 181.594 947.966 181.872C948.632 186.478 951.903 190.308 956.56 191.862C957.502 192.195 958.112 192.75 958.445 193.749C958.722 194.47 958.833 195.136 958.778 195.747C958.445 200.742 961.439 205.459 966.207 207.568C968.258 208.456 969.312 209.844 969.422 211.675C969.644 216.948 973.47 221.498 978.792 222.941C983.727 224.273 988.994 225.938 990.934 228.214C991.877 229.324 992.486 230.656 992.764 232.487C993.152 234.874 994.316 237.094 996.09 238.87C996.755 239.702 996.7 240.146 996.645 240.424C996.589 240.646 996.534 240.701 996.312 240.868C994.538 242.089 993.041 243.698 992.098 245.53C991.766 246.14 991.378 246.64 990.879 247.084C990.712 247.195 990.546 247.361 990.38 247.472C985.168 250.747 983.172 257.129 985.612 262.568C985.889 263.179 986.111 263.734 986.277 264.233C986.332 264.455 986.388 264.733 986.443 265.01C987.219 269.561 990.601 273.335 995.203 274.778C995.203 274.778 995.203 274.778 995.258 274.778C998.141 275.666 1001.08 276.609 1002.13 277.164C1004.68 278.552 1005.96 280.883 1005.63 283.602C1005.18 286.988 1002.47 290.04 998.973 291.039C997.753 290.706 996.478 290.484 995.203 290.484C992.819 290.484 990.49 291.095 988.384 292.316C985.223 294.147 983.061 297.2 982.396 300.641C982.119 302.084 981.731 304.137 981.342 305.303C979.846 309.299 980.622 313.739 983.394 317.013L984.336 318.123C987.996 322.452 992.154 327.336 993.152 333.94C993.762 337.992 994.649 350.313 994.981 360.358C995.148 364.354 997.31 368.017 1000.86 370.237C1007.57 374.4 1012.45 379.728 1015.44 386.054C1015.66 386.498 1015.88 386.887 1016.1 387.275C1016.38 387.775 1016.6 388.163 1016.66 388.496C1016.77 389.051 1016.88 389.606 1017.05 390.161C1021.15 403.148 1017.27 418.133 1006.68 430.177C1004.41 432.785 1003.35 436.115 1003.74 439.445C1004.13 442.775 1006.01 445.827 1008.84 447.825C1017.82 454.208 1023.81 463.865 1025.25 474.299C1027.25 488.729 1020.26 501.216 1006.57 507.709C996.7 512.371 982.673 515.257 970.032 515.257C968.203 515.257 966.373 515.202 964.654 515.091C960.164 514.758 954.231 513.537 947.966 512.205C941.535 510.817 934.882 509.43 930.169 509.152C929.948 509.152 929.67 509.152 929.449 509.152C926.455 509.152 923.516 510.151 921.188 511.983C920.411 512.593 919.635 513.148 918.637 513.592C918.416 513.703 918.194 513.759 917.972 513.814C915.034 514.702 912.539 516.478 910.875 518.92C910.432 519.087 909.988 519.142 909.6 519.142C909.434 519.142 909.046 519.142 908.713 519.031C907.327 518.587 905.83 518.31 904.389 518.31C903.003 518.31 901.617 518.532 900.286 518.92C900.286 518.92 900.175 518.92 900.12 518.92C899.676 519.031 899.177 519.031 898.789 519.031C898.235 519.031 897.736 518.976 897.237 518.809C895.906 518.421 894.52 518.199 893.189 518.199C891.692 518.199 890.14 518.476 888.754 518.976C888.255 519.142 887.701 519.198 887.423 519.198L887.701 519.142ZM940.981 364.465C940.149 364.465 939.317 364.521 938.43 364.632C932.553 365.464 928.007 370.015 927.453 375.621C927.231 377.73 927.508 380.005 928.284 381.948C930.114 386.887 935.048 390.161 940.537 390.161C940.703 390.161 940.814 390.161 940.981 390.161C941.313 390.161 941.646 390.161 942.034 390.106C942.976 389.995 943.864 389.884 944.695 389.662C950.018 388.33 953.954 384.001 954.342 378.784C954.564 376.009 953.899 373.012 952.457 370.626C950.35 367.129 946.58 364.854 942.367 364.521C942.034 364.521 941.59 364.465 941.036 364.465H940.981Z" fill="#1F1F1F"/>
<path d="M2353.32 519.142C2352.82 519.142 2352.71 519.031 2352.65 518.976C2353.54 511.317 2349.66 503.935 2342.73 499.995C2338.79 496.776 2329.48 477.795 2317.67 453.764C2315.17 448.713 2312.34 442.886 2309.79 437.835C2306.36 430.954 2299.04 426.625 2291.05 426.625C2290.72 426.625 2290.39 426.625 2290.06 426.625C2281.68 427.013 2274.42 432.119 2271.59 439.556C2268.99 446.327 2266.38 453.098 2264 459.036C2259.45 470.358 2255.46 480.348 2252.08 487.23C2247.37 496.942 2251.69 508.431 2261.84 513.093C2261.95 513.093 2262 513.148 2262.17 513.37C2262.78 514.147 2262.45 516.09 2262.28 516.978C2258.9 517.311 2255.52 517.533 2252.25 517.533C2237.16 517.533 2223.08 513.925 2209.22 506.433C2207.84 505.656 2206.34 505.101 2204.79 504.657C2204.68 504.657 2204.51 504.601 2204.45 504.546C2200.79 501.937 2196.41 500.605 2192.03 500.605C2188.71 500.605 2185.38 501.382 2182.33 502.881C2180.23 503.935 2177.73 504.49 2174.85 504.49C2169.08 504.49 2162.37 502.492 2156.5 500.661C2152.34 499.384 2148.9 498.385 2146.13 497.941C2144.91 497.719 2143.69 497.608 2142.47 497.608C2141.25 497.608 2139.92 497.719 2138.64 497.941C2135.37 498.552 2131.88 499.773 2126.95 501.66C2119.96 504.324 2112.03 507.321 2102.72 507.321C2102.38 507.321 2102.11 507.321 2101.77 507.321C2089.97 507.043 2078.54 503.214 2068.73 496.221C2065.13 493.612 2060.75 492.28 2056.26 492.28C2054.82 492.28 2053.37 492.447 2051.93 492.724C2046.06 493.89 2041.01 497.442 2038.13 502.437C2037.24 503.991 2034.8 508.153 2028.7 508.153C2024.77 508.153 2020.39 506.433 2016.12 504.823C2015.34 504.49 2014.34 504.157 2013.46 503.824C2011.02 502.936 2008.47 502.492 2005.86 502.492C2001.92 502.492 1997.99 503.547 1994.55 505.656C1994.55 505.656 1994.33 505.767 1994.33 505.822C1990.5 508.153 1987.67 509.763 1984.4 509.763C1981.35 509.763 1978.3 508.153 1975.31 504.99C1969.05 498.33 1970.49 491.392 1981.52 475.409C1987.95 466.085 1990.95 460.979 1991.83 455.318C1991.94 454.652 1992 453.986 1992.05 453.32C1992.66 439.722 1992.17 424.904 1991.67 409.253C1989.89 354.864 1987.84 293.37 2033.47 258.406C2051.66 244.475 2077.49 236.483 2104.27 236.483C2131.05 236.483 2156.77 244.642 2174.29 259.46C2179.84 264.178 2184.27 270.172 2186.99 276.887C2189.93 283.991 2196.97 288.875 2205.01 289.374C2205.45 289.374 2205.9 289.374 2206.28 289.374C2213.82 289.374 2220.86 285.434 2224.47 279.107C2229.24 270.782 2234.61 262.291 2240.82 253.189C2241.82 251.746 2243.6 249.803 2244.87 248.416C2250.8 241.978 2251.69 232.654 2247.03 225.328C2246.37 224.273 2245.92 223.274 2245.7 222.275C2243.43 212.952 2244.93 204.238 2249.86 198.355C2255.18 191.973 2262.67 190.641 2268.05 190.641C2270.6 190.641 2273.26 190.918 2276.03 191.529C2277.14 191.751 2278.14 192.084 2279.13 192.528C2282.02 193.86 2285.12 194.526 2288.23 194.526C2294.44 194.526 2300.48 191.917 2304.53 187.033C2309.24 181.372 2318.89 177.432 2328.03 177.432C2333.8 177.432 2338.74 179.041 2342.01 181.983C2343.67 183.481 2344.78 185.368 2345.72 188.143C2347.22 192.75 2350.49 196.69 2354.92 199.132C2355.59 199.632 2355.53 199.909 2355.48 199.965C2351.65 203.239 2349.16 208.012 2348.66 212.896C2347.77 222.22 2344.89 226.105 2337.4 228.38C2334.36 229.268 2331.58 229.712 2329.03 229.712C2326.04 229.712 2323.38 229.102 2320.66 227.881C2317.78 226.549 2314.67 225.883 2311.57 225.883C2306.8 225.883 2302.03 227.437 2298.21 230.489C2297.38 231.155 2296.43 231.766 2295.27 232.376C2287.34 236.705 2283.29 245.474 2285.4 253.91C2288.84 267.73 2299.81 286.655 2313.23 294.591C2320.77 299.031 2331.36 302.306 2341.56 305.469C2348.55 307.634 2355.7 309.854 2361.24 312.296C2367.01 314.849 2370.5 320.454 2369.34 325.338C2368.12 330.61 2362.46 331.498 2359.19 331.498C2355.53 328.946 2351.21 327.614 2346.77 327.614C2344.39 327.614 2341.95 328.002 2339.68 328.834C2339.46 328.89 2339.18 328.945 2338.85 328.945C2337.29 328.945 2334.3 328.279 2329.86 326.948C2327.81 326.337 2325.76 326.06 2323.65 326.06C2320 326.06 2316.39 326.948 2313.18 328.779C2308.13 331.609 2304.58 336.271 2303.36 341.71C2303.31 342.043 2303.2 342.321 2303.03 342.598C2299.54 348.703 2299.7 356.14 2303.47 362.079C2306.91 367.518 2312.18 373.623 2316.78 378.951C2320.05 382.669 2323.1 386.165 2325.21 389.218C2337.79 406.978 2346.16 426.68 2354.2 445.772C2359.8 458.925 2365.01 471.302 2371.72 483.734C2371.72 483.789 2371.94 484.178 2372 484.233C2375.71 490.616 2382.76 494.445 2390.19 494.445C2391.9 494.445 2393.62 494.223 2395.34 493.834C2396.23 493.612 2396.95 493.501 2397.56 493.39C2397.84 493.39 2398.56 493.224 2398.56 493.224C2399.5 493.002 2400.44 492.835 2401.22 492.835C2401.55 492.835 2402.33 492.835 2402.6 493.335C2402.72 493.557 2402.99 494.056 2402.16 495.61C2402.11 495.777 2401.99 495.888 2401.94 496.054C2400.94 496.998 2396.51 500.494 2379.32 508.875C2359.3 518.643 2354.09 519.253 2353.87 519.253C2353.87 519.253 2353.76 519.253 2353.7 519.253C2353.59 519.253 2353.37 519.253 2353.37 519.253L2353.32 519.142ZM2201.24 438.113C2198.69 438.113 2196.08 438.557 2193.64 439.5C2192.26 440 2190.82 440.499 2189.37 440.888C2180.84 443.163 2174.79 450.323 2174.29 458.703C2174.29 459.591 2174.18 460.535 2174.13 461.478C2173.85 467.861 2176.9 473.966 2182.28 477.851C2183.22 478.572 2184.16 479.238 2185.1 480.015C2188.99 483.29 2193.92 485.01 2198.91 485.01C2200.96 485.01 2203.01 484.733 2205.06 484.122C2211.99 482.069 2217.32 476.741 2219.04 470.025C2219.53 468.027 2220.2 465.918 2220.92 463.532C2223.25 456.317 2221.03 448.491 2215.21 443.385C2211.33 439.944 2206.28 438.168 2201.13 438.168L2201.24 438.113Z" fill="#1F1F1F"/>
<path d="M1291.1 879.722C1283.95 879.722 1277.74 877.28 1274.13 873.007C1273.47 872.175 1272.75 870.843 1272.03 868.9C1269.25 861.352 1261.71 856.302 1253.29 856.302H1218.47C1216.09 848.476 1218.75 846.423 1219.58 845.701C1224.35 841.927 1227.01 836.322 1226.73 830.439C1226.67 829.162 1226.62 827.941 1226.56 826.998C1226.4 823.391 1226.18 818.895 1226.51 817.341C1226.51 817.341 1226.56 817.286 1226.62 817.23C1228.45 816.897 1230.56 816.731 1233.16 816.731C1236.88 816.731 1241.14 817.008 1245.3 817.341C1249.24 817.619 1252.9 817.896 1256.28 817.952C1256.39 817.952 1256.45 817.952 1256.56 817.952C1262.71 817.952 1268.48 815.288 1272.25 810.681C1274.47 807.962 1277.18 804.354 1279.12 801.69C1282.17 797.583 1285 793.809 1287.61 790.646C1292.26 785.096 1293.26 777.492 1290.1 770.999C1286.22 763.063 1283.95 754.072 1283.28 744.193C1280.23 699.349 1282.34 651.398 1284.39 605.055C1284.78 596.564 1285.11 588.128 1285.44 579.859C1285.61 575.641 1285.55 571.478 1285.44 567.149C1285.39 563.32 1285.33 559.379 1285.44 555.494L1293.54 583.244C1295.15 588.85 1299.47 593.456 1305.13 595.676C1307.56 596.62 1310.12 597.119 1312.67 597.119C1316.1 597.119 1319.54 596.287 1322.59 594.622C1323.92 594.455 1324.64 594.4 1325.2 594.4C1325.47 594.4 1325.69 594.4 1325.92 594.455C1327.36 594.788 1328.85 594.899 1330.35 594.899C1334.34 594.899 1338.28 593.789 1341.61 591.569C1346.21 588.572 1349.26 583.966 1350.03 578.749L1353.58 555.439C1356.63 557.104 1360.07 557.936 1363.45 557.936C1366.44 557.936 1369.44 557.326 1372.15 556.049C1378.09 553.33 1382.19 547.946 1383.13 541.786L1383.47 539.733L1386.57 537.846C1387.73 543.285 1391.45 548.002 1396.6 550.61C1399.54 552.109 1402.76 552.886 1406.03 552.886C1408.53 552.886 1411.02 552.442 1413.4 551.554C1413.57 556.216 1413.46 560.989 1413.4 565.595C1413.35 569.647 1413.24 573.865 1413.35 578.027C1413.51 585.797 1413.96 593.401 1414.46 601.503C1414.96 609.884 1415.51 618.375 1415.62 626.756C1415.73 634.47 1416.07 643.905 1416.4 653.839C1417.62 688.416 1419.06 731.483 1414.57 754.96C1414.4 755.959 1414.18 756.902 1413.96 757.846C1412.63 763.451 1414.07 769.334 1417.89 773.829C1421.66 778.269 1427.38 780.822 1433.36 780.822C1433.42 780.822 1517.08 780.045 1517.97 780.045C1510.43 786.483 1509.04 797.25 1514.97 805.076C1514.97 805.076 1515.03 805.187 1515.08 805.409C1515.08 805.52 1515.2 805.853 1514.64 806.519C1509.21 812.957 1508.82 822.059 1513.75 828.885C1513.87 830.05 1514.03 831.549 1513.81 832.215C1511.81 839.874 1515.09 847.866 1521.96 852.306H1458.04C1450.16 852.306 1443.01 856.69 1439.85 863.517C1435.14 873.562 1428.1 877.891 1416.23 877.891H1415.46C1405.36 877.78 1398.71 873.617 1394 864.405C1390.73 858.078 1384.08 853.971 1376.65 853.804C1372.32 853.693 1364.84 853.582 1353.75 853.582C1345.32 853.582 1337.34 853.638 1331.35 853.804C1323.14 853.971 1315.88 858.966 1313.11 866.292C1311.67 870.066 1309.84 872.674 1307.18 874.727C1303.13 877.835 1297.14 879.667 1291.15 879.667L1291.1 879.722Z" fill="#1F1F1F"/>
<path d="M2198.41 879.722C2194.09 879.722 2188.71 878.612 2182.55 876.504C2180.17 875.671 2177.68 875.283 2175.12 875.283C2174.96 875.283 2174.74 875.283 2174.57 875.283C2170.97 875.394 2167.36 875.394 2163.81 875.394C2139.75 875.394 2129.61 873.396 2125.34 871.731C2124.73 871.509 2124.12 871.287 2123.51 871.12C2121.62 870.565 2119.52 869.955 2117.19 869.566C2115.97 869.344 2114.75 869.289 2113.53 869.289C2111.98 869.289 2110.42 869.455 2108.87 869.788C2108.37 869.899 2107.76 870.01 2107.26 870.121C2105.16 870.621 2102.72 871.12 2100.11 871.12C2099.28 871.12 2098.45 871.12 2097.62 870.954C2095.95 870.732 2093.85 869.899 2092.4 869.289C2089.58 868.068 2086.53 867.457 2083.48 867.457C2079.71 867.457 2075.99 868.401 2072.61 870.232C2069.67 871.842 2065.52 873.673 2059.14 873.673C2058.42 873.673 2057.64 873.673 2056.81 873.618C2054.76 873.451 2052.54 872.841 2049.94 871.675C2047 870.343 2043.78 869.622 2040.57 869.622C2038.18 869.622 2035.85 870.01 2033.58 870.732C2032.31 871.12 2031.14 871.398 2030.03 871.398C2027.93 871.509 2022.38 871.675 2016.28 871.675C2011.79 871.675 1998.04 871.675 1996.32 869.344C1994.11 866.236 1994.72 856.08 1997.32 853.138C1997.93 852.472 1998.87 851.64 2001.04 850.974C2006.19 849.475 2010.57 846.201 2013.29 841.816C2014.45 839.985 2016.39 837.654 2021.61 835.933C2024.49 834.99 2026.71 834.213 2028.26 833.713C2031.47 832.603 2034.36 830.772 2036.69 828.385C2038.02 827.053 2039.85 825.499 2042.29 823.779C2045.39 821.559 2049.05 820.283 2053.32 819.894C2061.19 819.228 2068.07 814.455 2071.17 807.573C2074.28 800.691 2073.11 792.699 2068.18 786.872C2067.62 786.206 2067.12 785.54 2066.62 784.763C2063.52 779.768 2063.08 773.33 2065.35 765.116C2069.51 750.02 2083.92 745.691 2102.33 741.584C2108.04 740.308 2113.53 739.031 2118.13 737.477C2125.06 735.035 2130.22 729.43 2131.77 722.548C2133.27 715.832 2131.1 708.895 2126 704.011C2123.56 701.625 2121.01 699.183 2119.24 696.408C2114.36 688.693 2109.87 676.761 2116.19 664.107C2120.46 655.56 2128.72 648.512 2139.59 644.294C2147.24 641.297 2152.39 634.47 2152.89 626.645C2153.17 621.816 2153.83 616.932 2154.5 611.771C2155.78 601.781 2157.11 591.403 2155.5 582.412C2155.22 580.913 2154.78 579.47 2154.22 578.083C2154.22 578.083 2154.22 577.972 2154.17 577.916C2151.56 571.867 2146.07 567.371 2139.36 565.817C2138.75 565.651 2138.31 565.429 2137.92 564.985C2136.65 563.542 2137.04 560.378 2137.37 558.602C2137.7 556.826 2137.81 554.939 2137.65 553.163V544.728C2141.97 543.729 2145.85 541.564 2148.79 538.401C2149.84 538.401 2151.84 538.29 2154.39 538.234H2155.55C2160.54 538.068 2167.36 537.901 2172.52 537.901C2175.12 537.901 2179.01 537.901 2180.11 538.345C2183.16 541.231 2186.99 543.285 2191.2 544.062C2191.92 544.173 2193.25 544.45 2193.53 545.837C2193.86 547.502 2193.86 548.89 2193.53 549.889C2192.48 553.441 2192.42 557.159 2193.48 560.711C2193.64 561.266 2193.64 561.932 2193.48 562.654C2193.2 563.986 2192.53 564.707 2191.2 565.096C2182.44 567.704 2176.4 575.252 2176.12 583.966C2175.73 595.787 2177.56 612.992 2178.56 622.26L2178.84 624.924C2179.78 633.915 2186.88 641.241 2196.3 642.906C2209.55 645.237 2214.21 651.731 2216.71 657.058C2221.86 667.936 2218.81 676.816 2213.93 688.138C2210.61 695.964 2208.39 701.569 2208.61 708.118C2208.78 713.557 2211.22 718.718 2215.43 722.437C2218.37 725.045 2222.53 727.82 2226.91 730.651C2232.12 734.036 2237.05 737.255 2240.05 740.696C2249.2 751.13 2256.4 770.888 2252.69 785.928C2252.36 787.205 2251.91 788.426 2251.36 789.48C2246.59 798.749 2249.86 809.96 2259.01 815.565C2261.23 816.897 2263.44 819.117 2265.61 821.226C2270.21 825.721 2273.87 829.107 2279.19 831.16C2281.85 832.215 2284.68 832.714 2287.51 832.714C2290 832.714 2292.5 832.326 2294.88 831.493C2295.21 831.382 2295.49 831.271 2295.82 831.16C2295.93 831.16 2296.04 831.049 2296.21 830.994C2298.43 830.106 2300.48 829.218 2302.81 829.107C2303.03 829.107 2303.2 829.107 2303.42 829.107C2306.41 829.107 2309.18 830.217 2311.68 831.216L2312.12 831.382C2314.78 832.492 2317.67 833.047 2320.55 833.047C2322.38 833.047 2324.21 832.825 2325.98 832.381C2327.42 832.048 2328.7 831.715 2330.09 831.715C2332.97 831.715 2335.74 833.047 2339.62 836.322C2339.95 836.599 2340.29 836.932 2340.62 837.376C2343.39 840.762 2347.16 843.259 2351.49 844.48C2351.99 844.591 2352.32 844.758 2352.65 844.98L2353.7 845.701C2366.4 854.248 2367.12 858.411 2366.01 861.574C2365.18 863.905 2363.79 864.904 2361.36 864.904C2360.8 864.904 2360.19 864.904 2359.53 864.738C2358.31 864.516 2357.09 864.46 2355.87 864.46C2352.21 864.46 2348.55 865.348 2345.33 867.069C2343.06 868.29 2340.79 869.011 2338.35 869.289C2337.24 869.4 2336.07 869.455 2334.91 869.455C2331.03 869.455 2327.26 868.789 2323.65 868.123C2320.99 867.679 2318.83 867.291 2316.84 867.069C2316.17 867.013 2315.45 866.958 2314.78 866.958C2311.96 866.958 2309.18 867.457 2306.58 868.512L2305.64 868.9C2303.03 869.955 2300.04 871.12 2295.99 871.398C2295.05 871.453 2294.1 871.509 2293.16 871.509C2287.45 871.509 2282.07 870.288 2276.86 869.067C2275.42 868.734 2273.76 868.345 2272.26 868.068C2270.76 867.79 2269.27 867.624 2267.77 867.624C2264.22 867.624 2260.73 868.456 2257.57 870.066C2253.63 872.064 2248.7 874.616 2243.87 875.06C2243.15 875.116 2242.38 875.171 2241.66 875.171C2238.16 875.171 2235.17 874.394 2232.51 873.506C2230.23 872.785 2227.91 872.397 2225.58 872.397C2222.86 872.397 2220.14 872.896 2217.59 873.84C2216.37 874.284 2214.99 874.839 2213.88 875.283C2208.78 877.336 2203.51 879.39 2199.69 879.556C2199.3 879.556 2198.85 879.556 2198.47 879.556L2198.41 879.722Z" fill="#1F1F1F"/>
<path d="M266.747 879.722C266.47 879.722 266.248 879.723 266.138 879.556C266.304 878.613 266.415 877.613 266.359 876.67C266.359 875.505 266.193 874.228 265.916 872.73C265.14 867.901 261.702 863.85 256.879 862.074C253.33 859.077 244.016 840.04 234.147 819.95C229.712 810.848 224.667 800.58 222.006 795.807C219.455 791.312 214.521 788.537 209.198 788.537C208.866 788.537 208.478 788.537 208.145 788.537C202.434 788.925 197.5 792.533 195.56 797.639C193.564 803.022 189.572 813.623 185.136 824.722C181.145 834.657 177.818 842.593 175.157 848.365C174.159 850.53 173.216 852.528 172.274 854.304C170.223 858.133 170.223 862.629 172.218 866.458C174.214 870.288 177.929 873.063 182.364 873.895C183.141 874.062 183.307 874.284 183.418 874.395C183.972 875.061 183.695 876.781 183.529 877.669C180.424 878.002 177.375 878.169 174.381 878.169C160.465 878.169 147.491 874.783 134.629 867.846C133.52 867.235 132.355 866.791 131.136 866.458C130.692 866.347 130.637 866.236 130.581 866.125C130.193 865.626 130.36 864.627 130.581 863.739C131.191 862.629 132.688 861.685 135.183 860.52C141.004 857.745 144.165 851.584 142.834 845.479C142.723 844.924 142.668 844.369 142.723 843.759C143.222 833.991 148.988 820.005 155.142 805.242C160.853 791.367 166.286 778.269 167.617 768.28C167.617 768.169 167.617 768.113 167.617 768.002C168.06 763.729 166.785 756.514 165.732 752.962C165.122 750.853 163.958 748.855 162.35 747.245C161.962 746.857 161.463 746.357 161.075 745.969C159.578 744.47 158.025 742.972 156.75 741.085C154.089 737.144 149.487 734.758 144.553 734.758C144.165 734.758 143.832 734.758 143.444 734.758C138.121 735.146 133.464 738.254 131.302 742.861C130.027 745.58 128.142 747.523 125.314 748.91C123.596 749.798 121.6 750.242 119.493 750.242C116.499 750.242 113.949 749.243 112.396 747.578C111.01 746.08 110.511 744.082 110.899 741.695C113.671 739.919 115.778 737.311 116.776 734.314C121.821 732.094 125.093 727.321 125.203 722.048C125.203 721.327 125.259 720.661 125.37 720.106C126.035 715.444 124.15 710.782 120.38 707.729C111.62 700.681 101.64 692.745 87.7799 687.084C84.2316 685.641 79.9626 684.586 75.8598 683.643C71.5353 682.588 67.4326 681.645 64.1615 680.202C57.952 677.482 44.036 667.714 31.0625 657.058C15.9822 644.627 6.50159 634.415 5.66996 629.642C5.39275 628.088 6.72336 625.923 8.05398 624.48C8.94105 623.481 9.88357 622.704 10.8261 622.205C15.1506 619.985 17.9227 615.822 18.3108 611.16C18.6989 606.498 16.5366 602.003 12.6002 599.228C3.00873 592.346 -0.761339 587.684 0.125737 583.577C0.957371 579.581 2.67608 577.361 5.22642 576.917C12.822 575.53 17.9227 568.703 16.8139 561.488C16.5921 559.879 16.8139 558.436 17.4237 557.159C18.6434 554.884 21.1938 553.496 24.1877 553.496C24.6867 553.496 25.1856 553.496 25.7401 553.607C26.4608 553.718 27.237 553.774 27.9577 553.774C33.8346 553.774 39.268 550.333 41.4302 545.005V544.838C42.8717 541.62 47.1962 537.901 50.6336 537.901C51.5761 537.901 52.4078 538.179 53.0176 538.789L86.8374 570.812C89.6095 573.421 93.2687 574.808 97.0942 574.808C98.2585 574.808 99.4228 574.697 100.532 574.42C105.466 573.254 109.402 569.813 110.899 565.207C112.175 561.433 115.279 557.381 120.38 557.381C123.54 557.381 126.312 559.046 128.086 560.434C134.019 565.096 140.007 576.529 145.052 587.018C147.269 591.68 152.037 594.733 157.415 595.01C157.693 595.01 157.97 595.01 158.247 595.01C163.348 595.01 168.06 592.513 170.666 588.35C171.11 587.629 171.609 586.963 172.108 586.352C175.989 581.746 181.699 579.304 188.685 579.304C191.013 579.304 193.453 579.581 195.948 580.136C197.611 580.469 198.997 581.08 200.272 581.912C202.712 583.522 205.595 584.354 208.533 584.354C209.531 584.354 210.584 584.243 211.582 584.021C215.463 583.244 218.901 580.969 220.952 577.694C224.168 572.644 231.763 567.26 243.517 567.26C248.784 567.26 253.33 568.759 256.324 571.423C258.542 573.421 259.374 575.918 260.094 578.305C261.259 582.19 264.142 585.409 268.023 587.129C268.134 587.129 268.189 587.185 268.189 587.185C268.411 587.407 268.688 587.684 268.633 587.906C268.633 587.962 268.633 588.017 268.633 588.017C268.633 588.017 268.577 588.017 268.466 588.128C265.14 590.459 262.977 594.011 262.589 597.896L262.478 598.784C261.702 606.942 259.928 611.438 252.111 613.769C249.283 614.601 246.788 614.99 244.46 614.99C241.133 614.99 238.306 614.213 235.256 612.548C232.983 611.271 230.433 610.661 227.938 610.661C224.002 610.661 220.121 612.159 217.293 615.045C215.852 616.544 213.634 617.487 211.86 618.32C206.205 620.873 202.933 626.589 203.71 632.472C205.65 646.292 216.683 666.438 230.1 674.263C237.03 678.315 246.677 681.312 255.992 684.198C262.368 686.196 268.91 688.194 273.955 690.414C279.222 692.745 282.382 697.851 281.384 702.346C280.22 707.341 274.565 707.952 272.125 708.007C272.125 708.007 272.07 708.007 272.014 708.007C269.187 705.177 265.361 703.678 261.48 703.678C259.041 703.678 256.602 704.233 254.384 705.454C254.162 705.565 253.774 705.621 253.497 705.621C251.612 705.621 247.176 704.511 240.302 702.235C238.749 701.736 237.141 701.458 235.589 701.458C232.484 701.458 229.435 702.402 226.885 704.233C223.059 706.953 220.897 711.337 221.119 715.888C221.119 716.11 221.119 716.332 221.119 716.498C221.119 716.831 221.008 717.775 220.62 718.274C217.404 722.381 216.849 727.876 219.233 732.538C222.116 738.143 227.716 744.859 233.371 751.297C236.31 754.682 239.082 757.901 241.078 760.676C252.61 776.937 260.205 794.919 267.579 812.346C272.68 824.334 277.503 835.711 283.602 847.033C283.713 847.255 283.768 847.422 283.824 847.533C284.822 851.085 287.317 854.137 290.754 855.969C292.916 857.134 295.356 857.689 297.795 857.689C299.181 857.689 300.567 857.523 301.953 857.134C303.838 856.579 305.779 856.08 307.276 855.858C307.553 855.858 307.886 855.747 308.163 855.691H308.274C308.994 855.525 309.826 855.358 310.491 855.358C310.713 855.358 311.489 855.358 311.767 855.802C311.822 855.969 312.155 856.468 311.378 857.911C311.323 858.022 311.268 858.133 311.212 858.244C310.491 858.966 306.888 862.018 290.532 870.01C271.571 879.223 267.302 879.5 266.914 879.5H266.858L266.747 879.722Z" fill="#1F1F1F"/>
<path d="M1690.62 879.722C1689.84 879.722 1685.02 879.223 1664.67 869.344C1646.82 860.631 1642.82 857.245 1642.05 856.468C1641.99 856.357 1641.88 856.191 1641.83 856.08C1640.99 854.526 1641.27 853.915 1641.38 853.749C1641.66 853.305 1642.49 853.305 1642.77 853.305C1643.54 853.305 1644.54 853.527 1645.32 853.693L1645.76 853.804C1645.76 853.804 1646.21 853.86 1646.43 853.915C1647.92 854.137 1650.09 854.748 1652.03 855.303C1653.52 855.747 1655.08 855.913 1656.57 855.913C1659.23 855.913 1661.9 855.247 1664.28 854.026C1668.05 852.084 1670.77 848.754 1671.93 844.813C1671.93 844.647 1672.04 844.536 1672.15 844.369C1678.86 831.882 1684.13 819.45 1689.73 806.352C1692.61 799.526 1695.66 792.422 1698.82 785.54C1701.04 780.711 1700.43 775.217 1697.27 770.888C1694.27 766.837 1689.4 764.45 1684.24 764.45C1683.91 764.45 1683.63 764.45 1683.3 764.45C1675.7 764.894 1667.83 765.061 1659.84 765.061C1640.88 765.061 1622.81 763.84 1608.89 761.675C1589.27 758.623 1582.89 754.405 1581.01 751.463C1581.01 743.915 1580.23 736.201 1579.45 728.042C1577.46 708.007 1575.57 689.137 1586.27 677.982C1587.99 676.206 1589.88 674.763 1592.04 673.486C1596.36 670.989 1599.19 666.604 1599.58 661.831C1599.97 657.003 1597.92 652.341 1594.03 649.178C1588.27 644.46 1585.33 640.853 1585.11 638.078C1585 636.857 1585.39 635.802 1586.38 634.914C1587.22 634.137 1588.27 633.749 1589.54 633.749C1595.75 633.749 1606.18 642.24 1618.21 652.452C1622.81 656.392 1626.47 659.445 1628.96 661.221C1630.85 662.553 1633.07 663.496 1635.39 663.885C1640.99 664.884 1652.58 665.605 1664.28 665.605C1671.71 665.605 1678.31 665.328 1682.35 664.828C1685.02 664.495 1687.57 663.552 1689.73 661.998C1692.44 660.111 1696.27 656.892 1700.98 652.896C1713.35 642.462 1724.1 633.804 1730.59 633.804C1731.37 633.804 1732.14 633.971 1732.81 634.248C1734.97 635.192 1737.24 635.691 1739.57 635.691C1741.46 635.691 1743.34 635.358 1745.17 634.748C1749.16 633.305 1752.43 630.419 1754.15 626.7C1756.92 620.762 1758.75 614.823 1759.53 609.551C1760.42 603.057 1756.81 596.786 1750.6 593.956C1748.66 593.068 1746.28 592.013 1744.73 590.404C1741.62 587.24 1737.35 585.575 1733.08 585.575C1730.31 585.575 1727.6 586.241 1725.04 587.629C1721.72 589.46 1718.61 590.293 1715.01 590.293C1712.4 590.293 1709.69 589.849 1706.64 588.961C1698.1 586.408 1696.16 581.468 1695.33 572.644L1695.22 571.589C1694.77 567.316 1692.44 563.375 1688.79 560.822C1688.67 560.767 1688.62 560.711 1688.62 560.656C1688.62 560.656 1688.62 560.656 1688.62 560.545C1688.56 560.267 1688.84 559.934 1689.12 559.768C1689.12 559.768 1689.17 559.768 1689.28 559.657C1693.55 557.825 1696.71 554.273 1697.99 550C1698.77 547.391 1699.71 544.672 1702.09 542.508C1705.36 539.566 1710.35 537.957 1716.06 537.957C1728.87 537.957 1737.19 543.839 1740.73 549.334C1743.01 552.886 1746.72 555.383 1750.99 556.271C1752.1 556.493 1753.21 556.604 1754.32 556.604C1757.53 556.604 1760.64 555.716 1763.36 553.94C1764.74 553.052 1766.24 552.442 1768.01 552.053C1770.73 551.443 1773.45 551.165 1776 551.165C1783.65 551.165 1789.91 553.829 1794.13 558.88C1799.06 564.763 1800.56 573.476 1798.28 582.8C1797.9 584.299 1797.18 585.742 1795.9 587.296C1791.3 593.068 1791.63 601.059 1796.73 606.443C1799 608.829 1801.83 611.826 1803.11 613.713C1825.67 646.68 1838.65 674.652 1845.19 704.455C1845.35 705.288 1845.47 706.231 1845.47 707.341C1845.58 713.113 1849.12 718.33 1854.67 720.772C1855.78 724.102 1858.05 726.988 1861.1 728.93C1861.54 731.539 1860.99 733.703 1859.49 735.368C1857.83 737.255 1854.95 738.31 1851.73 738.31C1849.46 738.31 1847.24 737.81 1845.35 736.867C1842.31 735.313 1840.25 733.204 1838.87 730.262C1836.48 725.212 1831.38 721.826 1825.56 721.382C1825.17 721.382 1824.79 721.382 1824.34 721.382C1818.96 721.382 1813.92 723.991 1810.98 728.32C1809.59 730.373 1807.82 732.094 1806.27 733.592L1806.1 733.759C1805.71 734.147 1805.27 734.591 1804.94 734.924C1803.16 736.7 1801.89 738.865 1801.22 741.196C1800.11 745.081 1798.67 752.962 1799.17 757.624C1799.17 757.735 1799.17 757.846 1799.17 757.901C1800.61 768.89 1806.54 783.209 1812.81 798.36C1819.52 814.566 1825.84 829.828 1826.39 840.54C1826.39 841.15 1826.39 841.761 1826.23 842.371C1824.79 849.031 1828.22 855.802 1834.6 858.855C1837.26 860.131 1838.98 861.13 1839.59 862.351C1839.81 863.35 1839.98 864.405 1839.59 864.96C1839.48 865.071 1839.42 865.182 1838.98 865.293C1837.65 865.626 1836.32 866.125 1835.1 866.791C1821.02 874.395 1806.82 878.113 1791.58 878.113C1788.3 878.113 1784.92 877.946 1781.54 877.613C1781.37 876.614 1781.04 874.783 1781.65 874.006C1781.76 873.84 1781.93 873.618 1782.82 873.451C1787.64 872.508 1791.74 869.511 1793.9 865.293C1796.07 861.075 1796.01 856.135 1793.79 851.973C1792.8 850.03 1791.8 847.866 1790.69 845.535C1787.81 839.263 1784.09 830.55 1779.77 819.672C1774.94 807.629 1770.56 796.029 1768.4 790.202C1766.29 784.541 1760.86 780.656 1754.54 780.212C1754.15 780.212 1753.76 780.212 1753.38 780.212C1747.5 780.212 1742.07 783.264 1739.29 788.259C1736.41 793.476 1730.92 804.632 1726.1 814.455C1715.34 836.488 1705.14 857.245 1701.2 860.575C1695.94 862.518 1692.17 867.013 1691.34 872.286C1691.06 873.895 1690.95 875.283 1690.89 876.504C1690.89 877.558 1690.89 878.668 1691.11 879.667C1691 879.778 1690.78 879.833 1690.45 879.833L1690.62 879.722Z" fill="#1F1F1F"/>
<path d="M1743.01 486.509C1758.64 486.287 1770.4 476.408 1781.76 466.917C1785.2 464.031 1788.75 461.09 1792.35 458.37C1797.73 454.43 1799.84 447.659 1797.62 441.609C1795.4 435.505 1789.36 431.453 1782.59 431.453H1769.45C1766.79 431.065 1760.42 428.345 1758.59 425.737C1757.76 424.516 1758.03 423.794 1758.09 423.461C1759.03 420.631 1759.03 417.634 1758.2 414.859L1759.14 411.584C1771.67 367.074 1783.54 325.005 1771.28 278.163C1778.32 281.327 1790.63 283.214 1804.16 283.214C1817.63 283.214 1829.83 281.327 1836.87 278.163C1827.11 310.409 1828.17 329.056 1834.43 361.246C1834.82 363.189 1835.65 366.685 1838.92 376.12C1840.36 380.338 1843.75 383.779 1848.13 385.444C1850.01 386.165 1852.06 386.498 1854.06 386.498C1856.66 386.498 1859.27 385.888 1861.6 384.722C1861.93 384.556 1862.38 384.445 1862.87 384.445C1864.98 384.445 1867.97 386.221 1870.3 387.719C1873.02 389.44 1876.13 390.328 1879.23 390.328C1883.06 390.328 1886.83 389.051 1889.82 386.498C1903.35 375.066 1927.58 340.045 1933.17 325.782C1937.44 314.904 1939.33 304.137 1941.16 293.703C1942.16 288.042 1943.15 282.215 1944.54 276.443C1945.1 274.112 1945.04 272.336 1944.98 271.004C1944.98 269.617 1944.98 268.84 1945.43 268.451C1946.04 267.896 1947.2 267.841 1948.31 267.841C1949.92 267.841 1952.3 268.007 1955.8 268.34L2036.46 371.902C2035.85 371.514 2035.24 371.181 2034.58 370.903C2029.87 368.683 2022.33 367.573 2012.18 367.573C1996.66 367.573 1976.25 370.293 1957.68 374.899C1946.65 377.619 1937.33 380.671 1930.07 384.001C1925.75 385.943 1922.64 389.662 1921.53 394.046C1920.42 398.431 1921.48 403.093 1924.36 406.7C1926.91 409.864 1928.85 413.027 1930.18 416.302C1933.56 424.46 1933.62 433.174 1930.35 443.052C1930.07 443.829 1926.91 451.544 1898.19 475.298C1869.58 498.94 1860.6 501.438 1859.66 501.66C1853.34 503.047 1847.85 503.713 1842.92 503.713C1831.49 503.713 1823.01 500.328 1813.7 491.947C1810.65 489.173 1806.71 487.841 1802.77 487.841C1798.84 487.841 1794.62 489.339 1791.52 492.225L1763.08 519.142L1742.84 486.509H1743.01ZM1800.78 306.246C1798.62 306.246 1796.79 306.302 1795.12 306.468C1787.64 307.19 1781.76 312.795 1780.99 319.899C1780.76 321.731 1780.71 323.84 1780.82 326.171C1781.15 334.051 1787.81 340.323 1796.12 340.656C1797.06 340.656 1798.12 340.711 1799.34 340.711C1802.44 340.711 1805.66 340.6 1808.76 340.434C1817.25 340.045 1823.9 333.441 1823.9 325.394V321.564C1823.9 313.517 1817.25 306.912 1808.76 306.524C1806.16 306.413 1803.44 306.302 1800.83 306.302L1800.78 306.246Z" fill="#1F1F1F"/>
<path d="M1836.93 278.052C1835.6 270.782 1828.94 265.565 1821.29 265.565C1820.9 265.565 1820.52 265.565 1820.13 265.565C1816.41 265.843 1812.53 265.954 1807.82 265.954C1802.72 265.954 1797.56 265.787 1792.57 265.676L1787.47 265.51C1787.47 265.51 1787.2 265.51 1787.03 265.51C1779.32 265.51 1772.67 270.782 1771.34 277.997C1754.6 270.505 1733.14 241.145 1726.26 216.337C1722.94 204.294 1723.44 195.247 1727.82 189.42C1728.76 188.143 1739.13 177.154 1813.48 177.154C1865.87 177.154 1874.46 182.982 1875.29 183.648C1881.72 188.92 1884.11 197.689 1882.39 209.677C1878.29 238.093 1854.23 270.283 1837.04 277.941L1836.93 278.052Z" fill="#1F1F1F"/>
<path d="M570.626 519.142C562.532 519.142 556.655 518.532 552.053 517.255C547.008 515.812 543.183 508.597 542.794 502.77C542.018 490.948 545.511 472.634 549.226 453.209C552.053 438.279 554.992 422.906 555.546 411.806C558.041 357.028 555.047 301.584 552.164 247.972C550.944 225.272 549.669 201.907 548.838 178.875C555.823 177.82 561.368 177.321 565.858 177.321C570.349 177.321 574.286 178.042 576.559 179.319C577.501 179.874 579.331 180.873 579.83 185.646C580.551 192.139 585.651 197.467 592.415 198.799C596.407 199.576 600.565 200.52 603.171 202.74C617.032 214.395 628.619 238.925 638.377 260.959C639.264 263.012 640.262 265.288 641.204 267.23C643.755 272.891 649.576 276.332 655.841 276.332C657.227 276.332 658.669 276.165 660.055 275.777C667.318 273.89 675.856 269.173 685.503 263.623C691.989 259.904 698.144 256.352 703.521 254.354C705.296 253.688 706.959 252.689 708.345 251.468C710.341 249.748 712.281 248.527 713.834 247.972C717.216 246.751 720.653 246.14 724.035 246.14C730.134 246.14 735.456 248.083 740.557 249.97C745.491 251.746 750.093 253.466 755.249 253.466C755.748 253.466 756.303 253.466 756.802 253.466C757.522 253.466 758.298 253.3 759.019 253.189C762.9 252.356 767.114 250.414 775.652 245.918C782.305 242.422 789.845 238.481 796.166 237.205C800.656 236.261 805.203 235.817 809.749 235.817C835.363 235.817 860.534 250.969 872.454 273.557C882.212 292.094 880.715 312.407 868.407 327.836C866.411 330.388 860.312 334.773 857.374 336.882C852.107 340.656 849.889 347.149 851.774 353.143C851.996 353.865 852.162 354.531 852.218 355.086C854.602 375.288 846.341 386.221 836.749 398.875C834.809 401.428 832.813 404.036 830.817 406.867C826.936 412.306 827.269 419.521 831.593 424.682C836.527 430.565 841.684 435.893 847.172 441.554C860.146 454.929 872.343 467.528 879.218 484.955C885.317 500.383 883.321 504.879 883.044 505.378C882.655 506.1 882.212 506.266 881.824 506.377C880.438 506.766 877.777 506.932 873.951 506.932C870.125 506.932 865.746 506.766 861.809 506.599C858.538 506.488 855.766 506.377 853.881 506.377C852.55 506.044 851.164 505.878 849.778 505.878C847.616 505.878 845.454 506.322 843.458 507.099C841.296 507.987 840.242 508.098 840.242 508.098H808.141C806.145 508.098 804.149 508.431 802.32 509.152C801.876 509.319 801.543 509.374 801.322 509.374C800.102 509.374 799.88 508.375 799.825 507.321C799.603 503.325 802.098 500.272 807.476 497.941C808.862 497.331 810.47 496.776 812.244 496.276C817.511 494.833 821.669 490.948 823.166 485.954C824.663 480.959 823.388 475.575 819.673 471.69C814.129 465.863 806.755 457.926 797.108 447.326L795.611 445.661C792.562 442.331 788.182 440.444 783.58 440.444C783.414 440.444 783.247 440.444 783.081 440.444C778.313 440.61 773.822 442.775 770.884 446.382C766.781 451.488 762.346 457.149 758.797 461.7C753.309 468.749 748.097 475.353 743.883 480.459C741.167 483.734 737.397 488.284 735.9 488.839C731.021 489.172 726.53 491.67 723.813 495.499C722.926 496.776 722.039 498.052 721.374 499.051C719.378 501.937 716.939 505.489 715.774 506.544C715.774 506.544 715.774 506.544 715.719 506.544C715.719 506.544 715.608 506.544 715.497 506.544C714.665 506.544 711.727 505.878 702.856 499.828C696.369 495.388 691.989 491.614 690.548 489.894C690.326 489.616 690.049 489.339 689.772 489.061C687.887 487.064 685.447 485.621 682.731 484.844C681.178 484.4 679.626 483.623 677.963 482.513C677.353 482.069 676.244 481.236 674.747 480.182L669.424 476.352C666.597 474.299 663.16 473.244 659.778 473.244C656.617 473.244 653.402 474.132 650.685 475.964C645.03 479.738 642.535 486.509 644.586 492.78C645.806 496.443 645.418 501.66 644.974 507.154C644.753 510.207 644.475 513.592 644.42 517.311C640.206 516.589 635.106 516.201 628.841 516.201C619.748 516.201 609.381 516.978 599.345 517.699C589.477 518.421 579.275 519.198 570.46 519.198L570.626 519.142ZM726.641 285.045C725.865 285.045 725.089 285.045 724.312 285.212C718.546 286.044 713.723 289.763 711.727 294.924C702.357 319.122 685.503 356.307 653.568 423.239L647.192 436.67C645.196 440.888 645.307 445.772 647.636 449.879C649.964 453.986 654.067 456.872 658.89 457.704C663.27 458.481 668.981 461.145 675.579 464.253C678.018 465.419 681.289 466.973 684.616 468.36C686.667 469.248 688.94 469.692 691.158 469.692C693.043 469.692 694.983 469.359 696.813 468.693C700.749 467.25 703.965 464.42 705.684 460.757L769.775 369.294C773.323 364.188 773.323 357.583 769.664 352.477C768.833 351.312 767.724 349.48 766.504 345.706C763.066 334.939 761.791 323.063 760.572 311.574C760.405 309.798 760.183 308.078 760.017 306.357C759.186 298.643 752.311 292.871 744.216 292.871C744.05 292.871 743.551 292.871 743.551 292.871C741.998 292.871 740.723 292.371 739.781 291.428C739.614 291.261 739.504 291.15 739.393 290.984C736.343 287.154 731.631 284.99 726.696 284.99L726.641 285.045ZM590.253 252.356C588.257 252.356 586.206 252.689 584.265 253.466C578.277 255.797 574.341 261.292 574.341 267.452V440.444C574.341 447.215 579.165 453.209 586.039 454.985C587.425 455.373 588.867 455.54 590.253 455.54C595.797 455.54 601.009 452.82 603.947 448.158C609.436 439.389 615.535 429.899 621.301 420.908C625.126 414.97 624.184 407.366 619.027 402.427V282.215C619.027 279.273 618.14 276.443 616.422 274.001C613.04 269.117 607.274 262.457 601.674 256.963C598.625 253.966 594.467 252.412 590.253 252.412V252.356ZM641.315 314.627C638.931 314.627 636.547 315.126 634.274 316.181C628.841 318.734 625.403 323.951 625.403 329.722V360.136C625.403 366.963 630.227 372.901 637.157 374.677C638.543 375.01 639.929 375.177 641.315 375.177C646.859 375.177 652.182 372.402 655.065 367.684C661.995 356.418 667.706 346.705 672.474 338.103C675.689 332.275 674.581 325.116 669.646 320.454C666.597 317.568 662.494 316.014 658.391 316.014C655.897 316.014 653.346 316.569 651.018 317.735C648.19 315.681 644.753 314.627 641.315 314.627Z" fill="#1F1F1F"/>
<path d="M714.665 879.722C714.665 879.722 714.333 879.722 714.277 879.722C712.669 879.223 711.006 879.001 709.343 879.001C707.68 879.001 705.961 879.278 704.298 879.778H671.032C670.367 879.778 669.48 879.39 668.704 877.558C667.983 875.671 666.652 866.958 668.094 858.688C668.981 853.582 667.04 848.365 662.938 844.924L663.049 681.867C663.049 679.813 662.605 677.815 661.773 675.928C652.237 654.839 655.287 645.237 663.049 625.479C664.047 622.982 664.324 620.262 663.825 617.598C663.548 615.989 663.825 615.156 664.047 614.657C665.045 612.659 668.537 610.883 672.252 608.94C674.858 607.608 676.687 606.609 678.184 605.61C678.517 605.333 678.905 605.111 679.238 604.833C685.392 599.672 690.881 594.011 696.702 588.017C713.058 571.145 728.526 555.161 755.859 553.718C756.413 553.718 757.023 553.718 757.633 553.718C761.791 553.718 766.227 554.384 770.496 555.05C772.991 555.439 775.541 555.827 777.759 556.049C778.258 556.049 778.812 556.105 779.311 556.105C782.915 556.105 786.408 554.939 789.235 552.83C790.4 551.942 791.896 550.777 793.061 549.778C798.106 545.671 803.872 541.065 809.804 539.622C814.572 538.456 819.119 537.901 823.388 537.901C841.794 537.901 854.934 549.001 856.154 565.484C856.93 575.807 852.107 586.075 843.624 592.291C840.187 594.788 837.969 598.562 837.525 602.613C837.082 606.72 838.412 610.772 841.185 613.935C850.721 624.647 850.942 629.253 850.942 629.475C850.942 632.639 850.222 634.637 849.446 636.191C847.616 639.909 847.45 644.127 848.946 647.957C849.224 648.678 848.946 649.677 848.78 650.454C848.448 651.176 847.172 653.617 842.016 661.887C840.076 664.995 836.139 671.322 834.753 672.82C834.753 672.82 834.642 672.82 834.642 672.876C833.09 673.708 830.318 673.708 829.431 673.708C828.544 673.708 827.712 673.708 826.825 673.653C826.548 673.653 826.271 673.653 825.993 673.653C821.392 673.653 817.012 675.54 813.962 678.87C812.632 680.313 811.357 681.756 810.192 683.088C808.474 685.086 807.309 687.472 806.81 690.025C806.533 691.357 806.201 692.578 805.757 693.466C802.708 699.904 804.759 707.452 810.691 711.67C813.353 714.667 817.511 722.825 820.394 730.762C825.384 744.415 823.554 748.244 822.556 749.243C822.334 749.465 821.835 749.965 820.172 749.965C818.841 749.965 817.178 749.687 815.293 749.354C814.129 749.132 812.909 748.966 811.745 748.799C810.969 748.688 810.192 748.633 809.416 748.633C801.71 748.633 794.946 753.961 793.726 761.398C793.338 763.84 792.506 764.894 791.896 765.505C791.287 766.115 790.51 766.559 789.568 766.836C784.412 768.168 780.309 771.887 778.646 776.715C778.535 777.104 778.313 777.492 778.091 777.825C777.038 779.268 775.486 779.768 771.05 779.934H769.997C765.949 780.212 762.179 781.821 759.352 784.596C758.853 785.096 758.298 785.651 757.8 786.15C755.526 788.481 753.142 790.923 749.816 792.477C748.485 793.088 743.994 793.476 737.896 793.476C736.676 793.476 735.512 793.476 734.403 793.476C734.292 793.476 734.181 793.476 734.07 793.476C729.912 793.476 725.92 795.03 722.926 797.805C719.877 800.636 718.158 804.521 718.158 808.572V844.036C718.158 844.036 718.158 844.203 718.158 844.425C716.939 848.754 717.826 853.416 720.598 857.079C723.37 860.742 727.694 863.017 732.462 863.35C744.715 864.127 747.432 869.788 748.042 879.944H714.776L714.665 879.722ZM734.015 689.859C730.411 689.859 726.918 691.024 724.091 693.189C720.321 696.075 718.103 700.404 718.103 704.955V727.21C718.103 733.426 722.15 739.031 728.304 741.251C730.189 741.917 732.13 742.25 734.015 742.25C738.45 742.25 742.719 740.53 745.824 737.311C751.59 731.317 757.799 725.045 763.787 719.051L764.674 718.163C768.832 714.001 770.163 707.951 768.056 702.568C765.949 697.185 760.793 693.411 754.75 692.8C748.43 692.19 742.775 691.357 737.508 690.247C736.343 690.025 735.179 689.859 734.015 689.859ZM811.578 607.164C807.365 607.164 803.262 608.718 800.157 611.715C800.102 611.771 799.991 611.882 799.88 611.937C799.326 612.381 798.771 612.936 798.272 613.436L783.58 629.642C779.699 633.86 778.646 639.798 780.808 645.015C782.97 650.232 788.016 653.84 793.837 654.506C796.72 654.783 799.326 655.227 801.765 655.727C801.931 655.727 802.042 655.782 802.209 655.837C803.595 656.226 805.036 656.392 806.478 656.392C811.246 656.392 815.903 654.339 818.952 650.676C819.895 649.566 820.449 649.511 820.837 649.4C824.94 648.845 828.71 646.791 831.26 643.683C833.367 641.13 834.975 639.077 836.195 637.523C838.745 634.248 839.743 630.141 839.078 626.145C838.357 622.149 835.973 618.542 832.48 616.266C828.932 613.935 824.552 611.715 819.95 609.495L818.897 608.996C816.568 607.886 814.073 607.331 811.578 607.331V607.164Z" fill="#1F1F1F"/>
<path d="M1212.43 519.142C1186.26 519.142 1161.25 517.477 1142.07 514.48C1114.96 510.207 1106.2 504.435 1103.59 500.383C1103.59 489.949 1102.48 478.794 1101.43 468.027C1098.66 440.444 1096.11 414.359 1110.86 398.986C1114.57 395.156 1119.01 392.215 1124.49 390.05C1129.71 387.997 1133.37 383.446 1134.14 378.174C1134.92 372.846 1132.64 367.573 1128.15 364.299C1115.29 354.753 1109.58 348.703 1109.19 343.93C1109.08 342.265 1109.64 340.822 1110.91 339.546C1112.3 338.214 1114.07 337.936 1115.29 337.936C1124.55 337.936 1141.35 352.255 1154.88 363.744C1163.91 371.458 1168.46 375.177 1171.79 377.175C1173.17 378.007 1174.67 378.618 1176.28 379.006C1182.99 380.671 1200.39 381.836 1218.58 381.836C1230.39 381.836 1240.87 381.281 1245.91 380.449C1247.91 380.116 1249.85 379.395 1251.57 378.34C1255.39 376.009 1261.33 371.07 1269.31 364.354C1283.23 352.588 1300.47 337.992 1310.17 337.992C1312.06 337.992 1313.44 338.491 1314.66 339.49C1315.49 340.212 1315.83 340.989 1315.77 342.043C1315.6 347.76 1302.19 358.471 1294.92 364.188C1290.43 367.795 1288.38 373.401 1289.6 378.895C1290.82 384.334 1295.15 388.718 1300.8 390.272C1316.21 394.435 1326.25 400.54 1328.3 407.033C1330.68 414.581 1331.68 436.337 1330.57 456.594C1329.19 481.347 1325.31 498.274 1319.87 502.992C1308.51 512.871 1266.32 519.253 1212.37 519.253L1212.43 519.142ZM1260.22 432.896C1259.83 432.896 1259.39 432.896 1259 432.896L1243.75 434.006C1238.21 434.395 1233.33 437.502 1230.78 442.22C1228.28 446.882 1228.5 452.487 1231.44 456.983L1243.31 475.131C1246.25 479.627 1251.4 482.291 1256.84 482.291C1257.83 482.291 1258.83 482.18 1259.83 482.013C1266.32 480.848 1271.36 475.964 1272.53 469.803C1273.08 466.695 1273.63 463.643 1274.13 460.868C1274.74 457.316 1275.35 453.875 1275.96 450.545C1276.79 445.938 1275.41 441.221 1272.08 437.78C1269.03 434.617 1264.76 432.841 1260.27 432.841L1260.22 432.896ZM1169.57 432.841C1165.02 432.841 1160.7 434.672 1157.65 437.946C1154.32 441.498 1152.99 446.271 1153.93 450.933L1157.15 466.196C1158.37 472.079 1163.19 476.741 1169.4 477.962C1170.51 478.184 1171.62 478.295 1172.73 478.295C1177.77 478.295 1182.65 476.019 1185.7 471.968L1196.46 457.704C1199.78 453.264 1200.34 447.492 1197.9 442.553C1195.46 437.613 1190.42 434.339 1184.7 433.895L1170.73 432.896C1170.35 432.896 1169.9 432.896 1169.51 432.896L1169.57 432.841ZM1305.51 422.518C1304.24 422.518 1302.91 422.684 1301.63 422.962L1300.63 423.184C1296.31 424.238 1292.6 426.958 1290.49 430.676C1288.38 434.395 1287.99 438.834 1289.49 442.83C1289.71 443.496 1289.99 444.162 1290.27 444.828C1292.6 450.822 1298.58 454.763 1305.24 454.763C1305.79 454.763 1306.4 454.763 1306.95 454.652C1314.22 453.93 1320.04 448.547 1321.04 441.665L1321.31 439.556C1322.04 434.617 1320.09 429.622 1316.16 426.292C1313.22 423.794 1309.45 422.462 1305.57 422.462L1305.51 422.518ZM1262.99 390.106C1261.82 390.106 1260.88 390.106 1260.05 390.217C1254.45 390.55 1249.46 393.658 1246.91 398.431L1246.58 399.041C1244.03 403.87 1244.36 409.697 1247.47 414.193C1250.4 418.411 1255.39 421.019 1260.72 421.019C1261.05 421.019 1261.38 421.019 1261.71 421.019C1264.38 420.853 1266.93 420.686 1269.36 420.52C1277.57 419.909 1283.95 413.471 1284.06 405.646C1284.17 397.82 1277.9 391.271 1269.7 390.494C1267.37 390.272 1265.1 390.161 1262.99 390.161V390.106Z" fill="#1F1F1F"/>
<path d="M1044.6 410.585C1043.38 410.585 1042.05 410.585 1040.72 410.474C1019.76 409.253 996.201 390.605 987.109 368.128C980.566 351.922 982.95 337.27 993.817 326.781C1000.19 320.621 1009.34 318.512 1018.99 316.292C1028.02 314.238 1037.39 312.074 1045.1 306.357C1045.38 306.135 1045.66 305.913 1045.93 305.691C1049.31 302.805 1052.53 297.977 1058.85 287.543C1065.78 276.054 1073.71 263.012 1081.3 263.012C1083.02 263.012 1084.63 263.678 1086.24 264.899C1086.35 270.949 1090.23 276.387 1096.16 278.663C1098.1 279.44 1100.16 279.773 1102.15 279.773C1106.25 279.773 1110.36 278.274 1113.41 275.388C1115.68 273.224 1118.01 271.06 1120.17 268.951C1144.29 246.085 1160.31 231.599 1170.62 225.217C1174.17 223.052 1176.61 219.667 1177.55 215.782C1179.33 208.123 1185.04 198.522 1192.52 190.641C1200.62 182.149 1209.49 177.099 1216.31 177.099C1220.52 177.099 1223.96 178.875 1226.62 182.371C1227.67 183.759 1230.89 188.032 1227.23 195.525C1221.91 206.625 1203.89 218.835 1190.42 223.33C1186.87 224.495 1183.93 226.826 1181.99 229.823C1174.34 242.033 1157.43 255.908 1141.07 269.339C1135.36 274.001 1128.43 279.717 1122.5 284.99C1117.79 289.208 1116.23 295.701 1118.62 301.473C1121 307.19 1126.77 311.019 1133.25 311.075C1134.58 311.075 1135.08 311.63 1135.42 312.018C1137.02 314.183 1135.03 319.622 1134.25 321.675C1131.42 329.279 1121.45 333.552 1111.8 337.659C1103.37 341.266 1097.6 343.875 1093.83 347.76C1086.35 355.419 1083.25 366.075 1080.25 376.398C1074.26 396.988 1068.55 410.53 1044.71 410.53L1044.6 410.585ZM1068.77 316.902C1064.78 316.902 1060.85 318.29 1057.8 321.065C1057.46 321.398 1057.08 321.675 1056.69 321.953C1054.25 323.84 1049.54 325.56 1044.6 327.392L1043.49 327.78C1037.56 330 1033.62 335.328 1033.4 341.377C1033.24 347.427 1036.84 352.977 1042.61 355.474C1044.66 356.362 1046.32 357.417 1047.65 358.693C1048.7 359.637 1049.59 360.691 1050.37 361.801C1053.36 366.019 1058.3 368.461 1063.56 368.461C1064.06 368.461 1064.51 368.461 1065 368.406C1070.77 367.906 1075.82 364.465 1078.14 359.47C1080.92 353.532 1083.74 348.87 1087.07 344.929C1090.01 341.433 1091.12 336.882 1090.18 332.497C1089.23 328.113 1086.29 324.395 1082.14 322.286C1080.75 321.564 1079.59 320.898 1078.64 320.121C1075.71 317.901 1072.21 316.847 1068.72 316.847L1068.77 316.902Z" fill="#1F1F1F"/>
<path d="M540.133 879.722C538.858 879.722 537.417 879.556 535.864 879.167C534.977 866.403 535.975 849.364 537.028 831.327C538.248 810.182 539.69 786.206 537.527 770C536.973 765.893 534.644 762.175 531.096 759.733C528.379 757.846 525.053 756.847 521.726 756.847C520.728 756.847 519.786 756.958 518.788 757.124C517.125 757.402 515.461 757.79 514.131 758.068C512.357 758.456 511.303 758.678 510.749 758.678C510.638 758.678 510.416 758.678 510.361 758.567C508.975 756.458 507.478 753.517 508.254 751.463C508.42 751.019 508.642 750.631 508.919 750.298C513.687 745.192 514.242 737.699 510.25 731.983L510.139 731.816C508.697 729.707 509.141 726.433 509.751 724.102C511.026 719.329 509.751 714.278 506.369 710.56C505.038 709.117 504.207 706.953 503.874 704.289H522.114C526.772 704.233 531.152 702.291 534.145 698.961C537.139 695.631 538.47 691.191 537.805 686.862C535.587 673.264 535.531 658.668 535.476 644.516C535.31 608.552 535.143 574.531 503.985 550.333C510.915 542.619 526.162 537.846 543.737 537.846C555.269 537.846 570.072 540.288 577.224 547.225C579.22 549.167 580.162 550.999 580.052 552.886C579.885 556.327 576.282 559.379 570.848 563.597C564.971 568.204 560.314 572.144 557.93 577.417C554.992 583.855 551.277 600.504 549.614 609.495C548.782 614.102 550.168 618.764 553.495 622.205C556.544 625.368 560.813 627.144 565.304 627.144C565.692 627.144 566.08 627.144 566.468 627.144C567.189 627.144 567.91 627.089 568.63 627.089C574.175 627.089 582.048 628.421 586.15 639.743C588.922 647.402 589.31 657.669 589.809 668.547C589.92 670.933 590.031 673.32 590.142 675.706C590.419 680.701 593.302 685.252 597.793 687.861C600.288 689.304 603.171 690.025 605.999 690.025C608.272 690.025 610.545 689.581 612.707 688.638C615.812 688.915 619.249 689.026 623.241 689.026C627.51 689.026 631.946 688.86 636.215 688.749C640.539 688.582 644.974 688.471 649.354 688.471C655.73 688.471 666.32 688.471 675.967 692.19C686.667 696.297 693.209 703.789 696.48 715.721C702.191 736.478 701.027 791.7 699.585 811.292C699.142 817.23 698.033 819.728 697.645 820.394C697.312 820.616 696.979 820.782 696.702 820.838C689.605 822.947 684.948 829.44 685.558 836.488C685.669 837.709 685.78 839.097 685.891 840.373C687.221 854.415 689.051 873.673 681.899 877.946C680.901 878.557 679.903 878.834 679.016 878.834C675.579 878.834 673.472 874.894 672.973 871.231C671.809 862.684 672.252 853.083 672.973 843.925C673.472 837.321 669.369 831.216 662.882 828.829C660.886 828.108 658.502 825.166 658.059 820.394C657.116 810.626 658.391 800.691 659.778 790.146C661.496 776.993 663.27 763.396 660.332 749.965L659.944 748.244C659.611 746.801 659.223 744.748 658.669 742.972C656.895 736.7 651.018 732.205 644.143 731.816C641.315 731.65 635.716 731.483 629.118 731.483H629.063C624.849 731.483 620.802 733.093 617.808 735.923C614.814 738.754 613.151 742.639 613.151 746.69C613.151 752.629 612.153 754.904 610.545 756.514C609.048 758.012 606.664 759.011 603.448 759.4C594.799 760.454 588.645 767.947 589.699 776.16C592.97 801.468 590.419 821.115 582.768 830.05C579.054 834.379 574.341 836.488 568.242 836.488C567.466 836.488 566.69 836.488 565.914 836.377C565.47 836.377 564.971 836.322 564.528 836.322C560.259 836.322 556.156 837.931 553.107 840.873C549.78 844.092 548.172 848.587 548.671 853.083C549.78 862.351 550.612 872.619 546.343 877.169C544.458 879.223 541.852 879.611 539.967 879.611L540.133 879.722Z" fill="#1F1F1F"/>
<path d="M472.549 747.523C468.89 747.523 465.12 746.413 461.682 744.248C454.53 739.808 450.539 735.091 449.818 730.318C448.875 724.046 453.311 718.607 458.744 712.614C459.686 711.615 460.795 710.338 461.682 709.283C462.791 707.951 463.678 706.398 464.233 704.788C492.342 707.785 493.617 722.992 493.395 727.598C492.785 738.365 483.249 747.523 472.66 747.523H472.549Z" fill="#1F1F1F"/>
<path d="M357.895 879.722C357.895 879.722 357.34 879.722 356.897 879.5C355.012 878.779 353.016 878.446 351.02 878.446H318.198C318.198 878.446 317.2 878.335 315.093 877.447C313.042 876.615 310.88 876.171 308.662 876.171C307.22 876.171 305.779 876.337 304.393 876.725C302.452 876.725 299.514 876.837 296.409 876.948C292.417 877.114 287.871 877.281 283.99 877.281C280.109 877.281 277.337 877.114 275.951 876.725C275.563 876.614 275.119 876.392 274.731 875.671C274.454 875.171 272.458 870.565 278.668 854.914C285.709 837.21 298.128 824.334 311.268 810.792C316.923 804.965 322.245 799.47 327.29 793.421C331.615 788.315 331.948 781.1 328.067 775.661C325.96 772.719 323.798 769.834 321.913 767.336C312.155 754.46 303.727 743.305 306.167 722.714C306.222 722.104 306.389 721.382 306.666 720.605C308.606 714.612 306.389 708.063 301.122 704.233C297.851 701.902 291.807 697.518 289.756 694.909C277.226 679.203 275.674 658.501 285.653 639.632C297.74 616.655 323.409 601.226 349.467 601.226C352.461 601.226 355.511 601.448 358.504 601.836C359.225 601.947 360.001 602.003 360.722 602.003C366.876 602.003 372.587 598.617 375.192 593.123C378.131 587.018 376.412 579.859 371.09 575.474C369.815 574.42 367.93 573.032 366.488 571.867C361.609 568.148 355.566 563.542 351.74 558.769C347.305 553.219 346.64 548.668 349.634 544.506C352.628 541.842 364.603 537.79 369.648 537.79C372.753 537.79 373.973 538.734 374.638 539.455C379.295 544.561 380.46 551.776 381.513 558.769C382.345 563.93 383.121 568.814 385.117 573.088C387.279 577.694 396.981 594.455 404.688 607.386C407.571 612.27 412.949 615.101 418.604 615.101C420.378 615.101 422.208 614.823 423.982 614.213C427.53 612.992 431.854 611.771 436.733 611.771C440.171 611.771 443.664 612.381 447.157 613.602C452.091 615.323 460.74 623.925 460.629 629.309C460.629 630.474 460.241 632.084 457.58 632.916C456.415 633.249 455.473 633.416 454.641 633.416C454.419 633.416 453.754 633.416 453.2 633.138C451.315 632.417 449.319 632.084 447.323 632.084C442.721 632.084 438.286 633.971 435.181 637.412C430.746 642.351 430.191 649.4 433.684 654.949C437.343 660.721 440.337 665.272 442.555 668.38C444.994 671.821 448.82 674.208 453.144 674.874C454.53 675.096 456.083 675.318 457.469 675.54H457.912C466.118 676.816 476.319 678.37 482.529 680.757C505.593 689.637 525.718 712.725 529.266 734.48C531.706 749.299 526.605 762.23 514.463 771.831C502.044 781.655 488.905 786.816 476.43 786.816C469.943 786.816 463.678 785.429 457.746 782.709C455.528 781.71 453.2 781.211 450.816 781.211C446.325 781.211 441.89 782.987 438.84 786.372C434.128 791.478 433.629 798.971 437.565 804.632L455.473 830.217C457.136 833.935 460.352 836.877 464.288 838.32C466.173 838.986 468.114 839.374 470.11 839.374C472.327 839.374 474.545 838.93 476.596 838.042C480.089 836.544 483.693 834.879 486.077 833.713C493.894 829.995 500.658 826.831 505.149 826.831C507.921 826.831 509.418 827.997 510.028 830.494C510.028 830.661 510.083 830.827 510.083 830.883C508.587 834.046 497.886 841.761 487.518 849.253L486.853 849.753C485.301 850.863 484.081 851.751 483.416 852.25C481.697 853.36 480.089 854.137 478.481 854.637C475.432 855.525 472.771 857.245 470.775 859.632C466.062 864.682 450.76 876.059 445.105 876.725H444.939C443.719 875.615 441.28 872.064 439.228 869.122C438.508 868.068 437.565 866.736 436.623 865.348C433.906 861.463 429.415 859.021 424.536 858.688C422.928 858.133 418.936 853.305 416.275 850.141C412.006 844.98 406.684 838.209 401.084 831.049C397.369 826.332 392.768 820.449 388.554 815.177C385.671 811.569 381.18 809.405 376.357 809.238C376.19 809.238 376.024 809.238 375.858 809.238C371.256 809.238 366.821 811.125 363.827 814.455L361.997 816.453C352.073 827.331 344.478 835.545 338.767 841.483C335.052 845.368 333.722 850.807 335.274 855.802C336.826 860.853 340.985 864.738 346.307 866.125C359.78 869.622 359.447 875.505 359.336 877.447C359.281 878.557 359.059 879.556 357.784 879.556L357.895 879.722ZM448.598 705.399C444.773 705.399 441.058 706.675 438.175 709.061C434.627 712.003 432.575 716.276 432.686 720.772C433.074 737.866 437.787 753.073 445.992 763.618C448.543 766.892 451.37 769.667 454.475 771.887C457.302 773.94 460.684 774.995 464.177 774.995C465.563 774.995 466.949 774.828 468.335 774.495C473.104 773.274 477.04 770 478.925 765.671C479.978 763.229 481.642 760.898 483.693 758.9C487.574 755.126 492.675 752.851 497.332 752.851C497.775 752.851 498.219 752.851 498.662 752.906C499.494 752.962 500.326 753.184 501.268 753.517C503.098 754.183 504.983 754.46 506.868 754.46C510.416 754.46 513.909 753.35 516.737 751.241C521.117 747.967 523.39 742.75 522.669 737.533C521.283 727.376 515.24 718.108 510.416 712.114C504.539 704.788 497.11 698.184 488.96 693.022C486.299 691.357 483.194 690.469 480.089 690.469C477.705 690.469 475.321 690.969 473.159 691.968C468.058 694.299 464.676 699.016 464.233 704.344C464.233 704.511 464.233 704.677 464.177 704.844C463.068 704.733 461.96 704.677 460.962 704.677C458.411 704.677 456.582 705.01 455.085 705.343C454.031 705.565 453.089 705.732 452.202 705.732C451.869 705.732 451.536 705.732 451.204 705.676C450.372 705.565 449.485 705.454 448.653 705.454L448.598 705.399ZM406.684 707.952C400.419 707.952 394.653 711.448 392.102 717.054C391.548 718.274 390.994 719.273 390.273 720.217C386.614 725.267 386.558 731.983 390.106 737.089L394.597 743.471C397.591 747.8 402.636 750.187 407.848 750.187C409.788 750.187 411.729 749.854 413.559 749.188C420.544 746.635 424.702 739.864 423.538 732.871C423.095 730.04 422.762 727.099 422.596 724.213C422.596 723.713 422.596 723.214 422.54 722.714C422.374 715.61 417.051 709.561 409.678 708.229C408.624 708.063 407.626 707.952 406.573 707.952H406.684ZM415.665 662.164C414.834 662.164 414.002 662.22 413.115 662.331C406.018 663.385 400.53 668.88 399.809 675.651L399.532 678.481C399.254 681.145 398.977 683.865 398.645 686.584C397.702 694.41 403.302 701.569 411.396 703.068C412.394 703.234 413.448 703.345 414.446 703.345C421.431 703.345 427.807 698.961 429.748 692.356C431.3 687.195 432.686 681.034 431.411 674.652C431.189 673.597 430.857 672.543 430.413 671.544L430.191 671.044C427.585 665.55 421.875 662.109 415.665 662.109V662.164Z" fill="#1F1F1F"/>
<path d="M890.528 879.722L889.198 877.725C886.259 873.396 881.214 870.787 875.781 870.787C875.392 870.787 875.004 870.787 874.561 870.787C868.739 871.231 863.583 874.616 861.199 879.667V875.782C861.199 868.845 856.098 862.795 848.946 861.186L848.558 859.299C847.228 852.028 840.575 846.756 832.868 846.756C832.425 846.756 832.037 846.756 831.593 846.756C830.152 846.867 828.544 846.978 826.825 847.089C836.694 820.893 832.258 789.758 826.825 768.224H848.78C853.382 768.224 857.762 766.337 860.811 763.063C863.86 759.788 865.191 755.404 864.581 751.075C862.641 737.81 863.86 728.819 868.351 723.602C869.072 722.77 869.904 722.048 870.791 721.382C876.723 717.164 878.83 709.672 875.836 703.234C884.208 692.356 893.91 686.862 904.61 686.862C914.479 686.862 924.847 691.746 934.605 701.014C933.607 702.624 930.336 703.956 924.625 705.066C916.087 706.675 910.543 714.5 912.095 722.548L912.317 723.602C913.758 730.762 920.356 735.923 927.952 735.923C928.34 735.923 928.672 735.923 929.061 735.923C931.334 735.757 933.773 735.646 935.824 735.59C938.541 735.59 941.202 734.869 943.586 733.592L956.671 726.488C961.162 726.377 965.375 724.49 968.314 721.216C971.252 717.997 972.583 713.723 972.028 709.505C971.751 707.563 971.751 706.897 971.751 706.842C971.751 706.675 971.751 706.509 971.751 706.398C972.195 703.678 971.751 700.848 970.642 698.295V698.128C970.642 698.128 970.143 696.685 969.478 691.69C969.201 689.748 968.868 686.862 969.034 685.807C970.309 685.308 971.585 685.03 973.082 685.03C975.244 685.03 977.351 685.585 979.18 686.029L979.513 686.14C980.899 686.473 982.285 686.695 983.671 686.695C984.558 686.695 985.445 686.64 986.332 686.473C988.716 686.085 992.819 685.363 997.365 684.586C1002.52 683.643 1006.85 680.424 1008.95 675.873C1011.06 671.322 1010.73 666.105 1007.95 661.887C1007.79 661.609 1007.79 661.554 1007.79 661.387C1008.34 657.613 1007.34 653.673 1005.07 650.565C1003.96 649.067 1002.74 647.291 1001.02 644.738C995.813 637.023 994.926 634.97 994.87 634.748V634.581C993.817 631.029 993.817 628.587 994.87 626.201C994.87 626.145 994.926 626.034 994.981 625.923C994.981 625.923 995.757 624.647 998.918 622.094C1002.36 619.319 1004.41 615.323 1004.52 611.105C1004.68 606.831 1002.91 602.724 999.694 599.783C998.807 599.006 998.252 598.229 997.975 597.563C996.146 592.735 991.821 589.072 986.499 587.962C984.226 587.462 982.618 586.574 981.509 585.187C980.788 584.299 979.956 583.022 979.846 581.801C979.513 578.305 977.905 574.975 975.244 572.477C975.188 572.2 975.244 571.034 975.244 570.202C975.244 569.425 975.244 568.703 975.355 568.204C975.909 564.485 975.022 560.711 972.804 557.603C972.694 557.437 972.527 557.215 972.472 556.937C971.917 555.661 972.638 554.273 973.359 553.33C973.581 553.052 974.301 552.109 977.517 551.554C983.228 550.555 987.94 546.67 989.77 541.453C990.269 540.676 994.981 537.846 1008.9 537.846C1019.6 537.846 1021.54 540.066 1021.87 541.065C1021.87 541.231 1021.98 541.342 1021.98 541.509C1023.15 545.837 1026.25 549.445 1030.46 551.387C1030.85 551.554 1031.46 551.942 1031.85 552.997C1032.02 553.496 1032.13 553.996 1032.18 554.44C1032.52 559.379 1035.4 563.819 1039.83 566.317C1041.11 567.038 1041.83 567.982 1042.05 569.147C1043.11 574.697 1047.32 579.248 1053.03 580.913C1057.96 582.356 1060.96 583.799 1062.23 585.298C1063.06 586.241 1063.56 587.351 1063.84 588.794C1064.34 591.181 1065.45 593.401 1067.06 595.288C1067.72 596.12 1067.61 596.509 1067.5 596.675C1067.44 596.897 1067.39 596.953 1067.22 597.063C1065.5 598.34 1064.12 599.894 1063.12 601.725C1062.84 602.169 1062.57 602.558 1062.18 602.891C1057.52 606.887 1055.8 613.047 1057.69 618.653L1057.8 618.986C1059.18 623.87 1063.06 627.921 1068.17 629.475C1070.05 630.086 1071.94 630.696 1072.71 631.14C1075.15 632.472 1076.26 634.581 1075.98 637.19C1075.59 640.298 1072.99 643.239 1069.77 644.127C1069.61 644.127 1069.5 644.127 1069.33 644.127C1061.9 644.127 1055.36 649.011 1053.75 655.948C1053.69 656.226 1053.58 656.559 1053.53 656.836C1052.25 661.443 1053.36 666.327 1056.52 670.045C1060.18 674.374 1063.56 678.703 1064.39 684.42C1064.89 687.583 1066.11 703.623 1066.28 714.612C1066.34 721.382 1071.16 727.265 1078.09 728.986C1081.86 729.929 1083.41 731.261 1084.35 732.371L1084.52 732.538C1084.96 733.037 1085.46 733.537 1086.02 734.036C1088.18 735.923 1089.95 738.088 1091.28 740.474C1090.12 740.696 1088.96 740.918 1087.9 741.14C1081.53 742.417 1076.65 747.301 1075.59 753.35C1074.49 759.4 1077.42 765.505 1082.97 768.724C1084.52 769.612 1085.07 770.166 1085.24 770.333C1085.24 770.333 1085.24 770.388 1085.24 770.444C1085.68 773.829 1084.58 778.769 1083.41 784.041C1080.92 795.363 1077.81 809.516 1086.35 819.394L1085.57 819.506C1080.92 820.061 1076.7 822.614 1074.21 826.387C1071.66 830.161 1071.05 834.823 1072.49 839.041L1086.29 879.778C1085.13 879.5 1082.03 878.668 1077.92 871.12C1075.15 866.07 1069.66 862.962 1063.79 862.962C1063.01 862.962 1062.29 862.962 1061.51 863.128C1054.8 864.072 1049.43 868.9 1048.15 875.227L1047.21 879.778C1044.77 874.173 1038.95 870.51 1032.57 870.51C1026.2 870.51 1020.37 874.117 1017.88 879.722L1020.1 872.896C1022.31 866.014 1019.1 858.633 1012.45 855.192C1010.06 853.971 1007.46 853.36 1004.91 853.36C1000.3 853.36 995.758 855.247 992.653 858.799C981.065 872.064 964.765 879.667 948.022 879.667C936.767 879.667 925.29 876.448 913.869 870.177C911.43 868.845 908.658 868.123 905.886 868.123C903.723 868.123 901.617 868.512 899.565 869.344C894.908 871.231 891.526 875.116 890.362 879.778L890.528 879.722ZM943.808 764.617C930.391 764.617 917.639 769.667 906.939 779.213C889.586 794.697 884.263 814.788 892.469 834.324C901.672 856.246 925.512 872.175 949.241 872.175C964.155 872.175 977.794 866.014 988.716 854.359C1003.8 838.32 1007.34 818.285 998.419 799.47C988.716 778.935 966.262 764.617 943.808 764.617Z" fill="#1F1F1F"/>
<path d="M1497.9 515.868C1490.03 513.703 1482.15 504.712 1475.22 496.776C1470.45 491.337 1466.57 487.008 1463.25 484.511C1460.42 482.402 1456.98 481.292 1453.43 481.292C1453.05 481.292 1452.66 481.292 1452.27 481.292C1448.28 481.569 1444.45 482.846 1440.57 484.289C1438.3 485.121 1436.36 485.843 1435.14 485.843C1434.86 485.843 1434.42 485.843 1434.14 485.565C1430.37 482.235 1430.76 480.237 1430.87 479.627C1431.03 478.794 1431.42 476.796 1438.19 474.077C1443.79 471.801 1447.5 466.751 1447.83 460.979C1448.55 447.936 1448.83 423.128 1448.44 408.92C1448.33 404.869 1446.5 401.039 1443.34 398.264C1440.4 395.656 1436.52 394.213 1432.53 394.213C1432.31 394.213 1432.03 394.213 1431.81 394.213C1429.48 394.324 1426.99 394.435 1424.44 394.546C1417.45 394.879 1410.35 395.267 1404.59 395.267C1400.54 395.267 1397.66 395.101 1395.77 394.712C1395.72 393.547 1395.66 392.159 1395.55 390.605C1394.72 375.843 1393.17 348.592 1401.76 342.931C1403.59 342.376 1411.57 340.6 1438.57 340.6C1487.86 340.6 1499.01 344.541 1501.22 345.706C1501.28 345.817 1501.39 345.928 1501.45 346.039C1506.05 352.588 1505.27 364.854 1504.55 376.731C1504.11 383.557 1503.72 389.939 1504.38 394.823H1471.95C1467.68 394.823 1463.63 396.433 1460.64 399.319C1457.65 402.205 1455.98 406.09 1456.04 410.141C1456.15 416.524 1455.21 423.017 1454.26 429.289C1452.6 440.444 1451.1 450.989 1454.26 462.089C1454.71 463.587 1455.32 464.975 1456.21 466.251C1458.92 470.247 1464.36 475.464 1474.83 484.844C1481.71 491.004 1488.81 497.386 1493.52 502.881C1497.12 507.099 1500.84 512.76 1497.84 515.757L1497.9 515.868ZM1482.21 353.754C1482.21 353.754 1481.65 353.754 1481.38 353.754C1477.5 353.92 1472.62 354.475 1464.97 355.474C1456.7 356.584 1450.72 363.577 1451.33 371.514C1451.94 379.394 1458.87 385.499 1467.18 385.499H1467.24C1472.89 385.499 1478.55 385.277 1483.54 384.944C1488.14 384.611 1492.41 382.447 1495.18 378.895C1497.95 375.343 1498.95 370.903 1497.95 366.63C1497.79 366.019 1497.68 365.464 1497.51 364.909C1495.62 358.305 1489.3 353.754 1482.15 353.754H1482.21Z" fill="#1F1F1F"/>
<path d="M1254.4 519.142C1252.62 519.142 1250.74 518.032 1248.8 515.868C1247.24 514.147 1246.41 511.594 1254.45 501.271C1256.89 498.163 1258.94 495.444 1260.27 493.002C1261.44 490.837 1261.99 488.451 1261.99 486.065C1261.99 479.127 1258.66 473.022 1254.89 465.974C1247.69 452.487 1238.71 435.726 1250.79 405.812C1253.79 398.431 1258.11 391.66 1263.65 385.666C1266.65 382.447 1268.09 378.118 1267.54 373.845C1264.21 348.426 1266.76 313.35 1268.53 298.421C1269.03 294.147 1271.53 284.934 1273.75 281.382C1277.24 275.832 1282.56 274.168 1290.38 272.336C1298.42 270.394 1307.56 268.229 1310 255.797C1312.06 245.363 1307.23 222.553 1302.96 212.23C1302.19 210.399 1301.08 208.734 1299.64 207.291C1299.14 206.791 1298.2 205.959 1297.47 205.348C1293.37 201.796 1292.6 199.965 1293.7 196.468C1294.09 195.192 1294.98 193.638 1296.92 193.638C1297.53 193.638 1298.2 193.749 1299.03 194.026C1300.8 194.637 1302.63 194.97 1304.52 194.97C1308.4 194.97 1312.17 193.638 1315.16 191.14C1315.83 190.585 1316.55 189.975 1317.1 189.475C1323.31 184.092 1331.02 177.432 1340.83 177.376C1345.04 177.654 1358.41 181.428 1361.84 183.37C1363.01 184.203 1363.84 185.59 1364.89 188.365C1366.5 192.583 1369.99 195.913 1374.43 197.467C1374.93 197.634 1375.09 197.8 1375.2 197.911C1375.26 197.911 1375.32 198.022 1375.37 198.078C1376.26 199.576 1378.31 204.349 1383.24 218.335C1389.56 236.317 1390.23 240.146 1390.28 240.535C1391.89 255.964 1381.97 270.949 1372.38 285.489C1371.05 287.543 1369.72 289.485 1368.5 291.428C1365.22 296.478 1365.39 302.916 1368.94 307.8C1369.99 309.243 1370.1 310.575 1370.1 311.075C1370.1 311.963 1370.1 314.294 1365.89 317.346C1360.68 321.176 1358.52 327.669 1360.46 333.663L1361.4 336.549C1363.12 341.766 1364.73 346.65 1365.06 350.313C1365.06 350.313 1365.06 350.479 1364.95 350.535C1362.29 354.087 1361.34 358.527 1362.4 362.745C1363.45 366.963 1366.33 370.57 1370.38 372.624C1371.99 373.456 1373.6 374.289 1375.09 375.177C1379.97 377.952 1383.08 382.391 1385.9 386.276C1386.74 387.442 1387.79 388.94 1388.79 390.106C1390.56 392.27 1392.95 393.991 1395.66 394.99C1396 401.983 1397.44 408.254 1398.99 414.914C1401.54 425.848 1404.15 437.114 1401.65 452.099C1400.49 459.147 1395.72 467.25 1391.89 473.688C1390.73 475.686 1389.12 478.35 1387.96 480.626C1385.35 485.565 1385.79 491.393 1389.12 495.943L1389.73 496.831C1394.55 503.38 1398.32 509.374 1395.61 516.034C1394.66 516.034 1392.11 515.868 1388.57 512.094C1385.57 508.875 1381.19 507.043 1376.7 507.043H1345.65C1344.49 507.043 1343.32 507.154 1342.16 507.432C1334.45 509.097 1327.52 509.874 1321.04 509.874C1314.94 509.874 1309.17 509.152 1303.3 507.709C1301.97 507.376 1300.63 507.21 1299.3 507.21C1299.14 507.21 1298.92 507.21 1298.75 507.21L1294.26 507.376C1287.49 507.598 1279.95 507.876 1273.41 507.876C1267.87 507.876 1262.77 510.651 1259.88 515.091C1257.17 519.253 1255.39 519.253 1254.28 519.253L1254.4 519.142Z" fill="#1F1F1F"/>
<path d="M2000.15 879.722C1995.88 879.722 1991.61 879.556 1988.95 879.278C1987.79 879.167 1986.62 878.89 1985.29 878.446C1983.57 877.891 1981.8 877.613 1980.02 877.613C1977.75 877.613 1975.48 878.057 1973.37 879.001C1972.76 879.278 1972.1 879.39 1971.93 879.39C1970.76 879.556 1969.43 879.611 1967.88 879.611C1965.72 879.611 1963.39 879.445 1961.12 879.334C1958.79 879.167 1956.46 879.056 1954.3 879.056C1953.25 879.056 1952.25 879.056 1951.36 879.167C1950.47 878.335 1950.53 872.23 1950.53 870.177C1950.53 869.011 1950.53 867.901 1950.58 866.902C1950.75 862.24 1948.64 857.745 1944.82 854.748C1944.71 854.637 1944.65 854.581 1944.54 854.526C1943.82 851.973 1943.93 843.148 1944.04 832.992C1944.1 827.719 1944.21 819.783 1944.04 813.179C1943.93 807.018 1939.83 801.524 1933.67 799.359C1931.84 798.693 1929.96 798.416 1928.13 798.416C1923.69 798.416 1919.37 800.192 1916.32 803.411C1914.55 805.242 1912.94 806.685 1911.33 807.795C1904.29 812.624 1864.54 820.505 1850.73 820.505C1842.08 820.505 1835.04 827.053 1834.82 835.267C1834.77 838.819 1834.21 841.539 1833.1 844.036C1831.99 846.589 1827.61 851.251 1823.84 851.251C1823.12 851.251 1822.4 851.085 1821.85 850.696H1821.79C1820.96 849.253 1820.07 844.036 1819.35 839.818C1817.69 830.106 1817.69 827.608 1817.69 827.497C1817.69 826.887 1817.86 826.276 1818.08 825.499C1819.24 821.448 1818.58 817.119 1816.19 813.567C1816.03 813.29 1815.86 813.012 1815.75 812.679C1815.75 812.568 1815.03 810.404 1813.92 801.635C1813.48 798.027 1812.81 793.199 1813.2 791.534C1813.2 791.534 1813.2 791.534 1813.25 791.478C1815.36 790.646 1817.69 790.202 1820.18 790.202C1823.84 790.202 1827.45 791.145 1830.66 791.922C1832.05 792.255 1833.43 792.644 1834.6 792.866C1835.71 793.088 1836.82 793.199 1837.93 793.199C1838.7 793.199 1839.53 793.143 1840.31 793.032C1847.52 791.978 1873.13 787.371 1881.5 785.651C1884.33 785.096 1886.99 783.764 1889.1 781.877C1889.93 781.155 1890.93 780.212 1891.98 779.157C1895.7 775.494 1897.25 770.333 1896.08 765.394C1894.92 760.454 1891.21 756.403 1886.27 754.571C1881.95 753.017 1879.78 750.464 1879.84 749.576C1879.84 749.465 1879.84 749.41 1879.84 749.299C1882.06 744.248 1881.17 738.421 1877.57 734.147C1875.57 731.761 1872.74 727.82 1868.14 720.994C1859.05 707.452 1857.66 704.122 1857.55 703.734V703.623C1856.22 699.127 1855.39 694.299 1857.61 689.304C1857.72 689.082 1860.05 684.253 1876.46 673.875C1881.67 670.545 1884.33 664.662 1883.28 658.779C1882.22 652.896 1877.57 648.179 1871.47 646.736C1869.14 646.181 1867.37 645.404 1866.2 644.294C1864.59 642.906 1862.71 640.797 1862.6 638.744C1862.26 631.029 1855.89 624.813 1847.74 624.258C1838.42 623.648 1835.6 620.096 1834.65 618.93C1833.21 617.099 1831.49 614.379 1831.77 611.993C1832.44 606.11 1829.5 600.393 1824.12 597.397C1824.12 597.397 1824.06 597.341 1824.01 597.286C1823.84 596.564 1823.84 594.622 1823.84 593.345C1823.84 591.958 1823.84 589.904 1824.12 589.294C1826.67 583.522 1825.17 576.862 1820.41 572.588C1819.8 572.033 1819.35 571.423 1819.02 570.701C1818.24 568.925 1818.74 566.927 1820.57 564.541C1822.12 562.487 1826.39 561.266 1833.38 560.878C1841.58 560.434 1848.07 554.107 1848.35 546.337C1848.35 545.671 1848.51 544.949 1848.68 544.172C1849.73 542.563 1858 538.012 1881.39 538.012C1899.69 538.012 1903.01 541.842 1903.62 543.507C1903.9 544.339 1904.07 545.06 1904.07 545.782C1903.96 553.052 1909.39 559.379 1916.93 560.767C1918.93 561.155 1920.09 562.099 1920.81 563.986C1921.37 565.54 1921.53 566.872 1921.31 567.926C1919.54 575.419 1923.92 582.967 1931.57 585.52C1932.18 585.742 1932.73 585.908 1933.23 586.186C1938.33 588.406 1938.61 591.736 1938.39 594.067C1937.72 601.337 1942.6 608.052 1950.03 609.939C1959.29 612.326 1969.43 615.212 1972.93 619.319C1974.65 621.317 1975.53 623.648 1976.03 627.089C1976.53 630.696 1978.36 634.026 1981.24 636.413C1982.02 637.412 1982.3 638.244 1982.08 638.855C1981.96 639.132 1981.91 639.299 1981.24 639.743C1978.47 641.352 1976.31 643.794 1975.03 646.625C1974.48 647.901 1973.81 648.789 1972.87 649.566C1972.26 650.066 1971.54 650.51 1970.65 650.843C1966.72 652.508 1963.61 655.671 1962.17 659.556C1960.73 663.441 1961.01 667.714 1962.95 671.377C1963.17 671.766 1963.39 672.21 1963.61 672.598C1965.55 676.428 1969.05 679.258 1973.32 680.479C1974.81 680.923 1976.36 681.145 1977.92 681.145C1980.74 681.145 1983.52 680.424 1986.01 679.036C2005.42 668.214 2052.6 640.409 2071.34 616.599C2073.39 613.991 2075.5 610.217 2078.66 604.278C2083.98 594.4 2089.47 584.243 2094.57 584.243C2094.68 584.243 2094.73 584.243 2094.84 584.243C2095.07 584.243 2095.12 584.243 2095.12 584.243C2096.9 585.242 2101.17 592.235 2104.27 597.397C2108.87 605 2114.42 614.823 2119.29 623.481C2126.5 636.246 2129.77 641.907 2131.38 644.183C2130.99 646.07 2127.56 647.402 2120.96 648.29C2115.03 649.122 2107.21 649.511 2098.95 649.899C2092.13 650.232 2082.87 650.732 2075.44 651.564C2071 652.064 2066.96 654.339 2064.35 657.835C2061.75 661.332 2060.86 665.661 2061.8 669.823C2062.13 671.211 2062.24 672.432 2062.19 673.375C2061.86 676.816 2059.75 679.147 2056.76 682.144C2055.2 683.698 2053.93 685.03 2052.87 686.529C2051.66 688.249 2050.88 690.136 2050.49 692.19C2048.22 704.067 2048.66 751.297 2050.27 764.894C2050.27 765.061 2050.27 765.227 2050.32 765.338C2050.66 767.725 2051.6 770.333 2053.6 775.605C2055.92 781.599 2058.75 789.092 2056.48 792.2C2055.65 793.365 2054.26 793.92 2052.1 793.92C2051.6 793.92 2051.1 793.92 2050.55 793.809C2049.33 793.698 2048.33 793.421 2047.5 793.088C2045.45 792.2 2043.23 791.756 2041.01 791.756C2038.57 791.756 2036.08 792.311 2033.86 793.365C2029.59 795.419 2026.48 799.193 2025.49 803.633L2025.38 804.188C2024.32 808.295 2022.33 810.348 2019.39 810.348C2018.94 810.348 2018.45 810.348 2017.95 810.182C2016.62 809.904 2015.4 809.682 2014.34 805.187C2012.68 798.138 2006.14 793.365 1998.82 793.365C1997.71 793.365 1996.55 793.476 1995.38 793.698C1994.6 793.865 1993.83 793.976 1993.05 794.031C1984.46 794.753 1978.03 801.857 1978.58 810.015C1979.64 826.221 1980.13 841.039 1979.86 848.698C1979.58 856.357 1985.4 862.962 1993.39 864.127C2001.09 865.237 2007.02 866.847 2010.85 871.176C2013.84 874.561 2014.51 876.67 2014.51 877.114C2014.51 877.114 2014.4 877.447 2014.29 877.669C2013.9 878.612 2012.68 879.223 2010.74 879.5C2008.47 879.778 2004.64 880 2000.26 880L2000.15 879.722ZM1975.03 722.603C1967.33 722.603 1960.67 727.876 1959.34 735.091C1958.9 737.477 1958.23 740.863 1957.57 742.805C1957.57 742.916 1957.46 743.027 1957.46 743.083C1954.63 748.244 1955.19 754.516 1958.9 759.122C1960.06 760.565 1961.4 762.119 1962.45 763.396C1963.28 764.339 1964.11 765.394 1965 766.448C1968.05 770.166 1972.71 772.22 1977.53 772.22C1979.19 772.22 1980.86 771.998 1982.46 771.443C1988.84 769.445 1993.22 763.951 1993.39 757.568C1993.61 750.964 1993.72 743.527 1993.72 737.644C1993.72 733.592 1992 729.707 1988.95 726.877C1985.96 724.102 1981.96 722.548 1977.81 722.548C1977.7 722.548 1976.92 722.548 1976.59 722.548C1976.2 722.548 1975.81 722.548 1975.48 722.548C1975.31 722.548 1975.14 722.548 1974.98 722.548L1975.03 722.603ZM2012.01 702.735C2012.01 702.735 2011.29 703.623 2008.47 704.899C2002.81 707.452 1999.26 712.946 1999.43 718.885C1999.54 723.38 1999.93 728.986 2000.2 733.093C2000.37 735.979 2000.54 738.643 2000.7 741.14C2000.98 746.468 2004.25 751.241 2009.19 753.739C2011.51 754.904 2014.07 755.459 2016.56 755.459C2019.44 755.459 2022.38 754.682 2024.93 753.184C2025.32 752.962 2025.99 752.684 2027.26 752.629C2035.91 752.407 2042.78 745.747 2042.78 737.533V708.895C2042.78 704.233 2040.51 699.849 2036.69 697.018C2033.86 694.909 2030.42 693.799 2026.87 693.799C2025.6 693.799 2024.32 693.966 2023.05 694.243L2022.66 694.354C2018 695.464 2014.07 698.517 2012.07 702.679L2012.01 702.735Z" fill="#1F1F1F"/>
<path d="M1538.2 519.142C1535.77 519.142 1533.27 519.031 1530.66 518.976C1528.39 518.92 1526.23 518.809 1524.07 518.809C1523.18 513.037 1523.96 508.708 1526.45 505.933C1527.62 504.601 1529 503.713 1530.89 503.047C1543.91 498.274 1552.4 486.342 1552.23 473.078L1550.79 372.346C1550.68 363.91 1546.96 355.807 1540.53 349.98C1534.27 344.263 1525.95 341.1 1517.3 341.1C1517.03 341.1 1516.47 341.1 1516.47 341.1C1514.81 341.1 1511.81 341.155 1507.93 341.266H1506.16C1498.29 341.544 1487.47 341.821 1479.27 341.821C1475.28 341.821 1469.29 341.821 1467.46 341.211C1467.46 341.211 1467.18 340.989 1467.18 340.933C1463.3 331.554 1454.99 324.506 1444.73 321.897C1444.4 321.786 1444.12 321.731 1443.84 321.62C1438.46 317.957 1428.48 303.083 1425.82 295.812C1425.82 295.757 1425.82 295.701 1425.88 295.646C1426.1 295.479 1426.32 295.313 1426.49 295.202C1435.86 289.929 1441.9 280.716 1442.73 270.449C1443.56 260.182 1439.07 250.192 1430.7 243.587C1420.61 235.706 1416.9 224.273 1420.78 213.118C1425.1 200.464 1437.52 191.973 1451.66 191.973C1459.14 191.973 1467.02 194.359 1474.56 198.91C1475.22 199.299 1475.89 199.798 1476.66 200.464C1482.82 205.515 1490.58 208.234 1498.56 208.234C1500.78 208.234 1503 208.012 1505.22 207.624C1506.88 207.291 1508.32 207.124 1509.54 207.124H1510.04C1527.17 207.124 1541.48 194.914 1543.31 178.764C1543.47 177.043 1543.64 175.489 1543.75 174.157C1544.08 169.884 1543.58 165.61 1542.14 161.615C1541.59 160.116 1540.92 158.229 1540.26 156.453C1535.43 143.633 1522.68 135.363 1508.76 135.363C1506.77 135.363 1504.72 135.53 1502.67 135.918C1502.06 136.029 1501.39 136.085 1500.73 136.085C1499.56 136.085 1496.07 136.085 1489.36 132.422C1490.25 130.257 1490.91 127.982 1491.3 125.651C1491.85 122.21 1492.91 119.657 1494.13 118.769C1499.01 115.272 1502.78 110.61 1505.05 105.227C1507.32 99.8991 1515.58 89.0212 1523.9 78.3653C1533.94 65.4339 1545.02 52.0585 1548.18 48.7286C1549.79 47.0636 1553.51 44.0666 1557.28 41.0141C1563.76 35.8527 1567.98 28.5267 1568.97 20.5348C1569.7 14.9294 1571.3 10.9889 1574.35 7.38143C1578.18 2.83047 1584.33 0 1590.38 0C1595.86 0 1600.69 2.21998 1604.01 6.21594C1608.12 11.2109 1609.17 25.3633 1607.62 34.9647C1607.34 36.6297 1607.01 38.1282 1606.62 39.5156C1604.24 47.5631 1605.29 56.11 1609.56 63.3804C1618.93 79.3643 1629.52 97.9566 1636.61 115.883C1636.73 116.16 1636.78 116.438 1636.84 116.715C1637.5 121.655 1639.39 126.317 1642.33 130.424C1643.43 131.978 1643.71 133.088 1643.82 133.865C1644.32 136.917 1643.6 139.526 1641.55 141.801C1641.11 142.301 1640.55 142.8 1640 143.244C1630.68 150.459 1626.19 161.837 1628.24 173.047C1628.85 176.488 1628.91 180.318 1628.41 184.314C1628.02 186.478 1626.08 195.469 1623.03 207.568C1620.26 218.557 1623.86 230.101 1632.51 237.926C1638.83 243.587 1647.09 246.64 1655.58 246.64C1658.74 246.64 1661.9 246.196 1664.95 245.363C1670.88 243.698 1676.98 242.089 1680.52 242.089C1681.25 242.089 1681.74 242.2 1681.97 242.2C1684.02 242.644 1687.18 245.752 1691.67 251.746C1698.04 260.182 1708.25 265.01 1718.89 265.01C1721.33 265.01 1723.83 264.733 1726.32 264.233L1753.26 258.406C1756.65 265.843 1762.91 271.726 1770.73 274.944C1771.34 275.777 1772 278.829 1772.34 280.661C1772.67 282.215 1773.5 286.211 1772.73 287.21C1772.5 287.543 1772.39 287.654 1772.39 287.654C1770.01 289.097 1758.25 291.206 1754.43 291.872C1743.95 293.703 1735.08 300.141 1730.42 309.188C1728.48 313.017 1725.99 314.793 1721.22 315.848C1718.72 316.403 1716.28 316.68 1714.18 316.68C1710.35 316.68 1707.19 315.792 1704.31 313.85C1698.65 310.131 1691.95 308.133 1685.18 308.133C1682.74 308.133 1680.3 308.411 1677.86 308.91L1629.52 319.178C1613 322.674 1601.85 337.326 1603.57 353.31C1604.18 358.915 1604.74 364.188 1604.79 368.961C1604.96 388.274 1604.85 407.866 1604.79 426.791V427.18C1604.68 446.382 1604.51 466.251 1604.79 485.787C1600.97 491.337 1599.08 497.83 1599.41 504.435C1599.63 509.929 1598.86 515.257 1598.25 518.865H1565.54C1562.43 517.977 1559.22 517.533 1556.06 517.533C1553.67 517.533 1551.29 517.755 1548.96 518.254C1545.91 518.865 1542.53 519.198 1538.26 519.198L1538.2 519.142Z" fill="#1F1F1F"/>
<path d="M1169.35 879.722C1166.02 879.722 1161.31 879.611 1158.15 879.278C1157.65 879.278 1157.15 879.167 1156.65 879.056C1154.32 878.612 1151.99 878.335 1149.67 878.335C1146.95 878.335 1144.18 878.668 1141.52 879.278C1141.35 879.278 1141.18 879.334 1141.13 879.334C1139.96 879.5 1138.63 879.556 1137.08 879.556C1134.92 879.556 1132.7 879.389 1130.32 879.278C1128.04 879.112 1125.66 879.001 1123.5 879.001C1122.61 879.001 1121.72 879.001 1120.84 879.112C1120.84 879.112 1120.56 879.112 1120.5 879.001C1120.34 878.723 1119.78 877.447 1119.78 872.341C1119.78 866.014 1117.73 859.854 1113.91 854.637C1113.57 853.249 1113.24 849.864 1113.24 841.483C1113.24 831.493 1108.19 822.059 1099.71 816.176C1093.95 812.18 1087.13 810.126 1080.2 810.126C1076.81 810.126 1073.43 810.626 1070.16 811.625C1057.8 815.343 1041.72 818.118 1030.8 819.394C1017.66 821.004 1006.85 829.773 1003.19 841.816C1002.97 842.482 1002.74 843.204 1002.41 843.87C1001.14 846.811 996.866 851.085 993.152 851.085C992.376 851.085 991.71 850.918 991.156 850.53C991.156 850.53 991.156 850.53 991.1 850.53C990.213 848.754 989.271 843.315 988.661 839.596C987.053 830.161 986.998 827.442 986.998 827.331V826.831C987.552 821.948 986.887 817.064 985.057 812.513L984.946 812.18C984.946 812.18 984.281 809.738 983.228 801.413C982.84 798.36 982.174 793.476 982.507 791.423C984.78 790.424 986.998 790.035 989.437 790.035C992.819 790.035 996.035 790.812 999.306 791.645C1002.13 792.366 1005.02 792.699 1007.9 792.699C1009.78 792.699 1011.67 792.533 1013.55 792.255C1016.22 791.811 1019.76 791.201 1023.65 790.535C1033.01 788.87 1041.22 783.486 1046.1 775.661C1050.98 767.891 1052.03 758.456 1049.04 749.854C1049.04 749.854 1049.04 749.743 1049.04 749.465C1049.54 742.472 1047.54 735.424 1043.38 729.652C1041.55 727.099 1039.61 724.268 1037.56 721.16C1028.58 707.841 1026.97 704.233 1026.86 703.845V703.567C1025.03 697.351 1025.09 693.355 1026.86 689.193C1026.97 688.971 1027.03 688.749 1027.19 688.471C1027.19 688.471 1027.97 687.25 1030.74 684.697C1043.16 673.431 1044.44 655.005 1033.62 642.351C1033.07 641.685 1032.63 641.019 1032.35 640.464C1028.36 632.084 1020.6 625.812 1011.28 623.315C1008.01 622.427 1005.68 621.039 1004.02 618.875C1002.91 617.432 1001.47 615.323 1001.19 613.38C1000.3 607.386 997.587 601.725 993.374 597.175C993.207 596.675 993.263 594.622 993.263 593.29C993.263 592.18 993.263 591.181 993.374 590.348C994.039 583.799 992.486 577.195 988.938 571.478C988.772 571.256 988.661 570.923 988.495 570.59C987.718 568.814 988.273 566.761 990.047 564.43C990.435 563.93 991.378 562.654 995.758 561.655C1005.68 559.379 1013.94 552.886 1018.16 544.062C1018.27 543.84 1018.43 543.618 1018.66 543.34C1018.66 543.34 1025.42 537.846 1050.92 537.846C1060.24 537.846 1071.66 539.289 1073.15 543.34C1075.65 550.777 1081.03 557.27 1088.12 561.211C1089.18 561.766 1089.9 562.654 1090.34 563.819C1090.62 564.485 1090.79 565.096 1090.84 565.706C1092.12 574.309 1097.16 582.023 1104.7 587.018C1106.31 588.073 1107.31 589.294 1107.7 590.848C1110.58 601.004 1118.62 609.107 1129.15 612.437C1136.03 614.601 1140.52 616.877 1142.46 619.152C1143.79 620.706 1144.62 622.427 1145.12 624.647C1146.12 628.754 1147.95 632.639 1150.55 636.024L1150.72 636.246C1151.27 637.023 1151.77 638.022 1151.55 638.688C1151.44 639.077 1151.33 639.188 1151.22 639.243C1148.33 641.574 1145.84 644.349 1143.95 647.457C1143.73 647.79 1143.57 648.068 1143.34 648.345C1137.02 656.17 1134.97 666.382 1137.86 675.873C1140.68 685.363 1148.11 693.022 1157.82 696.574C1159.03 697.018 1159.87 697.351 1160.42 697.629C1164.58 699.904 1166.52 703.567 1165.97 707.952C1165.3 713.335 1160.81 718.33 1155.32 719.828C1144.51 722.27 1135.75 729.707 1131.98 739.586C1128.21 749.465 1129.93 760.51 1136.53 768.945C1142.24 776.216 1145.06 782.154 1146.06 788.759C1146.78 793.532 1148.78 817.175 1149.17 836.71C1149.44 849.864 1158.43 861.463 1171.56 865.737C1176.61 867.346 1178.88 869.455 1180.16 870.843C1182.04 872.952 1184.21 875.837 1183.6 877.336C1183.1 878.612 1180.77 879.056 1180.05 879.167C1178.99 879.334 1175.83 879.667 1169.57 879.667L1169.35 879.722Z" fill="#1F1F1F"/>
<path d="M1468.07 879.722C1460.92 879.722 1456.37 879.445 1454.1 878.834C1452.88 878.501 1451.99 877.169 1451.55 876.448C1450.99 875.449 1450.38 874.006 1450.83 872.674C1467.02 870.01 1478.77 856.524 1478.55 840.984C1478.44 835.045 1479.1 826.387 1479.88 815.454C1480.49 807.018 1481.43 794.253 1481.76 784.152C1482.1 773.996 1477.22 764.284 1468.74 758.068C1466.79 756.625 1465.35 753.683 1464.41 749.243C1459.48 725.267 1461.58 684.642 1464.13 663.163C1464.58 659.278 1467.07 649.455 1469.51 645.515C1472.06 641.463 1475.94 639.021 1482.87 637.079C1498.67 632.75 1508.82 618.153 1506.77 602.724C1505.77 595.066 1503.83 586.186 1501.67 579.47C1500.06 574.42 1497.18 569.813 1493.19 566.095C1489.08 562.265 1489.3 560.323 1490.14 557.659C1490.36 556.937 1491.24 554.717 1493.46 554.717H1493.8C1494.63 554.773 1495.46 554.828 1496.29 554.828C1504.27 554.828 1512.04 552.109 1518.13 547.169C1525.95 540.787 1532.11 538.012 1538.65 537.901C1543.58 538.29 1556.56 542.008 1560.77 544.172C1561.27 544.561 1561.93 545.227 1562.65 546.559C1565.32 551.609 1569.36 555.827 1574.3 558.935C1574.46 559.102 1574.57 559.157 1574.69 559.268C1576.51 562.376 1581.06 575.252 1582.78 580.192C1589.05 597.952 1589.93 602.336 1590.04 603.057V603.279C1591.71 619.152 1581.45 634.692 1571.53 649.677C1564.98 659.611 1560.16 667.159 1557.72 674.041C1555.72 679.536 1555.45 685.474 1556.78 691.191C1557.55 694.521 1558.88 698.628 1560.22 702.568C1561.99 707.951 1563.65 713.002 1563.99 716.831C1563.99 716.831 1563.93 716.998 1563.82 717.109C1560.66 721.882 1558.83 727.376 1558.66 732.982C1558 751.685 1559.55 779.934 1560.66 800.525C1561.16 809.183 1561.55 816.953 1561.82 823.224C1561.82 824.445 1561.99 825.666 1562.21 826.887C1562.38 827.886 1562.6 829.051 1562.82 830.328L1562.99 831.216C1563.71 834.99 1564.48 838.764 1564.48 841.65C1564.59 857.079 1576.4 870.177 1592.48 872.674C1593.04 873.729 1592.98 874.728 1592.32 875.727C1591.21 877.447 1588.32 878.834 1587.05 878.834H1539.09C1537.71 878.834 1536.54 878.612 1535.6 878.224C1531.05 876.171 1526.06 875.116 1521.13 875.116C1516.19 875.116 1510.93 876.226 1506.27 878.446C1505.66 878.723 1504.94 878.89 1504.16 878.89C1501.06 878.89 1496.29 879.056 1490.75 879.223C1483.43 879.5 1475.06 879.778 1467.96 879.778L1468.07 879.722Z" fill="#1F1F1F"/>
<path d="M2410.03 519.142C2377.43 519.142 2369.39 515.479 2367.56 513.259C2366.79 512.316 2366.18 511.428 2365.79 510.651C2361.36 500.994 2352.32 493.945 2341.45 491.67C2333.08 489.949 2326.43 486.231 2323.65 481.847C2321.6 478.628 2321.6 475.131 2323.6 471.302L2323.88 470.747C2330.7 457.427 2327.31 441.443 2315.56 431.675C2314.01 430.399 2312.79 428.956 2311.73 427.346C2308.69 422.407 2308.24 415.525 2310.46 407.422C2313.68 395.711 2322.38 389.606 2342.56 384.833C2353.04 382.336 2361.74 375.343 2366.01 365.964C2370.28 356.529 2369.67 345.762 2364.35 336.826C2357.97 326.06 2357.09 314.793 2361.91 305.081C2365.62 297.644 2372.28 291.372 2381.09 287.043C2391.46 281.937 2398.39 272.17 2399.56 261.181C2399.89 258.073 2400.28 255.076 2400.66 252.134C2401.33 246.806 2402.11 240.979 2402.33 235.484C2402.94 223.052 2396.01 211.342 2384.53 205.293C2384.25 205.126 2384.03 204.96 2383.81 204.738C2383.48 204.349 2382.53 203.239 2383.2 198.799C2383.48 196.801 2383.59 194.859 2383.53 192.861V184.258C2387.69 182.815 2391.52 180.651 2394.79 177.82C2395.95 177.82 2401.61 177.654 2401.61 177.654C2406.65 177.543 2413.58 177.321 2418.79 177.321C2421.23 177.321 2425.34 177.321 2426.56 177.82C2430.1 180.54 2433.93 182.482 2438.31 183.703C2439.31 183.981 2439.92 184.536 2440.08 185.368C2440.36 186.811 2440.42 188.032 2440.25 189.031C2439.47 192.916 2439.42 196.857 2440.14 200.742C2440.25 201.241 2440.19 201.796 2440.08 202.462C2439.97 203.073 2439.7 203.905 2438.64 204.516C2428.22 210.787 2422.06 221.776 2422.51 233.431C2422.73 239.647 2423.34 247.139 2424.34 256.963C2425.67 270.005 2435.09 281.049 2448.23 285.101C2455.77 287.376 2460.32 291.261 2463.54 298.088C2468.75 309.132 2465.81 317.735 2460.76 329.611L2459.6 332.386C2453.67 346.594 2458.82 362.8 2472.07 371.514L2474.01 372.79C2479.23 376.176 2484.22 379.45 2487.21 382.891C2497.8 394.934 2503.4 415.081 2500.02 428.734C2499.24 431.786 2498.02 434.006 2495.97 436.004C2484.49 447.048 2482.77 464.198 2491.81 477.185C2493.42 479.46 2493.81 481.07 2493.09 482.568C2492.64 483.456 2492.25 484.233 2488.98 485.121C2476.68 488.562 2467.36 498.108 2464.76 510.04C2464.48 511.261 2463.98 512.316 2463.81 512.593C2463.2 513.481 2458.77 517.255 2432.32 518.809C2427.83 519.087 2419.29 519.364 2410.03 519.364V519.142Z" fill="#1F1F1F"/>
</svg>
