<svg width="1281" height="317" viewBox="0 0 1281 317" fill="none" xmlns="http://www.w3.org/2000/svg">
<path d="M318.807 0H0V317H318.807V0Z" fill="black"/>
<path d="M55.6044 283.749C49.703 283.749 45.4081 283.323 42.064 282.372C38.3592 281.322 35.6052 276.076 35.3101 271.813C34.7528 263.221 37.31 249.875 39.9985 235.741C42.064 224.887 44.2278 213.672 44.5885 205.606C46.4244 165.731 44.2278 125.396 42.1295 86.3741C41.2443 69.8797 40.3263 52.8607 39.7362 36.104C44.818 35.3497 48.8834 34.989 52.1291 34.989C55.3749 34.989 58.2601 35.5137 59.8993 36.4647C60.5878 36.8582 61.8993 37.6124 62.2927 41.0555C62.8173 45.8104 66.522 49.6798 71.4727 50.6308C74.3906 51.2211 77.4069 51.9097 79.3084 53.5165C89.4064 62.0096 97.8323 79.8485 104.947 95.9165C105.602 97.3922 106.324 99.0645 106.979 100.475C108.848 104.574 113.078 107.099 117.635 107.099C118.651 107.099 119.7 106.967 120.717 106.705C126.028 105.328 132.224 101.885 139.241 97.8512C143.962 95.1295 148.421 92.5717 152.355 91.0961C153.666 90.6042 154.847 89.9156 155.863 89.0302C157.305 87.7841 158.715 86.8659 159.863 86.4724C162.354 85.5871 164.846 85.1608 167.305 85.1608C171.764 85.1608 175.633 86.5708 179.337 87.9481C182.911 89.2597 186.288 90.5058 190.025 90.5058C190.386 90.5058 190.78 90.5058 191.14 90.4731C191.698 90.4403 192.222 90.3747 192.747 90.2435C195.599 89.6533 198.648 88.2104 204.877 84.964C209.73 82.439 215.238 79.5533 219.828 78.6351C223.073 77.9793 226.418 77.6186 229.729 77.6186C248.384 77.6186 266.744 88.6367 275.366 105.065C282.481 118.576 281.366 133.332 272.416 144.58C270.94 146.416 266.514 149.63 264.383 151.171C260.547 153.926 258.941 158.648 260.318 163.009C260.482 163.534 260.58 163.993 260.646 164.419C262.383 179.143 256.351 187.078 249.367 196.293C247.958 198.129 246.515 200.064 245.073 202.097C242.253 206.065 242.482 211.311 245.663 215.05C249.269 219.313 253.039 223.215 257.007 227.314C266.449 237.053 275.334 246.202 280.35 258.893C284.809 270.107 283.333 273.387 283.169 273.747C282.907 274.272 282.579 274.403 282.284 274.469C281.268 274.731 279.334 274.862 276.547 274.862C273.76 274.862 270.547 274.731 267.695 274.633C265.301 274.534 263.301 274.469 261.924 274.469C260.941 274.206 259.924 274.108 258.908 274.108C257.334 274.108 255.761 274.403 254.318 275.026C252.744 275.682 251.99 275.748 251.99 275.748H228.614C227.172 275.748 225.729 276.01 224.385 276.502C224.057 276.633 223.827 276.633 223.664 276.633C222.778 276.633 222.614 275.912 222.549 275.125C222.385 272.239 224.221 269.976 228.122 268.304C229.139 267.845 230.319 267.451 231.598 267.123C235.434 266.074 238.45 263.254 239.565 259.614C240.679 255.974 239.696 252.039 237.04 249.252C233.007 245.022 227.631 239.217 220.614 231.544L219.5 230.331C217.303 227.904 214.09 226.527 210.713 226.527C210.582 226.527 210.484 226.527 210.353 226.527C206.877 226.625 203.599 228.199 201.5 230.855C198.517 234.561 195.271 238.693 192.681 242.005C188.681 247.12 184.878 251.941 181.796 255.646C179.796 258.04 177.075 261.319 175.993 261.746C172.452 262.008 169.174 263.779 167.207 266.599C166.551 267.55 165.895 268.468 165.403 269.157C163.928 271.255 162.158 273.846 161.305 274.6C161.305 274.6 161.272 274.6 161.24 274.6C161.24 274.6 161.174 274.6 161.076 274.6C160.453 274.6 158.322 274.108 151.863 269.714C147.109 266.468 143.929 263.746 142.88 262.5C142.716 262.303 142.519 262.073 142.322 261.877C140.945 260.434 139.175 259.385 137.208 258.794C136.093 258.466 134.946 257.909 133.733 257.122C133.306 256.794 132.487 256.204 131.405 255.417L127.536 252.629C125.471 251.121 122.979 250.367 120.487 250.367C118.159 250.367 115.832 251.023 113.864 252.334C109.733 255.056 107.93 260.04 109.438 264.598C110.324 267.255 110.029 271.058 109.733 275.059C109.57 277.256 109.373 279.748 109.34 282.47C106.291 281.945 102.586 281.683 97.9962 281.683C91.3735 281.683 83.8328 282.241 76.5217 282.765C69.3416 283.29 61.8993 283.847 55.5061 283.847L55.6044 283.749ZM169.239 113.395C168.682 113.395 168.092 113.427 167.535 113.526C163.338 114.116 159.83 116.838 158.355 120.609C151.502 138.218 139.241 165.272 115.996 214L111.34 223.772C109.865 226.855 109.996 230.396 111.635 233.38C113.274 236.365 116.323 238.463 119.831 239.086C123.012 239.644 127.175 241.578 131.962 243.874C133.733 244.694 136.126 245.841 138.519 246.858C140.027 247.514 141.667 247.842 143.273 247.842C144.65 247.842 146.06 247.612 147.371 247.12C150.257 246.071 152.584 244.005 153.83 241.349L200.517 174.781C203.107 171.076 203.107 166.255 200.451 162.55C199.861 161.697 199.042 160.386 198.156 157.631C195.665 149.827 194.747 141.169 193.861 132.807C193.73 131.529 193.599 130.25 193.435 129.004C192.812 123.396 187.829 119.199 181.927 119.199C181.829 119.199 181.436 119.199 181.436 119.199C180.321 119.199 179.403 118.838 178.714 118.117C178.616 118.018 178.518 117.887 178.419 117.789C176.223 115.034 172.78 113.427 169.174 113.427L169.239 113.395ZM69.9317 89.6205C68.4564 89.6205 66.981 89.8828 65.5713 90.4403C61.2108 92.1127 58.3256 96.1461 58.3256 100.606V226.494C58.3256 231.446 61.8337 235.774 66.8499 237.086C67.8662 237.348 68.8826 237.479 69.8989 237.479C73.9316 237.479 77.7675 235.479 79.8658 232.102C83.8656 225.74 88.2917 218.821 92.4882 212.295C95.275 207.999 94.5865 202.458 90.8162 198.851V111.362C90.8162 109.23 90.1605 107.164 88.9474 105.361C86.4885 101.819 82.2919 96.9331 78.2265 92.9652C75.9971 90.801 72.9808 89.6205 69.8989 89.6205H69.9317ZM107.078 134.939C105.34 134.939 103.603 135.3 101.963 136.054C97.9962 137.89 95.5045 141.727 95.5045 145.891V168.026C95.5045 172.978 99.0126 177.339 104.062 178.618C105.078 178.88 106.094 179.011 107.078 179.011C111.143 179.011 114.979 176.978 117.11 173.568C122.159 165.37 126.29 158.32 129.766 152.056C132.126 147.793 131.274 142.612 127.7 139.202C125.471 137.103 122.487 135.988 119.504 135.988C117.668 135.988 115.832 136.382 114.16 137.234C112.094 135.726 109.602 134.939 107.078 134.939Z" fill="white"/>
<path d="M1281 2.78732H959.406V317H1281V2.78732Z" fill="black"/>
<path d="M1098.84 289.094C1098.29 289.094 1094.71 288.701 1079.76 281.027C1066.61 274.272 1063.7 271.649 1063.11 271.058C1063.04 270.96 1063.01 270.862 1062.94 270.763C1062.32 269.55 1062.55 269.091 1062.65 268.96C1062.84 268.632 1063.47 268.599 1063.66 268.599C1064.25 268.599 1064.98 268.763 1065.57 268.894L1065.89 268.96C1065.89 268.96 1066.22 269.025 1066.39 269.058C1067.5 269.255 1069.07 269.714 1070.52 270.107C1071.6 270.435 1072.75 270.599 1073.86 270.599C1075.83 270.599 1077.79 270.107 1079.53 269.124C1082.29 267.582 1084.32 265.025 1085.14 261.975C1085.14 261.844 1085.2 261.746 1085.27 261.614C1090.22 251.908 1094.09 242.3 1098.19 232.134C1100.32 226.822 1102.52 221.346 1104.88 215.968C1106.48 212.23 1106.06 207.934 1103.73 204.622C1101.53 201.474 1097.93 199.638 1094.12 199.638C1093.89 199.638 1093.66 199.638 1093.43 199.638C1087.86 199.965 1082.06 200.129 1076.19 200.129C1062.25 200.129 1048.94 199.211 1038.71 197.506C1024.26 195.112 1019.6 191.866 1018.22 189.57C1018.22 183.701 1017.67 177.732 1017.08 171.404C1015.6 155.893 1014.22 141.235 1022.09 132.578C1023.34 131.201 1024.71 130.053 1026.32 129.069C1029.5 127.102 1031.57 123.757 1031.86 120.019C1032.16 116.28 1030.65 112.64 1027.8 110.214C1023.53 106.574 1021.37 103.754 1021.21 101.59C1021.14 100.639 1021.44 99.8516 1022.12 99.1301C1022.71 98.5399 1023.5 98.212 1024.45 98.212C1029.04 98.212 1036.71 104.77 1045.53 112.706C1048.91 115.756 1051.6 118.149 1053.47 119.494C1054.88 120.543 1056.48 121.232 1058.19 121.56C1062.29 122.347 1070.84 122.872 1079.47 122.872C1084.94 122.872 1089.79 122.642 1092.78 122.281C1094.74 122.019 1096.61 121.265 1098.22 120.117C1100.19 118.674 1103.04 116.182 1106.51 113.067C1115.6 104.967 1123.53 98.2775 1128.32 98.2775C1128.91 98.2775 1129.46 98.4087 1129.92 98.6055C1131.5 99.3269 1133.2 99.7204 1134.91 99.7204C1136.28 99.7204 1137.69 99.4581 1139.01 98.9662C1141.96 97.8513 1144.35 95.6214 1145.6 92.7357C1147.63 88.112 1149 83.5212 1149.53 79.4222C1150.19 74.405 1147.53 69.519 1142.97 67.3219C1141.56 66.6333 1139.79 65.8135 1138.64 64.5674C1136.38 62.108 1133.24 60.8291 1130.05 60.8291C1128.02 60.8291 1125.99 61.3538 1124.15 62.4359C1121.69 63.8788 1119.43 64.5018 1116.78 64.5018C1114.88 64.5018 1112.88 64.1411 1110.61 63.4525C1104.35 61.485 1102.91 57.6483 1102.29 50.7948L1102.22 49.975C1101.92 46.663 1100.19 43.6133 1097.5 41.6458C1097.4 41.5802 1097.37 41.5474 1097.37 41.5474C1097.37 41.5474 1097.37 41.5146 1097.37 41.4491C1097.33 41.2195 1097.53 40.99 1097.73 40.826C1097.73 40.826 1097.76 40.7932 1097.86 40.7604C1101.01 39.3176 1103.33 36.5958 1104.25 33.2839C1104.81 31.2507 1105.5 29.1521 1107.3 27.4797C1109.69 25.1842 1113.37 23.9381 1117.6 23.9381C1127.01 23.9381 1133.14 28.4962 1135.73 32.7592C1137.4 35.5137 1140.12 37.4484 1143.27 38.1371C1144.09 38.301 1144.91 38.3994 1145.73 38.3994C1148.09 38.3994 1150.38 37.678 1152.35 36.3335C1153.37 35.6449 1154.48 35.153 1155.79 34.8579C1157.82 34.3988 1159.79 34.1692 1161.66 34.1692C1167.3 34.1692 1171.92 36.2351 1175 40.1374C1178.61 44.6955 1179.73 51.4506 1178.05 58.6648C1177.79 59.8453 1177.23 60.9275 1176.32 62.1408C1172.94 66.6005 1173.17 72.831 1176.91 76.9956C1178.58 78.8647 1180.64 81.1601 1181.59 82.6358C1198.18 108.214 1207.76 129.889 1212.54 152.975C1212.67 153.63 1212.74 154.352 1212.77 155.204C1212.84 159.664 1215.46 163.698 1219.53 165.599C1220.31 168.157 1222.02 170.42 1224.25 171.928C1224.58 173.961 1224.18 175.634 1223.07 176.913C1221.82 178.356 1219.76 179.208 1217.36 179.208C1215.69 179.208 1214.08 178.815 1212.67 178.06C1210.45 176.847 1208.9 175.24 1207.89 172.945C1206.12 169.043 1202.38 166.386 1198.09 166.091C1197.79 166.091 1197.5 166.059 1197.2 166.059C1193.23 166.059 1189.53 168.059 1187.36 171.404C1186.35 172.978 1185.04 174.322 1183.89 175.503L1183.76 175.634C1183.46 175.929 1183.13 176.257 1182.87 176.552C1181.59 177.929 1180.64 179.602 1180.15 181.438C1179.33 184.422 1178.28 190.554 1178.64 194.194C1178.64 194.26 1178.64 194.358 1178.64 194.424C1179.69 202.917 1184.05 214.033 1188.68 225.806C1193.59 238.365 1198.25 250.236 1198.64 258.499C1198.64 258.991 1198.64 259.45 1198.54 259.942C1197.5 265.09 1200.02 270.337 1204.71 272.731C1206.68 273.715 1207.92 274.502 1208.38 275.453C1208.54 276.207 1208.67 277.059 1208.38 277.486C1208.31 277.584 1208.25 277.65 1207.92 277.748C1206.94 278.01 1205.95 278.404 1205.07 278.896C1194.74 284.798 1184.25 287.684 1173.07 287.684C1170.68 287.684 1168.18 287.553 1165.69 287.29C1165.56 286.536 1165.33 285.093 1165.76 284.503C1165.86 284.372 1165.99 284.208 1166.61 284.077C1170.18 283.355 1173.2 280.994 1174.77 277.748C1176.35 274.469 1176.35 270.665 1174.71 267.419C1173.95 265.943 1173.23 264.238 1172.45 262.434C1170.32 257.581 1167.59 250.826 1164.41 242.365C1160.87 233.02 1157.66 224.035 1156.05 219.509C1154.51 215.148 1150.51 212.098 1145.86 211.738C1145.56 211.738 1145.27 211.738 1145.01 211.738C1140.68 211.738 1136.71 214.132 1134.64 217.968C1132.51 222.002 1128.48 230.659 1124.94 238.299C1117.01 255.351 1109.53 271.485 1106.65 274.075C1102.78 275.584 1099.99 279.06 1099.37 283.191C1099.17 284.438 1099.07 285.52 1099.04 286.471C1099.04 287.29 1099.04 288.143 1099.2 288.93C1099.11 289.028 1098.94 289.061 1098.71 289.061L1098.84 289.094Z" fill="white"/>
<path d="M637.68 0H318.873V317H637.68V0Z" fill="black"/>
<path d="M508.505 293.062C505.39 293.062 502.243 292.931 500.309 292.734C499.456 292.636 498.604 292.439 497.653 292.111C496.407 291.652 495.096 291.455 493.784 291.455C492.112 291.455 490.44 291.816 488.899 292.537C488.44 292.767 487.981 292.832 487.85 292.832C486.965 292.964 486.014 292.996 484.899 292.996C483.293 292.996 481.588 292.898 479.949 292.767C478.244 292.668 476.539 292.537 474.933 292.537C474.146 292.537 473.457 292.537 472.802 292.636C472.146 291.98 472.211 287.192 472.211 285.585C472.211 284.667 472.211 283.815 472.277 283.027C472.408 279.355 470.834 275.813 468.048 273.485C467.982 273.419 467.916 273.354 467.851 273.288C467.326 271.288 467.392 264.369 467.49 256.368C467.523 252.236 467.589 246.005 467.49 240.791C467.392 235.938 464.408 231.642 459.917 229.937C458.573 229.445 457.196 229.183 455.851 229.183C452.606 229.183 449.458 230.56 447.196 233.085C445.917 234.528 444.704 235.643 443.524 236.528C438.377 240.332 409.263 246.497 399.132 246.53C392.805 246.53 387.624 251.678 387.493 258.106C387.428 260.893 387.034 263.024 386.247 264.992C385.428 266.992 382.215 270.665 379.461 270.665C378.903 270.665 378.412 270.501 377.985 270.239C377.985 270.239 377.953 270.239 377.92 270.206C377.33 269.091 376.674 264.992 376.117 261.647C374.904 254.007 374.904 252.039 374.904 251.973C374.904 251.514 375.002 251.023 375.166 250.432C376.018 247.251 375.527 243.841 373.789 241.054C373.658 240.857 373.559 240.628 373.461 240.365C373.428 240.267 372.936 238.594 372.117 231.708C371.789 228.888 371.33 225.084 371.56 223.805C371.56 223.805 371.559 223.805 371.592 223.772C373.133 223.117 374.838 222.756 376.641 222.756C379.33 222.756 381.953 223.477 384.313 224.133C385.329 224.428 386.346 224.691 387.198 224.887C387.985 225.051 388.805 225.15 389.624 225.15C390.215 225.15 390.805 225.117 391.362 225.019C396.608 224.199 415.361 220.592 421.525 219.247C423.623 218.788 425.525 217.771 427.066 216.263C427.688 215.673 428.41 214.951 429.164 214.132C431.885 211.279 433 207.212 432.147 203.343C431.295 199.474 428.606 196.293 424.934 194.85C421.754 193.604 420.181 191.636 420.213 190.948C420.213 190.849 420.213 190.784 420.246 190.751C421.885 186.783 421.23 182.225 418.574 178.847C417.099 176.978 415.033 173.896 411.656 168.551C404.968 157.926 403.984 155.303 403.886 155.04V154.942C402.935 151.433 402.28 147.629 403.952 143.694C404.017 143.53 405.755 139.727 417.754 131.594C421.59 129.004 423.525 124.347 422.738 119.756C421.951 115.165 418.574 111.46 414.115 110.312C412.41 109.886 411.132 109.263 410.247 108.41C409.066 107.328 407.689 105.689 407.624 104.049C407.394 97.9824 402.706 93.0964 396.739 92.7029C389.919 92.2438 387.854 89.4565 387.165 88.5383C386.084 87.0955 384.87 84.964 385.067 83.0949C385.559 78.504 383.395 74.0115 379.461 71.6177C379.461 71.6177 379.395 71.5521 379.362 71.5193C379.231 70.9618 379.231 69.4534 379.264 68.4369C379.264 67.3547 379.297 65.7151 379.494 65.256C381.362 60.7307 380.28 55.5168 376.772 52.1392C376.313 51.7129 376.018 51.2211 375.756 50.6308C375.199 49.2207 375.559 47.6467 376.904 45.7776C378.018 44.1708 381.198 43.2198 386.28 42.9247C392.28 42.564 397.034 37.6452 397.231 31.5459C397.231 31.0212 397.329 30.431 397.493 29.8407C398.247 28.5946 404.312 24.9875 421.459 24.9875C434.836 24.9875 437.295 28.0043 437.721 29.2832C437.918 29.9391 438.049 30.4965 438.016 31.054C437.95 36.7598 441.917 41.7114 447.458 42.7935C448.934 43.0887 449.753 43.8429 450.278 45.3185C450.704 46.5318 450.835 47.5812 450.638 48.401C449.327 54.2707 452.573 60.2061 458.146 62.2064C458.573 62.3703 458.999 62.5343 459.392 62.6983C463.13 64.4362 463.326 67.0596 463.163 68.8959C462.671 74.6017 466.244 79.8484 471.687 81.3569C478.441 83.226 485.883 85.4887 488.44 88.7351C489.686 90.3091 490.375 92.1454 490.702 94.8344C491.063 97.6545 492.407 100.245 494.506 102.147C495.063 102.934 495.26 103.557 495.129 104.049C495.063 104.246 495.03 104.41 494.506 104.738C492.473 106.016 490.899 107.886 489.948 110.115C489.522 111.099 489.03 111.821 488.375 112.411C487.916 112.804 487.391 113.132 486.735 113.427C483.85 114.739 481.588 117.231 480.539 120.248C479.49 123.298 479.687 126.643 481.096 129.528C481.26 129.856 481.424 130.184 481.555 130.512C482.965 133.496 485.555 135.726 488.67 136.71C489.784 137.038 490.932 137.234 492.047 137.234C494.112 137.234 496.145 136.677 497.981 135.595C512.21 127.069 546.766 105.262 560.438 86.6036C561.946 84.5705 563.454 81.5864 565.814 76.93C569.716 69.1911 573.748 61.1898 577.453 61.1898C577.519 61.1898 577.584 61.1898 577.65 61.1898C577.814 61.1898 577.847 61.1898 577.879 61.1898C579.191 61.9768 582.305 67.4859 584.568 71.5193C587.912 77.4874 591.977 85.1935 595.584 91.9815C600.862 101.983 603.256 106.41 604.436 108.214C604.141 109.689 601.649 110.738 596.797 111.427C592.436 112.083 586.732 112.378 580.666 112.706C575.683 112.968 568.896 113.362 563.454 114.018C560.175 114.411 557.225 116.215 555.323 118.936C553.421 121.658 552.733 125.069 553.454 128.348C553.684 129.463 553.782 130.381 553.716 131.102C553.454 133.791 551.913 135.66 549.749 137.989C548.602 139.235 547.684 140.251 546.897 141.432C546.012 142.776 545.422 144.285 545.127 145.859C543.455 155.172 543.782 192.227 544.963 202.884C544.963 203.015 544.963 203.113 544.995 203.245C545.258 205.114 545.914 207.147 547.389 211.279C549.061 216.001 551.159 221.838 549.487 224.297C548.864 225.215 547.848 225.642 546.307 225.642C545.946 225.642 545.553 225.642 545.159 225.576C544.274 225.478 543.52 225.281 542.897 224.986C541.389 224.297 539.75 223.936 538.143 223.936C536.34 223.936 534.537 224.363 532.898 225.215C529.75 226.822 527.521 229.773 526.767 233.249L526.668 233.676C525.914 236.889 524.439 238.529 522.308 238.529C521.98 238.529 521.619 238.496 521.226 238.43C520.242 238.234 519.357 238.07 518.603 234.495C517.39 228.986 512.57 225.248 507.226 225.248C506.407 225.248 505.554 225.346 504.702 225.543C504.145 225.674 503.587 225.773 502.997 225.806C496.702 226.363 491.981 231.938 492.375 238.332C493.161 251.055 493.522 262.664 493.325 268.665C493.129 274.666 497.391 279.879 503.227 280.765C508.866 281.617 513.193 282.896 516.013 286.274C518.21 288.93 518.701 290.57 518.701 290.963C518.701 290.963 518.603 291.226 518.537 291.389C518.242 292.111 517.39 292.603 515.947 292.8C514.308 293.029 511.489 293.16 508.276 293.16L508.505 293.062ZM490.08 169.797C484.44 169.797 479.588 173.929 478.605 179.602C478.277 181.471 477.818 184.127 477.326 185.635C477.293 185.734 477.26 185.832 477.228 185.865C475.162 189.931 475.556 194.817 478.277 198.457C479.129 199.605 480.08 200.818 480.867 201.802C481.457 202.556 482.08 203.343 482.736 204.196C484.998 207.114 488.407 208.721 491.915 208.721C493.129 208.721 494.342 208.524 495.555 208.131C500.21 206.589 503.423 202.228 503.587 197.277C503.751 192.095 503.849 186.258 503.849 181.635C503.849 178.454 502.604 175.404 500.341 173.207C498.145 171.043 495.227 169.83 492.178 169.83C492.112 169.83 491.522 169.83 491.293 169.83C491.03 169.83 490.735 169.83 490.473 169.83C490.342 169.83 490.243 169.83 490.112 169.83L490.08 169.797ZM517.16 154.221C517.16 154.221 516.636 154.942 514.57 155.926C510.439 157.959 507.849 162.255 507.948 166.911C508.046 170.42 508.308 174.847 508.505 178.06C508.636 180.323 508.767 182.422 508.866 184.356C509.062 188.521 511.456 192.292 515.095 194.227C516.8 195.145 518.636 195.571 520.505 195.571C522.636 195.571 524.767 194.981 526.635 193.801C526.931 193.604 527.39 193.407 528.308 193.374C534.635 193.21 539.651 187.964 539.651 181.536V159.074C539.651 155.434 538.012 151.991 535.16 149.761C533.094 148.121 530.57 147.236 527.98 147.236C527.029 147.236 526.111 147.367 525.16 147.597L524.898 147.662C521.455 148.515 518.603 150.941 517.128 154.188L517.16 154.221Z" fill="white"/>
<path d="M959.373 1.57401H637.68V317H959.373V1.57401Z" fill="black"/>
<path d="M825.64 144.055H760.922V208.786H825.64V144.055Z" fill="black"/>
<path d="M804.526 295.849C804.985 288.274 806.854 284.044 815.542 283.454C818.887 283.224 821.968 281.519 823.936 278.765C825.903 276.01 826.526 272.567 825.673 269.32C825.64 269.189 825.64 269.091 825.64 269.058V242.529C825.64 239.513 824.427 236.594 822.263 234.495C820.165 232.43 817.313 231.282 814.362 231.282C814.297 231.282 814.231 231.282 814.133 231.282C813.346 231.282 812.526 231.282 811.674 231.282C807.346 231.282 804.199 231.019 803.248 230.56C800.887 229.413 799.215 227.609 797.576 225.838C797.248 225.478 796.822 225.019 796.461 224.658C794.494 222.592 791.806 221.379 788.953 221.215H788.199C785.052 221.051 783.937 220.69 783.216 219.608C783.019 219.346 782.888 219.083 782.822 218.788C781.642 215.181 778.757 212.394 775.085 211.41C774.429 211.213 773.872 210.885 773.446 210.426C773.019 209.967 772.429 209.18 772.167 207.376C771.282 201.835 766.495 197.867 761.053 197.867C760.495 197.867 759.938 197.9 759.381 197.998C758.561 198.129 757.709 198.26 756.889 198.424C755.512 198.687 754.332 198.883 753.414 198.883C752.201 198.883 751.873 198.523 751.709 198.359C750.988 197.604 749.709 194.719 753.25 184.52C755.282 178.618 758.233 172.486 760.102 170.289C764.298 167.141 765.774 161.468 763.61 156.68C763.315 156.024 763.053 155.139 762.889 154.122C762.561 152.22 761.741 150.45 760.495 148.941C759.676 147.925 758.758 146.875 757.807 145.76C755.676 143.268 752.561 141.858 749.283 141.858C749.086 141.858 748.889 141.858 748.693 141.858C748.07 141.858 747.479 141.924 746.857 141.924C746.201 141.924 744.234 141.924 743.152 141.301C743.152 141.301 743.086 141.268 743.053 141.235C742.07 140.12 739.283 135.398 737.906 133.07C734.267 126.905 733.349 125.101 733.087 124.577C732.923 123.986 732.759 123.199 732.955 122.675C734.037 119.822 733.906 116.641 732.628 113.887C732.103 112.739 731.546 111.23 731.578 108.869C731.578 108.738 731.71 105.295 738.463 97.261C740.431 94.9 741.381 91.8503 741.053 88.8007C740.726 85.751 739.185 82.9637 736.759 81.0945C730.759 76.4381 727.382 68.7648 727.906 61.0587C728.759 48.7289 738.103 40.4325 751.119 40.4325C754.135 40.4325 757.381 40.8588 760.725 41.7114C764.889 42.7935 768.987 46.2367 772.56 49.3191C773.413 50.0405 774.462 50.9259 775.282 51.5818C777.282 53.1886 779.773 54.0412 782.298 54.0412C782.658 54.0412 783.019 54.0412 783.413 53.9756C784.986 53.8116 786.789 53.5165 788.56 53.2214C791.576 52.7295 794.724 52.2048 797.674 52.2048C798.1 52.2048 798.494 52.2048 798.92 52.2376C818.296 53.3197 829.214 65.2232 840.787 77.8809C844.886 82.3734 848.787 86.6036 853.115 90.4403C853.344 90.637 853.606 90.8338 853.836 91.0305C854.885 91.8175 856.164 92.5389 858.033 93.5227C860.655 94.9656 863.147 96.31 863.836 97.7857C864.032 98.1792 864.196 98.7694 864 99.9827C863.639 101.95 863.836 103.983 864.557 105.852C870.065 120.609 872.229 127.79 865.475 143.53C864.885 144.941 864.557 146.449 864.557 147.957L864.622 269.812C861.737 272.37 860.328 276.272 860.983 280.076C862 286.241 861.082 292.734 860.557 294.144C860.033 295.488 859.377 295.784 858.918 295.784H835.378C834.23 295.39 833.017 295.193 831.837 295.193C830.657 295.193 829.476 295.39 828.362 295.751C828.296 295.751 828.198 295.751 828.099 295.751H804.559L804.526 295.849ZM811.903 154.253C808.198 155.073 804.199 155.729 799.707 156.188C795.445 156.614 791.806 159.435 790.297 163.468C788.789 167.501 789.74 172.027 792.658 175.142L793.281 175.798C797.543 180.323 801.936 184.98 806.002 189.472C808.166 191.866 811.247 193.178 814.362 193.178C815.706 193.178 817.083 192.915 818.395 192.423C822.755 190.751 825.608 186.554 825.608 181.897V165.239C825.608 161.828 824.067 158.582 821.378 156.451C819.346 154.844 816.887 153.991 814.329 153.991C813.51 153.991 812.69 154.089 811.87 154.253H811.903ZM754.266 93.4571L753.512 93.8506C750.266 95.523 747.119 97.1954 744.627 98.9334C742.135 100.671 740.431 103.328 739.939 106.344C739.447 109.328 740.168 112.411 741.971 114.87C742.824 116.051 743.971 117.559 745.447 119.494C747.25 121.822 749.906 123.363 752.823 123.79C753.119 123.822 753.512 123.888 754.168 124.708C756.332 127.462 759.61 129.004 763.02 129.004C764.036 129.004 765.02 128.872 766.036 128.577C766.134 128.577 766.233 128.512 766.331 128.512C768.069 128.118 769.905 127.823 771.938 127.594C776.101 127.134 779.642 124.413 781.183 120.51C782.724 116.608 781.97 112.214 779.249 109.033L768.823 96.9331C768.462 96.5396 768.102 96.1461 767.708 95.7853C767.643 95.7198 767.577 95.6542 767.512 95.6214C765.348 93.3915 762.43 92.2438 759.446 92.2438C757.676 92.2438 755.905 92.6701 754.266 93.5227V93.4571Z" fill="white"/>
</svg>
