<svg width="880" height="880" viewBox="0 0 880 880" fill="none" xmlns="http://www.w3.org/2000/svg">
<mask id="mask0_3238_281" style="mask-type:luminance" maskUnits="userSpaceOnUse" x="0" y="0" width="880" height="880">
<path d="M578.012 880C560.677 880 546.639 865.962 546.639 848.627V613.2C546.639 610.014 544.083 607.458 540.897 607.458H341.436C338.251 607.458 335.695 610.014 335.695 613.2V848.294C335.695 865.628 321.657 879.667 304.322 879.667H31.373C14.0382 879.667 0 865.628 0 848.294V575.456C0 558.121 14.0382 544.083 31.373 544.083H266.208C269.393 544.083 271.949 541.527 271.949 538.342V341.733C271.949 338.547 269.393 335.991 266.208 335.991H31.4841C14.1493 335.991 0.11113 321.953 0.11113 304.618V31.6693C0.11113 14.3345 14.1493 0.296272 31.4841 0.296272H304.322C321.657 0.296272 335.695 14.3345 335.695 31.6693V264.059C335.695 267.245 338.251 269.8 341.436 269.8H534.786C537.971 269.8 540.527 267.245 540.527 264.059V31.373C540.527 14.0382 554.565 0 571.9 0H848.294C865.628 0 879.667 14.0382 879.667 31.373V301.766C879.667 319.101 865.628 333.139 848.294 333.139H610.051C606.866 333.139 604.273 335.732 604.31 338.917L605.347 535.119C605.347 538.268 607.94 540.823 611.088 540.823H848.405C865.74 540.823 879.778 554.862 879.778 572.196V848.59C879.778 865.925 865.74 879.963 848.405 879.963H578.012V880Z" fill="white"/>
</mask>
<g mask="url(#mask0_3238_281)">
<path d="M578.012 886.63C557.048 886.63 539.972 869.554 539.972 848.59V614.051H342.326V848.256C342.326 869.221 325.25 886.297 304.286 886.297H31.3737C10.409 886.297 -6.6665 869.221 -6.6665 848.256V575.419C-6.6665 554.454 10.409 537.378 31.3737 537.378H265.319V342.584H31.4849C10.5201 342.584 -6.55539 325.509 -6.55539 304.544V31.595C-6.55539 10.6303 10.5201 -6.44522 31.4849 -6.44522H304.323C325.287 -6.44522 342.363 10.6303 342.363 31.595V263.059H533.935V31.2616C533.935 10.2969 551.01 -6.77856 571.975 -6.77856H848.369C869.333 -6.77856 886.409 10.2969 886.409 31.2616V301.655C886.409 322.62 869.333 339.695 848.369 339.695H611.015L612.052 534.082H848.443C869.407 534.082 886.483 551.157 886.483 572.122V848.516C886.483 869.48 869.407 886.556 848.443 886.556H578.049L578.012 886.63Z" fill="#F6E23E"/>
<path d="M848.331 -0.0373139C865.666 -0.0373139 879.704 14.0009 879.704 31.3357V301.729C879.704 319.064 865.666 333.102 848.331 333.102H610.089C606.904 333.102 604.311 335.695 604.348 338.88L605.385 535.082C605.385 538.23 607.978 540.786 611.126 540.786H848.442C865.777 540.786 879.815 554.824 879.815 572.159V848.553C879.815 865.888 865.777 879.926 848.442 879.926H578.049C560.714 879.926 546.676 865.888 546.676 848.553V613.125C546.676 609.94 544.12 607.384 540.935 607.384H341.474C338.288 607.384 335.733 609.94 335.733 613.125V848.219C335.733 865.554 321.694 879.592 304.359 879.592H31.3736C14.0388 879.592 0.000542042 865.554 0.000542042 848.219V575.382C0.000542042 558.047 14.0388 544.009 31.3736 544.009H266.208C269.394 544.009 271.949 541.453 271.949 538.267V341.658C271.949 338.473 269.394 335.917 266.208 335.917H31.4847C14.1499 335.917 0.111672 321.879 0.111672 304.544V31.595C0.111672 14.2602 14.1499 0.221994 31.4847 0.221994H304.322C321.657 0.221994 335.695 14.2602 335.695 31.595V263.985C335.695 267.17 338.251 269.726 341.437 269.726H534.786C537.972 269.726 540.528 267.17 540.528 263.985V31.2987C540.528 13.9639 554.566 -0.0742772 571.901 -0.0742772H848.294M848.331 -13.3347H571.938C547.306 -13.3347 527.267 6.704 527.267 31.3357V256.466H348.993V31.6321C348.993 7.00038 328.954 -13.0383 304.322 -13.0383H31.4847C6.85297 -13.0383 -13.1857 7.00038 -13.1857 31.6321V304.581C-13.1857 329.213 6.85297 349.251 31.4847 349.251H258.652V530.785H31.3736C6.74185 530.785 -13.2969 550.824 -13.2969 575.456V848.293C-13.2969 872.925 6.74185 892.964 31.3736 892.964H304.322C328.954 892.964 348.993 872.925 348.993 848.293V620.719H533.342V848.59C533.342 873.221 553.38 893.26 578.012 893.26H848.405C873.037 893.26 893.076 873.221 893.076 848.59V572.196C893.076 547.564 873.037 527.526 848.405 527.526H618.608L617.645 346.399H848.294C872.926 346.399 892.965 326.361 892.965 301.729V31.3357C892.965 6.704 872.926 -13.3347 848.294 -13.3347H848.331Z" fill="#F6E23B"/>
<path d="M586.863 572.196C583.344 572.196 574.158 573.604 574.158 563.936L572.788 308.655C573.418 304.729 576.788 301.692 580.9 301.692H848.33V31.2988H571.936V292.876C571.936 297.432 568.232 301.136 563.676 301.136H309.581C306.284 301.136 304.321 297.617 304.321 295.358V31.6322H31.4832V304.581H295.468C299.209 304.581 303.358 306.915 303.358 310.47V567.196C303.358 571.752 299.654 575.456 295.098 575.456H31.3721V848.293H304.321V584.308C304.321 579.752 308.025 576.048 312.581 576.048H572.603C576.159 576.048 578.048 579.234 578.048 581.197V848.627H848.441V572.233H586.863V572.196Z" fill="#1E1E1E"/>
<path d="M763.398 736.618C760.917 736.618 758.361 735.803 755.99 734.285C751.101 731.099 748.397 727.728 747.915 724.284C747.286 719.802 750.286 715.876 753.99 711.579C754.62 710.838 755.398 709.949 755.953 709.208C756.694 708.245 757.287 707.134 757.694 705.986C776.807 708.134 777.696 719.061 777.511 722.358C777.066 730.099 770.621 736.655 763.398 736.655V736.618Z" fill="#F6E23E"/>
<path d="M685.43 831.551C685.43 831.551 685.059 831.551 684.763 831.403C683.503 830.885 682.133 830.625 680.763 830.625H658.427C658.427 830.625 657.761 830.551 656.316 829.885C654.946 829.292 653.464 828.959 651.945 828.959C650.982 828.959 649.982 829.107 649.056 829.366C647.723 829.366 645.723 829.44 643.648 829.551C640.944 829.662 637.833 829.774 635.203 829.774C632.573 829.774 630.684 829.625 629.721 829.366C629.462 829.292 629.129 829.144 628.869 828.625C628.684 828.292 627.314 824.995 631.536 813.698C636.314 800.956 644.76 791.77 653.723 781.992C657.575 777.806 661.168 773.88 664.65 769.546C667.576 765.879 667.798 760.694 665.206 756.804C663.798 754.693 662.317 752.619 661.02 750.841C654.39 741.581 648.649 733.58 650.316 718.801C650.353 718.357 650.464 717.875 650.649 717.283C651.945 712.949 650.464 708.282 646.871 705.541C644.648 703.837 640.537 700.689 639.129 698.837C630.61 687.539 629.573 672.723 636.314 659.167C644.537 642.684 661.983 631.572 679.725 631.572C681.763 631.572 683.837 631.72 685.874 632.016C686.393 632.09 686.874 632.127 687.393 632.127C691.578 632.127 695.467 629.683 697.245 625.756C699.209 621.386 698.097 616.237 694.43 613.089C693.541 612.311 692.282 611.311 691.282 610.533C687.985 607.866 683.837 604.532 681.244 601.125C678.207 597.124 677.762 593.865 679.837 590.902C681.874 588.976 690.023 586.086 693.467 586.086C695.579 586.086 696.431 586.753 696.875 587.272C700.06 590.939 700.801 596.124 701.579 601.125C702.135 604.829 702.653 608.31 704.061 611.422C705.542 614.718 712.136 626.756 717.358 636.054C719.321 639.572 722.988 641.61 726.803 641.61C728.026 641.61 729.248 641.387 730.433 640.98C732.841 640.128 735.767 639.239 739.138 639.239C741.471 639.239 743.842 639.683 746.213 640.572C749.546 641.832 755.436 647.981 755.361 651.833C755.361 652.648 755.102 653.833 753.287 654.426C752.509 654.685 751.843 654.796 751.287 654.796C751.102 654.796 750.694 654.759 750.324 654.611C749.028 654.092 747.694 653.833 746.361 653.833C743.249 653.833 740.212 655.166 738.101 657.648C735.1 661.204 734.693 666.241 737.101 670.242C739.619 674.39 741.62 677.65 743.138 679.909C744.805 682.391 747.398 684.095 750.361 684.576C751.287 684.724 752.361 684.909 753.287 685.058H753.583C759.139 685.984 766.103 687.095 770.326 688.799C786.031 695.17 799.698 711.764 802.106 727.394C803.773 738.062 800.291 747.322 792.031 754.212C783.586 761.249 774.659 764.953 766.177 764.953C761.769 764.953 757.51 763.953 753.472 762.027C751.954 761.286 750.361 760.953 748.768 760.953C745.694 760.953 742.731 762.249 740.619 764.657C737.397 768.324 737.064 773.695 739.767 777.769L751.954 796.141C753.102 798.808 755.25 800.919 757.954 801.956C759.214 802.438 760.547 802.697 761.917 802.697C763.436 802.697 764.918 802.364 766.325 801.734C768.696 800.66 771.141 799.438 772.77 798.623C778.067 795.956 782.66 793.696 785.734 793.696C787.586 793.696 788.66 794.511 789.031 796.326C789.031 796.475 789.068 796.548 789.068 796.623C788.068 798.919 780.771 804.438 773.733 809.809L773.289 810.142C772.215 810.957 771.4 811.587 770.955 811.957C769.807 812.772 768.696 813.328 767.622 813.661C765.547 814.291 763.732 815.55 762.362 817.217C759.14 820.847 748.768 829.033 744.916 829.514C744.916 829.514 744.805 829.514 744.768 829.514C743.953 828.736 742.249 826.144 740.879 824.069C740.397 823.292 739.768 822.365 739.101 821.365C737.249 818.587 734.211 816.809 730.878 816.587C729.767 816.18 727.063 812.735 725.285 810.439C722.359 806.735 718.766 801.845 714.951 796.697C712.432 793.289 709.283 789.066 706.431 785.325C704.468 782.733 701.394 781.177 698.134 781.066C698.023 781.066 697.912 781.066 697.801 781.066C694.653 781.066 691.652 782.436 689.615 784.807L688.393 786.214C681.652 794.03 676.466 799.919 672.614 804.216C670.095 806.994 669.206 810.883 670.243 814.513C671.28 818.106 674.132 820.921 677.762 821.921C686.911 824.44 686.689 828.662 686.615 830.033C686.578 830.811 686.43 831.551 685.578 831.551H685.43ZM747.139 706.393C744.546 706.393 742.027 707.319 740.027 709.06C737.582 711.171 736.249 714.245 736.286 717.468C736.545 729.728 739.73 740.655 745.324 748.211C747.064 750.545 748.99 752.545 751.102 754.175C753.028 755.619 755.324 756.397 757.695 756.397C758.658 756.397 759.584 756.286 760.51 756.027C763.77 755.138 766.436 752.804 767.696 749.693C768.4 747.952 769.548 746.248 770.955 744.803C773.622 742.099 777.067 740.47 780.215 740.47C780.512 740.47 780.808 740.47 781.104 740.507C781.66 740.544 782.253 740.692 782.845 740.914C784.068 741.396 785.364 741.618 786.66 741.618C789.068 741.618 791.439 740.803 793.365 739.284C796.328 736.914 797.883 733.21 797.402 729.432C796.476 722.172 792.365 715.505 789.068 711.208C785.068 705.948 779.993 701.207 774.474 697.503C772.659 696.281 770.548 695.688 768.474 695.688C766.881 695.688 765.251 696.059 763.732 696.762C760.288 698.429 757.954 701.837 757.658 705.652C757.658 705.763 757.658 705.911 757.621 706.022C756.843 705.911 756.139 705.874 755.435 705.874C753.732 705.874 752.472 706.133 751.435 706.319C750.731 706.467 750.102 706.578 749.472 706.578C749.25 706.578 749.028 706.578 748.805 706.541C748.213 706.43 747.657 706.393 747.064 706.393H747.139ZM718.618 708.245C714.358 708.245 710.432 710.764 708.691 714.764C708.32 715.653 707.913 716.357 707.468 717.023C704.987 720.653 704.95 725.469 707.357 729.135L710.395 733.728C712.432 736.84 715.877 738.581 719.432 738.581C720.729 738.581 722.062 738.358 723.322 737.84C728.063 736.025 730.878 731.136 730.137 726.098C729.841 724.061 729.618 721.987 729.507 719.875C729.507 719.505 729.507 719.172 729.47 718.801C729.359 713.727 725.729 709.393 720.729 708.393C720.025 708.245 719.321 708.171 718.618 708.171V708.245ZM724.729 675.353C724.174 675.353 723.581 675.39 723.025 675.501C718.173 676.279 714.469 680.205 713.988 685.095L713.765 687.132C713.58 689.058 713.358 691.021 713.173 692.947C712.543 698.54 716.321 703.689 721.877 704.763C722.581 704.911 723.285 704.948 723.951 704.948C728.73 704.948 733.026 701.8 734.36 697.059C735.397 693.355 736.36 688.91 735.508 684.354C735.36 683.576 735.137 682.835 734.841 682.132L734.693 681.761C732.915 677.835 729.026 675.353 724.803 675.353H724.729Z" fill="#F6E23E"/>
<path d="M763.399 734.543C761.288 734.543 759.103 733.839 757.102 732.506C755.139 731.209 753.547 729.913 752.398 728.617C749.805 725.728 749.398 721.542 751.361 718.208C752.176 716.838 753.472 715.134 755.51 712.764L755.954 712.245C757.658 710.282 760.103 709.134 762.695 709.134C763.733 709.134 764.77 709.319 765.77 709.689C775.326 713.208 775.697 720.135 775.585 722.172C775.215 728.913 769.659 734.58 763.436 734.58L763.399 734.543Z" fill="#F6E23E"/>
<path d="M660.241 828.588C659.092 828.588 657.944 828.366 656.87 827.922C655.314 827.292 653.648 826.958 651.981 826.958C651.129 826.958 650.314 827.033 649.499 827.218C649.017 827.329 648.499 827.366 647.98 827.366C646.721 827.366 645.276 827.44 643.758 827.514L641.572 827.588C641.572 827.588 641.35 827.588 641.239 827.588C638.424 827.588 635.794 826.255 634.127 823.995C632.386 821.625 631.942 818.587 632.905 815.809C633.053 815.365 633.238 814.883 633.424 814.365C638.054 801.994 646.388 792.919 655.203 783.325C659.055 779.103 662.722 775.139 666.204 770.731C669.686 766.361 669.945 760.286 666.834 755.656C665.389 753.508 663.908 751.434 662.611 749.656C655.981 740.433 650.758 733.136 652.203 719.357C652.24 718.838 652.351 718.283 652.499 717.764C653.981 712.69 652.203 707.134 648.017 703.948C643.35 700.355 641.943 699.059 641.128 698.17C640.943 697.948 640.721 697.725 640.535 697.466C632.609 686.799 631.646 672.797 638.017 660.018C645.906 644.165 662.648 633.535 679.65 633.535C681.613 633.535 683.576 633.683 685.539 633.942C686.132 634.016 686.724 634.053 687.317 634.053C691.169 634.053 694.873 632.275 697.318 629.238C699.022 627.127 701.503 625.942 704.207 625.942C704.467 625.942 704.726 625.942 704.948 625.942C707.874 626.201 710.504 627.905 711.949 630.46C713.467 633.164 714.764 635.498 715.542 636.905C717.801 640.943 722.098 643.462 726.728 643.462C727.061 643.462 727.394 643.462 727.728 643.424C727.987 643.424 728.209 643.424 728.432 643.424C731.58 643.424 734.506 645.128 736.099 647.869C737.803 650.796 737.655 654.537 735.729 657.315C734.247 659.426 733.469 661.908 733.469 664.5C733.469 669.316 729.506 673.242 724.69 673.279C724.024 673.279 723.394 673.353 722.727 673.427C717.023 674.353 712.615 679.02 712.023 684.761L711.801 687.058C711.615 688.91 711.43 690.762 711.208 692.614C710.949 694.836 711.319 697.133 712.245 699.207C713.838 702.726 712.949 706.837 710.097 709.43C708.726 710.689 707.652 712.171 706.911 713.875C706.578 714.616 706.245 715.208 705.874 715.801C702.911 720.135 702.837 725.765 705.726 730.172L708.763 734.766C711.134 738.359 715.134 740.507 719.431 740.507C721.024 740.507 722.579 740.21 724.024 739.655C724.913 739.321 725.802 738.877 726.58 738.321C728.024 737.358 729.728 736.84 731.469 736.84C732.284 736.84 733.099 736.951 733.876 737.173C736.358 737.877 738.432 739.655 739.507 741.988C740.655 744.47 741.951 746.767 743.396 748.804C744.766 750.73 745.322 753.137 744.914 755.434C744.507 757.73 743.174 759.842 741.247 761.175C740.396 761.768 739.618 762.472 738.914 763.25C735.136 767.583 734.728 773.954 737.877 778.732L749.619 796.437C749.841 796.734 750.026 797.067 750.174 797.4C751.471 800.03 753.656 802.142 756.286 803.364C758.99 804.623 760.842 807.105 761.286 810.031C761.731 812.957 760.694 815.92 758.508 817.921C757.064 819.254 755.175 820.81 753.211 822.291C751.693 823.44 749.804 824.069 747.878 824.069C747.396 824.069 746.878 824.032 746.396 823.958C743.988 823.551 741.877 822.18 740.507 820.143C738.766 817.55 736.321 815.772 733.395 814.92C731.654 814.439 730.135 813.439 728.987 812.068C728.098 810.994 727.024 809.624 726.617 809.105C723.727 805.401 720.135 800.586 716.356 795.511C713.912 792.252 710.652 787.807 707.726 783.992C705.356 780.918 701.8 779.066 697.948 778.955H697.577C693.836 778.955 690.28 780.584 687.836 783.399L686.613 784.807C679.872 792.622 674.723 798.475 670.871 802.771C667.834 806.142 666.797 810.587 668.056 814.957C668.204 815.402 668.352 815.846 668.538 816.291C669.686 819.032 669.39 822.143 667.76 824.625C666.13 827.107 663.352 828.588 660.389 828.588H660.093H660.241ZM749.433 704.393C749.137 704.393 748.804 704.393 748.507 704.356C748.063 704.319 747.581 704.281 747.137 704.281C746.878 704.281 746.618 704.281 746.359 704.281C746.174 704.281 745.989 704.281 745.803 704.281C743.248 704.281 740.803 703.17 739.136 701.244C737.358 699.17 736.58 696.355 737.136 693.688C737.173 693.466 737.21 693.206 737.284 692.984C737.729 690.503 739.21 688.354 741.322 687.021C742.729 686.169 744.322 685.687 745.989 685.687C746.841 685.687 747.655 685.798 748.47 686.058C748.952 686.206 749.433 686.317 749.915 686.391L751.248 686.613C754.137 687.058 756.619 688.91 757.841 691.577C759.101 694.207 758.953 697.318 757.471 699.837C757.471 699.837 757.434 699.911 757.397 699.948C756.101 702.133 753.952 703.689 751.471 704.17L751.137 704.244C750.545 704.355 749.989 704.43 749.396 704.43L749.433 704.393Z" fill="#F6E23E"/>
<path d="M735.543 281.171C732.876 281.171 730.172 281.06 728.468 280.875C727.727 280.801 726.986 280.616 726.172 280.32C725.097 279.949 723.949 279.764 722.838 279.764C721.393 279.764 719.949 280.06 718.615 280.69C718.208 280.875 717.838 280.949 717.726 280.949C716.986 281.06 716.134 281.097 715.171 281.097C713.8 281.097 712.319 280.986 710.911 280.912C709.429 280.801 707.985 280.727 706.577 280.727C705.911 280.727 705.281 280.727 704.725 280.801C704.17 280.245 704.207 276.171 704.207 274.838C704.207 274.06 704.207 273.319 704.244 272.652C704.355 269.541 703.021 266.541 700.614 264.54C700.54 264.466 700.503 264.429 700.466 264.392C700.021 262.688 700.058 256.799 700.132 250.021C700.132 246.502 700.206 241.242 700.132 236.797C700.058 232.686 697.465 229.019 693.613 227.574C692.465 227.13 691.28 226.945 690.094 226.945C687.316 226.945 684.576 228.093 682.612 230.278C681.501 231.501 680.464 232.464 679.464 233.204C675.019 236.427 649.906 241.687 641.201 241.687C635.757 241.687 631.275 246.057 631.164 251.502C631.127 253.873 630.793 255.688 630.089 257.355C629.386 259.059 626.608 262.17 624.237 262.17C623.756 262.17 623.348 262.059 622.978 261.799H622.941C622.422 260.873 621.866 257.355 621.385 254.54C620.348 248.058 620.348 246.391 620.348 246.317C620.348 245.909 620.422 245.502 620.57 244.983C621.311 242.279 620.866 239.39 619.385 237.02C619.274 236.834 619.2 236.649 619.089 236.427C619.089 236.353 618.644 234.908 617.94 229.056C617.644 226.648 617.236 223.426 617.459 222.352C617.459 222.352 617.459 222.352 617.496 222.315C618.829 221.759 620.311 221.463 621.867 221.463C624.163 221.463 626.459 222.092 628.46 222.611C629.349 222.833 630.201 223.092 630.941 223.241C631.645 223.389 632.312 223.463 633.016 223.463C633.534 223.463 634.016 223.426 634.534 223.352C639.053 222.648 655.24 219.574 660.536 218.463C662.351 218.092 663.981 217.203 665.315 215.944C665.833 215.462 666.463 214.833 667.13 214.129C669.463 211.721 670.426 208.276 669.722 204.98C668.982 201.683 666.648 198.979 663.5 197.757C660.759 196.72 659.388 195.053 659.425 194.423C659.425 194.349 659.425 194.312 659.425 194.238C660.833 190.868 660.277 186.978 657.981 184.126C656.721 182.533 654.943 179.904 652.017 175.348C646.276 166.347 645.424 164.087 645.313 163.865V163.791C644.498 160.791 643.942 157.568 645.35 154.235C645.424 154.087 646.906 150.864 657.24 143.938C660.536 141.715 662.24 137.789 661.537 133.863C660.833 129.936 657.944 126.788 654.091 125.825C652.61 125.455 651.499 124.936 650.758 124.232C649.758 123.306 648.535 121.899 648.498 120.528C648.313 115.38 644.276 111.231 639.127 110.898C633.238 110.49 631.46 108.12 630.867 107.342C629.941 106.12 628.867 104.305 629.052 102.712C629.497 98.7858 627.608 95.0077 624.237 92.9704C624.237 92.9704 624.2 92.9333 624.163 92.8963C624.052 92.4148 624.052 91.1184 624.089 90.2665C624.089 89.3405 624.089 87.9699 624.274 87.5625C625.867 83.7103 624.941 79.3026 621.941 76.4135C621.533 76.0431 621.274 75.6357 621.089 75.1541C620.607 73.9689 620.941 72.6354 622.052 71.0426C623.015 69.6721 625.756 68.8572 630.126 68.598C635.312 68.3016 639.387 64.1162 639.572 58.9305C639.572 58.4861 639.646 58.0045 639.794 57.4859C640.461 56.4118 645.683 53.3745 660.462 53.3745C672.019 53.3745 674.13 55.9302 674.501 57.0415C674.686 57.5971 674.76 58.0786 674.76 58.5601C674.723 63.4124 678.13 67.5979 682.909 68.5239C684.168 68.7832 684.909 69.4128 685.353 70.6722C685.724 71.7093 685.835 72.5984 685.65 73.3021C684.501 78.3026 687.316 83.34 692.132 85.0068C692.502 85.155 692.872 85.2661 693.206 85.4513C696.428 86.9329 696.614 89.1553 696.465 90.7109C696.021 95.5632 699.132 100.008 703.836 101.304C709.689 102.897 716.097 104.823 718.282 107.564C719.356 108.898 719.949 110.453 720.245 112.75C720.541 115.157 721.727 117.343 723.505 118.973C723.986 119.639 724.171 120.195 724.023 120.565C723.949 120.75 723.912 120.862 723.505 121.158C721.764 122.232 720.393 123.862 719.578 125.751C719.208 126.603 718.801 127.196 718.208 127.714C717.838 128.047 717.356 128.344 716.8 128.566C714.319 129.677 712.356 131.789 711.467 134.381C710.541 136.974 710.726 139.826 711.948 142.271C712.096 142.53 712.207 142.826 712.356 143.086C713.578 145.605 715.8 147.531 718.504 148.345C719.467 148.642 720.43 148.79 721.43 148.79C723.208 148.79 724.986 148.308 726.542 147.382C738.802 140.16 768.583 121.639 780.398 105.749C781.695 104.008 783.028 101.49 785.028 97.5263C788.399 90.9332 791.881 84.1549 795.066 84.1549C795.103 84.1549 795.177 84.1549 795.214 84.1549C795.326 84.1549 795.4 84.1549 795.4 84.1549C796.548 84.8216 799.215 89.4886 801.178 92.9334C804.067 98.0079 807.586 104.564 810.66 110.305C815.216 118.787 817.253 122.566 818.291 124.084C818.031 125.306 815.883 126.232 811.697 126.825C807.919 127.381 803.03 127.64 797.807 127.899C793.511 128.122 787.658 128.455 782.954 129.01C780.139 129.344 777.583 130.862 775.954 133.196C774.324 135.53 773.731 138.419 774.361 141.197C774.583 142.123 774.657 142.938 774.583 143.53C774.361 145.827 773.027 147.382 771.175 149.383C770.175 150.42 769.397 151.309 768.731 152.309C767.99 153.457 767.471 154.716 767.212 156.087C765.768 163.976 766.064 195.498 767.064 204.535C767.064 204.647 767.064 204.758 767.101 204.832C767.323 206.424 767.916 208.165 769.175 211.684C770.62 215.684 772.435 220.648 770.99 222.722C770.435 223.5 769.583 223.833 768.249 223.833C767.953 223.833 767.62 223.833 767.286 223.759C766.545 223.685 765.879 223.5 765.36 223.278C764.064 222.685 762.656 222.389 761.249 222.389C759.693 222.389 758.137 222.759 756.73 223.463C754.026 224.833 752.1 227.352 751.433 230.315L751.359 230.686C750.692 233.427 749.433 234.797 747.581 234.797C747.284 234.797 746.988 234.797 746.655 234.686C745.803 234.501 745.062 234.353 744.395 231.352C743.358 226.685 739.21 223.5 734.58 223.5C733.876 223.5 733.135 223.574 732.394 223.722C731.913 223.833 731.431 223.907 730.95 223.944C725.505 224.426 721.467 229.13 721.801 234.575C722.468 245.391 722.801 255.243 722.616 260.355C722.431 265.466 726.097 269.874 731.172 270.652C736.024 271.393 739.765 272.467 742.21 275.356C744.099 277.616 744.544 279.023 744.544 279.319C744.544 279.319 744.469 279.542 744.395 279.69C744.136 280.32 743.395 280.727 742.173 280.912C740.728 281.097 738.321 281.246 735.543 281.246V281.171ZM719.69 176.422C714.837 176.422 710.615 179.941 709.8 184.756C709.541 186.349 709.096 188.608 708.689 189.904C708.689 189.979 708.615 190.053 708.615 190.09C706.837 193.534 707.17 197.683 709.504 200.794C710.244 201.757 711.059 202.795 711.726 203.646C712.244 204.276 712.8 204.98 713.356 205.684C715.282 208.165 718.245 209.536 721.245 209.536C722.282 209.536 723.357 209.388 724.394 209.017C728.394 207.684 731.172 204.017 731.32 199.794C731.468 195.386 731.542 190.423 731.542 186.497C731.542 183.793 730.468 181.2 728.542 179.311C726.653 177.459 724.134 176.422 721.505 176.422C721.43 176.422 720.912 176.422 720.727 176.422C720.504 176.422 720.245 176.422 720.023 176.422C719.912 176.422 719.838 176.422 719.727 176.422H719.69ZM743.025 163.199C743.025 163.199 742.58 163.791 740.765 164.643C737.21 166.347 734.95 170.014 735.061 173.977C735.135 176.978 735.358 180.719 735.543 183.46C735.654 185.386 735.765 187.164 735.839 188.83C736.024 192.386 738.061 195.572 741.21 197.201C742.692 197.979 744.284 198.35 745.877 198.35C747.729 198.35 749.544 197.831 751.174 196.868C751.433 196.72 751.84 196.535 752.618 196.498C758.063 196.349 762.397 191.905 762.397 186.46V167.384C762.397 164.31 760.989 161.384 758.545 159.457C756.767 158.05 754.581 157.309 752.359 157.309C751.544 157.309 750.729 157.42 749.951 157.605L749.729 157.68C746.766 158.42 744.321 160.458 743.025 163.199Z" fill="#F6E23E"/>
<path d="M148.789 279.838C148.308 279.838 145.27 279.505 132.603 272.986C121.454 267.245 118.972 265.022 118.49 264.504C118.453 264.43 118.416 264.318 118.379 264.244C117.861 263.207 118.046 262.837 118.12 262.726C118.305 262.429 118.824 262.429 118.972 262.429C119.453 262.429 120.083 262.578 120.565 262.652L120.861 262.726C120.861 262.726 121.12 262.763 121.268 262.8C122.194 262.948 123.565 263.355 124.75 263.689C125.676 263.948 126.639 264.096 127.602 264.096C129.269 264.096 130.936 263.689 132.417 262.837C134.751 261.54 136.455 259.355 137.159 256.762C137.159 256.651 137.233 256.577 137.27 256.466C141.455 248.243 144.752 240.057 148.234 231.427C150.049 226.908 151.901 222.241 153.901 217.722C155.271 214.573 154.901 210.906 152.938 208.091C151.086 205.425 148.011 203.832 144.789 203.832C144.604 203.832 144.418 203.832 144.196 203.832C139.455 204.091 134.529 204.239 129.565 204.239C117.75 204.239 106.452 203.461 97.7478 202.017C85.4875 199.98 81.5242 197.239 80.3389 195.276C80.3389 190.275 79.8574 185.201 79.3759 179.83C78.1165 166.643 76.9683 154.198 83.6355 146.864C84.7097 145.716 85.8579 144.716 87.2284 143.901C89.9323 142.234 91.6732 139.382 91.9325 136.196C92.1918 133.048 90.8954 129.937 88.4878 127.862C84.8578 124.788 83.0429 122.381 82.8947 120.529C82.8206 119.714 83.0799 119.047 83.6726 118.454C84.1911 117.936 84.8579 117.676 85.6727 117.676C89.562 117.676 96.081 123.27 103.563 130.011C106.415 132.604 108.712 134.641 110.267 135.789C111.453 136.678 112.823 137.271 114.268 137.567C117.749 138.234 125.009 138.678 132.306 138.678C136.973 138.678 141.085 138.493 143.604 138.16C145.27 137.937 146.863 137.308 148.234 136.308C149.9 135.085 152.308 132.937 155.271 130.307C162.976 123.418 169.717 117.713 173.754 117.713C174.236 117.713 174.717 117.825 175.125 118.01C176.458 118.639 177.903 118.936 179.347 118.936C180.533 118.936 181.718 118.714 182.829 118.306C185.348 117.38 187.348 115.454 188.422 113.009C190.163 109.083 191.311 105.194 191.756 101.712C192.311 97.4525 190.089 93.304 186.2 91.452C185.014 90.8964 183.496 90.1556 182.533 89.1185C180.607 87.0442 177.94 85.9331 175.273 85.9331C173.569 85.9331 171.828 86.3775 170.272 87.3035C168.198 88.5259 166.272 89.0444 164.013 89.0444C162.42 89.0444 160.679 88.748 158.79 88.1554C153.456 86.4886 152.234 83.2291 151.715 77.4138L151.641 76.71C151.382 73.8949 149.937 71.3021 147.641 69.6353C147.567 69.5983 147.53 69.5612 147.53 69.5242C147.53 69.5242 147.53 69.5242 147.53 69.4502C147.53 69.265 147.678 69.0797 147.826 68.9315C147.826 68.9315 147.826 68.9316 147.937 68.8575C150.604 67.6352 152.567 65.3016 153.345 62.4866C153.827 60.7827 154.419 58.9678 155.901 57.5603C157.938 55.6342 161.049 54.5601 164.642 54.5601C172.643 54.5601 177.829 58.4493 180.051 62.0792C181.459 64.4127 183.792 66.0795 186.459 66.6351C187.163 66.7832 187.829 66.8573 188.533 66.8573C190.533 66.8573 192.497 66.2647 194.163 65.1164C195.015 64.5238 195.978 64.1163 197.09 63.8571C198.793 63.4496 200.46 63.2644 202.053 63.2644C206.831 63.2644 210.757 65.0054 213.387 68.339C216.462 72.1912 217.388 77.9324 215.98 84.0811C215.758 85.0812 215.276 86.0071 214.498 87.0442C211.609 90.8223 211.832 96.1191 215.017 99.6749C216.424 101.268 218.202 103.231 218.98 104.49C233.056 126.233 241.167 144.642 245.242 164.236C245.353 164.792 245.427 165.421 245.427 166.125C245.501 169.94 247.723 173.348 251.168 174.978C251.835 177.163 253.279 179.089 255.168 180.348C255.428 182.052 255.094 183.497 254.168 184.608C253.131 185.83 251.353 186.534 249.316 186.534C247.909 186.534 246.538 186.201 245.353 185.571C243.464 184.534 242.167 183.163 241.278 181.237C239.797 177.904 236.611 175.681 232.944 175.422C232.685 175.422 232.463 175.422 232.204 175.422C228.833 175.422 225.685 177.126 223.87 179.978C223.018 181.311 221.906 182.46 220.943 183.46L220.832 183.571C220.573 183.83 220.314 184.126 220.091 184.349C218.98 185.534 218.202 186.941 217.758 188.497C217.054 191.053 216.165 196.239 216.499 199.313C216.499 199.387 216.499 199.461 216.499 199.498C217.388 206.721 221.092 216.166 225.018 226.13C229.203 236.798 233.13 246.872 233.5 253.91C233.5 254.318 233.5 254.725 233.389 255.132C232.5 259.503 234.648 263.948 238.612 265.985C240.278 266.837 241.315 267.504 241.723 268.319C241.871 268.948 241.982 269.689 241.723 270.06C241.686 270.134 241.612 270.208 241.353 270.282C240.501 270.504 239.686 270.837 238.945 271.282C230.166 276.282 221.277 278.727 211.794 278.727C209.757 278.727 207.646 278.616 205.535 278.394C205.424 277.727 205.238 276.542 205.609 276.023C205.683 275.912 205.794 275.764 206.313 275.653C209.35 275.023 211.906 273.023 213.239 270.245C214.572 267.467 214.572 264.207 213.202 261.466C212.572 260.207 211.943 258.762 211.276 257.244C209.461 253.095 207.164 247.391 204.461 240.205C201.46 232.242 198.719 224.611 197.386 220.796C196.089 217.092 192.682 214.499 188.755 214.203C188.496 214.203 188.274 214.203 188.015 214.203C184.348 214.203 180.977 216.24 179.236 219.5C177.421 222.945 174.013 230.279 171.013 236.761C164.272 251.243 157.938 264.948 155.493 267.133C152.197 268.43 149.863 271.356 149.308 274.875C149.16 275.949 149.048 276.838 149.011 277.653C149.011 278.357 149.011 279.06 149.16 279.764C149.085 279.838 148.937 279.875 148.715 279.875L148.789 279.838Z" fill="#F6E23E"/>
<path d="M429.925 548.823C430.296 542.415 431.888 538.822 439.259 538.341C442.112 538.156 444.704 536.711 446.334 534.378C447.964 532.044 448.519 529.155 447.816 526.377C447.816 526.266 447.816 526.192 447.816 526.155V503.708C447.816 501.153 446.779 498.708 444.964 496.893C443.186 495.152 440.778 494.152 438.296 494.152C438.222 494.152 438.185 494.152 438.111 494.152C437.444 494.152 436.741 494.152 436.037 494.152C432.37 494.152 429.703 493.93 428.888 493.522C426.888 492.559 425.48 491.004 424.11 489.522C423.814 489.226 423.48 488.855 423.184 488.522C421.517 486.781 419.221 485.744 416.813 485.633H416.183C413.517 485.485 412.591 485.188 411.961 484.262C411.813 484.04 411.702 483.818 411.627 483.559C410.627 480.521 408.183 478.151 405.108 477.299C404.553 477.151 404.071 476.854 403.701 476.484C403.368 476.113 402.849 475.447 402.627 473.891C401.886 469.187 397.849 465.853 393.219 465.853C392.737 465.853 392.293 465.853 391.811 465.964C391.107 466.076 390.403 466.187 389.7 466.335C388.551 466.557 387.551 466.742 386.774 466.742C385.736 466.742 385.477 466.446 385.329 466.298C384.736 465.668 383.662 463.224 386.625 454.593C388.366 449.593 390.848 444.407 392.441 442.555C395.997 439.888 397.219 435.11 395.404 431.036C395.145 430.48 394.922 429.739 394.774 428.887C394.478 427.295 393.811 425.776 392.774 424.516C392.07 423.665 391.292 422.739 390.515 421.85C388.7 419.738 386.07 418.553 383.292 418.553C383.107 418.553 382.958 418.553 382.773 418.553C382.255 418.553 381.736 418.59 381.217 418.59C380.662 418.59 378.995 418.59 378.069 418.072C378.069 418.072 378.032 418.072 377.995 418.034C377.18 417.071 374.81 413.108 373.661 411.145C370.587 405.922 369.809 404.404 369.587 403.959C369.439 403.441 369.291 402.811 369.476 402.367C370.402 399.959 370.291 397.255 369.179 394.921C368.735 393.958 368.253 392.699 368.291 390.662C368.291 390.551 368.402 387.625 374.143 380.846C375.81 378.846 376.625 376.29 376.328 373.697C376.069 371.105 374.735 368.771 372.698 367.178C367.624 363.252 364.772 356.77 365.216 350.214C365.957 339.769 373.846 332.768 384.847 332.768C387.403 332.768 390.144 333.138 392.996 333.842C396.515 334.731 399.96 337.694 402.997 340.25C403.701 340.843 404.59 341.621 405.294 342.176C406.997 343.547 409.072 344.251 411.22 344.251C411.516 344.251 411.85 344.251 412.146 344.213C413.479 344.065 414.998 343.843 416.48 343.584C419.036 343.176 421.702 342.732 424.184 342.732C424.555 342.732 424.888 342.732 425.221 342.732C441.593 343.658 450.853 353.733 460.669 364.4C464.15 368.178 467.41 371.771 471.114 375.031C471.299 375.216 471.521 375.364 471.744 375.512C472.633 376.179 473.707 376.772 475.3 377.624C477.522 378.846 479.633 379.957 480.226 381.217C480.374 381.55 480.522 382.069 480.374 383.069C480.078 384.735 480.226 386.439 480.818 388.032C485.486 400.515 487.301 406.589 481.596 419.924C481.078 421.109 480.818 422.405 480.818 423.665V526.747C478.411 528.933 477.263 532.192 477.781 535.452C478.633 540.674 477.855 546.156 477.448 547.379C477.003 548.527 476.448 548.749 476.077 548.749H456.15C455.187 548.416 454.15 548.268 453.149 548.268C452.149 548.268 451.149 548.416 450.223 548.749C450.186 548.749 450.112 548.749 450.001 548.749H430.073L429.925 548.823ZM436.148 428.998C433 429.702 429.629 430.221 425.814 430.628C422.184 430.999 419.11 433.369 417.85 436.777C416.591 440.185 417.369 444 419.85 446.629L420.369 447.185C423.962 451 427.703 454.927 431.148 458.742C433 460.779 435.592 461.89 438.222 461.89C439.371 461.89 440.519 461.668 441.63 461.26C445.297 459.853 447.742 456.297 447.742 452.371V438.295C447.742 435.406 446.408 432.665 444.149 430.85C442.445 429.48 440.334 428.776 438.185 428.776C437.482 428.776 436.778 428.85 436.111 428.998H436.148ZM387.403 377.55L386.774 377.883C384.033 379.29 381.366 380.698 379.254 382.18C377.143 383.661 375.699 385.921 375.291 388.439C374.884 390.958 375.476 393.588 376.995 395.625C377.736 396.625 378.699 397.922 379.958 399.514C381.477 401.478 383.736 402.774 386.181 403.144C386.44 403.144 386.774 403.218 387.329 403.922C389.181 406.256 391.922 407.552 394.811 407.552C395.663 407.552 396.515 407.441 397.367 407.219C397.441 407.219 397.515 407.182 397.626 407.145C399.108 406.811 400.664 406.552 402.367 406.367C405.886 405.959 408.887 403.663 410.183 400.366C411.479 397.07 410.85 393.329 408.516 390.662L399.701 380.439C399.404 380.105 399.071 379.772 398.737 379.476C398.7 379.439 398.626 379.365 398.589 379.328C396.737 377.439 394.293 376.475 391.774 376.475C390.292 376.475 388.774 376.809 387.366 377.55H387.403Z" fill="#F6E23E"/>
<path d="M74.9708 816.217C69.9333 816.217 66.2293 815.847 63.3772 815.032C60.2288 814.143 57.8212 809.624 57.599 805.994C57.1174 798.623 59.3028 787.177 61.5993 775.065C63.3772 765.768 65.1922 756.175 65.5255 749.248C67.0812 715.097 65.2292 680.539 63.4143 647.092C62.6364 632.942 61.8586 618.385 61.34 604.014C65.7107 603.347 69.1555 603.051 71.9705 603.051C74.7856 603.051 77.2302 603.495 78.6378 604.31C79.2304 604.644 80.3786 605.31 80.675 608.237C81.1194 612.311 84.3049 615.608 88.5275 616.46C91.0462 616.941 93.602 617.534 95.2317 618.904C103.899 626.164 111.122 641.462 117.197 655.203C117.752 656.463 118.382 657.87 118.937 659.13C120.53 662.648 124.16 664.797 128.049 664.797C128.938 664.797 129.79 664.686 130.679 664.463C135.198 663.278 140.569 660.315 146.532 656.87C150.57 654.537 154.422 652.351 157.756 651.092C158.867 650.685 159.904 650.055 160.756 649.314C161.978 648.24 163.2 647.462 164.201 647.129C166.312 646.388 168.46 645.98 170.571 645.98C174.387 645.98 177.683 647.203 180.906 648.351C183.98 649.462 186.869 650.536 190.055 650.536C190.388 650.536 190.684 650.536 191.018 650.536C191.499 650.536 191.944 650.425 192.388 650.351C194.833 649.833 197.463 648.61 202.796 645.832C206.945 643.684 211.649 641.202 215.612 640.387C218.39 639.795 221.242 639.535 224.094 639.535C240.096 639.535 255.801 648.981 263.209 663.056C269.283 674.612 268.357 687.28 260.69 696.911C259.431 698.503 255.653 701.244 253.801 702.541C250.541 704.911 249.134 708.949 250.319 712.69C250.467 713.134 250.541 713.542 250.578 713.912C252.06 726.506 246.911 733.321 240.911 741.211C239.725 742.803 238.466 744.433 237.207 746.211C234.799 749.619 234.984 754.101 237.688 757.286C240.763 760.953 243.985 764.287 247.43 767.806C255.505 776.14 263.135 783.992 267.431 794.845C271.247 804.438 269.987 807.29 269.839 807.55C269.617 807.994 269.32 808.105 269.098 808.179C268.246 808.401 266.58 808.513 264.172 808.513C261.764 808.513 259.023 808.402 256.616 808.328C254.541 808.253 252.838 808.179 251.689 808.179C250.837 807.957 249.986 807.846 249.134 807.846C247.8 807.846 246.43 808.105 245.17 808.624C243.8 809.18 243.17 809.254 243.17 809.254H223.131C221.872 809.254 220.65 809.476 219.501 809.92C219.205 810.031 219.02 810.031 218.909 810.031C218.131 810.031 217.983 809.402 217.946 808.735C217.798 806.253 219.353 804.327 222.724 802.882C223.613 802.512 224.613 802.142 225.724 801.845C229.021 800.957 231.614 798.512 232.54 795.401C233.503 792.289 232.651 788.918 230.354 786.511C226.91 782.881 222.317 777.918 216.279 771.324L215.316 770.287C213.427 768.213 210.686 767.028 207.797 767.028C207.686 767.028 207.612 767.028 207.5 767.028C204.5 767.102 201.722 768.472 199.907 770.732C197.351 773.917 194.573 777.436 192.351 780.288C188.906 784.659 185.684 788.807 183.017 791.993C181.313 794.03 178.98 796.845 178.054 797.215C175.016 797.438 172.201 798.956 170.534 801.364C169.979 802.179 169.423 802.957 169.016 803.549C167.756 805.364 166.238 807.55 165.497 808.216C165.497 808.216 165.497 808.216 165.46 808.216C165.46 808.216 165.386 808.216 165.312 808.216C164.793 808.216 162.978 807.809 157.422 804.031C153.348 801.253 150.644 798.919 149.718 797.845C149.57 797.66 149.422 797.475 149.236 797.326C148.051 796.104 146.532 795.178 144.866 794.697C143.903 794.4 142.902 793.956 141.865 793.252C141.495 792.956 140.791 792.437 139.865 791.808L136.532 789.4C134.754 788.104 132.642 787.474 130.494 787.474C128.494 787.474 126.531 788.03 124.79 789.178C121.234 791.511 119.715 795.771 121.012 799.66C121.752 801.919 121.53 805.179 121.271 808.624C121.123 810.513 120.975 812.661 120.938 814.958C118.308 814.513 115.122 814.291 111.233 814.291C105.566 814.291 99.0839 814.772 92.8241 815.217C86.6755 815.661 80.3046 816.143 74.8226 816.143L74.9708 816.217ZM172.349 670.279C171.868 670.279 171.386 670.279 170.905 670.39C167.312 670.909 164.275 673.205 163.052 676.428C157.2 691.503 146.681 714.69 126.753 756.434L122.753 764.805C121.493 767.435 121.604 770.472 123.012 773.028C124.419 775.584 127.012 777.399 130.012 777.917C132.753 778.399 136.309 780.066 140.421 781.992C141.939 782.696 143.977 783.659 146.051 784.548C147.347 785.103 148.755 785.363 150.125 785.363C151.311 785.363 152.496 785.14 153.644 784.733C156.126 783.844 158.089 782.066 159.2 779.807L199.203 722.765C201.426 719.579 201.426 715.431 199.166 712.282C198.648 711.579 197.944 710.43 197.203 708.06C195.055 701.356 194.277 693.948 193.499 686.799C193.388 685.688 193.277 684.613 193.129 683.539C192.61 678.761 188.314 675.131 183.239 675.131C183.128 675.131 182.832 675.131 182.832 675.131C181.869 675.131 181.091 674.835 180.498 674.205C180.424 674.094 180.313 674.02 180.239 673.946C178.35 671.575 175.387 670.205 172.312 670.205L172.349 670.279ZM87.2311 649.944C85.9717 649.944 84.7123 650.166 83.49 650.648C79.749 652.092 77.3043 655.537 77.3043 659.352V767.176C77.3043 771.399 80.3046 775.139 84.6012 776.251C85.4902 776.473 86.3421 776.584 87.2311 776.584C90.6758 776.584 93.9724 774.88 95.7873 771.954C99.195 766.509 103.01 760.583 106.603 754.99C108.974 751.286 108.381 746.544 105.196 743.47V668.538C105.196 666.723 104.64 664.945 103.603 663.426C101.492 660.389 97.8986 656.204 94.4169 652.796C92.4908 650.944 89.935 649.944 87.2681 649.944H87.2311ZM119.086 688.762C117.604 688.762 116.085 689.095 114.715 689.725C111.307 691.318 109.159 694.577 109.159 698.17V717.135C109.159 721.394 112.159 725.098 116.493 726.21C117.345 726.432 118.234 726.543 119.086 726.543C122.567 726.543 125.864 724.802 127.679 721.876C132.013 714.838 135.568 708.801 138.532 703.43C140.532 699.8 139.828 695.355 136.754 692.429C134.828 690.614 132.309 689.651 129.716 689.651C128.16 689.651 126.568 689.984 125.123 690.725C123.345 689.429 121.234 688.762 119.049 688.762H119.086Z" fill="#F6E23E"/>
</g>
</svg>
