<svg width="338" height="295" viewBox="0 0 338 295" fill="none" xmlns="http://www.w3.org/2000/svg">
<path d="M216.578 294.764C215.102 294.764 213.898 293.575 213.898 292.107V286.196C213.898 277.203 219.569 269.393 228.006 266.763C232.492 265.368 235.503 261.29 235.503 256.628C235.503 251.966 232.492 247.894 228.006 246.493C222.725 244.846 218.332 241.074 215.943 236.146C215.241 234.704 214.196 233.416 212.899 232.413C210.537 232.526 207.949 232.586 205.19 232.586H154.668C152.802 232.586 151.161 231.988 150.043 230.892C148.911 229.79 148.289 228.162 148.289 226.309V208.769C148.289 205.362 146.629 202.141 143.843 200.149C143.664 200.022 143.472 199.896 143.267 199.77H133.057C128.061 199.77 123.773 203.137 122.635 207.959C120.478 217.031 112.286 223.367 102.698 223.367H90.8132C88.9604 223.367 87.1275 223.128 85.3541 222.657C83.5741 223.128 81.7544 223.367 79.9413 223.367H68.057C57.1851 223.367 48.3975 215.318 47.6101 204.638C47.4844 202.905 46.9352 201.231 46.0286 199.783H25.4494C25.37 199.783 25.2906 199.783 25.2112 199.783L2.68655 199.797C1.9719 199.797 1.29695 199.518 0.794053 199.019C0.291153 198.521 0.00661711 197.851 0.00661711 197.14V167.665C0.00661711 165.148 0.430112 162.717 1.26387 160.439C2.36893 157.41 2.0513 154.096 0.383792 151.333C0.132342 150.922 0 150.45 0 149.965V126.395C0.00661711 124.927 1.21093 123.738 2.68655 123.738H56.166C57.1652 123.738 58.1578 123.804 59.1239 123.931C59.5937 123.997 60.0767 124.024 60.5598 124.024C63.1537 124.024 65.655 123.094 67.607 121.4C69.9362 119.381 71.2663 116.466 71.2663 113.397V79.2067C71.2663 77.7389 72.464 76.55 73.9462 76.55H79.8884C85.1754 76.55 90.2441 78.5359 94.0291 82.0492V79.2067C94.0291 77.7389 95.2268 76.55 96.7091 76.55H102.651C110.532 76.55 117.573 80.8272 120.981 87.5617C122.728 84.1014 125.487 81.1925 128.868 79.2598C132.183 77.3669 134.235 73.8403 134.235 70.048V29.4617C134.235 27.7814 134.797 26.307 135.823 25.3042C136.835 24.3079 138.311 23.7633 139.985 23.7633H161.457C161.841 23.7633 162.218 23.7633 162.596 23.7633C162.642 23.7633 162.695 23.7633 162.748 23.7633H184.22C187.403 23.7633 190.275 23.8696 192.77 24.0821C193.577 23.8231 194.331 23.7633 194.834 23.7633H226.749C232.651 23.7633 237.462 18.9947 237.462 13.1369V2.6566C237.462 1.18883 238.659 0 240.142 0H294.011C295.844 0 297.657 0.225811 299.398 0.684076C301.165 0.232453 302.978 0 304.797 0H316.768C328.334 0 337.4 8.9926 337.4 20.4691V26.4066C337.4 26.8915 337.267 27.3697 337.016 27.7814C335.329 30.5509 335.004 33.8783 336.123 36.9202C336.97 39.2181 337.4 41.6755 337.4 44.2258V97.67C337.4 99.1378 336.202 100.327 334.72 100.327H328.731C327.606 100.327 326.455 100.234 325.317 100.061C324.768 99.9747 324.212 99.9348 323.656 99.9348C318.574 99.9348 314.161 103.528 313.161 108.469C313.055 109 312.824 109.518 312.506 109.924C311.666 111.006 311.057 112.222 310.68 113.537C310.514 114.121 310.197 114.666 309.754 115.091C307.749 117.07 306.597 119.819 306.597 122.629C306.597 125.432 307.749 128.168 309.747 130.147C309.833 130.22 309.939 130.34 310.051 130.486C310.581 131.15 311.189 131.748 311.864 132.266C312.751 132.95 313.234 133.946 313.234 135.075V153.452C313.234 154.448 312.857 155.338 312.136 156.022C309.945 158.095 308.748 161.01 308.834 164.012C308.92 167.007 310.29 169.85 312.592 171.796C313.188 172.301 313.532 173.038 313.532 173.815L313.545 207.846C313.545 213.704 318.349 218.472 324.258 218.472H334.713C336.189 218.472 337.393 219.661 337.393 221.129V227.047C337.393 236.584 330.988 244.74 321.81 246.885C316.946 248.021 313.552 252.271 313.552 257.226V274.361C313.552 285.797 304.519 294.757 292.992 294.757H216.585L216.578 294.764Z" fill="#EFE8D5"/>
<path d="M250.135 142.333H251.644C252.1 142.333 252.478 141.988 252.531 141.536C252.617 140.699 253.285 140.035 254.119 139.949C254.536 139.909 254.873 139.57 254.913 139.152C255.005 138.235 255.766 137.551 256.679 137.551H258.797C259.254 137.551 259.631 137.206 259.684 136.754C259.77 135.924 260.438 135.26 261.258 135.173C261.715 135.127 262.053 134.742 262.053 134.283V132.756C262.053 132.298 261.708 131.919 261.258 131.866C260.431 131.78 259.77 131.109 259.684 130.285C259.637 129.827 259.254 129.488 258.797 129.488H254.893C254.436 129.488 254.059 129.834 254.006 130.285C253.92 131.115 253.252 131.78 252.431 131.866C251.975 131.912 251.637 132.298 251.637 132.756V134.881C251.637 135.798 250.956 136.561 250.049 136.654C249.599 136.701 249.255 137.086 249.255 137.544V141.45C249.255 141.941 249.652 142.34 250.142 142.34L250.135 142.333Z" fill="#222222"/>
<path d="M238.218 127.985H239.727C240.184 127.985 240.561 127.64 240.614 127.188C240.706 126.278 241.467 125.594 242.38 125.594H245.087C246.066 125.594 246.867 126.398 246.867 127.381V127.706C246.867 128.622 246.179 129.386 245.272 129.479C244.855 129.519 244.518 129.858 244.478 130.276C244.392 131.113 243.73 131.777 242.897 131.87C242.44 131.917 242.103 132.302 242.103 132.76V139.076C242.103 139.534 242.447 139.913 242.897 139.966C243.803 140.059 244.485 140.823 244.485 141.739V146.256C244.485 146.714 244.829 147.093 245.279 147.146C246.106 147.232 246.768 147.896 246.854 148.726C246.9 149.185 247.284 149.523 247.74 149.523H263.562C264.018 149.523 264.396 149.178 264.449 148.726C264.541 147.816 265.302 147.132 266.215 147.132H268.922C269.835 147.132 270.596 147.816 270.688 148.726C270.735 149.185 271.119 149.523 271.575 149.523H276.075C276.988 149.523 277.749 150.207 277.842 151.117C277.888 151.569 278.272 151.914 278.728 151.914H283.228C284.141 151.914 284.902 152.605 284.995 153.515C285.034 153.933 285.372 154.272 285.789 154.312C286.219 154.352 286.616 154.551 286.914 154.87C287.244 155.228 287.416 155.713 287.39 156.205C287.39 156.218 287.39 156.238 287.39 156.258V156.411C287.39 157.314 286.689 158.091 285.789 158.184C285.372 158.224 285.034 158.562 284.995 158.981C284.955 159.386 284.776 159.765 284.498 160.05C284.207 160.349 283.823 160.535 283.407 160.575C282.99 160.621 282.659 160.953 282.612 161.372C282.526 162.209 281.865 162.879 281.031 162.966C280.581 163.012 280.237 163.397 280.237 163.856V165.695C280.237 165.848 280.277 166.001 280.349 166.134C280.654 166.678 280.654 167.349 280.349 167.894C280.27 168.027 280.23 168.186 280.237 168.339V168.372C280.237 169.269 279.542 170.046 278.649 170.145C278.199 170.192 277.855 170.577 277.855 171.035V172.549C277.855 173.041 278.252 173.439 278.741 173.439H280.25C280.707 173.439 281.084 173.094 281.137 172.642C281.223 171.806 281.891 171.141 282.725 171.055C283.142 171.015 283.479 170.677 283.519 170.258C283.612 169.342 284.373 168.658 285.286 168.658H287.403C287.86 168.658 288.237 168.312 288.29 167.861C288.376 167.024 289.044 166.36 289.878 166.273C290.295 166.233 290.632 165.895 290.672 165.476C290.765 164.56 291.526 163.876 292.439 163.876H296.939C297.395 163.876 297.772 163.53 297.825 163.079C297.911 162.242 298.58 161.578 299.413 161.491C299.83 161.451 300.168 161.113 300.207 160.694C300.293 159.858 300.962 159.187 301.795 159.1C302.212 159.061 302.55 158.722 302.59 158.303C302.676 157.467 303.344 156.796 304.178 156.709C304.595 156.67 304.932 156.331 304.972 155.912C305.058 155.076 305.719 154.405 306.553 154.318C307.003 154.272 307.347 153.887 307.347 153.429V135.158C307.347 134.699 307.003 134.321 306.553 134.268C305.719 134.181 305.058 133.511 304.972 132.674C304.932 132.255 304.595 131.917 304.178 131.877C303.344 131.79 302.676 131.12 302.59 130.283C302.55 129.864 302.212 129.526 301.795 129.486C300.962 129.4 300.293 128.729 300.207 127.892C300.168 127.474 299.83 127.135 299.413 127.095C298.58 127.009 297.911 126.338 297.825 125.501C297.786 125.083 297.448 124.744 297.031 124.704C296.197 124.618 295.529 123.947 295.443 123.11C295.403 122.692 295.066 122.353 294.649 122.313C293.815 122.227 293.147 121.556 293.061 120.719C293.021 120.301 292.684 119.962 292.267 119.922C291.837 119.876 291.433 119.676 291.142 119.364C290.811 119.006 290.639 118.521 290.672 118.029C290.672 118.009 290.672 117.989 290.672 117.976V117.823C290.672 116.9 291.36 116.143 292.267 116.05C292.684 116.01 293.021 115.672 293.061 115.253C293.154 114.337 293.915 113.653 294.828 113.653H297.534C298.447 113.653 299.208 114.337 299.301 115.246C299.347 115.705 299.731 116.043 300.188 116.043H301.709C302.166 116.043 302.543 115.698 302.596 115.246C302.682 114.416 303.351 113.752 304.171 113.666C304.628 113.619 304.965 113.234 304.965 112.776V110.651C304.965 109.734 305.647 108.97 306.553 108.877C307.003 108.831 307.347 108.446 307.347 107.987V99.2803C307.347 98.822 307.003 98.4435 306.553 98.3903C305.719 98.304 305.058 97.6332 304.972 96.7964C304.932 96.378 304.595 96.0392 304.178 95.9994C303.344 95.9131 302.676 95.2423 302.59 94.4054C302.55 93.987 302.212 93.6483 301.795 93.6085C300.962 93.5221 300.3 92.858 300.207 92.0211C300.161 91.5629 299.777 91.2242 299.321 91.2242H280.806C280.654 91.2242 280.502 91.264 280.369 91.3437C280.105 91.4965 279.8 91.5762 279.496 91.5762C279.191 91.5762 278.887 91.4965 278.616 91.3437C278.483 91.2706 278.331 91.2308 278.179 91.2308H273.375C272.462 91.2308 271.701 90.5467 271.608 89.6368C271.562 89.1786 271.178 88.8398 270.722 88.8398H262.047C261.59 88.8398 261.213 89.1852 261.16 89.6368C261.074 90.4737 260.405 91.1378 259.572 91.2242C259.155 91.264 258.817 91.6027 258.778 92.0211C258.692 92.858 258.023 93.5288 257.19 93.6151C256.773 93.6549 256.435 93.9937 256.395 94.4121C256.309 95.2489 255.648 95.9197 254.814 96.006C254.364 96.0525 254.02 96.4377 254.02 96.896V115.167C254.02 115.625 254.364 116.004 254.814 116.057C255.648 116.143 256.309 116.814 256.395 117.651C256.435 118.069 256.773 118.408 257.19 118.448C258.103 118.541 258.784 119.304 258.784 120.221V120.367C258.784 120.367 258.784 120.407 258.784 120.427C258.817 120.918 258.645 121.403 258.314 121.762C257.977 122.127 257.507 122.333 257.011 122.333H256.68C255.767 122.333 255.006 121.642 254.913 120.732C254.874 120.314 254.536 119.975 254.119 119.935C253.285 119.849 252.617 119.178 252.531 118.341C252.491 117.923 252.154 117.584 251.737 117.544C250.903 117.458 250.235 116.794 250.149 115.957C250.103 115.506 249.719 115.16 249.262 115.16H247.74C247.284 115.16 246.907 115.506 246.854 115.957C246.768 116.787 246.099 117.451 245.279 117.538C244.822 117.584 244.485 117.97 244.485 118.428V120.374C244.485 120.374 244.485 120.414 244.485 120.434C244.518 120.925 244.346 121.41 244.008 121.768C243.671 122.134 243.201 122.34 242.705 122.34H240.587C240.131 122.34 239.753 122.685 239.701 123.137C239.615 123.967 238.946 124.631 238.126 124.717C237.669 124.764 237.332 125.149 237.332 125.607V127.122C237.332 127.613 237.729 128.011 238.218 128.011V127.985ZM295.986 133.238C296.317 132.933 296.74 132.767 297.19 132.767C297.203 132.767 297.342 132.767 297.362 132.767H297.508C298.487 132.767 299.281 133.57 299.281 134.553V139.661C299.281 140.139 299.102 140.584 298.765 140.923C298.427 141.261 297.984 141.447 297.508 141.447H297.362C297.362 141.447 297.322 141.447 297.309 141.447C297.289 141.447 297.21 141.447 297.197 141.447H297.137C297.137 141.447 297.097 141.447 297.077 141.447C297.051 141.447 297.018 141.447 296.991 141.447C296.568 141.447 296.171 141.241 295.919 140.903C295.906 140.883 295.886 140.863 295.873 140.843C295.582 140.517 295.423 140.099 295.423 139.661V134.54C295.423 134.042 295.628 133.564 295.992 133.225L295.986 133.238ZM290.646 148.906C290.646 147.989 291.327 147.225 292.234 147.132C292.69 147.086 293.028 146.701 293.028 146.242V144.117C293.028 143.632 293.206 143.201 293.551 142.855C293.888 142.517 294.331 142.331 294.808 142.331H294.953C294.953 142.331 294.993 142.331 295.006 142.331H295.073H295.185C295.205 142.331 295.225 142.331 295.245 142.331C295.278 142.331 295.304 142.331 295.331 142.331C295.754 142.331 296.151 142.536 296.403 142.875C296.416 142.895 296.436 142.915 296.449 142.935C296.74 143.267 296.899 143.685 296.899 144.117V146.84C296.905 147.325 296.727 147.763 296.389 148.102C296.098 148.394 295.728 148.574 295.324 148.62C294.867 148.667 294.523 149.052 294.523 149.51V151.635C294.523 152.618 293.723 153.422 292.743 153.422H292.419C291.44 153.422 290.639 152.618 290.639 151.635V148.919L290.646 148.906ZM289.759 137.27C289.759 138.186 289.071 138.95 288.164 139.043C287.747 139.083 287.41 139.422 287.37 139.84C287.284 140.677 286.622 141.348 285.789 141.434C285.339 141.48 284.995 141.866 284.995 142.324V146.84C284.995 147.823 284.194 148.627 283.215 148.627H280.508C279.529 148.627 278.728 147.823 278.728 146.84V144.124C278.728 143.207 279.41 142.443 280.316 142.35C280.766 142.304 281.11 141.919 281.11 141.461V130.363C281.11 129.904 280.766 129.526 280.316 129.473C279.41 129.373 278.728 128.616 278.728 127.699V124.983C278.728 124 279.529 123.196 280.508 123.196H283.215C284.134 123.196 284.889 123.887 284.981 124.797C285.021 125.215 285.359 125.554 285.775 125.594C286.186 125.634 286.576 125.82 286.861 126.112C287.145 126.398 287.324 126.783 287.364 127.188C287.41 127.606 287.741 127.938 288.158 127.985C289.071 128.078 289.759 128.842 289.752 129.758V137.256L289.759 137.27ZM273.964 103.464C273.964 102.482 274.765 101.678 275.744 101.678H277.861C278.318 101.678 278.695 101.333 278.748 100.881C278.834 100.044 279.502 99.3799 280.336 99.2936C280.753 99.2537 281.091 98.915 281.13 98.4966C281.223 97.5801 281.984 96.896 282.897 96.896H297.514C298.427 96.896 299.188 97.5867 299.281 98.4966C299.321 98.915 299.658 99.2537 300.075 99.2936C300.988 99.3866 301.67 100.15 301.67 101.067V103.79C301.67 104.281 301.465 104.76 301.101 105.098C300.77 105.404 300.34 105.576 299.89 105.576C299.877 105.576 299.738 105.576 299.718 105.576H290.646C290.414 105.576 290.182 105.669 290.017 105.835C289.852 106.002 289.759 106.227 289.759 106.466V110.963C289.759 111.879 289.071 112.643 288.164 112.736C287.747 112.776 287.41 113.115 287.37 113.533C287.278 114.45 286.517 115.134 285.603 115.134H285.458C285.458 115.134 285.299 115.134 285.286 115.134C284.836 115.134 284.406 114.961 284.075 114.655C283.711 114.317 283.506 113.838 283.506 113.347V105.842C283.506 104.859 284.306 104.056 285.286 104.056H287.383C287.873 104.056 288.27 103.657 288.27 103.166V101.665C288.27 101.173 287.873 100.775 287.383 100.775H283.493C283.036 100.775 282.659 101.12 282.606 101.572C282.52 102.402 281.858 103.066 281.031 103.152C280.574 103.199 280.237 103.584 280.237 104.042V113.347C280.237 113.838 280.032 114.317 279.668 114.655C279.337 114.968 278.907 115.134 278.457 115.134C278.444 115.134 278.305 115.134 278.285 115.134H275.751C274.771 115.134 273.971 114.33 273.971 113.347V103.458L273.964 103.464ZM259.664 98.6759C259.664 97.7594 260.353 96.9956 261.259 96.9026C261.676 96.8628 262.013 96.5241 262.053 96.1057C262.139 95.2688 262.807 94.598 263.641 94.5117C264.058 94.4718 264.396 94.1331 264.435 93.7147C264.528 92.7982 265.289 92.1141 266.202 92.1141H268.908C269.888 92.1141 270.688 92.9177 270.688 93.9007V94.0468C270.688 94.0468 270.688 94.0866 270.688 94.1066C270.722 94.598 270.55 95.0829 270.219 95.4415C269.921 95.7603 269.524 95.9595 269.094 96.006C268.677 96.0459 268.339 96.3846 268.3 96.803C268.214 97.6398 267.552 98.3106 266.718 98.397C266.268 98.4435 265.924 98.8287 265.924 99.2869V100.814C265.924 101.273 266.268 101.651 266.718 101.704C267.625 101.797 268.306 102.561 268.306 103.478V110.983C268.306 111.474 268.101 111.952 267.737 112.291C267.406 112.597 266.976 112.769 266.526 112.769C266.513 112.769 266.374 112.769 266.354 112.769H266.202C265.223 112.769 264.422 111.966 264.422 110.983V104.089C264.422 103.597 264.025 103.199 263.535 103.199H261.61C261.61 103.199 261.451 103.199 261.438 103.199C260.988 103.199 260.558 103.026 260.227 102.721C259.863 102.382 259.658 101.91 259.658 101.412V98.6892L259.664 98.6759ZM259.664 115.413C259.664 114.921 259.869 114.443 260.233 114.104C260.564 113.799 260.994 113.626 261.444 113.626C261.458 113.626 261.597 113.626 261.616 113.626H261.769C262.748 113.626 263.549 114.43 263.549 115.413V115.738C263.549 116.721 262.748 117.525 261.769 117.525H261.444C260.465 117.525 259.664 116.721 259.664 115.738V115.406V115.413ZM247.76 131.983C247.846 131.146 248.508 130.475 249.342 130.389C249.798 130.343 250.136 129.957 250.136 129.499V127.374C250.136 126.391 250.936 125.587 251.916 125.587H254.622C255.535 125.587 256.296 126.271 256.389 127.181C256.435 127.64 256.819 127.978 257.276 127.978H259.393C260.306 127.978 261.067 128.669 261.16 129.579C261.2 129.997 261.537 130.336 261.954 130.376C262.788 130.462 263.456 131.126 263.542 131.963C263.588 132.415 263.972 132.76 264.429 132.76H265.937C266.427 132.76 266.824 132.362 266.824 131.87V129.765C266.824 128.782 267.625 127.978 268.604 127.978H268.928C269.841 127.978 270.602 128.669 270.695 129.579C270.735 129.997 271.072 130.336 271.489 130.376C272.402 130.469 273.084 131.233 273.084 132.149V134.866C273.084 135.782 272.396 136.546 271.489 136.639C271.072 136.679 270.735 137.017 270.695 137.436C270.602 138.352 269.841 139.036 268.928 139.036H268.604C267.691 139.036 266.93 138.352 266.837 137.442C266.791 136.991 266.407 136.645 265.951 136.645H264.442C263.952 136.645 263.555 137.044 263.555 137.535V142.032C263.555 142.948 262.867 143.712 261.96 143.805C261.544 143.845 261.206 144.184 261.166 144.602C261.074 145.518 260.313 146.203 259.4 146.203H251.929C251.016 146.203 250.255 145.512 250.162 144.602C250.122 144.184 249.785 143.845 249.368 143.805C248.455 143.712 247.773 142.948 247.773 142.032V139.906C247.773 139.448 247.429 139.07 246.979 139.016C246.073 138.923 245.391 138.16 245.391 137.243V134.527C245.391 133.61 246.079 132.846 246.986 132.754C247.403 132.714 247.74 132.375 247.78 131.957L247.76 131.983Z" fill="#222222"/>
<path d="M159.428 71.2747C159.428 72.251 159.045 73.2539 159.561 73.7719C160.077 74.29 161.069 74.4759 162.049 74.4759C172.596 74.4759 172.596 74.1837 183.151 74.1837C186.426 74.1837 189.298 73.9512 191.806 73.7188C194.314 73.4863 196.583 73.6657 198.436 73.2074C200.289 72.7558 201.738 71.8459 202.989 71.1684C204.239 70.491 205.106 69.621 205.874 68.7244C206.635 67.8278 207.323 66.9577 207.647 65.8419C207.971 64.7262 208.415 63.5174 208.415 62.1958C208.415 50.6993 208.057 50.6993 208.057 39.2028C208.057 37.8812 207.641 36.7721 207.316 35.6563C206.992 34.5405 207.019 33.2521 206.251 32.3555C205.483 31.4588 204.372 30.6619 203.121 29.9911C201.87 29.3136 200.176 29.121 198.324 28.6694C196.471 28.2178 194.347 27.5404 191.839 27.3079C189.331 27.0754 186.426 27.3212 183.151 27.3212C172.603 27.3212 172.61 26.8164 162.055 26.6172C161.083 26.6172 160.355 27.3876 159.839 27.9056C159.322 28.417 158.595 29.141 158.595 30.1305C158.595 40.4182 158.866 40.4182 158.866 50.7059C158.866 60.9936 159.435 60.9936 159.435 71.2813L159.428 71.2747ZM179.862 38.625C180.14 38.3461 180.623 37.9078 181.159 37.9078C182.151 37.9078 182.151 38.1402 183.151 38.1402C183.991 38.1402 184.686 38.5188 185.268 38.5653C185.844 38.6118 186.247 38.552 186.598 38.6981C186.949 38.8376 187.154 39.0567 187.313 39.3158C187.465 39.5748 187.889 39.8338 187.889 40.2588C187.889 50.6993 187.531 50.6927 187.319 61.1265C187.319 61.5515 187.445 61.8105 187.293 62.0629C187.134 62.3219 187.075 62.7204 186.724 62.8533C186.373 62.9861 185.884 63.2053 185.308 63.2584C184.732 63.3115 184.064 63.0127 183.223 63.0127C182.231 63.0127 182.165 63.1654 181.166 63.1654C180.636 63.1654 180.067 63.1189 179.789 62.84C179.511 62.561 179.498 61.9965 179.498 61.4652C179.498 50.6927 179.776 50.6927 179.776 39.9268C179.776 39.3955 179.591 38.904 179.869 38.625H179.862Z" fill="#222222"/>
<path d="M212.656 71.2782C212.656 72.2545 212.954 73.2441 213.47 73.7688C213.986 74.2868 214.972 73.9614 215.951 73.9614C219.617 73.9614 219.604 74.5126 223.27 74.6255C226.929 74.7384 226.942 74.6388 230.608 74.6388C234.274 74.6388 234.267 73.9083 237.933 73.9083C241.599 73.9083 241.592 73.9149 245.258 73.9149C248.924 73.9149 248.918 73.8883 252.584 73.8883C253.576 73.8883 254 73.7289 254.509 73.2043C255.019 72.6862 255.522 72.2545 255.522 71.2782C255.522 68.7079 255.985 68.708 255.985 66.1377C255.985 65.1415 255.197 64.5304 254.694 64.019C254.185 63.5143 253.583 62.9365 252.584 62.9365C248.309 62.9365 248.309 63.5076 244.028 63.5076C239.746 63.5076 239.753 63.0361 235.472 63.0361C234.81 63.0361 234.023 63.2221 233.678 62.8701C233.334 62.5181 233.414 61.7344 233.414 61.0702C233.414 59.1774 233.672 59.1774 233.672 57.2912C233.672 56.6138 233.685 56.1821 234.029 55.8367C234.373 55.4913 234.81 55.5511 235.472 55.5511C239.296 55.5511 239.296 54.8737 243.121 54.8737C246.946 54.8737 246.946 55.3652 250.77 55.3652C251.763 55.3652 252.597 55.0663 253.1 54.5416C253.609 54.0236 253.834 53.2 253.834 52.2171C253.834 50.2512 254.092 50.2512 254.092 48.2853C254.092 47.2891 253.258 46.8042 252.756 46.2929C252.246 45.7815 251.77 44.9978 250.77 44.9978C246.946 44.9978 246.946 45.5357 243.121 45.5357C239.296 45.5357 239.296 45.011 235.472 45.011C234.81 45.011 234.492 44.8981 234.148 44.5461C233.804 44.1941 233.592 43.882 233.592 43.2112C233.592 41.7766 233.751 41.7766 233.751 40.3354C233.751 39.658 233.387 38.9141 233.731 38.5688C234.075 38.2234 234.817 38.6219 235.478 38.6219C239.607 38.6219 239.607 38.4359 243.73 38.4359C247.852 38.4359 247.859 38.6618 251.981 38.6618C252.974 38.6618 254.052 38.3562 254.555 37.8316C255.065 37.3135 255.316 36.2442 255.316 35.2679C255.316 32.6977 255.138 32.6977 255.138 30.1274C255.138 29.1312 254.595 28.5202 254.086 28.0088C253.576 27.4974 252.974 26.6406 251.975 26.6406C249.571 26.6406 247.169 26.6406 244.769 26.6406C241.162 26.6406 241.162 27.2583 237.563 27.2583C233.963 27.2583 233.963 27.4775 230.363 27.4775C226.764 27.4775 226.764 27.1852 223.157 27.1852C219.551 27.1852 219.558 27.3845 215.958 27.3845C214.985 27.3845 214.184 27.3048 213.668 27.8162C213.152 28.3276 212.702 29.1312 212.702 30.1341C212.702 34.2518 212.854 34.2518 212.854 38.3695C212.854 42.4873 212.696 42.4873 212.696 46.605C212.696 50.7227 213.013 50.7161 213.013 54.8338C213.013 58.9516 212.841 58.9516 212.841 63.0627C212.841 67.1738 212.656 67.1738 212.656 71.2915V71.2782Z" fill="#222222"/>
<path d="M193.697 122.176C189.277 122.176 189.277 122.295 184.857 122.295C180.437 122.295 180.437 122.508 176.016 122.508C175.057 122.508 174.091 122.581 173.581 123.079C173.072 123.577 172.867 124.567 172.867 125.55C172.867 130.61 173.078 130.61 173.078 135.665C173.078 140.719 172.774 140.726 172.774 145.78C172.774 150.834 173.515 150.841 173.515 155.895C173.515 160.949 172.734 160.956 172.734 166.01C172.734 166.973 173.184 167.836 173.694 168.348C174.203 168.859 175.063 169.164 176.023 169.164C180.523 169.164 180.523 169.423 185.022 169.364C189.522 169.304 189.515 168.693 194.015 168.693C198.514 168.693 198.508 169.078 203.001 169.078C207.494 169.078 207.494 168.719 211.993 168.719C212.973 168.719 213.509 168.54 214.005 168.029C214.501 167.517 214.647 166.973 214.647 166.016C214.647 163.486 214.799 163.486 214.799 160.956C214.799 159.973 214.382 159.548 213.886 159.043C213.39 158.545 212.966 157.681 211.987 157.681C207.785 157.681 207.785 157.582 203.583 157.582C199.381 157.582 199.381 157.548 195.179 157.548C194.531 157.548 194.293 157.548 193.955 157.203C193.618 156.858 193.598 156.625 193.598 155.968C193.598 154.108 193.578 154.108 193.578 152.249C193.578 151.584 193.399 151.126 193.737 150.787C194.074 150.449 194.531 149.964 195.186 149.964C198.945 149.964 198.945 150.442 202.696 150.442C206.448 150.442 206.455 149.99 210.207 149.99C211.186 149.99 211.993 150.057 212.49 149.545C212.986 149.034 213.238 148.23 213.238 147.267C213.238 145.335 213.496 145.335 213.496 143.402C213.496 142.419 213.112 141.483 212.609 140.985C212.106 140.486 211.18 140.666 210.2 140.666C206.442 140.666 206.442 140.4 202.69 140.4C198.938 140.4 198.931 140.075 195.179 140.075C194.531 140.075 193.975 140.32 193.638 139.975C193.3 139.63 193.102 139.078 193.102 138.421C193.102 137.006 193.618 137.006 193.618 135.598C193.618 134.934 193.28 134.356 193.618 134.018C193.955 133.679 194.531 133.725 195.179 133.725C199.229 133.725 199.229 133.5 203.285 133.5C207.342 133.5 207.335 133.48 211.391 133.48C212.371 133.48 212.986 133.214 213.482 132.703C213.979 132.191 214.508 131.574 214.508 130.61C214.508 128.08 214.025 128.08 214.025 125.556C214.025 124.573 214.27 123.663 213.773 123.159C213.277 122.654 212.364 122.262 211.391 122.262C206.971 122.262 206.971 122.8 202.544 122.8C198.117 122.8 198.124 122.189 193.697 122.189V122.176Z" fill="#222222"/>
<path d="M232.296 210.203C232.296 209.313 231.958 208.536 231.859 207.732C231.753 206.928 231.846 206.204 231.554 205.5C231.27 204.803 231.032 204.305 230.535 203.734C230.039 203.163 229.265 202.844 228.478 202.439C227.71 202.04 227.141 201.263 227.141 200.818C227.141 200.373 227.624 199.437 228.352 198.992C229.04 198.573 229.808 198.095 230.244 197.531C230.681 196.966 230.979 196.488 231.23 195.81C231.482 195.133 231.402 194.668 231.488 193.891C231.574 193.121 231.753 192.35 231.753 191.493C231.753 189.069 231.766 189.069 231.766 186.645C231.766 185.078 232.143 183.564 231.799 182.295C231.455 181.026 230.39 179.957 229.556 178.974C228.722 177.991 227.498 177.659 226.102 176.942C224.706 176.225 223.144 175.487 221.053 175.029C218.969 174.564 216.613 173.375 213.754 173.156C210.896 172.944 207.548 173.309 203.776 173.309C196.954 173.309 196.954 173.269 190.131 173.269C183.309 173.269 183.309 173.103 176.487 173.103C175.309 173.103 174.548 173.794 173.919 174.405C173.297 175.016 172.973 175.766 172.973 176.942C172.973 185.091 172.801 185.091 172.801 193.234C172.801 201.376 172.536 201.383 172.536 209.525C172.536 217.668 172.689 217.674 172.689 225.817C172.689 226.979 173.383 227.643 174.005 228.261C174.628 228.879 175.309 229.769 176.487 229.769C183.309 229.769 183.309 229.695 190.131 229.576C196.954 229.456 196.947 229.045 203.769 229.045C207.541 229.045 210.823 228.706 213.702 228.493C216.58 228.281 219.24 229.031 221.377 228.573C223.508 228.115 225.281 227.205 226.711 226.488C228.14 225.77 229.49 224.993 230.37 224.01C231.25 223.027 231.806 221.706 232.176 220.437C232.547 219.169 232.196 217.681 232.196 216.114C232.196 213.151 232.289 213.151 232.289 210.183L232.296 210.203ZM198.31 186.658C198.628 186.353 199.68 186.014 200.256 185.901C202.221 185.509 201.414 185.397 203.412 185.397C204.067 185.397 204.682 185.616 205.185 185.662C205.688 185.709 205.907 186.101 206.237 186.247C206.568 186.393 206.959 186.672 207.124 186.931C207.296 187.196 207.329 187.509 207.329 187.914C207.329 190.697 207.733 189.388 207.733 192.171C207.733 192.576 207.488 194.329 207.323 194.588C207.151 194.847 206.787 195.06 206.456 195.199C206.125 195.346 205.649 195.286 205.146 195.339C204.643 195.392 204.067 195.153 203.412 195.153C201.414 195.153 201.414 195.306 199.409 195.306C198.826 195.306 198.158 195.532 197.84 195.226C197.529 194.914 197.946 194.243 197.946 193.672C197.946 190.71 197.682 190.723 197.384 187.761C197.384 187.177 197.999 186.964 198.31 186.658ZM207.687 215.981C207.515 216.24 207.151 216.446 206.82 216.592C206.489 216.738 206.012 216.671 205.51 216.725C205.007 216.778 204.431 216.539 203.776 216.539C201.592 216.539 201.592 216.691 199.409 216.691C198.826 216.691 198.158 216.924 197.84 216.612C197.529 216.3 197.946 215.635 197.946 215.058C197.946 211.551 197.688 211.564 197.384 208.064C197.384 207.48 197.999 207.274 198.31 206.968C198.628 206.663 199.548 206.47 200.117 206.351C202.261 205.906 201.592 205.706 203.776 205.706C204.431 205.706 205.04 205.925 205.549 205.972C206.052 206.018 206.257 206.324 206.588 206.47C206.919 206.61 207.323 206.975 207.488 207.241C207.653 207.506 207.693 207.818 207.693 208.223C207.693 211.551 208.084 210.8 208.084 214.128C208.084 214.533 207.852 215.722 207.687 215.974V215.981Z" fill="#222222"/>
<path d="M327.477 28.7584C329.521 28.785 334.094 30.0402 334.359 27.0183C334.888 20.9746 329.799 10.9791 325.227 7.15358C321.31 3.87932 314.606 2.2123 309.511 2.90966C309.425 2.88309 309.339 2.86316 309.24 2.84988C307.182 2.52445 302.18 3.04249 300.089 3.55388C295.847 4.58996 290.394 8.42211 288.072 12.1347C287.602 12.8852 286.874 15.0636 286.279 17.169C286.014 13.5892 285.604 9.94966 285.624 6.30347C285.624 5.37366 286.212 4.13169 285.524 3.32807C284.975 2.68384 283.102 2.90966 282.229 2.89637C277.286 2.82996 271.86 3.51403 266.996 3.32807C265.521 3.2683 261.167 1.54815 260.73 3.83947C260.664 6.94105 260.796 10.0493 260.743 13.1442C260.737 13.5161 260.525 13.8084 260.525 13.8416C260.492 16.6642 260.406 19.6994 260.525 22.5088C260.525 22.5353 260.723 22.7412 260.737 23.0069C260.975 27.5098 259.837 28.4396 265.163 28.2935C266.216 28.2669 267.248 28.2072 268.28 28.1474C264.727 30.6313 261.769 34.4967 260.895 38.5148C260.234 41.5566 260.637 44.1202 260.637 47.1222C260.637 48.052 260.326 48.9752 260.783 49.5397C260.611 49.8519 260.498 50.1839 260.465 50.4629C259.976 54.5806 260.677 59.6547 259.843 63.8721C260.029 66.801 259.718 70.3011 260.055 73.1702C260.379 75.9596 265.177 73.9207 266.95 73.8808C272.528 73.748 277.623 74.4985 283.42 74.1399C284.227 74.0867 285.392 74.7044 285.59 73.1835C285.868 71.118 285.524 68.302 285.796 66.1501C284.638 61.1756 286.034 55.5171 285.59 50.6754C285.531 50.0445 285.299 49.6061 284.962 49.294C284.995 49.274 285.035 49.2541 285.068 49.2276C285.385 48.9818 285.511 48.3642 285.551 47.959C285.895 44.4722 285.193 40.5869 285.332 37.0205C285.438 34.3107 285.63 30.8571 285.994 28.2005C286.027 27.9614 286.12 27.6958 286.212 27.4301C287.655 28.692 289.614 28.154 291.552 28.1872C296.654 28.2736 301.875 27.5364 306.99 27.6758C307.513 27.6891 308.525 27.6227 308.896 27.5962C308.896 27.6161 308.896 27.636 308.896 27.6493C308.737 27.895 308.631 28.2537 308.591 28.7783C308.34 32.0659 309.273 35.4265 309.187 38.714C309.147 40.1885 308.658 41.8023 308.565 43.2502C308.459 44.8508 308.77 46.2787 308.777 47.7996C308.777 48.3907 308.512 48.9619 308.539 49.4467C308.572 50.0312 308.929 50.1175 309.094 50.4762C308.816 50.5891 308.525 50.8016 308.214 51.1868V54.0759L308.433 54.7732C308.936 60.817 307.711 68.1027 308.413 73.9937C308.472 74.4653 308.631 74.8439 308.869 75.1427C308.896 75.6475 308.989 76.1788 308.969 76.6238C308.942 77.2016 308.75 77.7329 308.744 78.2576C308.638 88.3527 314.507 95.8709 324.353 97.9032C325.849 98.2087 332.188 98.9127 333.134 98.1423C334.074 97.3785 333.412 95.3927 333.392 94.3898C333.293 89.2227 333.081 84.0556 333.187 78.8753C333.201 78.1314 333.439 76.8695 333.459 75.7737C334.034 75.2756 333.73 74.4188 333.723 73.5886C333.65 67.7507 333.637 61.8663 333.723 56.0285C333.743 54.926 334.325 52.2826 333.617 51.0473C333.584 50.4429 333.412 49.8253 333.406 49.2541C333.346 46.2455 333.445 41.4039 332.426 38.6676C330.937 34.6694 327.477 30.7841 323.467 28.7385C324.803 28.7385 326.133 28.7451 327.463 28.7651L327.477 28.7584Z" fill="#222222"/>
<path d="M187.497 97.3866C189.972 94.0725 191.044 86.0761 190.416 82.0314C190.105 80.0456 186.65 81.334 185.4 81.2278C182.396 80.9688 179.451 80.9754 176.453 81.3606C174.217 81.6462 173.959 81.5267 171.563 81.4536C171.041 81.4403 168.705 81.3008 168.182 81.3407C167.878 81.3606 167.646 81.4602 167.461 81.5931C166.918 81.3274 166.25 81.2145 165.634 81.1614C162.73 80.9024 157.621 81.4204 154.895 82.4697C148.688 84.8541 144.387 92.3324 143.838 98.7547C143.725 100.043 143.666 103.391 143.858 104.579C143.871 104.666 143.891 104.739 143.904 104.805C143.891 104.818 143.877 104.832 143.864 104.845V107.661L144.083 108.345C144.572 114.236 143.381 121.349 144.063 127.101C144.109 127.506 144.248 127.838 144.44 128.11C144.427 128.143 144.42 128.177 144.413 128.21C144.261 128.044 144.083 127.931 143.871 127.898C142.885 128.104 141.879 128.031 140.893 128.123C140.291 128.177 139.728 128.509 139.06 128.522C138.173 128.542 137.293 128.09 136.446 128.09C135.712 128.09 134.468 128.562 133.846 128.502C133.469 128.469 133.197 128.044 132.794 127.944C129.71 127.187 126.627 128.728 123.583 128.515C122.756 128.456 121.776 128.17 121.002 128.137C121.062 127.938 121.115 127.725 121.134 127.466C121.412 124.431 120.737 121.024 120.718 118.002C120.698 115.505 120.79 112.835 120.929 110.344C121.002 109.076 121.803 105.722 121.022 104.812C121.022 104.812 121.009 104.799 121.002 104.799C121.392 103.576 121.141 101.604 121.081 100.741C120.135 87.1587 111.857 81.4337 99.0002 81.2278C98.1995 81.2145 97.5179 80.6433 96.7967 81.6329C96.1747 82.4963 96.7239 82.8483 96.6908 83.5457C96.3997 89.7024 97.0217 95.8657 96.8959 102.102C96.8827 102.899 96.5518 103.636 96.6908 104.48C96.1416 105.077 96.5982 106.074 96.6313 107.522C96.7504 113.28 96.1548 119.071 96.4129 124.856C96.4526 125.719 96.5121 127.287 96.6379 128.057C96.6643 128.223 96.7173 128.363 96.7834 128.489C96.2938 129.684 96.5651 131.836 96.6313 132.746C97.5775 146.328 105.856 152.053 118.713 152.259C119.407 152.272 120.009 152.697 120.625 152.166C121.015 152.226 122.193 152.398 122.809 152.332C123.444 152.259 123.98 152.245 124.589 152.259C134.223 152.465 141.786 147.171 144.314 138.617C144.48 141.373 144.685 144.103 144.744 146.534C144.771 147.736 144.473 148.779 144.539 149.961C144.572 150.578 144.645 151.057 144.757 151.435C144.321 151.807 144.03 152.352 144.01 153.155C143.93 156.044 144.274 159.086 144.182 162.028C144.063 165.907 143.52 169.686 143.997 173.678C144.016 173.85 144.049 174.003 144.083 174.156C144.069 174.156 144.056 174.143 144.036 174.143C142.23 173.704 139.424 173.777 137.479 173.664C137.221 173.651 137.022 173.452 136.996 173.452C136.466 173.425 135.917 173.452 135.388 173.452C132.377 173.465 129.048 173.731 126.024 173.83C124.694 173.87 122.517 173.664 121.353 174.614C121.234 174.481 121.108 174.362 121.035 174.322C120.453 173.996 116.959 173.937 116.066 173.99C110.865 174.302 107.437 175.763 103.559 179.163C99.1524 183.029 98.3186 185.666 97.5047 190.441C97.3724 188.953 97.2268 187.479 97.2136 186.077C97.1937 183.58 97.2863 180.91 97.4253 178.42C97.4981 177.151 98.2988 173.797 97.5179 172.887C97.4452 172.801 97.3327 172.735 97.1871 172.675C97.2533 172.608 97.2996 172.549 97.3261 172.502C97.6503 171.918 97.7098 168.411 97.6569 167.514C97.3459 162.294 95.8835 158.854 92.5022 154.962C90.0075 152.093 88.029 150.738 85.6469 149.914C87.9628 149.974 90.259 150.007 92.4956 149.967C93.7859 149.941 95.2549 149.987 95.9828 148.745C96.3996 148.028 95.9828 147.756 95.9762 147.118C95.824 141.055 95.5196 134.997 90.8876 130.568C86.3019 126.184 80.9553 125.294 74.8279 125.048C73.9875 125.015 73.392 125.062 72.9552 125.195C72.5781 124.982 72.1281 125.015 71.6252 125.035C67.1256 125.195 60.3496 127.041 56.4588 129.365C53.3487 131.225 51.1519 135.011 49.9145 138.889C49.9145 136.299 49.9343 133.709 49.974 131.125C49.9939 129.85 50.8078 126.43 49.3322 125.746C49.0939 125.633 46.6787 125.381 46.2684 125.381C45.3354 125.381 44.012 125.752 43.0525 125.799C37.9176 126.031 33.2989 125.925 28.1839 125.812C26.9002 125.786 26.159 125.102 25.0805 126.41V129.226L25.2988 129.91C25.7885 135.801 24.5974 142.914 25.279 148.666C25.5701 151.096 28.7331 150.924 30.6057 150.771C31.2807 150.718 31.8895 150.399 32.6107 150.366C33.5636 150.319 34.5495 150.326 35.5487 150.366C30.6785 152.837 27.2376 157.399 25.9804 163.549C25.7488 164.692 25.2856 168.696 25.4444 170.855C25.4245 170.875 25.4047 170.901 25.3848 170.921C24.5048 172.183 25.3584 175.384 25.3782 176.939C25.4245 181.362 25.0275 185.991 24.9547 190.421C24.9283 192.161 24.2996 196.591 26.6686 196.591C28.3228 196.591 30.4999 196.046 32.2931 196.013C37.3817 195.913 42.6555 196.498 47.7573 196.591C49.3189 196.617 49.888 195.754 50.0733 194.266C50.3049 192.427 49.8152 189.498 49.8615 187.406C49.9608 182.81 50.7747 177.483 50.2718 172.914C50.199 172.27 50.0137 171.825 49.749 171.519C50.027 170.968 49.7821 170.41 49.7887 169.699C49.8284 164.612 49.8483 159.445 49.8086 154.411C49.802 153.195 49.9277 151.548 49.8681 150.26C50.0137 150.06 50.0667 149.828 50.0799 149.569C50.5696 149.728 51.218 149.781 52.0849 149.708C55.0824 149.456 59.9725 149.131 62.9568 149.323C65.7029 149.496 67.5491 150.373 70.4871 149.841C70.8311 149.781 72.1281 149.828 72.9619 149.443C73.0016 149.443 73.028 149.449 73.0677 149.456C73.0876 149.981 73.4251 150.479 73.4846 150.944C73.6103 151.933 73.8419 154.059 73.789 154.968C73.7294 156.038 73.114 157.306 73.081 158.389C72.9949 160.959 73.5574 164.087 73.703 166.644C73.8155 168.55 73.081 169.872 73.5839 171.805C73.6236 171.957 73.6765 172.097 73.7361 172.216C72.4523 172.735 73.1273 173.83 73.1604 175.59C73.2795 181.349 72.6839 187.14 72.942 192.925C72.9817 193.788 73.0413 195.356 73.167 196.126C73.2001 196.345 73.2861 196.524 73.392 196.677C73.0479 197.255 72.9155 198.012 72.8494 198.696C72.5913 201.612 73.1074 206.739 74.1529 209.475C76.5285 215.705 83.9793 220.022 90.3781 220.573C91.6618 220.686 94.9968 220.746 96.1813 220.553C96.8695 220.44 96.8099 220.208 97.1739 219.836C97.2268 219.783 97.2665 219.743 97.3128 219.703C97.4385 220.235 97.7231 220.533 98.3715 220.64C104.704 221.676 111.44 218.687 115.808 214.29C118.229 211.853 121.247 206.706 121.551 203.252C121.684 201.758 121.525 200.27 121.406 198.776C122.603 200.018 124.827 199.912 126.693 199.805C131.53 199.533 136.473 199.174 141.35 199.201C141.972 199.201 142.547 199.473 143.13 199.407C143.818 199.327 144.427 198.942 144.896 198.411C145.254 198.616 145.836 198.822 146.107 198.862C154.815 200.091 160.625 197.487 165.754 190.613C168.228 187.299 169.3 179.303 168.672 175.258C168.652 175.125 168.612 175.013 168.572 174.906C169.042 174.249 169.32 173.432 169.32 172.675C169.32 167.747 168.91 163.025 169.095 157.97C169.148 156.576 169.724 153.786 168.956 152.139C169.611 151.422 169.075 150.26 169.049 149.356C168.897 143.133 169.155 136.857 169.247 130.614C169.261 129.724 169.843 128.96 168.87 128.19C168.87 128.19 168.85 128.183 168.844 128.177C168.897 127.738 168.778 127.214 168.771 126.702C168.698 121.01 168.685 115.266 168.771 109.574C168.784 108.757 169.115 107.063 168.969 105.768C177.062 106.625 182.601 103.968 187.511 97.3932L187.497 97.3866Z" fill="#222222"/>
<path d="M332.179 220.384C330.055 220.244 329.294 220.217 328.427 220.297C327.825 220.35 326.852 220.091 326.032 220.158C324.616 220.277 322.941 220.835 321.552 220.888C319.606 220.961 317.443 220.231 315.537 220.151C314.008 220.085 311.917 220.716 310.534 220.144C310.501 220.131 310.429 220.105 310.329 220.078C310.607 218.956 310.548 216.671 310.541 215.934C310.462 210.64 310.395 205.453 310.521 200.147C310.561 198.553 311.223 196.826 310.223 195.949C310.409 195.684 310.541 195.338 310.607 194.86C311.044 191.845 310.501 189.64 310.409 186.797C310.27 182.753 310.892 177.699 310.422 173.846C310.329 173.083 310.065 172.678 309.251 172.551C302.62 171.509 295.56 174.511 290.987 178.934C288.446 181.385 285.29 186.558 284.973 190.032C284.787 192.044 285.151 194.05 285.224 196.056C285.27 196.129 285.317 196.188 285.37 196.255C285.343 196.341 285.317 196.421 285.303 196.521C285.072 198.48 285.396 200.964 285.317 203.009C285.105 208.342 284.688 213.636 285.105 218.995C285.164 219.48 285.37 219.826 285.681 220.071C285.588 220.038 285.495 220.005 285.389 219.992C283.239 219.666 280.129 219.693 277.925 219.766C274.293 219.892 269.945 220.815 266.418 220.589C265.426 220.53 263.652 220.682 262.567 220.795C262.6 218.836 261.872 215.927 261.859 214.818C261.819 210.68 262.349 206.35 262.289 202.06C262.276 200.95 262.402 199.423 262.289 198.42C262.276 198.327 262.249 198.254 262.23 198.181C262.342 197.424 262.064 196.62 262.044 195.89C261.985 192.934 262.084 188.192 261.085 185.509C259.225 180.521 254.249 175.706 248.995 174.564C246.024 173.913 243.516 174.311 240.585 174.311C239.222 174.311 237.872 173.614 237.707 175.819C237.462 179.04 238.375 182.334 238.289 185.562C238.249 187.01 237.773 188.591 237.68 190.012C237.574 191.586 237.879 192.981 237.892 194.475C237.892 195.053 237.634 195.617 237.66 196.096C237.693 196.7 238.084 196.76 238.236 197.158C238.256 197.205 238.269 197.251 238.276 197.304C238.018 197.444 237.733 197.663 237.64 197.822C236.946 198.998 238.064 203.886 237.66 205.533C237.23 208.402 237.442 211.358 237.455 214.22C237.468 216.385 237.204 219.261 237.442 221.32C237.495 221.758 237.62 222.057 237.793 222.276C237.422 223.512 237.667 225.458 237.726 226.314C238.679 239.969 246.997 245.728 259.927 245.933C260.588 245.947 261.634 245.668 261.998 245.561C262.256 245.741 262.58 245.86 262.984 245.894C268.893 246.418 278.653 241.404 282.398 236.901C283.656 235.393 284.662 233.461 285.389 231.362C285.237 235.048 284.774 238.661 285.231 242.46C285.29 242.931 285.409 243.33 285.575 243.669C285.27 244.034 285.039 244.446 284.933 244.811V247.036C285.184 249.54 285.184 252.429 284.933 254.933V264.244L285.356 266.349C285.356 266.349 285.376 266.389 285.383 266.409C284.112 266.177 281.604 266.409 280.632 266.356C276.099 266.13 271.659 265.904 267.106 266.157L262.316 265.778C262.203 265.805 262.11 265.845 262.024 265.891C261.733 265.765 261.422 265.659 261.25 265.632C252.496 264.31 246.653 267.107 241.498 274.472C239.01 278.025 237.931 286.599 238.567 290.936C238.865 292.989 241.71 291.733 243.086 291.693C244.82 291.647 246.322 292.198 248.155 292.145C251.774 292.039 255.837 291.182 259.457 291.248C260.105 291.262 260.536 291.355 261.012 291.368C261.694 291.388 261.991 291.129 262.13 290.697C262.713 291.434 263.778 291.308 265.505 291.248C271.308 291.062 277.482 291.023 283.272 291.169C284.165 291.189 284.595 291.488 285.535 291.089C285.714 291.016 285.853 290.93 285.965 290.83C286.369 291.149 286.872 291.096 287.441 291.076C291.96 290.916 298.776 289.057 302.687 286.719C307.444 283.876 310.091 276.544 310.429 271.218C310.567 269.079 310.74 267.452 309.701 266.701C310.137 266.11 310.389 265.373 310.376 264.543C310.343 262.079 309.595 259.243 309.555 256.852C309.496 253.033 310.051 248.949 309.939 245.13C309.932 244.897 309.906 244.698 309.866 244.505C310.634 244.472 311.454 244.233 312.109 244.24C314.67 244.266 315.563 244.771 318.223 243.709C325.324 240.873 331.583 234.045 332.205 226.168C332.291 225.099 333.092 220.483 332.186 220.423L332.179 220.384Z" fill="#222222"/>
</svg>
