<svg width="338" height="295" viewBox="0 0 338 295" fill="none" xmlns="http://www.w3.org/2000/svg">
<path d="M216.571 294.764C215.096 294.764 213.891 293.575 213.891 292.107V286.196C213.891 277.203 219.562 269.393 227.999 266.763C232.486 265.368 235.496 261.29 235.496 256.628C235.496 251.966 232.486 247.894 227.999 246.493C222.719 244.846 218.325 241.074 215.936 236.146C215.235 234.704 214.189 233.416 212.892 232.413C210.53 232.526 207.943 232.586 205.183 232.586H154.662C152.796 232.586 151.155 231.988 150.036 230.892C148.905 229.79 148.283 228.162 148.283 226.309V208.769C148.283 205.362 146.622 202.141 143.836 200.149C143.657 200.022 143.466 199.896 143.26 199.77H133.05C128.054 199.77 123.766 203.137 122.628 207.959C120.471 217.031 112.279 223.367 102.691 223.367H90.8066C88.9538 223.367 87.1209 223.128 85.3475 222.657C83.5675 223.128 81.7478 223.367 79.9347 223.367H68.0504C57.1784 223.367 48.3909 215.318 47.6035 204.638C47.4778 202.905 46.9285 201.231 46.022 199.783H25.4428C25.3634 199.783 25.284 199.783 25.2046 199.783L2.67993 199.797C1.96528 199.797 1.29034 199.518 0.787436 199.019C0.284536 198.521 0 197.851 0 197.14V167.665C0 165.148 0.423495 162.717 1.25725 160.439C2.36231 157.41 2.04469 154.096 0.377175 151.333C0.132342 150.902 0 150.43 0 149.952V126.381C0.00661711 124.914 1.21093 123.725 2.68655 123.725H56.166C57.1652 123.725 58.1578 123.791 59.1239 123.917C59.5937 123.984 60.0767 124.01 60.5598 124.01C63.1537 124.01 65.655 123.08 67.607 121.387C69.9362 119.368 71.2663 116.452 71.2663 113.384V79.1934C71.2663 77.7256 72.464 76.5368 73.9462 76.5368H79.8884C85.1754 76.5368 90.2441 78.5226 94.0291 82.0359V79.1934C94.0291 77.7256 95.2268 76.5368 96.7091 76.5368H102.651C110.532 76.5368 117.573 80.8139 120.981 87.5484C122.728 84.0882 125.487 81.1792 128.868 79.2465C132.183 77.3537 134.235 73.827 134.235 70.0347V29.4485C134.235 27.7682 134.797 26.2937 135.823 25.2909C136.835 24.2946 138.311 23.75 139.985 23.75H161.457C161.841 23.75 162.218 23.75 162.596 23.75C162.642 23.75 162.695 23.75 162.748 23.75H184.22C187.403 23.75 190.275 23.8563 192.77 24.0688C193.577 23.8098 194.331 23.75 194.834 23.75H226.749C232.651 23.75 237.462 18.9814 237.462 13.1236V2.6566C237.442 1.18883 238.646 0 240.122 0H293.992C295.825 0 297.631 0.225811 299.371 0.684076C301.138 0.232453 302.958 0 304.777 0H316.748C328.321 0 337.38 8.9926 337.38 20.4691V26.4066C337.38 26.8915 337.248 27.3697 336.996 27.7814C335.309 30.5509 334.985 33.8783 336.103 36.9202C336.95 39.2181 337.38 41.6755 337.38 44.2258V97.67C337.38 99.1378 336.182 100.327 334.7 100.327H328.712C327.587 100.327 326.435 100.234 325.297 100.061C324.748 99.9747 324.192 99.9348 323.636 99.9348C318.554 99.9348 314.141 103.528 313.141 108.469C313.036 109 312.804 109.518 312.486 109.924C311.646 111.006 311.037 112.222 310.66 113.537C310.495 114.121 310.177 114.666 309.734 115.091C307.729 117.07 306.577 119.819 306.577 122.629C306.577 125.432 307.729 128.168 309.727 130.147C309.813 130.22 309.919 130.34 310.031 130.486C310.561 131.15 311.17 131.748 311.845 132.266C312.731 132.95 313.214 133.946 313.214 135.075V153.452C313.214 154.448 312.837 155.338 312.116 156.022C309.926 158.095 308.728 161.01 308.814 164.012C308.9 167.007 310.27 169.85 312.572 171.796C313.168 172.301 313.512 173.038 313.512 173.815L313.525 207.846C313.525 213.704 318.329 218.472 324.238 218.472H334.693C336.169 218.472 337.373 219.661 337.373 221.129V227.047C337.373 236.584 330.968 244.74 321.79 246.885C316.926 248.021 313.532 252.271 313.532 257.226V274.361C313.532 285.797 304.5 294.757 292.973 294.757H216.565L216.571 294.764Z" fill="#01F95A"/>
<path d="M250.128 142.329H251.636C252.093 142.329 252.47 141.984 252.523 141.532C252.609 140.695 253.277 140.031 254.111 139.945C254.528 139.905 254.866 139.566 254.905 139.148C254.998 138.231 255.759 137.547 256.672 137.547H258.789C259.246 137.547 259.623 137.202 259.676 136.75C259.762 135.92 260.431 135.256 261.251 135.17C261.708 135.123 262.045 134.738 262.045 134.28V132.752C262.045 132.294 261.701 131.915 261.251 131.862C260.424 131.776 259.762 131.105 259.676 130.281C259.63 129.823 259.246 129.484 258.789 129.484H254.885C254.429 129.484 254.052 129.83 253.999 130.281C253.913 131.112 253.244 131.776 252.424 131.862C251.967 131.909 251.63 132.294 251.63 132.752V134.877C251.63 135.794 250.948 136.558 250.042 136.651C249.592 136.697 249.248 137.082 249.248 137.541V141.446C249.248 141.937 249.645 142.336 250.134 142.336L250.128 142.329Z" fill="#222222"/>
<path d="M238.21 127.977H239.719C240.175 127.977 240.553 127.632 240.606 127.18C240.698 126.27 241.459 125.586 242.372 125.586H245.079C246.058 125.586 246.859 126.39 246.859 127.373V127.698C246.859 128.615 246.171 129.378 245.264 129.471C244.847 129.511 244.51 129.85 244.47 130.268C244.384 131.105 243.722 131.769 242.888 131.862C242.432 131.909 242.094 132.294 242.094 132.752V139.068C242.094 139.527 242.439 139.905 242.888 139.958C243.795 140.051 244.477 140.815 244.477 141.732V146.248C244.477 146.706 244.821 147.085 245.271 147.138C246.098 147.224 246.759 147.888 246.846 148.719C246.892 149.177 247.276 149.516 247.732 149.516H263.554C264.01 149.516 264.387 149.17 264.44 148.719C264.533 147.809 265.294 147.125 266.207 147.125H268.914C269.827 147.125 270.588 147.809 270.68 148.719C270.727 149.177 271.11 149.516 271.567 149.516H276.067C276.98 149.516 277.741 150.2 277.833 151.109C277.88 151.561 278.264 151.906 278.72 151.906H283.22C284.133 151.906 284.894 152.597 284.987 153.507C285.026 153.925 285.364 154.264 285.781 154.304C286.211 154.344 286.608 154.543 286.905 154.862C287.236 155.221 287.408 155.705 287.382 156.197C287.382 156.21 287.382 156.23 287.382 156.25V156.403C287.382 157.306 286.681 158.083 285.781 158.176C285.364 158.216 285.026 158.555 284.987 158.973C284.947 159.378 284.768 159.757 284.49 160.042C284.199 160.341 283.815 160.527 283.398 160.567C282.982 160.613 282.651 160.946 282.604 161.364C282.518 162.201 281.857 162.872 281.023 162.958C280.573 163.004 280.229 163.39 280.229 163.848V165.688C280.229 165.84 280.269 165.993 280.341 166.126C280.646 166.671 280.646 167.341 280.341 167.886C280.262 168.019 280.222 168.178 280.229 168.331V168.364C280.229 169.261 279.534 170.038 278.641 170.137C278.191 170.184 277.847 170.569 277.847 171.027V172.542C277.847 173.033 278.244 173.432 278.733 173.432H280.242C280.699 173.432 281.076 173.086 281.129 172.635C281.215 171.798 281.883 171.134 282.717 171.047C283.134 171.007 283.471 170.669 283.511 170.25C283.604 169.334 284.365 168.65 285.278 168.65H287.395C287.852 168.65 288.229 168.304 288.282 167.853C288.368 167.016 289.036 166.352 289.87 166.265C290.287 166.226 290.624 165.887 290.664 165.468C290.757 164.552 291.518 163.868 292.431 163.868H296.93C297.387 163.868 297.764 163.522 297.817 163.071C297.903 162.234 298.571 161.57 299.405 161.484C299.822 161.444 300.16 161.105 300.199 160.687C300.285 159.85 300.954 159.179 301.787 159.093C302.204 159.053 302.542 158.714 302.581 158.296C302.667 157.459 303.336 156.788 304.17 156.702C304.586 156.662 304.924 156.323 304.964 155.905C305.05 155.068 305.711 154.397 306.545 154.311C306.995 154.264 307.339 153.879 307.339 153.421V135.15C307.339 134.692 306.995 134.313 306.545 134.26C305.711 134.174 305.05 133.503 304.964 132.666C304.924 132.248 304.586 131.909 304.17 131.869C303.336 131.783 302.667 131.112 302.581 130.275C302.542 129.857 302.204 129.518 301.787 129.478C300.954 129.392 300.285 128.721 300.199 127.884C300.16 127.466 299.822 127.127 299.405 127.087C298.571 127.001 297.903 126.33 297.817 125.493C297.777 125.075 297.44 124.736 297.023 124.696C296.189 124.61 295.521 123.939 295.435 123.102C295.395 122.684 295.058 122.345 294.641 122.305C293.807 122.219 293.139 121.548 293.053 120.711C293.013 120.293 292.676 119.954 292.259 119.914C291.829 119.868 291.425 119.669 291.134 119.356C290.803 118.998 290.631 118.513 290.664 118.021C290.664 118.002 290.664 117.982 290.664 117.968V117.816C290.664 116.892 291.352 116.135 292.259 116.042C292.676 116.002 293.013 115.664 293.053 115.245C293.145 114.329 293.906 113.645 294.82 113.645H297.526C298.439 113.645 299.2 114.329 299.293 115.239C299.339 115.697 299.723 116.036 300.179 116.036H301.701C302.158 116.036 302.535 115.69 302.588 115.239C302.674 114.408 303.342 113.744 304.163 113.658C304.619 113.612 304.957 113.226 304.957 112.768V110.643C304.957 109.726 305.639 108.962 306.545 108.869C306.995 108.823 307.339 108.438 307.339 107.98V99.2725C307.339 98.8142 306.995 98.4357 306.545 98.3825C305.711 98.2962 305.05 97.6254 304.964 96.7886C304.924 96.3702 304.586 96.0314 304.17 95.9916C303.336 95.9052 302.667 95.2345 302.581 94.3976C302.542 93.9792 302.204 93.6405 301.787 93.6006C300.954 93.5143 300.292 92.8502 300.199 92.0133C300.153 91.5551 299.769 91.2163 299.313 91.2163H280.798C280.646 91.2163 280.494 91.2562 280.361 91.3359C280.096 91.4886 279.792 91.5683 279.488 91.5683C279.183 91.5683 278.879 91.4886 278.608 91.3359C278.475 91.2628 278.323 91.223 278.171 91.223H273.367C272.454 91.223 271.693 90.5389 271.6 89.629C271.554 89.1708 271.17 88.832 270.713 88.832H262.038C261.582 88.832 261.205 89.1774 261.152 89.629C261.066 90.4659 260.397 91.13 259.564 91.2163C259.147 91.2562 258.809 91.5949 258.77 92.0133C258.684 92.8502 258.015 93.5209 257.181 93.6073C256.765 93.6471 256.427 93.9858 256.387 94.4043C256.301 95.2411 255.64 95.9119 254.806 95.9982C254.356 96.0447 254.012 96.4299 254.012 96.8882V115.159C254.012 115.617 254.356 115.996 254.806 116.049C255.64 116.135 256.301 116.806 256.387 117.643C256.427 118.061 256.765 118.4 257.181 118.44C258.095 118.533 258.776 119.297 258.776 120.213V120.359C258.776 120.359 258.776 120.399 258.776 120.419C258.809 120.911 258.637 121.395 258.306 121.754C257.969 122.119 257.499 122.325 257.003 122.325H256.672C255.759 122.325 254.998 121.634 254.905 120.725C254.865 120.306 254.528 119.967 254.111 119.928C253.277 119.841 252.609 119.17 252.523 118.334C252.483 117.915 252.146 117.576 251.729 117.537C250.895 117.45 250.227 116.786 250.141 115.949C250.095 115.498 249.711 115.152 249.254 115.152H247.732C247.276 115.152 246.898 115.498 246.846 115.949C246.759 116.78 246.091 117.444 245.271 117.53C244.814 117.576 244.477 117.962 244.477 118.42V120.366C244.477 120.366 244.477 120.406 244.477 120.426C244.51 120.917 244.338 121.402 244 121.761C243.663 122.126 243.193 122.332 242.697 122.332H240.579C240.123 122.332 239.745 122.677 239.692 123.129C239.606 123.959 238.938 124.623 238.118 124.709C237.661 124.756 237.323 125.141 237.323 125.599V127.114C237.323 127.605 237.721 128.004 238.21 128.004V127.977ZM295.978 133.231C296.308 132.925 296.732 132.759 297.182 132.759C297.195 132.759 297.334 132.759 297.354 132.759H297.499C298.479 132.759 299.273 133.563 299.273 134.546V139.653C299.273 140.131 299.094 140.576 298.757 140.915C298.419 141.253 297.976 141.439 297.499 141.439H297.354C297.354 141.439 297.314 141.439 297.301 141.439C297.281 141.439 297.202 141.439 297.188 141.439H297.129C297.129 141.439 297.089 141.439 297.069 141.439C297.043 141.439 297.01 141.439 296.983 141.439C296.56 141.439 296.163 141.234 295.911 140.895C295.898 140.875 295.878 140.855 295.865 140.835C295.574 140.51 295.415 140.091 295.415 139.653V134.532C295.415 134.034 295.62 133.556 295.984 133.217L295.978 133.231ZM290.638 148.898C290.638 147.981 291.319 147.218 292.226 147.125C292.682 147.078 293.02 146.693 293.02 146.235V144.109C293.02 143.625 293.198 143.193 293.542 142.847C293.88 142.509 294.323 142.323 294.8 142.323H294.945C294.945 142.323 294.985 142.323 294.998 142.323H295.064H295.177C295.197 142.323 295.217 142.323 295.236 142.323C295.27 142.323 295.296 142.323 295.322 142.323C295.746 142.323 296.143 142.529 296.394 142.867C296.408 142.887 296.428 142.907 296.441 142.927C296.732 143.259 296.891 143.678 296.891 144.109V146.832C296.897 147.317 296.719 147.756 296.381 148.094C296.09 148.386 295.719 148.566 295.316 148.612C294.859 148.659 294.515 149.044 294.515 149.502V151.628C294.515 152.61 293.715 153.414 292.735 153.414H292.411C291.432 153.414 290.631 152.61 290.631 151.628V148.911L290.638 148.898ZM289.751 137.262C289.751 138.178 289.063 138.942 288.156 139.035C287.739 139.075 287.402 139.414 287.362 139.832C287.276 140.669 286.614 141.34 285.781 141.426C285.331 141.473 284.987 141.858 284.987 142.316V146.832C284.987 147.815 284.186 148.619 283.207 148.619H280.5C279.521 148.619 278.72 147.815 278.72 146.832V144.116C278.72 143.199 279.402 142.436 280.308 142.343C280.758 142.296 281.102 141.911 281.102 141.453V130.355C281.102 129.896 280.758 129.518 280.308 129.465C279.402 129.365 278.72 128.608 278.72 127.692V124.975C278.72 123.992 279.521 123.189 280.5 123.189H283.207C284.126 123.189 284.881 123.879 284.973 124.789C285.013 125.208 285.35 125.546 285.767 125.586C286.178 125.626 286.568 125.812 286.853 126.104C287.137 126.39 287.316 126.775 287.355 127.18C287.402 127.599 287.733 127.931 288.15 127.977C289.063 128.07 289.751 128.834 289.744 129.75V137.249L289.751 137.262ZM273.956 103.457C273.956 102.474 274.756 101.67 275.736 101.67H277.853C278.31 101.67 278.687 101.325 278.74 100.873C278.826 100.036 279.494 99.3721 280.328 99.2858C280.745 99.2459 281.082 98.9072 281.122 98.4888C281.215 97.5723 281.976 96.8882 282.889 96.8882H297.506C298.419 96.8882 299.18 97.5789 299.273 98.4888C299.313 98.9072 299.65 99.2459 300.067 99.2858C300.98 99.3788 301.662 100.143 301.662 101.059V103.782C301.662 104.274 301.457 104.752 301.093 105.09C300.762 105.396 300.332 105.569 299.882 105.569C299.868 105.569 299.729 105.569 299.71 105.569H290.638C290.406 105.569 290.174 105.662 290.009 105.828C289.843 105.994 289.751 106.22 289.751 106.459V110.955C289.751 111.871 289.063 112.635 288.156 112.728C287.739 112.768 287.402 113.107 287.362 113.525C287.269 114.442 286.508 115.126 285.595 115.126H285.45C285.45 115.126 285.291 115.126 285.278 115.126C284.828 115.126 284.398 114.953 284.067 114.648C283.703 114.309 283.498 113.831 283.498 113.339V105.834C283.498 104.851 284.298 104.048 285.278 104.048H287.375C287.865 104.048 288.262 103.649 288.262 103.158V101.657C288.262 101.165 287.865 100.767 287.375 100.767H283.484C283.028 100.767 282.651 101.112 282.598 101.564C282.512 102.394 281.85 103.058 281.023 103.144C280.566 103.191 280.229 103.576 280.229 104.034V113.339C280.229 113.831 280.024 114.309 279.66 114.648C279.329 114.96 278.899 115.126 278.449 115.126C278.436 115.126 278.297 115.126 278.277 115.126H275.742C274.763 115.126 273.962 114.322 273.962 113.339V103.45L273.956 103.457ZM259.656 98.6681C259.656 97.7516 260.344 96.9878 261.251 96.8948C261.668 96.855 262.005 96.5163 262.045 96.0978C262.131 95.261 262.799 94.5902 263.633 94.5039C264.05 94.464 264.387 94.1253 264.427 93.7069C264.52 92.7904 265.281 92.1063 266.194 92.1063H268.9C269.88 92.1063 270.68 92.9099 270.68 93.8929V94.039C270.68 94.039 270.68 94.0788 270.68 94.0988C270.713 94.5902 270.541 95.0751 270.211 95.4337C269.913 95.7525 269.516 95.9517 269.086 95.9982C268.669 96.0381 268.331 96.3768 268.292 96.7952C268.206 97.632 267.544 98.3028 266.71 98.3892C266.26 98.4357 265.916 98.8209 265.916 99.2791V100.807C265.916 101.265 266.26 101.644 266.71 101.697C267.617 101.79 268.298 102.553 268.298 103.47V110.975C268.298 111.466 268.093 111.944 267.729 112.283C267.398 112.589 266.968 112.761 266.518 112.761C266.505 112.761 266.366 112.761 266.346 112.761H266.194C265.215 112.761 264.414 111.958 264.414 110.975V104.081C264.414 103.589 264.017 103.191 263.527 103.191H261.602C261.602 103.191 261.443 103.191 261.43 103.191C260.98 103.191 260.55 103.018 260.219 102.713C259.855 102.374 259.65 101.903 259.65 101.404V98.6814L259.656 98.6681ZM259.656 115.405C259.656 114.913 259.861 114.435 260.225 114.096C260.556 113.791 260.986 113.618 261.436 113.618C261.449 113.618 261.588 113.618 261.608 113.618H261.76C262.74 113.618 263.54 114.422 263.54 115.405V115.73C263.54 116.713 262.74 117.517 261.76 117.517H261.436C260.457 117.517 259.656 116.713 259.656 115.73V115.398V115.405ZM247.752 131.975C247.838 131.138 248.5 130.468 249.334 130.381C249.79 130.335 250.128 129.95 250.128 129.491V127.366C250.128 126.383 250.928 125.58 251.908 125.58H254.614C255.527 125.58 256.288 126.264 256.381 127.173C256.427 127.632 256.811 127.97 257.267 127.97H259.385C260.298 127.97 261.059 128.661 261.152 129.571C261.191 129.989 261.529 130.328 261.946 130.368C262.779 130.454 263.448 131.119 263.534 131.955C263.58 132.407 263.964 132.752 264.421 132.752H265.929C266.419 132.752 266.816 132.354 266.816 131.862V129.757C266.816 128.774 267.617 127.97 268.596 127.97H268.92C269.833 127.97 270.594 128.661 270.687 129.571C270.727 129.989 271.064 130.328 271.481 130.368C272.394 130.461 273.076 131.225 273.076 132.141V134.858C273.076 135.774 272.388 136.538 271.481 136.631C271.064 136.671 270.727 137.01 270.687 137.428C270.594 138.344 269.833 139.029 268.92 139.029H268.596C267.683 139.029 266.922 138.344 266.829 137.435C266.783 136.983 266.399 136.638 265.942 136.638H264.434C263.944 136.638 263.547 137.036 263.547 137.528V142.024C263.547 142.94 262.859 143.704 261.952 143.797C261.535 143.837 261.198 144.176 261.158 144.594C261.066 145.511 260.305 146.195 259.392 146.195H251.921C251.008 146.195 250.247 145.504 250.154 144.594C250.114 144.176 249.777 143.837 249.36 143.797C248.447 143.704 247.765 142.94 247.765 142.024V139.899C247.765 139.44 247.421 139.062 246.971 139.009C246.065 138.916 245.383 138.152 245.383 137.235V134.519C245.383 133.602 246.071 132.839 246.978 132.746C247.395 132.706 247.732 132.367 247.772 131.949L247.752 131.975Z" fill="#222222"/>
<path d="M159.42 71.2708C159.42 72.2471 159.037 73.25 159.553 73.768C160.069 74.286 161.061 74.472 162.041 74.472C172.588 74.472 172.588 74.1798 183.143 74.1798C186.418 74.1798 189.29 73.9473 191.798 73.7149C194.306 73.4824 196.575 73.6617 198.428 73.2035C200.281 72.7519 201.73 71.842 202.981 71.1645C204.231 70.4871 205.098 69.6171 205.866 68.7205C206.627 67.8239 207.315 66.9538 207.639 65.838C207.963 64.7223 208.407 63.5135 208.407 62.1919C208.407 50.6954 208.049 50.6954 208.049 39.1989C208.049 37.8773 207.633 36.7681 207.308 35.6524C206.984 34.5366 207.011 33.2482 206.243 32.3515C205.475 31.4549 204.364 30.658 203.113 29.9872C201.862 29.3097 200.168 29.1171 198.316 28.6655C196.463 28.2139 194.339 27.5364 191.831 27.304C189.323 27.0715 186.418 27.3173 183.143 27.3173C172.595 27.3173 172.602 26.8125 162.047 26.6133C161.075 26.6133 160.347 27.3837 159.831 27.9017C159.314 28.4131 158.587 29.1371 158.587 30.1266C158.587 40.4143 158.858 40.4143 158.858 50.702C158.858 60.9897 159.427 60.9897 159.427 71.2774L159.42 71.2708ZM179.854 38.6211C180.132 38.3422 180.615 37.9038 181.151 37.9038C182.143 37.9038 182.143 38.1363 183.143 38.1363C183.983 38.1363 184.678 38.5149 185.26 38.5614C185.836 38.6078 186.239 38.5481 186.59 38.6942C186.941 38.8337 187.146 39.0528 187.305 39.3118C187.457 39.5709 187.88 39.8299 187.88 40.2549C187.88 50.6954 187.523 50.6888 187.311 61.1226C187.311 61.5476 187.437 61.8066 187.285 62.059C187.126 62.318 187.067 62.7165 186.716 62.8494C186.365 62.9822 185.876 63.2014 185.3 63.2545C184.724 63.3076 184.056 63.0088 183.215 63.0088C182.223 63.0088 182.157 63.1615 181.157 63.1615C180.628 63.1615 180.059 63.115 179.781 62.8361C179.503 62.5571 179.49 61.9926 179.49 61.4613C179.49 50.6888 179.768 50.6888 179.768 39.9229C179.768 39.3915 179.583 38.9001 179.861 38.6211H179.854Z" fill="#222222"/>
<path d="M212.648 71.2704C212.648 72.2467 212.946 73.2363 213.462 73.761C213.978 74.279 214.964 73.9536 215.944 73.9536C219.61 73.9536 219.596 74.5048 223.262 74.6177C226.921 74.7306 226.935 74.631 230.601 74.631C234.266 74.631 234.26 73.9004 237.926 73.9004C241.592 73.9004 241.585 73.9071 245.251 73.9071C248.917 73.9071 248.91 73.8805 252.576 73.8805C253.569 73.8805 253.992 73.7211 254.502 73.1964C255.011 72.6784 255.514 72.2467 255.514 71.2704C255.514 68.7001 255.977 68.7001 255.977 66.1299C255.977 65.1336 255.19 64.5226 254.687 64.0112C254.177 63.5065 253.575 62.9287 252.576 62.9287C248.301 62.9287 248.301 63.4998 244.02 63.4998C239.739 63.4998 239.745 63.0283 235.464 63.0283C234.802 63.0283 234.015 63.2143 233.671 62.8623C233.327 62.5103 233.406 61.7265 233.406 61.0624C233.406 59.1696 233.664 59.1696 233.664 57.2834C233.664 56.6059 233.678 56.1742 234.022 55.8289C234.366 55.4835 234.802 55.5433 235.464 55.5433C239.289 55.5433 239.289 54.8659 243.113 54.8659C246.938 54.8659 246.938 55.3573 250.763 55.3573C251.755 55.3573 252.589 55.0585 253.092 54.5338C253.602 54.0158 253.827 53.1922 253.827 52.2093C253.827 50.2434 254.085 50.2434 254.085 48.2775C254.085 47.2813 253.251 46.7964 252.748 46.285C252.238 45.7736 251.762 44.9899 250.763 44.9899C246.938 44.9899 246.938 45.5279 243.113 45.5279C239.289 45.5279 239.289 45.0032 235.464 45.0032C234.802 45.0032 234.485 44.8903 234.141 44.5383C233.797 44.1863 233.585 43.8742 233.585 43.2034C233.585 41.7688 233.744 41.7688 233.744 40.3276C233.744 39.6502 233.38 38.9063 233.724 38.561C234.068 38.2156 234.809 38.6141 235.471 38.6141C239.6 38.6141 239.6 38.4281 243.722 38.4281C247.845 38.4281 247.851 38.6539 251.974 38.6539C252.966 38.6539 254.045 38.3484 254.548 37.8238C255.057 37.3057 255.309 36.2364 255.309 35.2601C255.309 32.6899 255.13 32.6899 255.13 30.1196C255.13 29.1234 254.588 28.5124 254.078 28.001C253.569 27.4896 252.966 26.6328 251.967 26.6328C249.563 26.6328 247.161 26.6328 244.761 26.6328C241.155 26.6328 241.155 27.2505 237.555 27.2505C233.955 27.2505 233.955 27.4696 230.356 27.4696C226.756 27.4696 226.756 27.1774 223.15 27.1774C219.543 27.1774 219.55 27.3767 215.95 27.3767C214.978 27.3767 214.177 27.297 213.661 27.8084C213.145 28.3198 212.695 29.1234 212.695 30.1262C212.695 34.244 212.847 34.244 212.847 38.3617C212.847 42.4795 212.688 42.4795 212.688 46.5972C212.688 50.7149 213.006 50.7083 213.006 54.826C213.006 58.9438 212.834 58.9438 212.834 63.0549C212.834 67.1659 212.648 67.1659 212.648 71.2837V71.2704Z" fill="#222222"/>
<path d="M193.69 122.172C189.27 122.172 189.27 122.291 184.85 122.291C180.43 122.291 180.43 122.504 176.009 122.504C175.05 122.504 174.084 122.577 173.574 123.075C173.065 123.573 172.86 124.563 172.86 125.546C172.86 130.607 173.071 130.607 173.071 135.661C173.071 140.715 172.767 140.722 172.767 145.776C172.767 150.83 173.508 150.837 173.508 155.891C173.508 160.945 172.727 160.952 172.727 166.006C172.727 166.969 173.177 167.832 173.687 168.344C174.196 168.855 175.057 169.161 176.016 169.161C180.516 169.161 180.516 169.42 185.015 169.36C189.515 169.3 189.508 168.689 194.008 168.689C198.508 168.689 198.501 169.074 202.994 169.074C207.487 169.074 207.487 168.716 211.987 168.716C212.966 168.716 213.502 168.536 213.998 168.025C214.494 167.513 214.64 166.969 214.64 166.012C214.64 163.482 214.792 163.482 214.792 160.952C214.792 159.969 214.375 159.544 213.879 159.039C213.383 158.541 212.959 157.677 211.98 157.677C207.778 157.677 207.778 157.578 203.576 157.578C199.374 157.578 199.374 157.545 195.173 157.545C194.524 157.545 194.286 157.545 193.948 157.199C193.611 156.854 193.591 156.621 193.591 155.964C193.591 154.104 193.571 154.104 193.571 152.245C193.571 151.58 193.393 151.122 193.73 150.783C194.067 150.445 194.524 149.96 195.179 149.96C198.938 149.96 198.938 150.438 202.69 150.438C206.441 150.438 206.448 149.987 210.2 149.987C211.179 149.987 211.987 150.053 212.483 149.542C212.979 149.03 213.231 148.227 213.231 147.263C213.231 145.331 213.489 145.331 213.489 143.398C213.489 142.415 213.105 141.479 212.602 140.981C212.099 140.483 211.173 140.662 210.193 140.662C206.435 140.662 206.435 140.396 202.683 140.396C198.931 140.396 198.924 140.071 195.173 140.071C194.524 140.071 193.968 140.316 193.631 139.971C193.293 139.626 193.095 139.075 193.095 138.417C193.095 137.002 193.611 137.002 193.611 135.594C193.611 134.93 193.273 134.352 193.611 134.014C193.948 133.675 194.524 133.721 195.173 133.721C199.222 133.721 199.222 133.496 203.278 133.496C207.335 133.496 207.328 133.476 211.384 133.476C212.364 133.476 212.979 133.21 213.475 132.699C213.972 132.187 214.501 131.57 214.501 130.607C214.501 128.076 214.018 128.076 214.018 125.552C214.018 124.569 214.263 123.66 213.767 123.155C213.27 122.65 212.357 122.258 211.384 122.258C206.964 122.258 206.964 122.796 202.537 122.796C198.111 122.796 198.117 122.185 193.69 122.185V122.172Z" fill="#222222"/>
<path d="M232.288 210.199C232.288 209.309 231.951 208.532 231.851 207.728C231.745 206.924 231.838 206.201 231.547 205.497C231.262 204.799 231.024 204.301 230.528 203.73C230.032 203.159 229.257 202.84 228.47 202.435C227.702 202.036 227.133 201.259 227.133 200.814C227.133 200.369 227.616 199.433 228.344 198.988C229.032 198.569 229.8 198.091 230.237 197.527C230.673 196.962 230.971 196.484 231.223 195.807C231.474 195.129 231.395 194.664 231.481 193.887C231.567 193.117 231.745 192.346 231.745 191.49C231.745 189.065 231.759 189.065 231.759 186.641C231.759 185.074 232.136 183.56 231.792 182.291C231.448 181.023 230.382 179.953 229.548 178.97C228.715 177.987 227.491 177.655 226.094 176.938C224.698 176.221 223.137 175.484 221.046 175.025C218.961 174.56 216.605 173.372 213.747 173.152C210.888 172.94 207.54 173.305 203.768 173.305C196.946 173.305 196.946 173.265 190.124 173.265C183.302 173.265 183.302 173.099 176.479 173.099C175.301 173.099 174.54 173.79 173.912 174.401C173.29 175.012 172.966 175.763 172.966 176.938C172.966 185.087 172.794 185.087 172.794 193.23C172.794 201.372 172.529 201.379 172.529 209.521C172.529 217.664 172.681 217.67 172.681 225.813C172.681 226.975 173.376 227.639 173.998 228.257C174.62 228.875 175.301 229.765 176.479 229.765C183.302 229.765 183.302 229.692 190.124 229.572C196.946 229.452 196.939 229.041 203.762 229.041C207.533 229.041 210.815 228.702 213.694 228.489C216.572 228.277 219.232 229.027 221.37 228.569C223.5 228.111 225.274 227.201 226.703 226.484C228.132 225.766 229.482 224.989 230.362 224.006C231.242 223.023 231.798 221.702 232.169 220.433C232.539 219.165 232.189 217.677 232.189 216.11C232.189 213.148 232.281 213.148 232.281 210.179L232.288 210.199ZM198.303 186.655C198.62 186.349 199.672 186.01 200.248 185.897C202.213 185.506 201.406 185.393 203.404 185.393C204.059 185.393 204.675 185.612 205.178 185.658C205.681 185.705 205.899 186.097 206.23 186.243C206.561 186.389 206.951 186.668 207.116 186.927C207.289 187.193 207.322 187.505 207.322 187.91C207.322 190.693 207.725 189.384 207.725 192.167C207.725 192.572 207.48 194.326 207.315 194.585C207.143 194.844 206.779 195.056 206.448 195.196C206.117 195.342 205.641 195.282 205.138 195.335C204.635 195.388 204.059 195.149 203.404 195.149C201.406 195.149 201.406 195.302 199.401 195.302C198.819 195.302 198.15 195.528 197.833 195.222C197.522 194.91 197.939 194.239 197.939 193.668C197.939 190.706 197.674 190.719 197.376 187.757C197.376 187.173 197.991 186.96 198.303 186.655ZM207.679 215.977C207.507 216.236 207.143 216.442 206.812 216.588C206.481 216.734 206.005 216.668 205.502 216.721C204.999 216.774 204.423 216.535 203.768 216.535C201.585 216.535 201.585 216.687 199.401 216.687C198.819 216.687 198.15 216.92 197.833 216.608C197.522 216.296 197.939 215.631 197.939 215.054C197.939 211.547 197.68 211.56 197.376 208.06C197.376 207.476 197.991 207.27 198.303 206.964C198.62 206.659 199.54 206.466 200.109 206.347C202.253 205.902 201.585 205.702 203.768 205.702C204.423 205.702 205.032 205.922 205.542 205.968C206.045 206.015 206.25 206.32 206.581 206.466C206.911 206.606 207.315 206.971 207.48 207.237C207.646 207.502 207.686 207.814 207.686 208.22C207.686 211.547 208.076 210.796 208.076 214.124C208.076 214.529 207.844 215.718 207.679 215.97V215.977Z" fill="#222222"/>
<path d="M327.468 28.7545C329.513 28.7811 334.086 30.0363 334.35 27.0144C334.88 20.9707 329.791 10.9752 325.219 7.14967C321.301 3.87541 314.598 2.20839 309.503 2.90575C309.417 2.87918 309.331 2.85926 309.232 2.84598C307.174 2.52054 302.171 3.03858 300.08 3.54998C295.839 4.58605 290.386 8.4182 288.064 12.1308C287.594 12.8813 286.866 15.0597 286.27 17.1651C286.006 13.5853 285.595 9.94575 285.615 6.29956C285.615 5.36975 286.204 4.12779 285.516 3.32416C284.967 2.67994 283.094 2.90575 282.221 2.89247C277.278 2.82605 271.852 3.51013 266.988 3.32416C265.512 3.26439 261.158 1.54424 260.722 3.83556C260.655 6.93715 260.788 10.0454 260.735 13.1403C260.728 13.5122 260.517 13.8045 260.517 13.8377C260.483 16.6603 260.397 19.6955 260.517 22.5048C260.517 22.5314 260.715 22.7373 260.728 23.003C260.966 27.5059 259.828 28.4357 265.155 28.2896C266.207 28.263 267.24 28.2033 268.272 28.1435C264.718 30.6274 261.761 34.4928 260.887 38.5109C260.225 41.5527 260.629 44.1163 260.629 47.1183C260.629 48.0481 260.318 48.9713 260.775 49.5358C260.603 49.8479 260.49 50.18 260.457 50.459C259.967 54.5767 260.669 59.6508 259.835 63.8682C260.02 66.7971 259.709 70.2972 260.047 73.1663C260.371 75.9557 265.168 73.9168 266.942 73.8769C272.52 73.7441 277.615 74.4946 283.412 74.136C284.219 74.0828 285.384 74.7005 285.582 73.1796C285.86 71.1141 285.516 68.2981 285.787 66.1462C284.629 61.1717 286.025 55.5132 285.582 50.6715C285.523 50.0406 285.291 49.6022 284.954 49.2901C284.987 49.2701 285.026 49.2502 285.059 49.2236C285.377 48.9779 285.503 48.3602 285.542 47.9551C285.887 44.4683 285.185 40.583 285.324 37.0166C285.43 34.3068 285.622 30.8532 285.986 28.1966C286.019 27.9575 286.111 27.6919 286.204 27.4262C287.647 28.6881 289.605 28.1501 291.544 28.1833C296.646 28.2697 301.867 27.5325 306.982 27.6719C307.505 27.6852 308.517 27.6188 308.888 27.5922C308.888 27.6122 308.888 27.6321 308.888 27.6454C308.729 27.8911 308.623 28.2498 308.583 28.7744C308.332 32.062 309.265 35.4226 309.179 38.7101C309.139 40.1846 308.649 41.7984 308.557 43.2463C308.451 44.8469 308.762 46.2748 308.768 47.7957C308.768 48.3868 308.504 48.958 308.53 49.4428C308.563 50.0273 308.921 50.1136 309.086 50.4723C308.808 50.5852 308.517 50.7977 308.206 51.1829V54.0719L308.424 54.7693C308.927 60.8131 307.703 68.0988 308.405 73.9898C308.464 74.4614 308.623 74.84 308.861 75.1388C308.888 75.6436 308.98 76.1749 308.96 76.6199C308.934 77.1977 308.742 77.729 308.735 78.2537C308.63 88.3488 314.499 95.867 324.345 97.8993C325.841 98.2048 332.18 98.9088 333.126 98.1384C334.066 97.3746 333.404 95.3888 333.384 94.3859C333.285 89.2188 333.073 84.0517 333.179 78.8714C333.192 78.1275 333.43 76.8656 333.45 75.7698C334.026 75.2716 333.722 74.4149 333.715 73.5847C333.642 67.7468 333.629 61.8624 333.715 56.0246C333.735 54.9221 334.317 52.2787 333.609 51.0434C333.576 50.439 333.404 49.8214 333.397 49.2502C333.338 46.2416 333.437 41.3999 332.418 38.6636C330.929 34.6655 327.468 30.7802 323.458 28.7346C324.795 28.7346 326.125 28.7412 327.455 28.7612L327.468 28.7545Z" fill="#222222"/>
<path d="M187.49 97.3905C189.965 94.0764 191.037 86.08 190.408 82.0353C190.097 80.0495 186.643 81.338 185.393 81.2317C182.388 80.9727 179.444 80.9793 176.446 81.3645C174.21 81.6501 173.952 81.5306 171.556 81.4575C171.033 81.4442 168.698 81.3048 168.175 81.3446C167.87 81.3645 167.639 81.4641 167.454 81.597C166.911 81.3313 166.243 81.2184 165.627 81.1653C162.722 80.9063 157.614 81.4243 154.888 82.4737C148.681 84.858 144.38 92.3363 143.83 98.7586C143.718 100.047 143.658 103.394 143.85 104.583C143.864 104.67 143.883 104.743 143.897 104.809C143.883 104.822 143.87 104.836 143.857 104.849V107.665L144.075 108.349C144.565 114.24 143.374 121.353 144.055 127.105C144.102 127.51 144.241 127.842 144.433 128.114C144.419 128.147 144.413 128.181 144.406 128.214C144.254 128.048 144.075 127.935 143.864 127.902C142.878 128.107 141.872 128.034 140.886 128.127C140.284 128.181 139.721 128.513 139.053 128.526C138.166 128.546 137.286 128.094 136.439 128.094C135.705 128.094 134.461 128.566 133.839 128.506C133.461 128.473 133.19 128.048 132.786 127.948C129.703 127.191 126.619 128.732 123.575 128.519C122.748 128.459 121.769 128.174 120.995 128.141C121.054 127.941 121.107 127.729 121.127 127.47C121.405 124.435 120.73 121.028 120.71 118.006C120.69 115.509 120.783 112.839 120.922 110.348C120.995 109.08 121.795 105.726 121.015 104.816C121.015 104.816 121.001 104.802 120.995 104.802C121.385 103.58 121.134 101.608 121.074 100.744C120.128 87.1626 111.85 81.4376 98.9929 81.2317C98.1923 81.2184 97.5107 80.6472 96.7894 81.6368C96.1674 82.5002 96.7166 82.8522 96.6836 83.5496C96.3924 89.7063 97.0144 95.8696 96.8887 102.106C96.8754 102.903 96.5446 103.64 96.6836 104.484C96.1343 105.081 96.5909 106.078 96.624 107.525C96.7431 113.284 96.1476 119.075 96.4056 124.86C96.4453 125.723 96.5049 127.291 96.6306 128.061C96.6571 128.227 96.71 128.366 96.7762 128.493C96.2865 129.688 96.5578 131.84 96.624 132.75C97.5702 146.332 105.848 152.057 118.705 152.263C119.4 152.276 120.002 152.701 120.618 152.17C121.008 152.229 122.186 152.402 122.801 152.336C123.437 152.263 123.973 152.249 124.581 152.263C134.216 152.469 141.779 147.175 144.307 138.621C144.472 141.377 144.677 144.107 144.737 146.538C144.763 147.74 144.466 148.783 144.532 149.965C144.565 150.582 144.638 151.061 144.75 151.439C144.314 151.811 144.022 152.356 144.002 153.159C143.923 156.048 144.267 159.09 144.175 162.032C144.055 165.911 143.513 169.69 143.989 173.682C144.009 173.854 144.042 174.007 144.075 174.16C144.062 174.16 144.049 174.146 144.029 174.146C142.223 173.708 139.417 173.781 137.471 173.668C137.213 173.655 137.015 173.456 136.988 173.456C136.459 173.429 135.91 173.456 135.38 173.456C132.37 173.469 129.041 173.735 126.017 173.834C124.687 173.874 122.51 173.668 121.346 174.618C121.226 174.485 121.101 174.366 121.028 174.326C120.446 174 116.952 173.941 116.058 173.994C110.857 174.306 107.43 175.767 103.552 179.167C99.1451 183.033 98.3114 185.669 97.4975 190.445C97.3651 188.957 97.2195 187.483 97.2063 186.081C97.1864 183.584 97.2791 180.914 97.4181 178.424C97.4908 177.155 98.2915 173.801 97.5107 172.891C97.4379 172.805 97.3254 172.738 97.1798 172.679C97.246 172.612 97.2923 172.552 97.3188 172.506C97.643 171.922 97.7026 168.415 97.6497 167.518C97.3386 162.298 95.8763 158.858 92.4949 154.966C90.0003 152.097 88.0218 150.742 85.6396 149.918C87.9556 149.978 90.2517 150.011 92.4883 149.971C93.7786 149.945 95.2476 149.991 95.9755 148.749C96.3924 148.032 95.9755 147.76 95.9689 147.122C95.8167 141.058 95.5123 135.001 90.8803 130.571C86.2947 126.188 80.9481 125.298 74.8206 125.052C73.9802 125.019 73.3847 125.066 72.948 125.198C72.5708 124.986 72.1208 125.019 71.6179 125.039C67.1183 125.198 60.3424 127.045 56.4515 129.369C53.3415 131.229 51.1446 135.015 49.9072 138.893C49.9072 136.303 49.9271 133.713 49.9668 131.129C49.9866 129.854 50.8005 126.434 49.3249 125.75C49.0867 125.637 46.6714 125.384 46.2612 125.384C45.3282 125.384 44.0047 125.756 43.0453 125.803C37.9104 126.035 33.2916 125.929 28.1766 125.816C26.8929 125.79 26.1518 125.106 25.0732 126.414V129.23L25.2916 129.914C25.7812 135.805 24.5901 142.918 25.2717 148.67C25.5629 151.1 28.7258 150.928 30.5985 150.775C31.2734 150.722 31.8822 150.403 32.6035 150.37C33.5563 150.323 34.5423 150.33 35.5415 150.37C30.6713 152.84 27.2304 157.403 25.9731 163.553C25.7415 164.696 25.2783 168.7 25.4371 170.859C25.4173 170.879 25.3974 170.905 25.3776 170.925C24.4975 172.187 25.3511 175.388 25.371 176.943C25.4173 181.366 25.0203 185.995 24.9475 190.425C24.921 192.165 24.2924 196.595 26.6613 196.595C28.3156 196.595 30.4926 196.05 32.2858 196.017C37.3744 195.917 42.6482 196.502 47.75 196.595C49.3117 196.621 49.8807 195.758 50.066 194.27C50.2976 192.431 49.8079 189.502 49.8543 187.41C49.9535 182.814 50.7674 177.487 50.2645 172.918C50.1917 172.274 50.0065 171.829 49.7418 171.523C50.0197 170.972 49.7749 170.414 49.7815 169.703C49.8212 164.616 49.841 159.449 49.8013 154.414C49.7947 153.199 49.9204 151.552 49.8609 150.264C50.0065 150.064 50.0594 149.832 50.0726 149.573C50.5623 149.732 51.2108 149.785 52.0776 149.712C55.0752 149.46 59.9652 149.134 62.9495 149.327C65.6956 149.5 67.5418 150.376 70.4798 149.845C70.8239 149.785 72.1208 149.832 72.9546 149.447C72.9943 149.447 73.0208 149.453 73.0605 149.46C73.0803 149.985 73.4178 150.483 73.4773 150.948C73.6031 151.937 73.8347 154.062 73.7817 154.972C73.7222 156.042 73.1068 157.31 73.0737 158.393C72.9877 160.963 73.5501 164.091 73.6957 166.648C73.8082 168.554 73.0737 169.876 73.5766 171.809C73.6163 171.961 73.6692 172.101 73.7288 172.22C72.4451 172.738 73.12 173.834 73.1531 175.594C73.2722 181.352 72.6767 187.144 72.9347 192.929C72.9744 193.792 73.034 195.359 73.1597 196.13C73.1928 196.349 73.2788 196.528 73.3847 196.681C73.0406 197.259 72.9083 198.016 72.8421 198.7C72.584 201.616 73.1002 206.743 74.1457 209.479C76.5212 215.709 83.9721 220.026 90.3708 220.577C91.6546 220.69 94.9896 220.75 96.174 220.557C96.8622 220.444 96.8027 220.212 97.1666 219.84C97.2195 219.787 97.2592 219.747 97.3056 219.707C97.4313 220.239 97.7158 220.537 98.3643 220.644C104.697 221.68 111.433 218.691 115.8 214.294C118.222 211.857 121.24 206.71 121.544 203.256C121.676 201.762 121.518 200.274 121.398 198.78C122.596 200.022 124.819 199.915 126.686 199.809C131.523 199.537 136.466 199.178 141.342 199.205C141.964 199.205 142.54 199.477 143.122 199.411C143.811 199.331 144.419 198.946 144.889 198.415C145.247 198.62 145.829 198.826 146.1 198.866C154.808 200.095 160.618 197.491 165.746 190.617C168.221 187.303 169.293 179.307 168.664 175.262C168.645 175.129 168.605 175.016 168.565 174.91C169.035 174.253 169.313 173.436 169.313 172.679C169.313 167.751 168.903 163.029 169.088 157.974C169.141 156.58 169.717 153.79 168.949 152.143C169.604 151.426 169.068 150.264 169.042 149.36C168.889 143.137 169.148 136.861 169.24 130.618C169.253 129.728 169.836 128.964 168.863 128.194C168.863 128.194 168.843 128.187 168.837 128.181C168.889 127.742 168.77 127.218 168.764 126.706C168.691 121.014 168.678 115.269 168.764 109.578C168.777 108.761 169.108 107.067 168.962 105.772C177.055 106.629 182.593 103.972 187.503 97.3971L187.49 97.3905Z" fill="#222222"/>
<path d="M332.173 220.384C330.049 220.244 329.288 220.217 328.421 220.297C327.819 220.35 326.846 220.091 326.026 220.158C324.61 220.277 322.936 220.835 321.546 220.888C319.601 220.961 317.437 220.231 315.531 220.151C314.003 220.085 311.912 220.716 310.529 220.144C310.496 220.131 310.423 220.105 310.323 220.078C310.601 218.956 310.542 216.671 310.535 215.934C310.456 210.64 310.39 205.453 310.515 200.147C310.555 198.553 311.217 196.826 310.218 195.949C310.403 195.684 310.535 195.338 310.601 194.86C311.038 191.845 310.495 189.64 310.403 186.797C310.264 182.753 310.886 177.699 310.416 173.846C310.323 173.083 310.059 172.678 309.245 172.551C302.615 171.509 295.554 174.511 290.982 178.934C288.441 181.385 285.284 186.558 284.967 190.032C284.781 192.044 285.145 194.05 285.218 196.056C285.264 196.129 285.311 196.188 285.364 196.255C285.337 196.341 285.311 196.421 285.298 196.521C285.066 198.48 285.39 200.964 285.311 203.009C285.099 208.342 284.682 213.636 285.099 218.995C285.159 219.48 285.364 219.826 285.675 220.071C285.582 220.038 285.489 220.005 285.384 219.992C283.233 219.666 280.123 219.693 277.919 219.766C274.287 219.892 269.939 220.815 266.412 220.589C265.42 220.53 263.646 220.682 262.561 220.795C262.594 218.836 261.866 215.927 261.853 214.818C261.813 210.68 262.343 206.35 262.283 202.06C262.27 200.95 262.396 199.423 262.283 198.42C262.27 198.327 262.244 198.254 262.224 198.181C262.336 197.424 262.058 196.62 262.038 195.89C261.979 192.934 262.078 188.192 261.079 185.509C259.22 180.521 254.243 175.706 248.989 174.564C246.018 173.913 243.511 174.311 240.579 174.311C239.216 174.311 237.866 173.614 237.701 175.819C237.456 179.04 238.369 182.334 238.283 185.562C238.243 187.01 237.767 188.591 237.674 190.012C237.568 191.586 237.873 192.981 237.886 194.475C237.886 195.053 237.628 195.617 237.654 196.096C237.687 196.7 238.078 196.76 238.23 197.158C238.25 197.205 238.263 197.251 238.27 197.304C238.012 197.444 237.727 197.663 237.635 197.822C236.94 198.998 238.058 203.886 237.654 205.533C237.224 208.402 237.436 211.358 237.449 214.22C237.462 216.385 237.198 219.261 237.436 221.32C237.489 221.758 237.615 222.057 237.787 222.276C237.416 223.512 237.661 225.458 237.721 226.314C238.673 239.969 246.991 245.728 259.921 245.933C260.583 245.947 261.628 245.668 261.992 245.561C262.25 245.741 262.574 245.86 262.978 245.894C268.887 246.418 278.647 241.404 282.393 236.901C283.65 235.393 284.656 233.461 285.384 231.362C285.231 235.048 284.768 238.661 285.225 242.46C285.284 242.931 285.403 243.33 285.569 243.669C285.264 244.034 285.033 244.446 284.927 244.811V247.036C285.178 249.54 285.178 252.429 284.927 254.933V264.244L285.35 266.349C285.35 266.349 285.37 266.389 285.377 266.409C284.106 266.177 281.599 266.409 280.626 266.356C276.093 266.13 271.653 265.904 267.1 266.157L262.31 265.778C262.197 265.805 262.105 265.845 262.019 265.891C261.727 265.765 261.416 265.659 261.244 265.632C252.49 264.31 246.647 267.107 241.492 274.472C239.004 278.025 237.926 286.599 238.561 290.936C238.859 292.989 241.704 291.733 243.08 291.693C244.814 291.647 246.316 292.198 248.149 292.145C251.769 292.039 255.832 291.182 259.451 291.248C260.1 291.262 260.53 291.355 261.006 291.368C261.688 291.388 261.985 291.129 262.124 290.697C262.707 291.434 263.772 291.308 265.499 291.248C271.302 291.062 277.476 291.023 283.266 291.169C284.159 291.189 284.59 291.488 285.529 291.089C285.708 291.016 285.847 290.93 285.959 290.83C286.363 291.149 286.866 291.096 287.435 291.076C291.954 290.916 298.77 289.057 302.681 286.719C307.438 283.876 310.085 276.544 310.423 271.218C310.562 269.079 310.734 267.452 309.695 266.701C310.132 266.11 310.383 265.373 310.37 264.543C310.337 262.079 309.589 259.243 309.549 256.852C309.49 253.033 310.046 248.949 309.933 245.13C309.926 244.897 309.9 244.698 309.86 244.505C310.628 244.472 311.448 244.233 312.103 244.24C314.664 244.266 315.558 244.771 318.218 243.709C325.318 240.873 331.578 234.045 332.2 226.168C332.286 225.099 333.086 220.483 332.18 220.423L332.173 220.384Z" fill="#222222"/>
</svg>
