<svg width="340" height="295" viewBox="0 0 340 295" fill="none" xmlns="http://www.w3.org/2000/svg">
<path d="M217.711 294.764C216.228 294.764 215.017 293.575 215.017 292.107V286.196C215.017 277.203 220.718 269.393 229.199 266.763C233.709 265.368 236.736 261.29 236.736 256.628C236.736 251.966 233.709 247.894 229.199 246.493C223.891 244.846 219.474 241.074 217.073 236.146C216.367 234.704 215.317 233.416 214.013 232.413C211.638 232.526 209.037 232.586 206.263 232.586H155.476C153.6 232.586 151.95 231.988 150.826 230.892C149.689 229.79 149.063 228.162 149.063 226.309V208.769C149.063 205.362 147.394 202.141 144.593 200.149C144.414 200.022 144.221 199.896 144.014 199.77H133.75C128.728 199.77 124.418 203.137 123.274 207.959C121.105 217.031 112.87 223.367 103.231 223.367H91.2845C89.422 223.367 87.5794 223.128 85.7967 222.657C84.0073 223.128 82.178 223.367 80.3554 223.367H68.4085C57.4794 223.367 48.6456 215.318 47.854 204.638C47.7276 202.905 47.1755 201.231 46.2642 199.783H25.5767C25.4969 199.783 25.417 199.783 25.3372 199.783L2.69403 199.797C1.97562 199.797 1.29713 199.518 0.79158 199.019C0.286033 198.521 0 197.851 0 197.14V167.665C0 165.148 0.425724 162.717 1.26387 160.439C2.37474 157.41 2.05545 154.096 0.37916 151.333C0.133039 150.902 0 150.43 0 149.952V126.381C0.00665194 124.914 1.2173 123.725 2.70069 123.725H56.4616C57.4661 123.725 58.4639 123.791 59.435 123.917C59.9073 123.984 60.3929 124.01 60.8785 124.01C63.4861 124.01 66.0005 123.08 67.9628 121.387C70.3043 119.368 71.6413 116.452 71.6413 113.384V79.1934C71.6413 77.7256 72.8453 76.5368 74.3354 76.5368H80.3088C85.6237 76.5368 90.7191 78.5226 94.524 82.0359V79.1934C94.524 77.7256 95.728 76.5368 97.218 76.5368H103.191C111.114 76.5368 118.192 80.8139 121.617 87.5484C123.373 84.0882 126.147 81.1792 129.546 79.2465C132.879 77.3537 134.941 73.827 134.941 70.0347V29.4485C134.941 27.7682 135.507 26.2937 136.538 25.2909C137.555 24.2946 139.039 23.75 140.722 23.75H162.307C162.693 23.75 163.072 23.75 163.451 23.75C163.498 23.75 163.551 23.75 163.604 23.75H185.19C188.389 23.75 191.276 23.8563 193.784 24.0688C194.596 23.8098 195.354 23.75 195.86 23.75H227.942C233.875 23.75 238.711 18.9814 238.711 13.1236V2.6566C238.711 1.18883 239.915 0 241.405 0H295.559C297.401 0 299.224 0.225811 300.973 0.684076C302.75 0.232453 304.572 0 306.401 0H318.435C330.062 0 339.176 8.9926 339.176 20.4691V26.4066C339.176 26.8915 339.043 27.3697 338.79 27.7814C337.093 30.5509 336.768 33.8783 337.892 36.9202C338.743 39.2181 339.176 41.6755 339.176 44.2258V97.67C339.176 99.1378 337.972 100.327 336.482 100.327H330.462C329.331 100.327 328.173 100.234 327.029 100.061C326.477 99.9747 325.918 99.9348 325.359 99.9348C320.251 99.9348 315.814 103.528 314.81 108.469C314.703 109 314.47 109.518 314.151 109.924C313.306 111.006 312.694 112.222 312.315 113.537C312.149 114.121 311.829 114.666 311.384 115.091C309.368 117.07 308.211 119.819 308.211 122.629C308.211 125.432 309.368 128.168 311.377 130.147C311.464 130.22 311.57 130.34 311.683 130.486C312.215 131.15 312.827 131.748 313.506 132.266C314.397 132.95 314.883 133.946 314.883 135.075V153.452C314.883 154.448 314.504 155.338 313.778 156.022C311.577 158.095 310.373 161.01 310.459 164.012C310.546 167.007 311.923 169.85 314.237 171.796C314.836 172.301 315.182 173.038 315.182 173.815L315.195 207.846C315.195 213.704 320.025 218.472 325.965 218.472H336.475C337.958 218.472 339.169 219.661 339.169 221.129V227.047C339.169 236.584 332.73 244.74 323.504 246.885C318.614 248.021 315.202 252.271 315.202 257.226V274.361C315.202 285.797 306.122 294.757 294.534 294.757H217.725L217.711 294.764Z" fill="#F769B9"/>
<path d="M251.442 142.333H252.958C253.417 142.333 253.796 141.988 253.85 141.536C253.936 140.699 254.608 140.035 255.446 139.949C255.865 139.909 256.204 139.57 256.244 139.152C256.337 138.235 257.102 137.551 258.02 137.551H260.149C260.608 137.551 260.987 137.206 261.04 136.754C261.127 135.924 261.799 135.26 262.624 135.173C263.083 135.127 263.422 134.742 263.422 134.283V132.756C263.422 132.298 263.076 131.919 262.624 131.866C261.792 131.78 261.127 131.109 261.04 130.285C260.994 129.827 260.608 129.488 260.149 129.488H256.224C255.765 129.488 255.386 129.834 255.333 130.285C255.247 131.115 254.575 131.78 253.75 131.866C253.291 131.912 252.952 132.298 252.952 132.756V134.881C252.952 135.798 252.266 136.561 251.355 136.654C250.903 136.701 250.557 137.086 250.557 137.544V141.45C250.557 141.941 250.956 142.34 251.448 142.34L251.442 142.333Z" fill="#222222"/>
<path d="M239.462 127.977H240.978C241.437 127.977 241.816 127.632 241.869 127.18C241.963 126.27 242.728 125.586 243.646 125.586H246.366C247.351 125.586 248.156 126.39 248.156 127.373V127.698C248.156 128.615 247.464 129.378 246.552 129.471C246.133 129.511 245.794 129.85 245.754 130.268C245.668 131.105 245.003 131.769 244.164 131.862C243.705 131.909 243.366 132.294 243.366 132.752V139.068C243.366 139.527 243.712 139.905 244.164 139.958C245.076 140.051 245.761 140.815 245.761 141.732V146.248C245.761 146.706 246.107 147.085 246.559 147.138C247.391 147.224 248.056 147.888 248.142 148.719C248.189 149.177 248.575 149.516 249.034 149.516H264.938C265.397 149.516 265.777 149.17 265.83 148.719C265.923 147.809 266.688 147.125 267.606 147.125H270.327C271.244 147.125 272.009 147.809 272.103 148.719C272.149 149.177 272.535 149.516 272.994 149.516H277.517C278.435 149.516 279.2 150.2 279.293 151.109C279.34 151.561 279.726 151.906 280.185 151.906H284.708C285.626 151.906 286.391 152.597 286.484 153.507C286.524 153.925 286.863 154.264 287.282 154.304C287.715 154.344 288.114 154.543 288.413 154.862C288.746 155.221 288.919 155.705 288.892 156.197C288.892 156.21 288.892 156.23 288.892 156.25V156.403C288.892 157.306 288.187 158.083 287.282 158.176C286.863 158.216 286.524 158.555 286.484 158.973C286.444 159.378 286.265 159.757 285.985 160.042C285.692 160.341 285.307 160.527 284.888 160.567C284.469 160.613 284.136 160.946 284.089 161.364C284.003 162.201 283.338 162.872 282.5 162.958C282.047 163.004 281.701 163.39 281.701 163.848V165.688C281.701 165.84 281.741 165.993 281.814 166.126C282.12 166.671 282.12 167.341 281.814 167.886C281.735 168.019 281.695 168.178 281.701 168.331V168.364C281.701 169.261 281.003 170.038 280.105 170.137C279.653 170.184 279.307 170.569 279.307 171.027V172.542C279.307 173.033 279.706 173.432 280.198 173.432H281.715C282.174 173.432 282.553 173.086 282.606 172.635C282.692 171.798 283.364 171.134 284.202 171.047C284.622 171.007 284.961 170.669 285.001 170.25C285.094 169.334 285.859 168.65 286.777 168.65H288.905C289.364 168.65 289.743 168.304 289.797 167.853C289.883 167.016 290.555 166.352 291.393 166.265C291.812 166.226 292.152 165.887 292.191 165.468C292.285 164.552 293.05 163.868 293.967 163.868H298.491C298.95 163.868 299.329 163.522 299.382 163.071C299.469 162.234 300.14 161.57 300.979 161.484C301.398 161.444 301.737 161.105 301.777 160.687C301.863 159.85 302.535 159.179 303.373 159.093C303.792 159.053 304.132 158.714 304.172 158.296C304.258 157.459 304.93 156.788 305.768 156.702C306.187 156.662 306.526 156.323 306.566 155.905C306.653 155.068 307.318 154.397 308.156 154.311C308.608 154.264 308.954 153.879 308.954 153.421V135.15C308.954 134.692 308.608 134.313 308.156 134.26C307.318 134.174 306.653 133.503 306.566 132.666C306.526 132.248 306.187 131.909 305.768 131.869C304.93 131.783 304.258 131.112 304.172 130.275C304.132 129.857 303.792 129.518 303.373 129.478C302.535 129.392 301.863 128.721 301.777 127.884C301.737 127.466 301.398 127.127 300.979 127.087C300.14 127.001 299.469 126.33 299.382 125.493C299.342 125.075 299.003 124.736 298.584 124.696C297.746 124.61 297.074 123.939 296.987 123.102C296.948 122.684 296.608 122.345 296.189 122.305C295.351 122.219 294.679 121.548 294.593 120.711C294.553 120.293 294.214 119.954 293.795 119.914C293.362 119.868 292.956 119.669 292.664 119.356C292.331 118.998 292.158 118.513 292.191 118.021C292.191 118.002 292.191 117.982 292.191 117.968V117.816C292.191 116.892 292.883 116.135 293.795 116.042C294.214 116.002 294.553 115.664 294.593 115.245C294.686 114.329 295.451 113.645 296.369 113.645H299.089C300.007 113.645 300.772 114.329 300.866 115.239C300.912 115.697 301.298 116.036 301.757 116.036H303.287C303.746 116.036 304.125 115.69 304.178 115.239C304.265 114.408 304.937 113.744 305.761 113.658C306.22 113.612 306.56 113.226 306.56 112.768V110.643C306.56 109.726 307.245 108.962 308.156 108.869C308.608 108.823 308.954 108.438 308.954 107.98V99.2725C308.954 98.8142 308.608 98.4357 308.156 98.3825C307.318 98.2962 306.653 97.6254 306.566 96.7886C306.526 96.3702 306.187 96.0314 305.768 95.9916C304.93 95.9052 304.258 95.2345 304.172 94.3976C304.132 93.9792 303.792 93.6405 303.373 93.6006C302.535 93.5143 301.87 92.8502 301.777 92.0133C301.73 91.5551 301.344 91.2163 300.885 91.2163H282.273C282.12 91.2163 281.967 91.2562 281.834 91.3359C281.568 91.4886 281.262 91.5683 280.956 91.5683C280.65 91.5683 280.344 91.4886 280.072 91.3359C279.939 91.2628 279.786 91.223 279.633 91.223H274.803C273.885 91.223 273.12 90.5389 273.027 89.629C272.981 89.1708 272.595 88.832 272.136 88.832H263.415C262.956 88.832 262.577 89.1774 262.524 89.629C262.437 90.4659 261.765 91.13 260.927 91.2163C260.508 91.2562 260.169 91.5949 260.129 92.0133C260.043 92.8502 259.371 93.5209 258.533 93.6073C258.114 93.6471 257.774 93.9858 257.734 94.4043C257.648 95.2411 256.983 95.9119 256.145 95.9982C255.692 96.0447 255.346 96.4299 255.346 96.8882V115.159C255.346 115.617 255.692 115.996 256.145 116.049C256.983 116.135 257.648 116.806 257.734 117.643C257.774 118.061 258.114 118.4 258.533 118.44C259.451 118.533 260.136 119.297 260.136 120.213V120.359C260.136 120.359 260.136 120.399 260.136 120.419C260.169 120.911 259.996 121.395 259.663 121.754C259.324 122.119 258.852 122.325 258.353 122.325H258.02C257.102 122.325 256.337 121.634 256.244 120.725C256.204 120.306 255.865 119.967 255.446 119.928C254.608 119.841 253.936 119.17 253.85 118.334C253.81 117.915 253.47 117.576 253.051 117.537C252.213 117.45 251.541 116.786 251.455 115.949C251.408 115.498 251.023 115.152 250.564 115.152H249.034C248.575 115.152 248.196 115.498 248.142 115.949C248.056 116.78 247.384 117.444 246.559 117.53C246.1 117.576 245.761 117.962 245.761 118.42V120.366C245.761 120.366 245.761 120.406 245.761 120.426C245.794 120.917 245.621 121.402 245.282 121.761C244.943 122.126 244.47 122.332 243.972 122.332H241.843C241.384 122.332 241.005 122.677 240.952 123.129C240.865 123.959 240.193 124.623 239.368 124.709C238.909 124.756 238.57 125.141 238.57 125.599V127.114C238.57 127.605 238.969 128.004 239.462 128.004V127.977ZM297.533 133.231C297.866 132.925 298.291 132.759 298.744 132.759C298.757 132.759 298.897 132.759 298.917 132.759H299.063C300.047 132.759 300.846 133.563 300.846 134.546V139.653C300.846 140.131 300.666 140.576 300.327 140.915C299.987 141.253 299.542 141.439 299.063 141.439H298.917C298.917 141.439 298.877 141.439 298.863 141.439C298.843 141.439 298.764 141.439 298.75 141.439H298.69C298.69 141.439 298.65 141.439 298.63 141.439C298.604 141.439 298.571 141.439 298.544 141.439C298.118 141.439 297.719 141.234 297.466 140.895C297.453 140.875 297.433 140.855 297.42 140.835C297.127 140.51 296.967 140.091 296.967 139.653V134.532C296.967 134.034 297.174 133.556 297.54 133.217L297.533 133.231ZM292.165 148.898C292.165 147.981 292.85 147.218 293.761 147.125C294.22 147.078 294.56 146.693 294.56 146.235V144.109C294.56 143.625 294.739 143.193 295.085 142.847C295.424 142.509 295.87 142.323 296.349 142.323H296.495C296.495 142.323 296.535 142.323 296.548 142.323H296.615H296.728C296.748 142.323 296.768 142.323 296.788 142.323C296.821 142.323 296.848 142.323 296.874 142.323C297.3 142.323 297.699 142.529 297.952 142.867C297.965 142.887 297.985 142.907 297.999 142.927C298.291 143.259 298.451 143.678 298.451 144.109V146.832C298.458 147.317 298.278 147.756 297.939 148.094C297.646 148.386 297.273 148.566 296.868 148.612C296.409 148.659 296.063 149.044 296.063 149.502V151.628C296.063 152.61 295.258 153.414 294.273 153.414H293.948C292.963 153.414 292.158 152.61 292.158 151.628V148.911L292.165 148.898ZM291.273 137.262C291.273 138.178 290.582 138.942 289.67 139.035C289.251 139.075 288.912 139.414 288.872 139.832C288.786 140.669 288.12 141.34 287.282 141.426C286.83 141.473 286.484 141.858 286.484 142.316V146.832C286.484 147.815 285.679 148.619 284.695 148.619H281.974C280.99 148.619 280.185 147.815 280.185 146.832V144.116C280.185 143.199 280.87 142.436 281.781 142.343C282.233 142.296 282.579 141.911 282.579 141.453V130.355C282.579 129.896 282.233 129.518 281.781 129.465C280.87 129.365 280.185 128.608 280.185 127.692V124.975C280.185 123.992 280.99 123.189 281.974 123.189H284.695C285.619 123.189 286.378 123.879 286.471 124.789C286.511 125.208 286.85 125.546 287.269 125.586C287.681 125.626 288.074 125.812 288.36 126.104C288.646 126.39 288.826 126.775 288.865 127.18C288.912 127.599 289.245 127.931 289.664 127.977C290.582 128.07 291.273 128.834 291.267 129.75V137.249L291.273 137.262ZM275.395 103.457C275.395 102.474 276.2 101.67 277.185 101.67H279.313C279.772 101.67 280.151 101.325 280.205 100.873C280.291 100.036 280.963 99.3721 281.801 99.2858C282.22 99.2459 282.559 98.9072 282.599 98.4888C282.692 97.5723 283.457 96.8882 284.375 96.8882H299.07C299.987 96.8882 300.752 97.5789 300.846 98.4888C300.885 98.9072 301.225 99.2459 301.644 99.2858C302.562 99.3788 303.247 100.143 303.247 101.059V103.782C303.247 104.274 303.041 104.752 302.675 105.09C302.342 105.396 301.91 105.569 301.458 105.569C301.444 105.569 301.305 105.569 301.285 105.569H292.165C291.932 105.569 291.699 105.662 291.533 105.828C291.367 105.994 291.273 106.22 291.273 106.459V110.955C291.273 111.871 290.582 112.635 289.67 112.728C289.251 112.768 288.912 113.107 288.872 113.525C288.779 114.442 288.014 115.126 287.096 115.126H286.95C286.95 115.126 286.79 115.126 286.777 115.126C286.324 115.126 285.892 114.953 285.559 114.648C285.194 114.309 284.987 113.831 284.987 113.339V105.834C284.987 104.851 285.792 104.048 286.777 104.048H288.885C289.378 104.048 289.777 103.649 289.777 103.158V101.657C289.777 101.165 289.378 100.767 288.885 100.767H284.974C284.515 100.767 284.136 101.112 284.083 101.564C283.996 102.394 283.331 103.058 282.5 103.144C282.041 103.191 281.701 103.576 281.701 104.034V113.339C281.701 113.831 281.495 114.309 281.129 114.648C280.797 114.96 280.364 115.126 279.912 115.126C279.899 115.126 279.759 115.126 279.739 115.126H277.191C276.207 115.126 275.402 114.322 275.402 113.339V103.45L275.395 103.457ZM261.02 98.6681C261.02 97.7516 261.712 96.9878 262.624 96.8948C263.043 96.855 263.382 96.5163 263.422 96.0978C263.508 95.261 264.18 94.5902 265.018 94.5039C265.437 94.464 265.777 94.1253 265.816 93.7069C265.91 92.7904 266.675 92.1063 267.593 92.1063H270.313C271.298 92.1063 272.103 92.9099 272.103 93.8929V94.039C272.103 94.039 272.103 94.0788 272.103 94.0988C272.136 94.5902 271.963 95.0751 271.63 95.4337C271.331 95.7525 270.932 95.9517 270.499 95.9982C270.08 96.0381 269.741 96.3768 269.701 96.7952C269.615 97.632 268.95 98.3028 268.111 98.3892C267.659 98.4357 267.313 98.8209 267.313 99.2791V100.807C267.313 101.265 267.659 101.644 268.111 101.697C269.023 101.79 269.708 102.553 269.708 103.47V110.975C269.708 111.466 269.502 111.944 269.136 112.283C268.803 112.589 268.371 112.761 267.918 112.761C267.905 112.761 267.766 112.761 267.746 112.761H267.593C266.608 112.761 265.803 111.958 265.803 110.975V104.081C265.803 103.589 265.404 103.191 264.912 103.191H262.976C262.976 103.191 262.816 103.191 262.803 103.191C262.351 103.191 261.918 103.018 261.586 102.713C261.22 102.374 261.014 101.903 261.014 101.404V98.6814L261.02 98.6681ZM261.02 115.405C261.02 114.913 261.227 114.435 261.593 114.096C261.925 113.791 262.357 113.618 262.81 113.618C262.823 113.618 262.963 113.618 262.983 113.618H263.136C264.12 113.618 264.925 114.422 264.925 115.405V115.73C264.925 116.713 264.12 117.517 263.136 117.517H262.81C261.825 117.517 261.02 116.713 261.02 115.73V115.398V115.405ZM249.054 131.975C249.14 131.138 249.805 130.468 250.643 130.381C251.102 130.335 251.442 129.95 251.442 129.491V127.366C251.442 126.383 252.247 125.58 253.231 125.58H255.952C256.87 125.58 257.635 126.264 257.728 127.173C257.774 127.632 258.16 127.97 258.619 127.97H260.748C261.666 127.97 262.431 128.661 262.524 129.571C262.564 129.989 262.903 130.328 263.322 130.368C264.16 130.454 264.832 131.119 264.918 131.955C264.965 132.407 265.351 132.752 265.81 132.752H267.326C267.819 132.752 268.218 132.354 268.218 131.862V129.757C268.218 128.774 269.023 127.97 270.007 127.97H270.333C271.251 127.97 272.016 128.661 272.109 129.571C272.149 129.989 272.488 130.328 272.907 130.368C273.825 130.461 274.511 131.225 274.511 132.141V134.858C274.511 135.774 273.819 136.538 272.907 136.631C272.488 136.671 272.149 137.01 272.109 137.428C272.016 138.344 271.251 139.029 270.333 139.029H270.007C269.089 139.029 268.324 138.344 268.231 137.435C268.185 136.983 267.799 136.638 267.34 136.638H265.823C265.331 136.638 264.932 137.036 264.932 137.528V142.024C264.932 142.94 264.24 143.704 263.329 143.797C262.91 143.837 262.57 144.176 262.53 144.594C262.437 145.511 261.672 146.195 260.754 146.195H253.244C252.326 146.195 251.561 145.504 251.468 144.594C251.428 144.176 251.089 143.837 250.67 143.797C249.752 143.704 249.067 142.94 249.067 142.024V139.899C249.067 139.44 248.721 139.062 248.269 139.009C247.357 138.916 246.672 138.152 246.672 137.235V134.519C246.672 133.602 247.364 132.839 248.275 132.746C248.694 132.706 249.034 132.367 249.074 131.949L249.054 131.975Z" fill="#222222"/>
<path d="M160.257 71.2708C160.257 72.2471 159.871 73.25 160.39 73.768C160.909 74.286 161.907 74.472 162.891 74.472C173.494 74.472 173.494 74.1798 184.104 74.1798C187.397 74.1798 190.284 73.9473 192.805 73.7149C195.326 73.4824 197.608 73.6617 199.47 73.2035C201.333 72.7519 202.789 71.842 204.047 71.1645C205.304 70.4871 206.175 69.6171 206.947 68.7205C207.712 67.8239 208.404 66.9538 208.73 65.838C209.056 64.7223 209.501 63.5135 209.501 62.1919C209.501 50.6954 209.142 50.6954 209.142 39.1989C209.142 37.8773 208.723 36.7681 208.397 35.6524C208.071 34.5366 208.098 33.2482 207.326 32.3515C206.554 31.4549 205.437 30.658 204.18 29.9872C202.922 29.3097 201.22 29.1171 199.357 28.6655C197.494 28.2139 195.359 27.5364 192.838 27.304C190.317 27.0715 187.397 27.3173 184.104 27.3173C173.501 27.3173 173.508 26.8125 162.898 26.6133C161.92 26.6133 161.188 27.3837 160.669 27.9017C160.15 28.4131 159.419 29.1371 159.419 30.1266C159.419 40.4143 159.691 40.4143 159.691 50.702C159.691 60.9897 160.264 60.9897 160.264 71.2774L160.257 71.2708ZM180.798 38.6211C181.077 38.3422 181.563 37.9038 182.102 37.9038C183.1 37.9038 183.1 38.1363 184.104 38.1363C184.949 38.1363 185.647 38.5149 186.233 38.5614C186.811 38.6078 187.217 38.5481 187.57 38.6942C187.922 38.8337 188.129 39.0528 188.288 39.3118C188.441 39.5709 188.867 39.8299 188.867 40.2549C188.867 50.6954 188.508 50.6888 188.295 61.1226C188.295 61.5476 188.421 61.8066 188.268 62.059C188.109 62.318 188.049 62.7165 187.696 62.8494C187.344 62.9822 186.851 63.2014 186.273 63.2545C185.694 63.3076 185.022 63.0088 184.177 63.0088C183.179 63.0088 183.113 63.1615 182.109 63.1615C181.576 63.1615 181.004 63.115 180.725 62.8361C180.446 62.5571 180.432 61.9926 180.432 61.4613C180.432 50.6888 180.712 50.6888 180.712 39.9229C180.712 39.3915 180.525 38.9001 180.805 38.6211H180.798Z" fill="#222222"/>
<path d="M213.765 71.2704C213.765 72.2467 214.064 73.2363 214.583 73.761C215.102 74.279 216.093 73.9536 217.078 73.9536C220.763 73.9536 220.75 74.5048 224.435 74.6177C228.113 74.7306 228.127 74.631 231.812 74.631C235.497 74.631 235.49 73.9004 239.175 73.9004C242.861 73.9004 242.854 73.9071 246.539 73.9071C250.224 73.9071 250.218 73.8805 253.903 73.8805C254.901 73.8805 255.326 73.7211 255.839 73.1964C256.351 72.6784 256.856 72.2467 256.856 71.2704C256.856 68.7001 257.322 68.7001 257.322 66.1299C257.322 65.1336 256.53 64.5226 256.025 64.0112C255.513 63.5065 254.907 62.9287 253.903 62.9287C249.606 62.9287 249.606 63.4998 245.302 63.4998C240.998 63.4998 241.005 63.0283 236.701 63.0283C236.036 63.0283 235.244 63.2143 234.898 62.8623C234.552 62.5103 234.632 61.7265 234.632 61.0624C234.632 59.1696 234.892 59.1696 234.892 57.2834C234.892 56.6059 234.905 56.1742 235.251 55.8289C235.597 55.4835 236.036 55.5433 236.701 55.5433C240.546 55.5433 240.546 54.8659 244.391 54.8659C248.235 54.8659 248.235 55.3573 252.08 55.3573C253.078 55.3573 253.916 55.0585 254.422 54.5338C254.934 54.0158 255.16 53.1922 255.16 52.2093C255.16 50.2434 255.42 50.2434 255.42 48.2775C255.42 47.2813 254.581 46.7964 254.076 46.285C253.564 45.7736 253.085 44.9899 252.08 44.9899C248.235 44.9899 248.235 45.5279 244.391 45.5279C240.546 45.5279 240.546 45.0032 236.701 45.0032C236.036 45.0032 235.716 44.8903 235.371 44.5383C235.025 44.1863 234.812 43.8742 234.812 43.2034C234.812 41.7688 234.971 41.7688 234.971 40.3276C234.971 39.6502 234.606 38.9063 234.951 38.561C235.297 38.2156 236.042 38.6141 236.708 38.6141C240.858 38.6141 240.858 38.4281 245.003 38.4281C249.147 38.4281 249.153 38.6539 253.298 38.6539C254.295 38.6539 255.38 38.3484 255.885 37.8238C256.397 37.3057 256.65 36.2364 256.65 35.2601C256.65 32.6899 256.47 32.6899 256.47 30.1196C256.47 29.1234 255.925 28.5124 255.413 28.001C254.901 27.4896 254.295 26.6328 253.291 26.6328C250.874 26.6328 248.459 26.6328 246.047 26.6328C242.422 26.6328 242.422 27.2505 238.803 27.2505C235.184 27.2505 235.184 27.4696 231.566 27.4696C227.947 27.4696 227.947 27.1774 224.322 27.1774C220.696 27.1774 220.703 27.3767 217.084 27.3767C216.107 27.3767 215.302 27.297 214.783 27.8084C214.264 28.3198 213.812 29.1234 213.812 30.1262C213.812 34.244 213.965 34.244 213.965 38.3617C213.965 42.4795 213.805 42.4795 213.805 46.5972C213.805 50.7149 214.124 50.7083 214.124 54.826C214.124 58.9438 213.951 58.9438 213.951 63.0549C213.951 67.1659 213.765 67.1659 213.765 71.2837V71.2704Z" fill="#222222"/>
<path d="M194.707 122.176C190.264 122.176 190.264 122.295 185.82 122.295C181.377 122.295 181.377 122.508 176.933 122.508C175.969 122.508 174.998 122.581 174.485 123.079C173.973 123.577 173.767 124.567 173.767 125.55C173.767 130.61 173.98 130.61 173.98 135.665C173.98 140.719 173.674 140.726 173.674 145.78C173.674 150.834 174.419 150.841 174.419 155.895C174.419 160.949 173.634 160.956 173.634 166.01C173.634 166.973 174.086 167.836 174.598 168.348C175.111 168.859 175.975 169.164 176.94 169.164C181.463 169.164 181.463 169.423 185.987 169.364C190.51 169.304 190.503 168.693 195.027 168.693C199.55 168.693 199.543 169.078 204.06 169.078C208.577 169.078 208.577 168.719 213.1 168.719C214.084 168.719 214.623 168.54 215.122 168.029C215.621 167.517 215.767 166.973 215.767 166.016C215.767 163.486 215.92 163.486 215.92 160.956C215.92 159.973 215.501 159.548 215.002 159.043C214.503 158.545 214.078 157.681 213.093 157.681C208.869 157.681 208.869 157.582 204.645 157.582C200.421 157.582 200.421 157.548 196.197 157.548C195.545 157.548 195.306 157.548 194.967 157.203C194.627 156.858 194.607 156.625 194.607 155.968C194.607 154.108 194.588 154.108 194.588 152.249C194.588 151.584 194.408 151.126 194.747 150.787C195.086 150.449 195.545 149.964 196.204 149.964C199.982 149.964 199.982 150.442 203.754 150.442C207.526 150.442 207.532 149.99 211.304 149.99C212.288 149.99 213.1 150.057 213.599 149.545C214.098 149.034 214.35 148.23 214.35 147.267C214.35 145.335 214.61 145.335 214.61 143.402C214.61 142.419 214.224 141.483 213.719 140.985C213.213 140.486 212.282 140.666 211.297 140.666C207.519 140.666 207.519 140.4 203.747 140.4C199.976 140.4 199.969 140.075 196.197 140.075C195.545 140.075 194.987 140.32 194.647 139.975C194.308 139.63 194.109 139.078 194.109 138.421C194.109 137.006 194.627 137.006 194.627 135.598C194.627 134.934 194.288 134.356 194.627 134.018C194.967 133.679 195.545 133.725 196.197 133.725C200.268 133.725 200.268 133.5 204.346 133.5C208.424 133.5 208.417 133.48 212.495 133.48C213.479 133.48 214.098 133.214 214.597 132.703C215.095 132.191 215.628 131.574 215.628 130.61C215.628 128.08 215.142 128.08 215.142 125.556C215.142 124.573 215.388 123.663 214.889 123.159C214.39 122.654 213.472 122.262 212.495 122.262C208.051 122.262 208.051 122.8 203.601 122.8C199.151 122.8 199.157 122.189 194.707 122.189V122.176Z" fill="#222222"/>
<path d="M233.508 210.203C233.508 209.313 233.169 208.536 233.069 207.732C232.963 206.928 233.056 206.204 232.763 205.5C232.477 204.803 232.237 204.305 231.739 203.734C231.24 203.163 230.461 202.844 229.67 202.439C228.898 202.04 228.326 201.263 228.326 200.818C228.326 200.373 228.812 199.437 229.543 198.992C230.235 198.573 231.007 198.095 231.446 197.531C231.885 196.966 232.184 196.488 232.437 195.81C232.69 195.133 232.61 194.668 232.696 193.891C232.783 193.121 232.963 192.35 232.963 191.493C232.963 189.069 232.976 189.069 232.976 186.645C232.976 185.078 233.355 183.564 233.009 182.295C232.663 181.026 231.592 179.957 230.754 178.974C229.916 177.991 228.685 177.659 227.282 176.942C225.878 176.225 224.308 175.487 222.206 175.029C220.111 174.564 217.743 173.375 214.869 173.156C211.996 172.944 208.63 173.309 204.838 173.309C197.98 173.309 197.98 173.269 191.122 173.269C184.264 173.269 184.264 173.103 177.406 173.103C176.222 173.103 175.457 173.794 174.825 174.405C174.199 175.016 173.873 175.766 173.873 176.942C173.873 185.091 173.7 185.091 173.7 193.234C173.7 201.376 173.434 201.383 173.434 209.525C173.434 217.668 173.587 217.674 173.587 225.817C173.587 226.979 174.286 227.643 174.911 228.261C175.536 228.879 176.222 229.769 177.406 229.769C184.264 229.769 184.264 229.695 191.122 229.576C197.98 229.456 197.973 229.045 204.832 229.045C208.623 229.045 211.922 228.706 214.816 228.493C217.71 228.281 220.384 229.031 222.532 228.573C224.674 228.115 226.457 227.205 227.894 226.488C229.331 225.77 230.688 224.993 231.572 224.01C232.457 223.027 233.016 221.706 233.388 220.437C233.761 219.169 233.408 217.681 233.408 216.114C233.408 213.151 233.501 213.151 233.501 210.183L233.508 210.203ZM199.344 186.658C199.663 186.353 200.721 186.014 201.299 185.901C203.275 185.509 202.463 185.397 204.472 185.397C205.131 185.397 205.749 185.616 206.255 185.662C206.761 185.709 206.98 186.101 207.313 186.247C207.645 186.393 208.038 186.672 208.204 186.931C208.377 187.196 208.41 187.509 208.41 187.914C208.41 190.697 208.816 189.388 208.816 192.171C208.816 192.576 208.57 194.329 208.404 194.588C208.231 194.847 207.865 195.06 207.532 195.199C207.2 195.346 206.721 195.286 206.215 195.339C205.71 195.392 205.131 195.153 204.472 195.153C202.463 195.153 202.463 195.306 200.448 195.306C199.863 195.306 199.191 195.532 198.871 195.226C198.559 194.914 198.978 194.243 198.978 193.672C198.978 190.71 198.712 190.723 198.412 187.761C198.412 187.177 199.031 186.964 199.344 186.658ZM208.769 215.981C208.597 216.24 208.231 216.446 207.898 216.592C207.565 216.738 207.087 216.671 206.581 216.725C206.075 216.778 205.497 216.539 204.838 216.539C202.643 216.539 202.643 216.691 200.448 216.691C199.863 216.691 199.191 216.924 198.871 216.612C198.559 216.3 198.978 215.635 198.978 215.058C198.978 211.551 198.718 211.564 198.412 208.064C198.412 207.48 199.031 207.274 199.344 206.968C199.663 206.663 200.588 206.47 201.16 206.351C203.315 205.906 202.643 205.706 204.838 205.706C205.497 205.706 206.109 205.925 206.621 205.972C207.126 206.018 207.333 206.324 207.665 206.47C207.998 206.61 208.404 206.975 208.57 207.241C208.736 207.506 208.776 207.818 208.776 208.223C208.776 211.551 209.169 210.8 209.169 214.128C209.169 214.533 208.936 215.722 208.769 215.974V215.981Z" fill="#222222"/>
<path d="M329.189 28.7584C331.245 28.785 335.841 30.0402 336.107 27.0183C336.64 20.9746 331.524 10.9791 326.928 7.15358C322.99 3.87932 316.251 2.2123 311.129 2.90966C311.043 2.88309 310.957 2.86316 310.857 2.84988C308.788 2.52445 303.759 3.04249 301.657 3.55388C297.393 4.58996 291.912 8.42211 289.577 12.1347C289.105 12.8852 288.373 15.0636 287.775 17.169C287.508 13.5892 287.096 9.94966 287.116 6.30347C287.116 5.37366 287.708 4.13169 287.016 3.32807C286.464 2.68384 284.582 2.90966 283.704 2.89637C278.735 2.82996 273.28 3.51403 268.391 3.32807C266.907 3.2683 262.53 1.54815 262.091 3.83947C262.025 6.94105 262.158 10.0493 262.105 13.1442C262.098 13.5161 261.885 13.8084 261.885 13.8416C261.852 16.6642 261.765 19.6994 261.885 22.5088C261.885 22.5353 262.085 22.7412 262.098 23.0069C262.337 27.5098 261.193 28.4396 266.548 28.2935C267.606 28.2669 268.644 28.2072 269.681 28.1474C266.109 30.6313 263.136 34.4967 262.258 38.5148C261.592 41.5566 261.998 44.1202 261.998 47.1222C261.998 48.052 261.686 48.9752 262.145 49.5397C261.972 49.8519 261.859 50.1839 261.825 50.4629C261.333 54.5806 262.038 59.6547 261.2 63.8721C261.386 66.801 261.074 70.3011 261.413 73.1702C261.739 75.9596 266.561 73.9207 268.344 73.8808C273.952 73.748 279.074 74.4985 284.901 74.1399C285.712 74.0867 286.883 74.7044 287.083 73.1835C287.362 71.118 287.016 68.302 287.289 66.1501C286.125 61.1756 287.528 55.5171 287.083 50.6754C287.023 50.0445 286.79 49.6061 286.451 49.294C286.484 49.274 286.524 49.2541 286.557 49.2276C286.876 48.9818 287.003 48.3642 287.043 47.959C287.389 44.4722 286.684 40.5869 286.823 37.0205C286.93 34.3107 287.123 30.8571 287.488 28.2005C287.522 27.9614 287.615 27.6958 287.708 27.4301C289.158 28.692 291.127 28.154 293.076 28.1872C298.205 28.2736 303.453 27.5364 308.595 27.6758C309.121 27.6891 310.138 27.6227 310.511 27.5962C310.511 27.6161 310.511 27.636 310.511 27.6493C310.351 27.895 310.245 28.2537 310.205 28.7783C309.952 32.0659 310.89 35.4265 310.804 38.714C310.764 40.1885 310.271 41.8023 310.178 43.2502C310.072 44.8508 310.384 46.2787 310.391 47.7996C310.391 48.3907 310.125 48.9619 310.152 49.4467C310.185 50.0312 310.544 50.1175 310.71 50.4762C310.431 50.5891 310.138 50.8016 309.826 51.1868V54.0759L310.045 54.7732C310.551 60.817 309.32 68.1027 310.025 73.9937C310.085 74.4653 310.245 74.8439 310.484 75.1427C310.511 75.6475 310.604 76.1788 310.584 76.6238C310.557 77.2016 310.364 77.7329 310.358 78.2576C310.251 88.3527 316.152 95.8709 326.05 97.9032C327.553 98.2087 333.926 98.9127 334.877 98.1423C335.821 97.3785 335.156 95.3927 335.136 94.3898C335.037 89.2227 334.824 84.0556 334.93 78.8753C334.943 78.1314 335.183 76.8695 335.203 75.7737C335.782 75.2756 335.476 74.4188 335.469 73.5886C335.396 67.7507 335.382 61.8663 335.469 56.0285C335.489 54.926 336.074 52.2826 335.362 51.0473C335.329 50.4429 335.156 49.8253 335.15 49.2541C335.09 46.2455 335.189 41.4039 334.165 38.6676C332.668 34.6694 329.189 30.7841 325.158 28.7385C326.502 28.7385 327.839 28.7451 329.176 28.7651L329.189 28.7584Z" fill="#222222"/>
<path d="M188.474 97.3905C190.962 94.0764 192.04 86.08 191.408 82.0353C191.095 80.0495 187.623 81.338 186.366 81.2317C183.346 80.9727 180.386 80.9793 177.372 81.3645C175.124 81.6501 174.865 81.5306 172.457 81.4575C171.931 81.4442 169.583 81.3048 169.057 81.3446C168.751 81.3645 168.519 81.4641 168.332 81.597C167.787 81.3313 167.115 81.2184 166.496 81.1653C163.576 80.9063 158.441 81.4243 155.7 82.4737C149.461 84.858 145.137 92.3363 144.585 98.7586C144.472 100.047 144.412 103.394 144.605 104.583C144.618 104.67 144.638 104.743 144.651 104.809C144.638 104.822 144.625 104.836 144.612 104.849V107.665L144.831 108.349C145.323 114.24 144.126 121.353 144.811 127.105C144.858 127.51 144.997 127.842 145.19 128.114C145.177 128.147 145.17 128.181 145.164 128.214C145.011 128.048 144.831 127.935 144.618 127.902C143.627 128.107 142.616 128.034 141.625 128.127C141.02 128.181 140.454 128.513 139.782 128.526C138.891 128.546 138.006 128.094 137.155 128.094C136.416 128.094 135.166 128.566 134.541 128.506C134.161 128.473 133.889 128.048 133.483 127.948C130.383 127.191 127.283 128.732 124.223 128.519C123.392 128.459 122.407 128.174 121.629 128.141C121.689 127.941 121.742 127.729 121.762 127.47C122.042 124.435 121.363 121.028 121.343 118.006C121.323 115.509 121.416 112.839 121.556 110.348C121.629 109.08 122.434 105.726 121.649 104.816C121.649 104.816 121.636 104.802 121.629 104.802C122.022 103.58 121.769 101.608 121.709 100.744C120.758 87.1626 112.436 81.4376 99.5114 81.2317C98.7065 81.2184 98.0214 80.6472 97.2963 81.6368C96.671 82.5002 97.2232 82.8522 97.1899 83.5496C96.8972 89.7063 97.5225 95.8696 97.3961 102.106C97.3828 102.903 97.0502 103.64 97.1899 104.484C96.6378 105.081 97.0968 106.078 97.13 107.525C97.2498 113.284 96.6511 119.075 96.9105 124.86C96.9504 125.723 97.0103 127.291 97.1367 128.061C97.1633 128.227 97.2165 128.366 97.283 128.493C96.7908 129.688 97.0635 131.84 97.13 132.75C98.0813 146.332 106.403 152.057 119.328 152.263C120.026 152.276 120.631 152.701 121.25 152.17C121.642 152.229 122.826 152.402 123.445 152.336C124.084 152.263 124.622 152.249 125.234 152.263C134.92 152.469 142.523 147.175 145.064 138.621C145.23 141.377 145.436 144.107 145.496 146.538C145.523 147.74 145.224 148.783 145.29 149.965C145.323 150.582 145.396 151.061 145.51 151.439C145.071 151.811 144.778 152.356 144.758 153.159C144.678 156.048 145.024 159.09 144.931 162.032C144.811 165.911 144.266 169.69 144.745 173.682C144.765 173.854 144.798 174.007 144.831 174.16C144.818 174.16 144.804 174.146 144.785 174.146C142.969 173.708 140.148 173.781 138.192 173.668C137.933 173.655 137.733 173.456 137.707 173.456C137.175 173.429 136.623 173.456 136.09 173.456C133.064 173.469 129.718 173.735 126.678 173.834C125.341 173.874 123.152 173.668 121.982 174.618C121.862 174.485 121.736 174.366 121.662 174.326C121.077 174 117.565 173.941 116.667 173.994C111.438 174.306 107.993 175.767 104.095 179.167C99.6644 183.033 98.8263 185.669 98.0081 190.445C97.875 188.957 97.7287 187.483 97.7154 186.081C97.6954 183.584 97.7886 180.914 97.9283 178.424C98.0014 177.155 98.8063 173.801 98.0214 172.891C97.9482 172.805 97.8351 172.738 97.6888 172.679C97.7553 172.612 97.8019 172.552 97.8285 172.506C98.1544 171.922 98.2143 168.415 98.1611 167.518C97.8484 162.298 96.3784 158.858 92.9792 154.966C90.4714 152.097 88.4825 150.742 86.0878 149.918C88.416 149.978 90.7242 150.011 92.9726 149.971C94.2697 149.945 95.7464 149.991 96.4781 148.749C96.8972 148.032 96.4781 147.76 96.4715 147.122C96.3185 141.058 96.0125 135.001 91.3561 130.571C86.7464 126.188 81.3716 125.298 75.2119 125.052C74.3671 125.019 73.7684 125.066 73.3294 125.198C72.9502 124.986 72.4979 125.019 71.9924 125.039C67.469 125.198 60.6575 127.045 56.7461 129.369C53.6197 131.229 51.4113 135.015 50.1674 138.893C50.1674 136.303 50.1873 133.713 50.2272 131.129C50.2472 129.854 51.0654 126.434 49.582 125.75C49.3425 125.637 46.9146 125.384 46.5021 125.384C45.5642 125.384 44.2338 125.756 43.2693 125.803C38.1074 126.035 33.4644 125.929 28.3224 125.816C27.0319 125.79 26.2869 125.106 25.2026 126.414V129.23L25.4222 129.914C25.9144 135.805 24.7171 142.918 25.4022 148.67C25.6949 151.1 28.8745 150.928 30.757 150.775C31.4355 150.722 32.0475 150.403 32.7725 150.37C33.7304 150.323 34.7216 150.33 35.726 150.37C30.8302 152.84 27.3712 157.403 26.1073 163.553C25.8745 164.696 25.4089 168.7 25.5685 170.859C25.5485 170.879 25.5286 170.905 25.5086 170.925C24.6239 172.187 25.482 175.388 25.502 176.943C25.5485 181.366 25.1494 185.995 25.0763 190.425C25.0497 192.165 24.4177 196.595 26.7991 196.595C28.4621 196.595 30.6506 196.05 32.4533 196.017C37.5686 195.917 42.8702 196.502 47.9988 196.595C49.5687 196.621 50.1408 195.758 50.327 194.27C50.5598 192.431 50.0676 189.502 50.1141 187.41C50.2139 182.814 51.0321 177.487 50.5266 172.918C50.4534 172.274 50.2671 171.829 50.0011 171.523C50.2804 170.972 50.0343 170.414 50.041 169.703C50.0809 164.616 50.1008 159.449 50.0609 154.414C50.0543 153.199 50.1807 151.552 50.1208 150.264C50.2671 150.064 50.3204 149.832 50.3337 149.573C50.8259 149.732 51.4778 149.785 52.3492 149.712C55.3625 149.46 60.2783 149.134 63.2783 149.327C66.0389 149.5 67.8948 150.376 70.8482 149.845C71.1941 149.785 72.4979 149.832 73.3361 149.447C73.376 149.447 73.4026 149.453 73.4425 149.46C73.4624 149.985 73.8017 150.483 73.8616 150.948C73.9879 151.937 74.2208 154.062 74.1675 154.972C74.1077 156.042 73.489 157.31 73.4558 158.393C73.3693 160.963 73.9347 164.091 74.0811 166.648C74.1942 168.554 73.4558 169.876 73.9613 171.809C74.0013 171.961 74.0545 172.101 74.1143 172.22C72.8239 172.738 73.5024 173.834 73.5356 175.594C73.6553 181.352 73.0567 187.144 73.3161 192.929C73.356 193.792 73.4159 195.359 73.5423 196.13C73.5755 196.349 73.662 196.528 73.7684 196.681C73.4225 197.259 73.2895 198.016 73.223 198.7C72.9635 201.616 73.4824 206.743 74.5334 209.479C76.9215 215.709 84.4115 220.026 90.844 220.577C92.1344 220.69 95.487 220.75 96.6777 220.557C97.3695 220.444 97.3096 220.212 97.6755 219.84C97.7287 219.787 97.7686 219.747 97.8152 219.707C97.9416 220.239 98.2276 220.537 98.8795 220.644C105.245 221.68 112.017 218.691 116.407 214.294C118.842 211.857 121.875 206.71 122.181 203.256C122.314 201.762 122.155 200.274 122.035 198.78C123.239 200.022 125.474 199.915 127.35 199.809C132.212 199.537 137.181 199.178 142.084 199.205C142.709 199.205 143.288 199.477 143.873 199.411C144.565 199.331 145.177 198.946 145.649 198.415C146.008 198.62 146.594 198.826 146.867 198.866C155.621 200.095 161.461 197.491 166.616 190.617C169.104 187.303 170.182 179.307 169.55 175.262C169.53 175.129 169.49 175.016 169.45 174.91C169.922 174.253 170.202 173.436 170.202 172.679C170.202 167.751 169.789 163.029 169.975 157.974C170.029 156.58 170.607 153.79 169.836 152.143C170.494 151.426 169.955 150.264 169.929 149.36C169.776 143.137 170.035 136.861 170.128 130.618C170.142 129.728 170.727 128.964 169.749 128.194C169.749 128.194 169.729 128.187 169.723 128.181C169.776 127.742 169.656 127.218 169.649 126.706C169.576 121.014 169.563 115.269 169.649 109.578C169.663 108.761 169.995 107.067 169.849 105.772C177.984 106.629 183.552 103.972 188.488 97.3971L188.474 97.3905Z" fill="#222222"/>
<path d="M333.919 220.384C331.784 220.244 331.019 220.217 330.147 220.297C329.542 220.35 328.564 220.091 327.739 220.158C326.316 220.277 324.633 220.835 323.236 220.888C321.28 220.961 319.105 220.231 317.189 220.151C315.653 220.085 313.551 220.716 312.161 220.144C312.127 220.131 312.054 220.105 311.954 220.078C312.234 218.956 312.174 216.671 312.167 215.934C312.087 210.64 312.021 205.453 312.147 200.147C312.187 198.553 312.852 196.826 311.848 195.949C312.034 195.684 312.167 195.338 312.234 194.86C312.673 191.845 312.127 189.64 312.034 186.797C311.894 182.753 312.52 177.699 312.047 173.846C311.954 173.083 311.688 172.678 310.87 172.551C304.205 171.509 297.107 174.511 292.511 178.934C289.956 181.385 286.783 186.558 286.464 190.032C286.278 192.044 286.644 194.05 286.717 196.056C286.763 196.129 286.81 196.188 286.863 196.255C286.837 196.341 286.81 196.421 286.797 196.521C286.564 198.48 286.89 200.964 286.81 203.009C286.597 208.342 286.178 213.636 286.597 218.995C286.657 219.48 286.863 219.826 287.176 220.071C287.083 220.038 286.99 220.005 286.883 219.992C284.721 219.666 281.595 219.693 279.38 219.766C275.728 219.892 271.358 220.815 267.812 220.589C266.814 220.53 265.032 220.682 263.941 220.795C263.974 218.836 263.242 215.927 263.229 214.818C263.189 210.68 263.721 206.35 263.661 202.06C263.648 200.95 263.774 199.423 263.661 198.42C263.648 198.327 263.621 198.254 263.601 198.181C263.714 197.424 263.435 196.62 263.415 195.89C263.355 192.934 263.455 188.192 262.451 185.509C260.581 180.521 255.579 175.706 250.298 174.564C247.311 173.913 244.79 174.311 241.843 174.311C240.473 174.311 239.116 173.614 238.949 175.819C238.703 179.04 239.621 182.334 239.535 185.562C239.495 187.01 239.016 188.591 238.923 190.012C238.816 191.586 239.122 192.981 239.136 194.475C239.136 195.053 238.876 195.617 238.903 196.096C238.936 196.7 239.328 196.76 239.481 197.158C239.501 197.205 239.515 197.251 239.521 197.304C239.262 197.444 238.976 197.663 238.883 197.822C238.184 198.998 239.309 203.886 238.903 205.533C238.47 208.402 238.683 211.358 238.697 214.22C238.71 216.385 238.444 219.261 238.683 221.32C238.736 221.758 238.863 222.057 239.036 222.276C238.663 223.512 238.909 225.458 238.969 226.314C239.927 239.969 248.289 245.728 261.287 245.933C261.952 245.947 263.003 245.668 263.369 245.561C263.628 245.741 263.954 245.86 264.36 245.894C270.3 246.418 280.112 241.404 283.877 236.901C285.14 235.393 286.151 233.461 286.883 231.362C286.73 235.048 286.265 238.661 286.724 242.46C286.783 242.931 286.903 243.33 287.069 243.669C286.763 244.034 286.531 244.446 286.424 244.811V247.036C286.677 249.54 286.677 252.429 286.424 254.933V264.244L286.85 266.349C286.85 266.349 286.87 266.389 286.877 266.409C285.599 266.177 283.078 266.409 282.1 266.356C277.544 266.13 273.08 265.904 268.504 266.157L263.688 265.778C263.575 265.805 263.482 265.845 263.395 265.891C263.103 265.765 262.79 265.659 262.617 265.632C253.816 264.31 247.943 267.107 242.761 274.472C240.26 278.025 239.175 286.599 239.814 290.936C240.113 292.989 242.974 291.733 244.357 291.693C246.1 291.647 247.61 292.198 249.453 292.145C253.091 292.039 257.176 291.182 260.814 291.248C261.466 291.262 261.899 291.355 262.377 291.368C263.063 291.388 263.362 291.129 263.502 290.697C264.087 291.434 265.158 291.308 266.894 291.248C272.728 291.062 278.934 291.023 284.755 291.169C285.653 291.189 286.085 291.488 287.03 291.089C287.209 291.016 287.349 290.93 287.462 290.83C287.868 291.149 288.373 291.096 288.945 291.076C293.489 290.916 300.34 289.057 304.271 286.719C309.054 283.876 311.715 276.544 312.054 271.218C312.194 269.079 312.367 267.452 311.322 266.701C311.761 266.11 312.014 265.373 312.001 264.543C311.968 262.079 311.216 259.243 311.176 256.852C311.116 253.033 311.675 248.949 311.562 245.13C311.555 244.897 311.529 244.698 311.489 244.505C312.26 244.472 313.085 244.233 313.744 244.24C316.318 244.266 317.216 244.771 319.89 243.709C327.028 240.873 333.32 234.045 333.946 226.168C334.032 225.099 334.837 220.483 333.926 220.423L333.919 220.384Z" fill="#222222"/>
</svg>
